<?xml version="1.0" encoding="utf-8"?>
<!-- Generator: Adobe Illustrator 21.0.2, SVG Export Plug-In . SVG Version: 6.00 Build 0)  -->
<svg version="1.1" id="Layer_1" xmlns="http://www.w3.org/2000/svg" xmlns:xlink="http://www.w3.org/1999/xlink" x="0px" y="0px"
	 viewBox="0 0 2267.7 413.9" style="enable-background:new 0 0 2267.7 413.9;" xml:space="preserve">
<style type="text/css">
	.st0{fill:#E42313;}
</style>
<g>
	<path class="st0" d="M1474.4,128.6c0,70.4-57.3,127.7-127.7,127.7h-95.9l55.8-69.3h94l26.5-11.1l23.9-47.3l-66.2-39l-6.1-23.4
		l-44.9-19.5L1306.7,1l-55.8,55.9V1h100.4C1417.2,1,1474.4,58.2,1474.4,128.6z M585.4,128.6c0,70.4-57.3,127.6-127.7,127.6h-95.6V1
		h95.6C528.1,1,585.4,58.2,585.4,128.6z M529.1,128.6c0-39.4-32-71.8-71.4-71.8H418v143.6h39.7C497.1,200.4,529.1,168,529.1,128.6z
		 M2042,128.6c0,70.4-57.3,127.6-127.7,127.6h-95.6V1h95.6C1984.7,1,2042,58.2,2042,128.6z M1985.7,128.6c0-39.4-32-71.8-71.4-71.8
		h-39.7v143.6h39.7C1953.6,200.4,1985.7,168,1985.7,128.6z M0,256.3h55.9v-99.7h94.4v-55.9H55.9V56.8h105.3V1H0V256.3z M811.1,56.8
		V1H650v255.3h161.2v-55.9H705.9v-43.8h94.4v-55.9h-94.4V56.8H811.1z M1117.4,256.3h55.9V1h-55.9V256.3z M939.6,1h-55.9v252.3v3
		h161.1v-55.9H939.6V1z M233.7,256.3h55.9V1h-55.9V256.3z M2267.7,56.8V1h-161.2v255.3h161.2v-55.9h-105.3v-43.8h94.4v-55.9h-94.4
		V56.8H2267.7z M1603.6,1h55.9l101.9,255.3h-55.9l-19.6-49.1h-108.7l-19.7,49.2h-55.9L1603.6,1z M1599.5,151.3h64.1l-32-80.2
		L1599.5,151.3z"/>
	<path class="st0" d="M505.1,396c6.3,4,13.7,5.8,18.2,5.8c4.6,0,8.1-1.9,8.1-6.2c0-5.3-5.5-5.8-12.9-8.2c-8-2.6-15.2-6.5-15.2-16.6
		c0-10.8,8.2-17.5,20.3-17.5c5.7,0,12.6,1.5,17.7,4.2v12.6c-6.1-3.8-13.3-5.6-17.7-5.6c-4.3,0-7.5,1.6-7.5,5.4
		c0,5.2,5.4,5.5,12.3,7.9c8.7,2.9,15.8,7,15.8,17.2c0,11.2-8.6,18.1-21.1,18.1c-5.7,0-12.7-1.5-18-4.1V396z M575.5,354.1h35.7v11.1
		h-23.1v11.4h19.8v10.5h-19.8v13.8h23.9V412h-36.6V354.1z M673.6,353.2c7,0,13.2,2,17.7,4.4v12.8c-4.9-3.4-11.2-5.8-17.5-5.8
		c-11.7,0-19.2,8.3-19.2,18.6c0,10,7.2,18.6,19.1,18.6c2.6,0,5.2-0.5,7.1-1.3v-8.7h-10.1v-10.5h22.4v26.8
		c-5.3,2.9-12.5,4.8-19.7,4.8c-18.6,0-31.6-12.6-31.6-29.6C641.8,366.2,655.1,353.2,673.6,353.2z M726.6,384.3v-30.1h12.7v29.7
		c0,12.1,2.7,17.6,12.8,17.6c9.2,0,12.7-5.1,12.7-17.6v-29.7H777V384c0,8.7-1.2,15-4.5,19.7c-4,5.8-11.5,9.3-20.8,9.3
		c-9.3,0-16.8-3.5-20.8-9.5C727.8,398.8,726.6,392.5,726.6,384.3z M811,354.1h18.1c13.2,0,24.9,3.6,24.9,17.4
		c0,7.5-4.1,13.5-11.7,16l16.3,24.4H844l-14.6-22.8h-5.7V412H811V354.1z M830.1,379.6c7.2,0,11.3-1.8,11.3-7.2c0-5-3.4-7.2-12.8-7.2
		h-4.9v14.4H830.1z M884.6,383c0-16.8,13-29.8,30.2-29.8c17.2,0,30.2,13,30.2,29.8c0,16.9-13,29.9-30.2,29.9
		C897.6,412.9,884.6,399.9,884.6,383z M932.3,383c0-10.2-7.5-18.3-17.5-18.3c-10,0-17.5,8.1-17.5,18.3c0,10.2,7.5,18.3,17.5,18.3
		C924.8,401.4,932.3,393.3,932.3,383z M976.6,396c6.2,4,13.6,5.8,18.1,5.8c4.6,0,8.1-1.9,8.1-6.2c0-5.3-5.4-5.8-12.9-8.2
		c-8-2.6-15.2-6.5-15.2-16.6c0-10.8,8.1-17.5,20.3-17.5c5.7,0,12.6,1.5,17.6,4.2v12.6c-6.1-3.8-13.3-5.6-17.7-5.6
		c-4.3,0-7.5,1.6-7.5,5.4c0,5.2,5.3,5.5,12.3,7.9c8.7,2.9,15.7,7,15.7,17.2c0,11.2-8.5,18.1-21,18.1c-5.8,0-12.7-1.5-18-4.1V396z
		 M1089.9,354.1h16.2c23.1,0,35.5,10.3,35.5,28.9c0,17.8-11.2,29-36,29h-15.6V354.1z M1106.1,400.9c16,0,22.7-6.5,22.7-17.9
		c0-6-2.4-11.2-6.7-14.2c-4.1-2.9-9.6-3.5-16.1-3.5h-3.4v35.7H1106.1z M1173.3,354.1h35.7v11.1h-23v11.4h19.8v10.5H1186v13.8h23.9
		V412h-36.6V354.1z M1241.7,396c6.3,4,13.6,5.8,18.2,5.8c4.6,0,8.1-1.9,8.1-6.2c0-5.3-5.5-5.8-12.9-8.2c-8-2.6-15.2-6.5-15.2-16.6
		c0-10.8,8.1-17.5,20.3-17.5c5.7,0,12.6,1.5,17.7,4.2v12.6c-6.2-3.8-13.3-5.6-17.8-5.6c-4.3,0-7.4,1.6-7.4,5.4
		c0,5.2,5.4,5.5,12.3,7.9c8.7,2.9,15.7,7,15.7,17.2c0,11.2-8.5,18.1-21,18.1c-5.8,0-12.7-1.5-18-4.1V396z M1312.1,354.1h16.3
		c23,0,35.4,10.3,35.4,28.9c0,17.8-11.3,29-36,29h-15.7V354.1z M1328.4,400.9c16,0,22.7-6.5,22.7-17.9c0-6-2.4-11.2-6.7-14.2
		c-4-2.9-9.6-3.5-16.1-3.5h-3.4v35.7H1328.4z M1395.5,354.1h35.8v11.1h-23.1v11.4h19.9v10.5h-19.9v13.8h23.9V412h-36.6V354.1z
		 M1518.9,369.4l-11.7,4.2v-11.5l24.5-8.9V412h-12.7V369.4z M1571.1,395.4c0-6.2,3.5-11.6,9.7-14v-0.2c-5.1-2-7.9-6.5-7.9-11.8
		c0-9.3,8.7-16.2,20-16.2c11.3,0,19.9,6.9,19.9,16.2c0,5.3-2.7,9.8-7.9,11.8v0.2c6.3,2.4,9.8,7.7,9.8,14c0,10.4-9.3,17.5-21.8,17.5
		C1580.4,412.9,1571.1,405.8,1571.1,395.4z M1601.8,394.5c0-4.6-3.9-8.1-8.8-8.1c-4.9,0-8.8,3.4-8.8,8.1c0,4.6,3.8,7.9,8.8,7.9
		C1598,402.4,1601.8,399.1,1601.8,394.5z M1600.7,370.5c0-3.9-3.4-6.9-7.7-6.9c-4.4,0-7.7,3-7.7,6.9c0,4,3.4,6.9,7.7,6.9
		C1597.2,377.4,1600.7,374.5,1600.7,370.5z M1651.8,405c-3.6-5-5.3-11.8-5.3-22c0-10.1,1.7-17,5.3-21.9c3.8-5.1,9.6-7.9,16-7.9
		c6.4,0,12.2,2.7,15.9,7.9c3.6,4.9,5.3,11.8,5.3,21.9c0,10.2-1.7,17-5.3,22c-3.8,5.1-9.5,7.9-15.9,7.9
		C1661.4,412.9,1655.6,410.2,1651.8,405z M1673.6,398.4c1.9-2.7,2.8-7.3,2.8-15.5c0-7.3-0.7-12.3-2.8-15.2c-1.3-1.9-3.2-3.1-5.8-3.1
		c-2.6,0-4.6,1.3-5.9,3.1c-2,2.9-2.7,8-2.7,15.4c0,7.9,0.8,12.6,2.7,15.3c1.3,1.7,3.3,3.1,5.9,3.1
		C1670.4,401.5,1672.3,400.2,1673.6,398.4z M1720.8,395.4c0-6.2,3.4-11.6,9.7-14v-0.2c-5.1-2-7.9-6.5-7.9-11.8
		c0-9.3,8.7-16.2,20-16.2c11.2,0,20,6.9,20,16.2c0,5.3-2.8,9.8-7.9,11.8v0.2c6.3,2.4,9.8,7.7,9.8,14c0,10.4-9.3,17.5-21.8,17.5
		C1730.1,412.9,1720.8,405.8,1720.8,395.4z M1751.4,394.5c0-4.6-3.9-8.1-8.8-8.1c-4.9,0-8.8,3.4-8.8,8.1c0,4.6,3.8,7.9,8.8,7.9
		C1747.7,402.4,1751.4,399.1,1751.4,394.5z M1750.3,370.5c0-3.9-3.4-6.9-7.6-6.9c-4.4,0-7.7,3-7.7,6.9c0,4,3.4,6.9,7.7,6.9
		C1746.8,377.4,1750.3,374.5,1750.3,370.5z"/>
</g>
</svg>
