<?xml version="1.0" encoding="utf-8"?>
<!-- Generator: Adobe Illustrator 21.0.2, SVG Export Plug-In . SVG Version: 6.00 Build 0)  -->
<svg version="1.1" id="Vertical" xmlns="http://www.w3.org/2000/svg" xmlns:xlink="http://www.w3.org/1999/xlink" x="0px" y="0px"
	 viewBox="0 0 800 600" style="enable-background:new 0 0 800 600;" xml:space="preserve">
<style type="text/css">
	.st0{fill:#CC0000;}
</style>
<g id="we_improve_it">
	<g>
		<path class="st0" d="M317.9,392.9h2.3l1.5,4.3l1.4-4.3h2.3l-2.2,5.9l1.6,4.1l3.6-10h2.7l-5.2,12.9h-2.1l-2.2-5.4l-2.2,5.4h-2.1
			l-5.2-12.9h2.7l3.7,10l1.6-4.1L317.9,392.9z"/>
		<path class="st0" d="M345.1,403.5v2.2h-8.9v-12.9h8.8v2.2h-6.3v3.1h5.4v2h-5.4v3.4H345.1z"/>
		<path class="st0" d="M358.7,405.7v-12.9h2.5v12.9H358.7z"/>
		<path class="st0" d="M378,405.7v-8.5l-3.3,6.3h-1.4l-3.3-6.3v8.5h-2.5v-12.9h2.7l3.8,7.3l3.8-7.3h2.7v12.9H378z"/>
		<path class="st0" d="M386.8,405.7v-12.9h5.5c0.6,0,1.1,0.1,1.6,0.4c0.5,0.3,0.9,0.6,1.3,1c0.4,0.4,0.6,0.9,0.9,1.4
			c0.2,0.5,0.3,1,0.3,1.5c0,0.5-0.1,1.1-0.3,1.6c-0.2,0.5-0.5,1-0.8,1.4c-0.4,0.4-0.8,0.7-1.3,1c-0.5,0.2-1,0.4-1.6,0.4h-3v4.3
			H386.8z M389.3,399.2h2.9c0.5,0,0.8-0.2,1.1-0.6c0.3-0.4,0.5-0.9,0.5-1.5c0-0.3,0-0.6-0.1-0.9c-0.1-0.3-0.2-0.5-0.4-0.7
			c-0.2-0.2-0.3-0.3-0.6-0.4c-0.2-0.1-0.4-0.1-0.6-0.1h-2.8V399.2z"/>
		<path class="st0" d="M401.7,405.7v-12.9h5.7c0.6,0,1.1,0.1,1.6,0.4c0.5,0.3,0.9,0.6,1.3,1c0.4,0.4,0.6,0.9,0.9,1.4
			c0.2,0.5,0.3,1,0.3,1.5c0,0.8-0.2,1.6-0.6,2.3c-0.4,0.7-1,1.2-1.7,1.5l3,4.8h-2.8l-2.7-4.3h-2.5v4.3H401.7z M404.2,399.2h3.1
			c0.2,0,0.4-0.1,0.6-0.2c0.2-0.1,0.4-0.3,0.5-0.4c0.1-0.2,0.3-0.4,0.3-0.7c0.1-0.3,0.1-0.5,0.1-0.8c0-0.3,0-0.6-0.1-0.8
			c-0.1-0.3-0.2-0.5-0.4-0.7c-0.2-0.2-0.4-0.3-0.6-0.4c-0.2-0.1-0.4-0.2-0.6-0.2h-3V399.2z"/>
		<path class="st0" d="M422.7,405.8c-0.9,0-1.7-0.2-2.5-0.6c-0.8-0.4-1.4-0.9-1.9-1.5c-0.5-0.6-1-1.3-1.2-2.1
			c-0.3-0.8-0.4-1.6-0.4-2.4c0-0.9,0.2-1.7,0.5-2.5c0.3-0.8,0.7-1.5,1.3-2.1c0.5-0.6,1.2-1.1,1.9-1.4c0.8-0.4,1.6-0.5,2.4-0.5
			c0.9,0,1.7,0.2,2.5,0.6c0.8,0.4,1.4,0.9,1.9,1.5c0.5,0.6,0.9,1.3,1.2,2.1c0.3,0.8,0.4,1.6,0.4,2.4c0,0.9-0.2,1.7-0.5,2.5
			c-0.3,0.8-0.7,1.5-1.3,2.1c-0.5,0.6-1.2,1.1-1.9,1.4C424.4,405.6,423.6,405.8,422.7,405.8z M419.1,399.3c0,0.6,0.1,1.1,0.2,1.6
			c0.2,0.5,0.4,1,0.7,1.4c0.3,0.4,0.7,0.7,1.1,1c0.4,0.2,1,0.4,1.5,0.4c0.6,0,1.1-0.1,1.5-0.4c0.4-0.2,0.8-0.6,1.1-1
			c0.3-0.4,0.5-0.9,0.7-1.4c0.2-0.5,0.2-1,0.2-1.6c0-0.6-0.1-1.1-0.3-1.6c-0.2-0.5-0.4-1-0.7-1.4c-0.3-0.4-0.7-0.7-1.1-1
			c-0.4-0.2-0.9-0.4-1.5-0.4c-0.6,0-1.1,0.1-1.5,0.4c-0.4,0.2-0.8,0.6-1.1,1c-0.3,0.4-0.5,0.9-0.7,1.4
			C419.2,398.2,419.1,398.8,419.1,399.3z"/>
		<path class="st0" d="M435.2,392.9l3.5,9.7l3.4-9.7h2.6l-5,12.9h-2.1l-5.1-12.9H435.2z"/>
		<path class="st0" d="M458.7,403.5v2.2h-8.9v-12.9h8.8v2.2h-6.3v3.1h5.4v2h-5.4v3.4H458.7z"/>
		<path class="st0" d="M472.3,405.7v-12.9h2.5v12.9H472.3z"/>
		<path class="st0" d="M490.7,395.1h-4.1v10.7h-2.5v-10.7H480v-2.2h10.7V395.1z"/>
	</g>
</g>
<g id="winprovit">
	<g>
		<polygon class="st0" points="241,356.5 249.9,334.6 239.3,334.6 236.1,343.1 		"/>
		<polygon class="st0" points="236.1,343.1 233,334.6 222.3,334.6 231.2,356.5 		"/>
		<path d="M277.9,385.3v-50.7h9.9v50.7H277.9z"/>
		<path d="M308.2,352.8v32.5h-9.9v-50.7h7.6l26.4,33.3v-33.2h9.9v50.7h-8L308.2,352.8z"/>
		<path d="M352.9,385.3v-50.7h21.5c2.3,0,4.5,0.5,6.5,1.5c2,1,3.7,2.3,5.1,3.9c1.4,1.6,2.5,3.4,3.4,5.4c0.8,2,1.2,4.1,1.2,6.1
			c0,2.1-0.4,4.2-1.1,6.3c-0.8,2-1.8,3.8-3.2,5.4c-1.4,1.6-3,2.8-5,3.8c-2,1-4.1,1.4-6.4,1.4h-12v17H352.9z M362.7,359.6h11.4
			c1.8,0,3.3-0.7,4.5-2.2c1.2-1.5,1.8-3.5,1.8-6c0-1.3-0.2-2.4-0.6-3.5c-0.4-1-0.9-1.9-1.5-2.6c-0.6-0.7-1.3-1.3-2.2-1.6
			c-0.8-0.4-1.7-0.5-2.5-0.5h-11V359.6z"/>
		<path d="M397.2,385.3v-50.7h22.4c2.3,0,4.5,0.5,6.5,1.5c2,1,3.7,2.3,5.1,3.9c1.4,1.6,2.5,3.4,3.4,5.4c0.8,2,1.2,4.1,1.2,6.1
			c0,3.3-0.8,6.3-2.5,9c-1.6,2.7-3.9,4.6-6.7,5.8l11.9,19.1h-11.1l-10.6-17h-9.7v17H397.2z M407.1,359.6h12.4c0.9,0,1.8-0.2,2.5-0.6
			c0.8-0.4,1.5-1,2-1.8c0.6-0.7,1-1.6,1.4-2.6c0.3-1,0.5-2.1,0.5-3.2c0-1.2-0.2-2.3-0.6-3.3c-0.4-1-0.9-1.9-1.5-2.6
			c-0.6-0.7-1.4-1.3-2.2-1.7c-0.8-0.4-1.7-0.6-2.5-0.6h-11.9V359.6z"/>
		<path d="M465.9,385.6c-3.6,0-6.8-0.7-9.8-2.2c-3-1.5-5.5-3.4-7.6-5.8c-2.1-2.4-3.7-5.2-4.9-8.3c-1.1-3.1-1.7-6.3-1.7-9.5
			c0-3.4,0.6-6.6,1.8-9.7c1.2-3.1,2.9-5.8,5.1-8.2c2.2-2.4,4.7-4.3,7.7-5.7c3-1.4,6.2-2.1,9.6-2.1c3.6,0,6.8,0.7,9.8,2.3
			c3,1.5,5.5,3.5,7.6,5.9c2.1,2.4,3.7,5.2,4.9,8.3c1.1,3.1,1.7,6.2,1.7,9.4c0,3.4-0.6,6.6-1.8,9.7c-1.2,3.1-2.9,5.8-5,8.1
			c-2.1,2.4-4.7,4.2-7.6,5.6C472.6,384.9,469.4,385.6,465.9,385.6z M451.8,359.9c0,2.2,0.3,4.3,1,6.4c0.6,2,1.6,3.9,2.8,5.4
			c1.2,1.6,2.7,2.8,4.5,3.8c1.8,1,3.8,1.4,6,1.4c2.3,0,4.3-0.5,6-1.5c1.7-1,3.2-2.3,4.4-3.9c1.2-1.6,2.1-3.4,2.7-5.5
			c0.6-2,0.9-4.1,0.9-6.2c0-2.2-0.3-4.3-1-6.4c-0.7-2.1-1.6-3.9-2.8-5.4c-1.2-1.6-2.7-2.8-4.4-3.8c-1.7-0.9-3.7-1.4-5.9-1.4
			c-2.3,0-4.3,0.5-6,1.5c-1.7,1-3.2,2.3-4.4,3.9c-1.2,1.6-2.1,3.4-2.8,5.4C452.1,355.7,451.8,357.8,451.8,359.9z"/>
		<path d="M501,334.5l13.7,38.4l13.6-38.4h10.4l-19.8,50.7h-8.3l-19.9-50.7H501z"/>
		<path d="M544,385.3v-50.7h9.9v50.7H544z"/>
		<path d="M602.4,343.2h-16.1v42.1h-9.9v-42.1h-16.2v-8.6h42.2V343.2z"/>
		<path d="M224.8,373.9l-14.5-39.3h-10.6l20.5,50.7h9.1l6.8-16.7l-4.9-12.1L224.8,373.9z M261.9,334.6l-14.5,39.3l-6.4-17.4
			l-4.9,12.1l6.8,16.7h9.1l20.5-50.7H261.9z"/>
	</g>
</g>
<path class="st0" d="M419,195.4l-18,48.9l28.1,76.3l50.8-125.2H419z M322.2,195.4l50.8,125.2l28.1-76.3l-18-48.9H322.2z"/>
</svg>
