<?xml version="1.0" encoding="utf-8"?>
<!-- Generator: Adobe Illustrator 21.0.2, SVG Export Plug-In . SVG Version: 6.00 Build 0)  -->
<svg version="1.1" id="Layer_1" xmlns="http://www.w3.org/2000/svg" xmlns:xlink="http://www.w3.org/1999/xlink" x="0px" y="0px"
	 viewBox="0 0 1140 350" style="enable-background:new 0 0 1140 350;" xml:space="preserve">
<style type="text/css">
	.st0{fill:#3C3C3B;}
	.st1{clip-path:url(#SVGID_2_);}
	.st2{fill:#D29D46;}
	.st3{fill:#C58511;}
	.st4{fill:#EFC981;}
	.st5{fill:#FFFFFF;}
</style>
<rect x="3.4" class="st0" width="1136.6" height="350.2"/>
<g>
	<defs>
		<rect id="SVGID_1_" x="3.4" width="1136.6" height="349.9"/>
	</defs>
	<clipPath id="SVGID_2_">
		<use xlink:href="#SVGID_1_"  style="overflow:visible;"/>
	</clipPath>
	<g class="st1">
		<g>
			<path class="st2" d="M-239.8-821.3l120.9,0.8L75-380.6L26.8-276.4H3.6L-239.8-821.3 M-279.7-847.3l266.5,596.7h56.4l60-129.7
				L-102-846.1L-279.7-847.3L-279.7-847.3z"/>
		</g>
	</g>
	<g class="st1">
		<g>
			<path class="st2" d="M272.2-352.2L123.5-23.6L64.4-152.3l91.4-199.9H272.2 M312.2-378H139.3L36.1-152.3l87.6,190.9L312.2-378
				L312.2-378z"/>
		</g>
	</g>
	<g class="st1">
		<g>
			<path class="st2" d="M1896.2,254.6L1684.7,722l-88.3-192.3l125.8-275.1H1896.2 M1936.2,228.8h-230.5l-137.6,300.9l116.8,254.5
				L1936.2,228.8L1936.2,228.8z"/>
		</g>
	</g>
	<g class="st1">
		<g>
			<path class="st2" d="M-144.5-330.9l51.8,74.3c-25.4,19-63.1,55.6-78.6,112.6c-13.5,49.7-7.8,99.5,17.5,151.2l-96,2.2
				c-10.4-29.2-28.8-97.5-9.7-174c6.7-26.7,17.7-52.6,32.9-77.1c12.3-19.8,27.3-38.8,44.6-56.4
				C-167.9-312.3-154.7-323.2-144.5-330.9 M-138-366.7c0,0-114.1,66-146.5,195.7C-312.3-59.4-267,35.5-267,35.5l157.3-3.6
				c-39-58.8-51.6-114-36.6-169.3c21-77.4,90-112.2,90-112.2L-138-366.7L-138-366.7z"/>
		</g>
	</g>
	<g class="st1">
		<polygon class="st3" points="-438.6,-785.3 1.5,-172.3 445.3,-785.3 344.7,-785.3 2.8,-312.3 -338.2,-785.3 		"/>
		<polygon class="st3" points="292.7,-785.3 1.5,-383.2 -287.2,-785.3 -186.2,-785.3 2.8,-523.2 192.3,-785.3 		"/>
		<polygon class="st4" points="1.5,-383.2 292.7,-785.3 192.3,-785.3 2.8,-523.2 		"/>
		<polygon class="st4" points="1.5,-172.3 445.3,-785.3 344.7,-785.3 2.8,-312.3 		"/>
		<g>
			<g>
				<path class="st4" d="M3.4-157.8c55.8,0,101.2,45.4,101.2,101.2S59.2,44.6,3.4,44.6S-97.8-0.8-97.8-56.6S-52.4-157.8,3.4-157.8
					 M3.4-225.3c-93.1,0-168.7,75.5-168.7,168.7S-89.8,112.1,3.4,112.1S172,36.5,172-56.6S96.5-225.3,3.4-225.3L3.4-225.3z"/>
			</g>
		</g>
	</g>
	<g class="st1">
		<polygon class="st3" points="701.1,-429.1 1141.2,183.9 1584.9,-429.1 1484.4,-429.1 1142.4,43.8 801.4,-429.1 		"/>
		<polygon class="st3" points="1432.3,-429.1 1141.2,-27 852.5,-429.1 953.5,-429.1 1142.4,-167 1331.9,-429.1 		"/>
		<polygon class="st4" points="1141.2,-27 1432.3,-429.1 1331.9,-429.1 1142.4,-167 		"/>
		<polygon class="st4" points="1141.2,183.9 1584.9,-429.1 1484.4,-429.1 1142.4,43.8 		"/>
		<g>
			<g>
				<path class="st4" d="M1143,198.4c55.8,0,101.2,45.4,101.2,101.2s-45.4,101.2-101.2,101.2s-101.2-45.4-101.2-101.2
					S1087.2,198.4,1143,198.4 M1143,130.9c-93.1,0-168.7,75.5-168.7,168.7s75.5,168.7,168.7,168.7c93.1,0,168.7-75.5,168.7-168.7
					S1236.1,130.9,1143,130.9L1143,130.9z"/>
			</g>
		</g>
	</g>
	<g class="st1">
		<polygon class="st3" points="17.7,328.6 457.8,941.6 901.5,328.6 801,328.6 459,801.6 118,328.6 		"/>
		<polygon class="st3" points="748.9,328.6 457.8,730.7 169.1,328.6 270.1,328.6 459,590.7 648.5,328.6 		"/>
		<polygon class="st4" points="457.8,730.7 748.9,328.6 648.5,328.6 459,590.7 		"/>
		<polygon class="st4" points="457.8,941.6 901.5,328.6 801,328.6 459,801.6 		"/>
		<g>
			<g>
				<path class="st4" d="M459.6,956.1c55.8,0,101.2,45.4,101.2,101.2s-45.4,101.2-101.2,101.2s-101.2-45.4-101.2-101.2
					S403.8,956.1,459.6,956.1 M459.6,888.6c-93.1,0-168.7,75.5-168.7,168.7c0,93.1,75.5,168.7,168.7,168.7s168.7-75.5,168.7-168.7
					C628.3,964.1,552.7,888.6,459.6,888.6L459.6,888.6z"/>
			</g>
		</g>
	</g>
</g>
<g>
	<g>
		<path class="st5" d="M210.5,87.5v-9.3h-10.2v9.3l5.1,5.1L210.5,87.5z M197.7,90h-9.3v10.2h9.3l5.1-5.1L197.7,90z M200.3,102.7v9.3
			h10.2v-9.3l-5.1-5.1L200.3,102.7z M213,90l-5.1,5.1l5.1,5.1h9.3V90H213z"/>
	</g>
</g>
<g>
	<g>
		<path class="st5" d="M451.3,288.5v-6.4h-7v6.4l3.5,3.5L451.3,288.5z M442.6,290.3h-6.4v7h6.4l3.5-3.5L442.6,290.3z M444.3,299v6.4
			h7V299l-3.5-3.5L444.3,299z M453,290.3l-3.5,3.5l3.5,3.5h6.4v-7H453z"/>
	</g>
</g>
<g>
	<g>
		<path class="st5" d="M229.7,197c-0.7-0.2-1.5-0.6-2.2-1c-0.3-0.2-0.5-0.3-0.8-0.4c-0.3-0.1-0.5-0.2-0.8-0.2c-0.4,0-1,0.3-1.6,0.8
			c-0.2,0.1-0.3,0.3-0.5,0.4c-0.2,0.1-0.3,0.2-0.5,0.2c-0.2,0-0.3-0.1-0.5-0.2c-0.1-0.1-0.1-0.3-0.1-0.5l1.6-6.9
			c0.1-0.3,0.2-0.5,0.5-0.5c0.3,0,0.4,0.2,0.5,0.5c0.3,1.4,0.6,2.7,1.1,3.7c0.4,1,1.2,1.9,2.2,2.6c1,0.7,2.4,1,4.2,1
			c2.2,0,3.8-0.5,5-1.6c1.2-1,1.7-2.4,1.7-4.1c0-1.1-0.3-2.1-0.8-3c-0.5-0.8-1.2-1.5-2-2c-0.8-0.5-1.8-1.2-3.1-1.9
			c-1.4-0.8-2.5-1.4-3.3-2s-1.5-1.3-2.1-2.2c-0.6-0.9-0.9-2-0.9-3.3c0-1.5,0.4-2.9,1.2-4.1c0.8-1.2,1.9-2.1,3.2-2.8
			c1.3-0.7,2.8-1,4.3-1c0.9,0,1.6,0.1,2.2,0.3c0.6,0.2,1.2,0.4,1.9,0.8c0.3,0.1,0.6,0.3,0.9,0.4c0.3,0.1,0.5,0.2,0.7,0.2
			c0.2,0,0.5-0.1,0.7-0.2c0.2-0.1,0.4-0.2,0.5-0.4c0.4-0.3,0.7-0.5,1-0.5c0.4,0,0.5,0.2,0.4,0.6l-1.3,6c-0.1,0.2-0.1,0.4-0.2,0.5
			c-0.1,0.1-0.2,0.1-0.3,0.1c-0.1,0-0.2,0-0.2-0.1c-0.1-0.1-0.1-0.3-0.2-0.6c-0.3-1.5-0.6-2.6-1-3.5c-0.3-0.8-0.9-1.5-1.7-2
			c-0.8-0.5-1.9-0.8-3.4-0.8c-1.8,0-3.3,0.5-4.4,1.5c-1.1,1-1.7,2.3-1.7,3.9c0,1,0.2,1.9,0.7,2.6c0.5,0.7,1.1,1.3,1.8,1.7
			c0.7,0.5,1.7,1,2.9,1.5c1.4,0.7,2.5,1.3,3.4,1.8c0.9,0.6,1.6,1.3,2.2,2.3c0.6,1,0.9,2.2,0.9,3.7c0,1.6-0.4,3.1-1.1,4.5
			c-0.8,1.4-1.8,2.5-3.3,3.3c-1.4,0.8-3.1,1.2-5,1.2C231.4,197.4,230.5,197.3,229.7,197z"/>
		<path class="st5" d="M266.2,196.6c-0.4-0.4-0.6-1-0.6-1.6c0-0.2,0-0.5,0.1-0.7s0.1-0.4,0.1-0.5h-0.2c-0.5,0.7-1.2,1.5-2.1,2.3
			c-0.9,0.8-2,1.2-3.3,1.2c-1.1,0-1.8-0.3-2.3-1c-0.5-0.7-0.7-1.4-0.7-2.1c0-0.8,0.2-1.8,0.5-2.9c0.3-1.1,0.7-2.4,1.3-4
			c0.5-1.3,0.8-2.4,1-3.2c0.2-0.8,0.3-1.4,0.3-1.9c0-0.7-0.2-1-0.7-1c-0.7,0-1.4,0.6-2.1,1.7c-0.7,1.1-1.3,2.3-1.7,3.5h-0.6
			c0.9-2.3,1.8-3.9,2.7-4.9c0.9-1,2-1.5,3.2-1.5c0.7,0,1.3,0.2,1.6,0.5s0.5,0.8,0.5,1.5c0,0.6-0.1,1.4-0.4,2.3
			c-0.3,0.9-0.6,2.1-1.1,3.4c-0.5,1.7-0.9,2.9-1.2,3.7c-0.2,0.8-0.3,1.5-0.3,2.1s0.1,1.1,0.5,1.5c0.3,0.3,0.7,0.5,1.2,0.5
			c1.2,0,2.2-0.5,3-1.6c0.8-1.1,1.4-2.5,2-4.2c0.5-1.7,1.1-4.3,1.9-7.6l0.2-0.9c0.1-0.4,0.3-0.6,0.7-0.6h1.4c0.2,0,0.4,0.1,0.5,0.2
			c0.1,0.1,0.1,0.3,0.1,0.5l-0.4,1.6c-1.7,6.8-2.6,10.8-2.6,12c0,0.5,0.1,0.8,0.3,0.9c0.2,0.2,0.4,0.2,0.8,0.2
			c0.6,0,1.2-0.4,1.8-1.3c0.6-0.9,1.3-2.1,1.9-3.6l0.5,0.1c-0.8,1.9-1.7,3.4-2.5,4.5c-0.8,1.1-1.8,1.6-3,1.6
			C267.1,197.3,266.6,197.1,266.2,196.6z"/>
		<path class="st5" d="M296.7,196.6c-0.5-0.4-0.7-1.2-0.7-2.2c0-0.8,0.1-1.6,0.3-2.6c0.2-0.9,0.6-2.1,1.1-3.6
			c0.4-1.2,0.7-2.1,0.9-2.9s0.3-1.4,0.3-1.9c0-1.2-0.6-1.8-1.7-1.8c-1.1,0-2,0.5-2.8,1.5c-0.8,1-1.4,2.3-1.9,3.9
			c-0.5,1.6-1.1,3.8-1.9,6.8l-0.6,2.5c-0.1,0.4-0.3,0.5-0.7,0.5h-1.6c-0.2,0-0.4-0.1-0.5-0.2c-0.1-0.1-0.1-0.3-0.1-0.5
			c0.2-0.8,0.7-3,1.6-6.6c0.5-1.9,0.9-3.4,1.1-4.5c0.2-1.1,0.4-2,0.4-2.6c0-0.9-0.3-1.3-0.8-1.3c-0.6,0-1.2,0.5-1.9,1.4
			c-0.7,0.9-1.4,2.1-1.9,3.5l-0.5-0.1c0.8-1.8,1.6-3.3,2.4-4.4c0.8-1.1,1.9-1.6,3.1-1.6c0.9,0,1.5,0.2,1.8,0.6
			c0.3,0.4,0.5,1,0.5,1.6l0,1c0,0.2,0,0.4,0.1,0.4c0.1,0,0.1-0.1,0.2-0.2c0.1-0.1,0.4-0.5,0.9-1.1c0.5-0.6,1.1-1.2,2-1.6
			c0.8-0.5,1.8-0.7,2.8-0.7c1.9,0,2.9,0.8,2.9,2.5c0,0.7-0.1,1.4-0.3,2.2c-0.2,0.8-0.5,1.9-0.9,3.2c-0.5,1.4-0.8,2.6-1.1,3.6
			c-0.3,1-0.4,2-0.4,2.8c0,0.6,0.1,1,0.2,1.2c0.1,0.2,0.4,0.4,0.7,0.4c1.1,0,2.4-1.6,3.8-4.9l0.5,0.1c-0.8,2-1.7,3.5-2.5,4.6
			s-1.8,1.6-3,1.6C297.8,197.3,297.2,197.1,296.7,196.6z"/>
		<path class="st5" d="M316.7,196.3c-1-0.6-1.4-1.4-1.4-2.4c0-0.4,0.1-0.8,0.3-1s0.5-0.3,0.9-0.3c0.3,0,0.6,0.1,0.8,0.3
			c0.2,0.2,0.3,0.4,0.3,0.8c0,0.2-0.1,0.4-0.2,0.7c-0.1,0.3-0.2,0.5-0.2,0.7c0,0.4,0.3,0.8,0.8,1c0.5,0.2,1.1,0.3,1.8,0.3
			c1.2,0,2.3-0.3,3.3-1c1-0.7,1.5-1.6,1.5-2.8c0-0.9-0.3-1.6-0.8-2c-0.6-0.4-1.4-0.8-2.6-1.3c-0.8-0.3-1.5-0.5-2-0.8
			c-0.5-0.2-0.9-0.6-1.3-1.1s-0.5-1.1-0.5-1.9c0-1,0.3-1.9,0.9-2.8c0.6-0.8,1.3-1.5,2.2-2c0.9-0.5,1.8-0.8,2.8-0.8
			c1.1,0,2.1,0.3,3,0.9c0.9,0.6,1.3,1.4,1.3,2.3c0,0.5-0.1,0.8-0.3,1c-0.2,0.2-0.5,0.3-0.9,0.3c-0.3,0-0.6-0.1-0.8-0.2
			c-0.2-0.2-0.3-0.4-0.3-0.7c0-0.2,0.1-0.4,0.2-0.7s0.2-0.5,0.2-0.7c0-0.5-0.2-0.8-0.7-1.1c-0.5-0.3-1.1-0.4-1.8-0.4
			c-1.1,0-2,0.3-2.7,1c-0.7,0.7-1,1.4-1,2.3c0,0.7,0.3,1.3,0.8,1.6c0.5,0.3,1.3,0.7,2.3,1c0.9,0.3,1.6,0.6,2.1,0.9
			c0.5,0.3,1,0.7,1.4,1.3c0.4,0.6,0.6,1.3,0.6,2.2c0,1.2-0.3,2.3-1,3.2c-0.7,1-1.5,1.7-2.6,2.2c-1,0.5-2.1,0.8-3.1,0.8
			C318.8,197.2,317.7,196.9,316.7,196.3z"/>
		<path class="st5" d="M341.4,195.7c-1.1-1-1.7-2.5-1.7-4.5c0-0.5,0.1-1.3,0.3-2.4c0.4-1.8,1.1-3.3,2.1-4.7c1-1.4,2.1-2.4,3.4-3.1
			c1.3-0.7,2.4-1.1,3.6-1.1c1.7,0,2.9,0.6,3.7,1.7c0.8,1.1,1.1,2.4,1.1,3.9c0,0.7-0.1,1.2-0.2,1.6c-0.1,0.7-0.5,1-0.9,1H345
			c-0.7,0-1.2,0-1.5,0.1c-0.3,0.1-0.5,0.3-0.6,0.7c0,0.2-0.1,0.6-0.2,1.4c-0.1,0.7-0.2,1.4-0.2,2c0,2.7,1.2,4.1,3.7,4.1h0.1
			c0.8,0,1.7-0.3,2.5-0.8s1.8-1.4,2.9-2.6c0.1-0.1,0.3-0.2,0.5-0.2c0.1,0,0.2,0,0.3,0.1s0,0.2-0.1,0.4c-0.2,0.3-0.6,0.8-1.3,1.4
			c-0.6,0.6-1.4,1.2-2.4,1.7c-1,0.5-2.1,0.8-3.3,0.8C343.8,197.2,342.5,196.7,341.4,195.7z M350,187.1c0.4,0,0.6,0,0.7-0.1
			c0.1-0.1,0.2-0.3,0.2-0.6c0.2-0.8,0.3-1.6,0.3-2.6c0-2.1-0.7-3.1-2.1-3.1c-1,0-2.1,0.5-3.1,1.6c-1,1.1-1.9,2.7-2.5,4.8H350z"/>
		<path class="st5" d="M367.7,196.6c-0.4-0.4-0.6-0.9-0.6-1.4c0-0.6,0.3-2.4,1-5.2s1.3-5.6,2-8.3h-3.2c-0.2,0-0.3-0.1-0.2-0.5
			c0-0.1,0.1-0.2,0.1-0.2c0.1,0,0.1,0,0.2,0c0.1,0,0.2,0,0.2,0c1.7,0,3-0.7,3.9-2.2c0.9-1.4,1.6-2.8,1.9-4.2
			c0.1-0.4,0.3-0.5,0.6-0.5h0.3c0.1,0,0.2,0.1,0.3,0.2c0.1,0.1,0.1,0.2,0,0.4l-1.4,6h3c0.1,0,0.2,0.1,0.2,0.3c0,0.2,0,0.3-0.1,0.5
			c-0.1,0.2-0.2,0.3-0.3,0.3h-3c-0.5,2.1-1.2,4.7-1.9,7.9c-0.7,3.1-1,5-1,5.5c0,0.3,0.1,0.5,0.3,0.7c0.2,0.2,0.4,0.3,0.7,0.3
			c0.6,0,1.2-0.4,1.8-1.3c0.7-0.9,1.3-2.1,1.9-3.6l0.5,0.1c-0.8,1.9-1.6,3.4-2.4,4.5c-0.8,1.1-1.8,1.6-3,1.6
			C368.7,197.3,368.1,197.1,367.7,196.6z"/>
		<path class="st5" d="M405.2,196.5c0-0.2,0.1-0.3,0.2-0.5s0.3-0.2,0.5-0.2h1.7c0.3,0,0.5-0.1,0.8-0.3s0.4-0.5,0.5-0.8l5.5-23.6
			v-0.2c0-0.2-0.1-0.5-0.2-0.6c-0.2-0.2-0.3-0.2-0.6-0.2h-1.7c-0.2,0-0.4-0.1-0.4-0.5c0-0.2,0.1-0.4,0.2-0.5
			c0.1-0.1,0.3-0.2,0.5-0.2h9.2c2.6,0,4.9,0.4,6.9,1.2c2,0.8,2.9,2.3,2.9,4.5c0,3.2-1.3,5.5-3.8,7.1c-2.5,1.5-5.7,2.3-9.5,2.3h-2.6
			l-2.6,10.9v0.2c0,0.2,0.1,0.5,0.2,0.6s0.3,0.2,0.6,0.2h1.7c0.1,0,0.2,0,0.3,0.1c0.1,0.1,0.1,0.2,0.1,0.2c0,0.2-0.1,0.4-0.2,0.5
			c-0.1,0.2-0.3,0.2-0.5,0.2h-9.2C405.3,196.9,405.2,196.7,405.2,196.5z M418,182.7c6,0,9.1-3,9.1-9.1c0-1.5-0.5-2.5-1.4-3
			c-0.9-0.5-2.1-0.7-3.6-0.7h-3.7l-2.9,12.8H418z"/>
		<path class="st5" d="M440.6,196.9c-0.8-0.4-1.4-1-1.9-1.8c-0.5-0.8-0.8-1.9-0.8-3.2c0-1.7,0.4-3.4,1.3-5.3
			c0.8-1.9,1.9-3.4,3.3-4.7c1.4-1.3,2.8-1.9,4.2-1.9c0.8,0,1.5,0.2,2.1,0.6c0.6,0.4,1.1,0.9,1.5,1.5c0.1,0.1,0.2,0.2,0.3,0.2
			c0.2,0,0.3-0.1,0.4-0.3l0.2-0.9c0.1-0.4,0.3-0.5,0.7-0.5h1.3c0.4,0,0.6,0.2,0.5,0.7c-2,8.1-3,12.7-3,13.7c0,0.3,0.1,0.6,0.3,0.8
			c0.2,0.2,0.4,0.3,0.7,0.3c0.6,0,1.2-0.4,1.8-1.3c0.7-0.9,1.3-2.1,1.9-3.6l0.5,0.1c-0.9,2.1-1.7,3.6-2.5,4.6s-1.9,1.5-3.1,1.5
			c-0.8,0-1.3-0.2-1.6-0.6c-0.3-0.4-0.5-1-0.7-1.7c0-0.3-0.1-0.3-0.3-0.1c-0.8,0.8-1.6,1.4-2.3,1.9c-0.7,0.4-1.5,0.7-2.3,0.7
			C442.1,197.4,441.4,197.2,440.6,196.9z M446.4,195c0.8-0.9,1.5-2.1,2-3.7c0.5-1.6,1.1-3.8,1.7-6.5c0-1-0.2-1.9-0.7-2.7
			c-0.5-0.8-1.2-1.3-2.1-1.3c-1.3,0-2.4,0.7-3.5,2c-1,1.3-1.8,3-2.4,4.9c-0.6,1.9-0.9,3.7-0.9,5.3c0,1.1,0.2,1.9,0.6,2.5
			c0.4,0.6,1,0.8,2,0.8C444.5,196.3,445.5,195.9,446.4,195z"/>
		<path class="st5" d="M469.7,196.7c-0.1-0.1-0.1-0.3-0.1-0.5l1-4.1c0.7-2.8,1.2-5,1.5-6.4c0.3-1.4,0.5-2.5,0.5-3.3
			c0-0.9-0.2-1.3-0.7-1.3c-0.6,0-1.2,0.5-1.9,1.4c-0.7,0.9-1.3,2.1-1.9,3.5l-0.5-0.1c0.8-1.9,1.6-3.4,2.5-4.5c0.8-1.1,1.8-1.6,3-1.6
			c1.5,0,2.3,0.8,2.3,2.4c0,0.5-0.1,1.1-0.3,2c0-0.1,0.2-0.5,0.7-1.2s1.1-1.5,1.9-2.1c0.9-0.7,1.8-1,2.8-1c0.7,0,1.2,0.2,1.6,0.5
			c0.4,0.3,0.5,0.8,0.5,1.3c0,0.1,0,0.4-0.1,0.7c-0.1,0.6-0.4,1.1-0.8,1.5c-0.4,0.4-0.9,0.6-1.4,0.6c-0.3,0-0.6-0.1-0.8-0.3
			s-0.3-0.5-0.3-0.9c0-0.3,0-0.5,0.1-0.7c0.1-0.2,0.2-0.4,0.4-0.6c0.2-0.3,0.4-0.5,0.4-0.7c0-0.3-0.2-0.5-0.6-0.5
			c-0.5,0-1.2,0.3-1.8,0.8c-0.7,0.5-1.3,1.3-2,2.3c-0.6,1-1.1,2.3-1.5,3.8l-1.9,8.6c-0.1,0.4-0.3,0.5-0.7,0.5h-1.5
			C470,196.9,469.8,196.8,469.7,196.7z"/>
		<path class="st5" d="M493.7,196.6c-0.4-0.4-0.6-0.9-0.6-1.4c0-0.6,0.3-2.4,1-5.2s1.3-5.6,2-8.3h-3.2c-0.2,0-0.3-0.1-0.2-0.5
			c0-0.1,0.1-0.2,0.1-0.2c0.1,0,0.1,0,0.2,0c0.1,0,0.2,0,0.2,0c1.7,0,3-0.7,3.9-2.2c0.9-1.4,1.6-2.8,1.9-4.2
			c0.1-0.4,0.3-0.5,0.6-0.5h0.3c0.1,0,0.2,0.1,0.3,0.2c0.1,0.1,0.1,0.2,0,0.4l-1.4,6h3c0.1,0,0.2,0.1,0.2,0.3c0,0.2,0,0.3-0.1,0.5
			c-0.1,0.2-0.2,0.3-0.3,0.3h-3c-0.5,2.1-1.2,4.7-1.9,7.9c-0.7,3.1-1,5-1,5.5c0,0.3,0.1,0.5,0.3,0.7c0.2,0.2,0.4,0.3,0.7,0.3
			c0.6,0,1.2-0.4,1.8-1.3c0.7-0.9,1.3-2.1,1.9-3.6l0.5,0.1c-0.8,1.9-1.6,3.4-2.4,4.5c-0.8,1.1-1.8,1.6-3,1.6
			C494.8,197.3,494.2,197.1,493.7,196.6z"/>
		<path class="st5" d="M513.9,203.5c-0.9-0.5-1.3-1.2-1.3-2.1c0-0.5,0.1-1,0.4-1.3c0.3-0.4,0.8-0.5,1.5-0.5c0.5,0,0.9,0.1,1.2,0.4
			c0.3,0.2,0.4,0.6,0.4,1.1c0,0.3-0.1,0.6-0.2,0.9s-0.2,0.5-0.2,0.6c0,0.7,0.7,1.1,2.1,1.1c1.1,0,2.1-0.3,2.8-1
			c0.8-0.7,1.4-1.7,1.9-3c0.5-1.3,1.1-3.2,1.8-5.7h-0.2c-0.5,0.7-1.2,1.5-2.1,2.3s-2,1.2-3.3,1.2c-1.1,0-1.8-0.3-2.3-1
			c-0.5-0.7-0.7-1.4-0.7-2.1c0-0.5,0.1-1.2,0.3-2.2c0.2-1,0.4-1.9,0.6-2.6c0.2-0.7,0.3-1.3,0.4-1.7c0.8-3,1.2-4.9,1.2-5.6
			c0-0.6-0.2-0.9-0.7-0.9c-0.6,0-1.3,0.5-2,1.4c-0.7,1-1.3,2.1-1.8,3.5l-0.5-0.1c0.8-1.9,1.6-3.4,2.5-4.5c0.8-1.1,1.8-1.6,2.9-1.6
			c0.7,0,1.2,0.2,1.7,0.5c0.5,0.3,0.7,0.9,0.7,1.6c0,0.8-0.4,2.7-1.2,5.5c-0.4,1.5-0.7,2.7-0.9,3.6c-0.2,0.9-0.3,1.7-0.3,2.3
			c0,1.3,0.6,2,1.8,2c1.2,0,2.2-0.6,3-1.8c0.8-1.2,1.5-2.7,2-4.4c0.5-1.8,1.1-4.3,1.9-7.5c0.1-0.2,0.2-0.6,0.3-1.2h2.7l-3,13.3
			c-0.9,3.9-2.2,6.7-3.9,8.2c-1.7,1.5-3.7,2.3-6.1,2.3C515.8,204.3,514.8,204,513.9,203.5z"/>
		<path class="st5" d="M561.1,199.7l-1.4-0.3l10-31.7l1.2,0.4L561.1,199.7z"/>
		<path class="st5" d="M578.5,199.7l-1.4-0.3l10-31.7l1.2,0.4L578.5,199.7z"/>
		<path class="st5" d="M614.3,196.5c0-0.2,0.1-0.3,0.2-0.5s0.3-0.2,0.5-0.2h1.6c0.3,0,0.5-0.1,0.8-0.3s0.4-0.5,0.5-0.8l5.4-23.6
			v-0.2c0-0.2-0.1-0.5-0.2-0.6c-0.1-0.2-0.3-0.2-0.5-0.2h-1.6c-0.2,0-0.4-0.1-0.4-0.5c0-0.2,0.1-0.4,0.2-0.5
			c0.1-0.1,0.3-0.2,0.5-0.2h9.6c3.3,0,5.9,0.8,7.9,2.3c2,1.5,3,3.9,3,7.2c0,1.4-0.2,2.9-0.5,4.6c-0.8,3.3-2,5.9-3.7,8
			c-1.7,2.1-3.7,3.6-5.9,4.6s-4.7,1.4-7.2,1.4h-9.6C614.4,196.9,614.3,196.7,614.3,196.5z M623.6,195.7c2.5,0,4.6-0.3,6.2-1
			c1.6-0.7,3-1.8,4.1-3.5c1.1-1.7,2-4.2,2.7-7.4l0.5-2.1c0.5-2,0.7-3.8,0.7-5.2c0-2.5-0.7-4.2-2-5.1c-1.3-0.9-3.3-1.4-5.9-1.4h-2.7
			l-6,25.8H623.6z"/>
		<path class="st5" d="M652.2,196.3c-0.8-0.7-1.2-1.7-1.2-2.9c0-0.9,0.2-1.6,0.7-2.3c0.3-0.5,0.7-0.9,1.2-1.3s1-0.6,1.6-0.6
			c0.5,0,0.9,0.1,1.1,0.4s0.4,0.7,0.4,1.2c0,0.7-0.2,1.4-0.7,1.9s-1,0.8-1.7,0.8c-0.1,0-0.3,0.1-0.4,0.2s-0.3,0.3-0.3,0.5
			c-0.1,0.5,0,0.9,0.4,1.3s1,0.6,1.9,0.6c1.3,0,2.3-0.4,3.1-1.1s1.4-1.6,1.8-2.7s0.8-2.5,1.2-4.3l3.9-17.1V171
			c0-0.3-0.1-0.5-0.2-0.6c-0.2-0.1-0.3-0.2-0.6-0.2h-1.6c-0.2,0-0.4-0.2-0.4-0.5c0-0.4,0.2-0.7,0.7-0.7h9.1c0.3,0,0.5,0.1,0.5,0.4
			c0,0.2-0.1,0.4-0.2,0.5c-0.2,0.2-0.3,0.2-0.5,0.2h-1.6c-0.3,0-0.6,0.1-0.8,0.3c-0.3,0.2-0.4,0.4-0.5,0.7l-4.1,17.7
			c-0.4,1.9-1.3,3.9-2.7,5.7c-1.4,1.9-3.5,2.8-6.4,2.8C654.2,197.4,653,197,652.2,196.3z"/>
		<path class="st5" d="M684.5,176.1c0.9,0,1.7-0.3,2.3-0.9c0.6-0.6,1.1-1.4,1.3-2.3c0-0.1,0-0.1,0-0.1s0-0.1,0-0.1
			c0-0.3-0.2-0.5-0.6-0.5c-0.5,0-0.9-0.1-1.2-0.4s-0.5-0.6-0.5-1c0-0.6,0.2-1.2,0.7-1.7c0.5-0.5,1-0.7,1.6-0.7
			c1.2,0,1.8,0.7,1.8,2.1c0,0.5-0.1,1.1-0.2,1.8c-0.3,1.3-0.8,2.4-1.7,3.5c-0.8,1-2.1,1.6-3.6,1.6L684.5,176.1z"/>
		<path class="st5" d="M701,196.3c-1-0.6-1.4-1.4-1.4-2.4c0-0.4,0.1-0.8,0.3-1s0.5-0.3,0.9-0.3c0.3,0,0.6,0.1,0.8,0.3
			s0.3,0.4,0.3,0.8c0,0.2-0.1,0.4-0.2,0.7c-0.1,0.3-0.2,0.5-0.2,0.7c0,0.4,0.3,0.8,0.8,1c0.5,0.2,1.1,0.3,1.8,0.3
			c1.2,0,2.3-0.3,3.3-1s1.5-1.6,1.5-2.8c0-0.9-0.3-1.6-0.8-2c-0.6-0.4-1.4-0.8-2.6-1.3c-0.8-0.3-1.5-0.5-2-0.8
			c-0.5-0.2-0.9-0.6-1.3-1.1s-0.5-1.1-0.5-1.9c0-1,0.3-1.9,0.9-2.8c0.6-0.8,1.3-1.5,2.2-2s1.8-0.8,2.8-0.8c1.1,0,2.1,0.3,3,0.9
			c0.9,0.6,1.3,1.4,1.3,2.3c0,0.5-0.1,0.8-0.3,1c-0.2,0.2-0.5,0.3-0.9,0.3c-0.3,0-0.6-0.1-0.8-0.2c-0.2-0.2-0.3-0.4-0.3-0.7
			c0-0.2,0.1-0.4,0.2-0.7s0.2-0.5,0.2-0.7c0-0.5-0.2-0.8-0.7-1.1c-0.5-0.3-1.1-0.4-1.8-0.4c-1.1,0-2,0.3-2.7,1c-0.7,0.7-1,1.4-1,2.3
			c0,0.7,0.3,1.3,0.8,1.6s1.3,0.7,2.3,1c0.9,0.3,1.6,0.6,2.1,0.9s1,0.7,1.4,1.3c0.4,0.6,0.6,1.3,0.6,2.2c0,1.2-0.3,2.3-1,3.2
			c-0.7,1-1.5,1.7-2.6,2.2c-1,0.5-2.1,0.8-3.1,0.8C703,197.2,701.9,196.9,701,196.3z"/>
		<path class="st5" d="M742.8,199.7l-1.4-0.3l10-31.7l1.2,0.4L742.8,199.7z"/>
		<path class="st5" d="M760.2,199.7l-1.4-0.3l10-31.7l1.2,0.4L760.2,199.7z"/>
		<path class="st5" d="M800.8,196.4c0-0.2,0.1-0.3,0.2-0.5s0.3-0.2,0.5-0.2h1.7c0.3,0,0.5-0.1,0.8-0.3s0.4-0.5,0.5-0.8l5.8-24.7
			c-1.3,0-2.4,0.1-3.3,0.3c-0.9,0.2-1.8,0.6-2.6,1.2c-0.9,0.6-1.7,1.6-2.6,2.9l-1,1.4c-0.1,0.1-0.1,0.2-0.2,0.3
			c-0.1,0.1-0.2,0.2-0.3,0.2s-0.2,0-0.3-0.1s-0.1-0.2-0.1-0.3l1.8-6.3c0.1-0.5,0.4-0.7,0.8-0.7H822c0.2,0,0.4,0.1,0.5,0.2
			c0.1,0.2,0.2,0.3,0.1,0.5l-1.2,6.3c-0.1,0.3-0.2,0.5-0.4,0.5c-0.1,0-0.2,0-0.2-0.1c-0.1-0.1-0.1-0.1-0.1-0.2c0-0.1,0-0.1-0.1-0.1
			l-0.4-1.4c-0.2-1.3-0.6-2.2-1.2-2.9c-0.6-0.6-1.3-1.1-2.1-1.3c-0.8-0.2-1.8-0.3-3-0.3l-5.7,24.7v0.2c0,0.2,0.1,0.5,0.2,0.6
			s0.3,0.2,0.6,0.2h1.6c0.1,0,0.3,0,0.3,0.1s0.1,0.2,0.1,0.3c0,0.2-0.1,0.4-0.2,0.5c-0.2,0.1-0.3,0.2-0.5,0.2h-9.2
			C801,196.9,800.8,196.7,800.8,196.4z"/>
		<path class="st5" d="M831.1,196.9c-0.8-0.4-1.4-1-1.9-1.8c-0.5-0.8-0.8-1.9-0.8-3.2c0-1.7,0.4-3.4,1.3-5.3
			c0.8-1.9,1.9-3.4,3.3-4.7c1.4-1.3,2.8-1.9,4.2-1.9c0.8,0,1.5,0.2,2.1,0.6c0.6,0.4,1.1,0.9,1.5,1.5c0.1,0.1,0.2,0.2,0.3,0.2
			c0.2,0,0.3-0.1,0.4-0.3l0.2-0.9c0.1-0.4,0.3-0.5,0.7-0.5h1.3c0.4,0,0.6,0.2,0.5,0.7c-2,8.1-3,12.7-3,13.7c0,0.3,0.1,0.6,0.3,0.8
			c0.2,0.2,0.4,0.3,0.7,0.3c0.6,0,1.2-0.4,1.8-1.3c0.7-0.9,1.3-2.1,1.9-3.6l0.5,0.1c-0.9,2.1-1.7,3.6-2.5,4.6
			c-0.8,1-1.9,1.5-3.1,1.5c-0.8,0-1.3-0.2-1.6-0.6c-0.3-0.4-0.5-1-0.7-1.7c0-0.3-0.1-0.3-0.3-0.1c-0.8,0.8-1.6,1.4-2.3,1.9
			c-0.7,0.4-1.5,0.7-2.3,0.7C832.6,197.4,831.9,197.2,831.1,196.9z M836.8,195c0.8-0.9,1.5-2.1,2-3.7c0.5-1.6,1.1-3.8,1.7-6.5
			c0-1-0.2-1.9-0.7-2.7c-0.5-0.8-1.2-1.3-2.1-1.3c-1.3,0-2.4,0.7-3.5,2c-1,1.3-1.8,3-2.4,4.9c-0.6,1.9-0.9,3.7-0.9,5.3
			c0,1.1,0.2,1.9,0.6,2.5c0.4,0.6,1,0.8,2,0.8C835,196.3,836,195.9,836.8,195z"/>
		<path class="st5" d="M861.5,194c-0.1,0.3-0.1,0.6-0.1,0.8c0,0.8,0.3,1.1,1,1.1c1.2,0,2.4-1.6,3.8-4.9l0.5,0.1
			c-0.8,1.9-1.7,3.4-2.5,4.5c-0.8,1.1-1.8,1.6-3,1.6c-0.7,0-1.3-0.2-1.8-0.6s-0.7-1-0.7-1.8c0-0.3,0-0.7,0.1-1.1l5.2-22.8
			c0-0.1,0-0.2,0-0.4c0-0.5-0.2-0.8-0.6-0.9c-0.4-0.1-1-0.1-1.7-0.1c-0.4,0-0.5-0.1-0.5-0.4c0-0.2,0-0.3,0.1-0.3
			c0.1-0.1,0.2-0.1,0.4-0.1h4.5c0.5,0,0.7,0.2,0.7,0.7c0,0.1,0,0.2,0,0.3L861.5,194z"/>
		<path class="st5" d="M889.9,196.8c-0.5-0.3-0.8-0.8-1.1-1.3c-0.4-0.7-0.7-1.3-0.9-2.1s-0.4-1.6-0.6-2.5c-0.2-1-0.4-1.7-0.6-2.2
			c-0.2-0.5-0.5-0.7-1-0.7c-0.6,0-1.5,0.5-2.7,1.5l-1.6,6.7c-0.1,0.4-0.3,0.5-0.7,0.5h-1.4c-0.4,0-0.6-0.2-0.5-0.7l5.8-25.1
			c0-0.1,0-0.2,0-0.4c0-0.4-0.2-0.7-0.5-0.8c-0.3-0.1-0.8-0.2-1.4-0.2c-0.4,0-0.6,0-0.7-0.1c-0.1-0.1-0.2-0.2-0.2-0.3
			c0-0.2,0-0.3,0.1-0.3c0.1-0.1,0.2-0.1,0.4-0.1h4.5c0.5,0,0.7,0.2,0.7,0.7c0,0.1,0,0.2,0,0.3l-4.3,19c0.6-0.5,1.5-1.4,2.9-2.7
			c1.9-1.9,3.6-3.4,4.9-4.5c1.3-1.1,2.5-1.6,3.5-1.6c0.5,0,1,0.2,1.4,0.5s0.6,0.8,0.6,1.4c0,0.7-0.2,1.3-0.7,1.8
			c-0.4,0.6-1,0.9-1.6,0.9c-0.3,0-0.6-0.1-0.8-0.3c-0.2-0.2-0.3-0.5-0.3-0.9c0-0.3,0-0.5,0.1-0.7c0.1-0.2,0.3-0.4,0.5-0.6
			c0.2-0.2,0.3-0.5,0.3-0.7c0-0.3-0.2-0.5-0.5-0.5c-0.4,0-1.2,0.4-2.2,1.3c-1,0.9-2.7,2.3-4.9,4.4l0.5,0c1,0,1.7,0.4,2.1,1.1
			c0.4,0.7,0.8,1.9,1.1,3.4c0.3,1.5,0.6,2.6,0.9,3.3c0.5,1.1,1,1.6,1.6,1.6c0.5,0,1-0.3,1.3-1c0.4-0.6,0.8-1.7,1.3-3.1l0.6,0.1
			c-0.6,2-1.1,3.3-1.7,4.1c-0.6,0.8-1.4,1.2-2.4,1.2C891,197.3,890.3,197.1,889.9,196.8z"/>
		<path class="st5" d="M908.9,196.3c-1-0.6-1.4-1.4-1.4-2.4c0-0.4,0.1-0.8,0.3-1c0.2-0.2,0.5-0.3,0.9-0.3c0.3,0,0.6,0.1,0.8,0.3
			c0.2,0.2,0.3,0.4,0.3,0.8c0,0.2-0.1,0.4-0.2,0.7c-0.1,0.3-0.2,0.5-0.2,0.7c0,0.4,0.3,0.8,0.8,1c0.5,0.2,1.1,0.3,1.8,0.3
			c1.2,0,2.3-0.3,3.3-1c1-0.7,1.5-1.6,1.5-2.8c0-0.9-0.3-1.6-0.8-2s-1.4-0.8-2.6-1.3c-0.8-0.3-1.5-0.5-2-0.8
			c-0.5-0.2-0.9-0.6-1.3-1.1c-0.3-0.5-0.5-1.1-0.5-1.9c0-1,0.3-1.9,0.9-2.8c0.6-0.8,1.3-1.5,2.2-2c0.9-0.5,1.8-0.8,2.8-0.8
			c1.1,0,2.1,0.3,3,0.9c0.9,0.6,1.3,1.4,1.3,2.3c0,0.5-0.1,0.8-0.3,1c-0.2,0.2-0.5,0.3-0.9,0.3c-0.3,0-0.6-0.1-0.8-0.2
			c-0.2-0.2-0.3-0.4-0.3-0.7c0-0.2,0.1-0.4,0.2-0.7s0.2-0.5,0.2-0.7c0-0.5-0.2-0.8-0.7-1.1c-0.5-0.3-1.1-0.4-1.8-0.4
			c-1.1,0-2,0.3-2.7,1c-0.7,0.7-1,1.4-1,2.3c0,0.7,0.3,1.3,0.8,1.6c0.5,0.3,1.3,0.7,2.3,1c0.9,0.3,1.6,0.6,2.1,0.9s1,0.7,1.4,1.3
			c0.4,0.6,0.6,1.3,0.6,2.2c0,1.2-0.3,2.3-1,3.2c-0.7,1-1.5,1.7-2.6,2.2c-1,0.5-2.1,0.8-3.1,0.8
			C910.9,197.2,909.8,196.9,908.9,196.3z"/>
	</g>
</g>
</svg>
