<?xml version="1.0" encoding="utf-8"?>
<!-- Generator: Adobe Illustrator 21.0.2, SVG Export Plug-In . SVG Version: 6.00 Build 0)  -->
<svg version="1.1" id="Layer_1" xmlns="http://www.w3.org/2000/svg" xmlns:xlink="http://www.w3.org/1999/xlink" x="0px" y="0px"
	 viewBox="0 0 1140 350" style="enable-background:new 0 0 1140 350;" xml:space="preserve">
<style type="text/css">
	.st0{fill:#3C3C3B;}
	.st1{clip-path:url(#SVGID_2_);}
	.st2{fill:#D29D46;}
	.st3{fill:#C58511;}
	.st4{fill:#EFC981;}
	.st5{fill:#FFFFFF;}
</style>
<rect x="3.4" class="st0" width="1136.6" height="350.2"/>
<g>
	<defs>
		<rect id="SVGID_1_" x="3.4" width="1136.6" height="349.9"/>
	</defs>
	<clipPath id="SVGID_2_">
		<use xlink:href="#SVGID_1_"  style="overflow:visible;"/>
	</clipPath>
	<g class="st1">
		<g>
			<path class="st2" d="M-239.8-821.3l120.9,0.8L75-380.6L26.8-276.4H3.6L-239.8-821.3 M-279.7-847.3l266.5,596.7h56.4l60-129.7
				L-102-846.1L-279.7-847.3L-279.7-847.3z"/>
		</g>
	</g>
	<g class="st1">
		<g>
			<path class="st2" d="M1896.2,254.6L1684.7,722l-88.3-192.3l125.8-275.1H1896.2 M1936.2,228.8h-230.5l-137.6,300.9l116.8,254.5
				L1936.2,228.8L1936.2,228.8z"/>
		</g>
	</g>
	<g class="st1">
		<g>
			<path class="st2" d="M-144.5-330.9l51.8,74.3c-25.4,19-63.1,55.6-78.6,112.6c-13.5,49.7-7.8,99.5,17.5,151.2l-96,2.2
				c-10.4-29.2-28.8-97.5-9.7-174c6.7-26.7,17.7-52.6,32.9-77.1c12.3-19.8,27.3-38.8,44.6-56.4
				C-167.9-312.3-154.7-323.2-144.5-330.9 M-138-366.7c0,0-114.1,66-146.5,195.7C-312.3-59.4-267,35.5-267,35.5l157.3-3.6
				c-39-58.8-51.6-114-36.6-169.3c21-77.4,90-112.2,90-112.2L-138-366.7L-138-366.7z"/>
		</g>
	</g>
	<g class="st1">
		<polygon class="st3" points="-325.4,-785.3 114.7,-172.3 558.5,-785.3 457.9,-785.3 116,-312.3 -225.1,-785.3 		"/>
		<polygon class="st3" points="405.8,-785.3 114.7,-383.2 -174,-785.3 -73,-785.3 116,-523.2 305.5,-785.3 		"/>
		<polygon class="st4" points="114.7,-383.2 405.8,-785.3 305.5,-785.3 116,-523.2 		"/>
		<polygon class="st4" points="114.7,-172.3 558.5,-785.3 457.9,-785.3 116,-312.3 		"/>
		<g>
			<g>
				<path class="st4" d="M116.6-157.8c55.8,0,101.2,45.4,101.2,101.2S172.4,44.6,116.6,44.6S15.4-0.8,15.4-56.6
					S60.8-157.8,116.6-157.8 M116.6-225.3c-93.1,0-168.7,75.5-168.7,168.7s75.5,168.7,168.7,168.7S285.2,36.5,285.2-56.6
					S209.7-225.3,116.6-225.3L116.6-225.3z"/>
			</g>
		</g>
	</g>
	<g class="st1">
		<polygon class="st3" points="794.5,-365.2 1183.5,176.6 1575.7,-365.2 1486.8,-365.2 1184.6,52.9 883.1,-365.2 		"/>
		<polygon class="st3" points="1440.8,-365.2 1183.5,-9.8 928.3,-365.2 1017.5,-365.2 1184.6,-133.5 1352.1,-365.2 		"/>
		<polygon class="st4" points="1183.5,-9.8 1440.8,-365.2 1352.1,-365.2 1184.6,-133.5 		"/>
		<polygon class="st4" points="1183.5,176.6 1575.7,-365.2 1486.8,-365.2 1184.6,52.9 		"/>
		<g>
			<g>
				<path class="st4" d="M1185.1,189.5c49.3,0,89.4,40.1,89.4,89.4s-40.1,89.4-89.4,89.4s-89.4-40.1-89.4-89.4
					S1135.8,189.5,1185.1,189.5 M1185.1,129.8c-82.3,0-149.1,66.7-149.1,149.1S1102.8,428,1185.1,428s149.1-66.7,149.1-149.1
					S1267.4,129.8,1185.1,129.8L1185.1,129.8z"/>
			</g>
		</g>
	</g>
	<g class="st1">
		<polygon class="st3" points="-183.5,244.6 256.6,857.6 700.4,244.6 599.8,244.6 257.9,717.6 -83.2,244.6 		"/>
		<polygon class="st3" points="547.7,244.6 256.6,646.7 -32.1,244.6 68.9,244.6 257.9,506.7 447.4,244.6 		"/>
		<polygon class="st4" points="256.6,646.7 547.7,244.6 447.4,244.6 257.9,506.7 		"/>
		<polygon class="st4" points="256.6,857.6 700.4,244.6 599.8,244.6 257.9,717.6 		"/>
		<g>
			<g>
				<path class="st4" d="M258.4,872.1c55.8,0,101.2,45.4,101.2,101.2c0,55.8-45.4,101.2-101.2,101.2s-101.2-45.4-101.2-101.2
					C157.2,917.5,202.6,872.1,258.4,872.1 M258.4,804.6c-93.1,0-168.7,75.5-168.7,168.7c0,93.1,75.5,168.7,168.7,168.7
					s168.7-75.5,168.7-168.7C427.1,880.1,351.6,804.6,258.4,804.6L258.4,804.6z"/>
			</g>
		</g>
	</g>
</g>
<g>
	<g>
		<path class="st5" d="M890.6,70.5v-9.3h-10.2v9.3l5.1,5.1L890.6,70.5z M877.9,73h-9.3v10.2h9.3l5.1-5.1L877.9,73z M880.5,85.8v9.3
			h10.2v-9.3l-5.1-5.1L880.5,85.8z M893.2,73l-5.1,5.1l5.1,5.1h9.3V73H893.2z"/>
	</g>
</g>
<g>
	<g>
		<path class="st5" d="M108.4,181.3v-6.4h-7v6.4l3.5,3.5L108.4,181.3z M99.7,183.1h-6.4v7h6.4l3.5-3.5L99.7,183.1z M101.5,191.8v6.4
			h7v-6.4l-3.5-3.5L101.5,191.8z M110.2,183.1l-3.5,3.5l3.5,3.5h6.4v-7H110.2z"/>
	</g>
</g>
<g>
	<g>
		<path class="st3" d="M226.7,186l-8.7-28.4h-0.2c0.3,5.8,0.5,9.6,0.5,11.6V186h-6.9v-36.2h10.4l8.6,27.7h0.1l9.1-27.7h10.4V186
			h-7.1v-17.1c0-0.8,0-1.7,0-2.8c0-1.1,0.1-3.9,0.3-8.4h-0.2l-9.3,28.3H226.7z"/>
		<path class="st3" d="M278.2,186l-1-3.5h-0.4c-0.8,1.3-2,2.3-3.4,3c-1.5,0.7-3.2,1.1-5.1,1.1c-3.2,0-5.7-0.9-7.3-2.6
			c-1.6-1.7-2.5-4.2-2.5-7.5v-18h7.5v16.2c0,2,0.4,3.5,1.1,4.5c0.7,1,1.8,1.5,3.4,1.5c2.1,0,3.6-0.7,4.6-2.1c0.9-1.4,1.4-3.7,1.4-7
			v-13h7.5V186H278.2z"/>
		<path class="st3" d="M303.1,186.5c-8.6,0-12.9-4.7-12.9-14.2c0-4.7,1.2-8.3,3.5-10.8c2.3-2.5,5.7-3.7,10.1-3.7
			c3.2,0,6.1,0.6,8.6,1.9l-2.2,5.8c-1.2-0.5-2.3-0.9-3.3-1.2c-1-0.3-2-0.5-3.1-0.5c-3.9,0-5.9,2.8-5.9,8.4c0,5.4,2,8.1,5.9,8.1
			c1.5,0,2.8-0.2,4-0.6c1.2-0.4,2.5-1,3.7-1.8v6.5c-1.2,0.8-2.5,1.3-3.7,1.6C306.6,186.4,305,186.5,303.1,186.5z"/>
		<path class="st3" d="M343.5,186h-7.5v-16.2c0-4-1.5-6-4.5-6c-2.1,0-3.6,0.7-4.6,2.2s-1.4,3.8-1.4,7v13h-7.5v-38.5h7.5v7.8
			c0,0.6-0.1,2-0.2,4.3l-0.2,2.2h0.4c1.7-2.7,4.4-4.1,8-4.1c3.2,0,5.7,0.9,7.4,2.6c1.7,1.7,2.5,4.3,2.5,7.5V186z"/>
		<path class="st3" d="M389.2,186h-7.5v-16.2c0-2-0.3-3.5-1-4.5c-0.7-1-1.7-1.5-3.2-1.5c-1.9,0-3.3,0.7-4.2,2.1
			c-0.9,1.4-1.3,3.8-1.3,7v13h-7.5v-27.7h5.8l1,3.5h0.4c0.7-1.3,1.8-2.3,3.2-3c1.4-0.7,3-1.1,4.8-1.1c4.1,0,6.9,1.4,8.4,4.1h0.7
			c0.7-1.3,1.8-2.3,3.3-3c1.4-0.7,3.1-1.1,4.9-1.1c3.1,0,5.5,0.8,7.1,2.4c1.6,1.6,2.4,4.2,2.4,7.7v18h-7.6v-16.2c0-2-0.3-3.5-1-4.5
			c-0.7-1-1.7-1.5-3.2-1.5c-1.8,0-3.2,0.7-4.1,2c-0.9,1.3-1.4,3.4-1.4,6.3V186z"/>
		<path class="st3" d="M439.3,172.2c0,4.5-1.2,8-3.6,10.6c-2.4,2.5-5.7,3.8-9.9,3.8c-2.7,0-5-0.6-7-1.7c-2-1.2-3.6-2.8-4.7-5
			c-1.1-2.2-1.6-4.7-1.6-7.6c0-4.5,1.2-8,3.5-10.5c2.4-2.5,5.7-3.8,9.9-3.8c2.7,0,5,0.6,7,1.7c2,1.2,3.6,2.8,4.7,5
			C438.7,166.7,439.3,169.3,439.3,172.2z M420.2,172.2c0,2.7,0.4,4.8,1.3,6.2c0.9,1.4,2.4,2.1,4.4,2.1c2,0,3.5-0.7,4.3-2.1
			c0.9-1.4,1.3-3.5,1.3-6.2c0-2.7-0.4-4.8-1.3-6.2c-0.9-1.4-2.4-2.1-4.4-2.1c-2,0-3.5,0.7-4.4,2S420.2,169.4,420.2,172.2z"/>
		<path class="st3" d="M460.9,157.9c1,0,1.9,0.1,2.5,0.2l-0.6,7.1c-0.6-0.2-1.4-0.2-2.2-0.2c-2.4,0-4.3,0.6-5.6,1.9
			c-1.3,1.2-2,3-2,5.2V186h-7.5v-27.7h5.7l1.1,4.7h0.4c0.9-1.6,2-2.8,3.5-3.7C457.6,158.3,459.2,157.9,460.9,157.9z"/>
		<path class="st3" d="M481,186.5c-4.5,0-7.9-1.2-10.4-3.7c-2.5-2.5-3.8-5.9-3.8-10.4c0-4.6,1.2-8.2,3.5-10.7
			c2.3-2.5,5.5-3.8,9.6-3.8c3.9,0,7,1.1,9.1,3.3s3.3,5.3,3.3,9.2v3.7h-17.8c0.1,2.1,0.7,3.8,1.9,5c1.2,1.2,2.9,1.8,5,1.8
			c1.7,0,3.2-0.2,4.7-0.5c1.5-0.3,3-0.9,4.7-1.7v5.8c-1.3,0.7-2.7,1.2-4.2,1.5C485,186.4,483.2,186.5,481,186.5z M480,163.2
			c-1.6,0-2.9,0.5-3.8,1.5s-1.4,2.5-1.6,4.3h10.6c0-1.9-0.5-3.3-1.5-4.3C482.8,163.7,481.6,163.2,480,163.2z"/>
		<path class="st3" d="M523.3,180.5c1.3,0,2.9-0.3,4.7-0.9v5.6c-1.9,0.8-4.2,1.3-6.9,1.3c-3,0-5.2-0.8-6.6-2.3
			c-1.4-1.5-2.1-3.8-2.1-6.9V164h-3.6v-3.2l4.2-2.5l2.2-5.8h4.8v5.9h7.7v5.7H520v13.3c0,1.1,0.3,1.9,0.9,2.4
			C521.5,180.3,522.3,180.5,523.3,180.5z"/>
		<path class="st3" d="M558.7,172.2c0,4.5-1.2,8-3.6,10.6c-2.4,2.5-5.7,3.8-9.9,3.8c-2.7,0-5-0.6-7-1.7c-2-1.2-3.6-2.8-4.7-5
			c-1.1-2.2-1.6-4.7-1.6-7.6c0-4.5,1.2-8,3.5-10.5c2.4-2.5,5.7-3.8,9.9-3.8c2.7,0,5,0.6,7,1.7c2,1.2,3.6,2.8,4.7,5
			C558.2,166.7,558.7,169.3,558.7,172.2z M539.6,172.2c0,2.7,0.4,4.8,1.3,6.2c0.9,1.4,2.4,2.1,4.4,2.1c2,0,3.5-0.7,4.3-2.1
			c0.9-1.4,1.3-3.5,1.3-6.2c0-2.7-0.4-4.8-1.3-6.2c-0.9-1.4-2.4-2.1-4.4-2.1c-2,0-3.5,0.7-4.4,2
			C540.1,167.4,539.6,169.4,539.6,172.2z"/>
		<path class="st3" d="M593.5,157.9c3.3,0,5.8,1.3,7.7,3.8c1.8,2.5,2.8,6,2.8,10.5c0,4.6-1,8.1-2.9,10.6c-1.9,2.5-4.5,3.8-7.8,3.8
			c-3.2,0-5.8-1.2-7.6-3.5h-0.5l-1.3,3h-5.8v-38.5h7.5v9c0,1.1-0.1,3-0.3,5.5h0.3C587.4,159.2,590.1,157.9,593.5,157.9z
			 M591.1,163.9c-1.9,0-3.2,0.6-4.1,1.7c-0.9,1.1-1.3,3-1.3,5.7v0.8c0,3,0.4,5.1,1.3,6.4c0.9,1.3,2.3,1.9,4.2,1.9
			c1.5,0,2.8-0.7,3.7-2.1c0.9-1.4,1.4-3.5,1.4-6.2s-0.5-4.8-1.4-6.1C594,164.6,592.7,163.9,591.1,163.9z"/>
		<path class="st3" d="M622.7,186.5c-4.5,0-7.9-1.2-10.4-3.7c-2.5-2.5-3.8-5.9-3.8-10.4c0-4.6,1.2-8.2,3.5-10.7
			c2.3-2.5,5.5-3.8,9.6-3.8c3.9,0,7,1.1,9.1,3.3s3.3,5.3,3.3,9.2v3.7h-17.8c0.1,2.1,0.7,3.8,1.9,5c1.2,1.2,2.9,1.8,5,1.8
			c1.7,0,3.2-0.2,4.7-0.5c1.5-0.3,3-0.9,4.7-1.7v5.8c-1.3,0.7-2.7,1.2-4.2,1.5C626.7,186.4,624.9,186.5,622.7,186.5z M621.6,163.2
			c-1.6,0-2.9,0.5-3.8,1.5c-0.9,1-1.4,2.5-1.6,4.3h10.6c0-1.9-0.5-3.3-1.5-4.3S623.2,163.2,621.6,163.2z"/>
		<path class="st3" d="M670.8,186l-1.5-3.8h-0.2c-1.3,1.6-2.6,2.7-3.9,3.3c-1.3,0.6-3.1,0.9-5.3,0.9c-2.7,0-4.7-0.8-6.3-2.3
			c-1.5-1.5-2.3-3.7-2.3-6.5c0-2.9,1-5.1,3.1-6.5c2.1-1.4,5.1-2.2,9.3-2.3l4.8-0.1v-1.2c0-2.8-1.4-4.2-4.3-4.2c-2.2,0-4.8,0.7-7.8,2
			l-2.5-5.1c3.2-1.7,6.7-2.5,10.6-2.5c3.7,0,6.6,0.8,8.5,2.4c2,1.6,3,4.1,3,7.4V186H670.8z M668.6,173.2l-2.9,0.1
			c-2.2,0.1-3.8,0.5-4.9,1.2c-1.1,0.7-1.6,1.8-1.6,3.3c0,2.1,1.2,3.2,3.7,3.2c1.7,0,3.1-0.5,4.2-1.5c1-1,1.6-2.3,1.6-4V173.2z"/>
		<path class="st3" d="M709.4,186h-7.5v-16.2c0-2-0.4-3.5-1.1-4.5c-0.7-1-1.8-1.5-3.4-1.5c-2.1,0-3.6,0.7-4.6,2.1
			c-0.9,1.4-1.4,3.7-1.4,7v13h-7.5v-27.7h5.8l1,3.5h0.4c0.8-1.3,2-2.3,3.5-3c1.5-0.7,3.2-1,5-1c3.2,0,5.7,0.9,7.3,2.6
			c1.7,1.7,2.5,4.3,2.5,7.5V186z"/>
		<path class="st3" d="M742.7,186h-7.5v-16.2c0-2-0.4-3.5-1.1-4.5c-0.7-1-1.8-1.5-3.4-1.5c-2.1,0-3.6,0.7-4.6,2.1
			c-0.9,1.4-1.4,3.7-1.4,7v13h-7.5v-27.7h5.8l1,3.5h0.4c0.8-1.3,2-2.3,3.5-3c1.5-0.7,3.2-1,5-1c3.2,0,5.7,0.9,7.3,2.6
			c1.7,1.7,2.5,4.3,2.5,7.5V186z"/>
		<path class="st3" d="M775.6,172.2c0,4.5-1.2,8-3.6,10.6c-2.4,2.5-5.7,3.8-9.9,3.8c-2.7,0-5-0.6-7-1.7c-2-1.2-3.6-2.8-4.7-5
			c-1.1-2.2-1.6-4.7-1.6-7.6c0-4.5,1.2-8,3.5-10.5c2.4-2.5,5.7-3.8,9.9-3.8c2.7,0,5,0.6,7,1.7c2,1.2,3.6,2.8,4.7,5
			C775.1,166.7,775.6,169.3,775.6,172.2z M756.5,172.2c0,2.7,0.4,4.8,1.3,6.2c0.9,1.4,2.4,2.1,4.4,2.1c2,0,3.5-0.7,4.3-2.1
			c0.9-1.4,1.3-3.5,1.3-6.2c0-2.7-0.4-4.8-1.3-6.2c-0.9-1.4-2.4-2.1-4.4-2.1c-2,0-3.5,0.7-4.4,2S756.5,169.4,756.5,172.2z"/>
		<path class="st3" d="M801.4,186l-1-3.5H800c-0.8,1.3-2,2.3-3.4,3s-3.2,1.1-5.1,1.1c-3.2,0-5.7-0.9-7.3-2.6
			c-1.6-1.7-2.5-4.2-2.5-7.5v-18h7.5v16.2c0,2,0.4,3.5,1.1,4.5c0.7,1,1.8,1.5,3.4,1.5c2.1,0,3.6-0.7,4.6-2.1c0.9-1.4,1.4-3.7,1.4-7
			v-13h7.5V186H801.4z"/>
		<path class="st3" d="M840.7,186h-7.5v-16.2c0-2-0.4-3.5-1.1-4.5c-0.7-1-1.8-1.5-3.4-1.5c-2.1,0-3.6,0.7-4.6,2.1
			c-0.9,1.4-1.4,3.7-1.4,7v13h-7.5v-27.7h5.8l1,3.5h0.4c0.8-1.3,2-2.3,3.5-3c1.5-0.7,3.2-1,5-1c3.2,0,5.7,0.9,7.3,2.6
			c1.7,1.7,2.5,4.3,2.5,7.5V186z"/>
		<path class="st3" d="M859.7,186.5c-8.6,0-12.9-4.7-12.9-14.2c0-4.7,1.2-8.3,3.5-10.8c2.3-2.5,5.7-3.7,10.1-3.7
			c3.2,0,6.1,0.6,8.6,1.9l-2.2,5.8c-1.2-0.5-2.3-0.9-3.3-1.2c-1-0.3-2-0.5-3.1-0.5c-3.9,0-5.9,2.8-5.9,8.4c0,5.4,2,8.1,5.9,8.1
			c1.5,0,2.8-0.2,4-0.6c1.2-0.4,2.5-1,3.7-1.8v6.5c-1.2,0.8-2.5,1.3-3.7,1.6C863.1,186.4,861.6,186.5,859.7,186.5z"/>
		<path class="st3" d="M887,186.5c-4.5,0-7.9-1.2-10.4-3.7c-2.5-2.5-3.8-5.9-3.8-10.4c0-4.6,1.2-8.2,3.5-10.7
			c2.3-2.5,5.5-3.8,9.6-3.8c3.9,0,7,1.1,9.1,3.3s3.3,5.3,3.3,9.2v3.7h-17.8c0.1,2.1,0.7,3.8,1.9,5c1.2,1.2,2.9,1.8,5,1.8
			c1.7,0,3.2-0.2,4.7-0.5c1.5-0.3,3-0.9,4.7-1.7v5.8c-1.3,0.7-2.7,1.2-4.2,1.5C891,186.4,889.2,186.5,887,186.5z M885.9,163.2
			c-1.6,0-2.9,0.5-3.8,1.5c-0.9,1-1.4,2.5-1.6,4.3h10.6c0-1.9-0.5-3.3-1.5-4.3S887.5,163.2,885.9,163.2z"/>
		<path class="st3" d="M913.2,186.5c-3.2,0-5.8-1.3-7.7-3.8c-1.9-2.5-2.8-6-2.8-10.5c0-4.5,0.9-8.1,2.8-10.6
			c1.9-2.5,4.5-3.8,7.8-3.8c3.5,0,6.1,1.4,8,4.1h0.2c-0.4-2.1-0.6-3.9-0.6-5.5v-8.9h7.6V186h-5.8l-1.5-3.6H921
			C919.3,185.2,916.7,186.5,913.2,186.5z M915.8,180.5c1.9,0,3.3-0.6,4.2-1.7c0.9-1.1,1.4-3,1.5-5.7v-0.8c0-3-0.5-5.1-1.4-6.4
			c-0.9-1.3-2.4-1.9-4.5-1.9c-1.7,0-3,0.7-3.9,2.1c-0.9,1.4-1.4,3.5-1.4,6.2s0.5,4.8,1.4,6.1C912.7,179.8,914.1,180.5,915.8,180.5z"
			/>
	</g>
</g>
</svg>
