<?xml version="1.0" encoding="utf-8"?>
<!-- Generator: Adobe Illustrator 21.0.2, SVG Export Plug-In . SVG Version: 6.00 Build 0)  -->
<svg version="1.1" id="Layer_1" xmlns="http://www.w3.org/2000/svg" xmlns:xlink="http://www.w3.org/1999/xlink" x="0px" y="0px"
	 viewBox="0 0 1024 720" style="enable-background:new 0 0 1024 720;" xml:space="preserve">
<style type="text/css">
	.st0{fill:#3C3C3B;}
	.st1{fill:#EFC981;}
	.st2{fill:none;stroke:#C58511;stroke-width:7.1581;stroke-miterlimit:10;}
</style>
<g id="Layer_2">
	<rect y="0" class="st0" width="1024" height="720"/>
</g>
<g id="Layer_1_1_">
	<g>
		<path class="st1" d="M579.8,207.6c0-34.7-28.1-62.8-62.8-62.8s-62.8,28.1-62.8,62.8H579.8z"/>
		<g>
			<path class="st2" d="M430.7,248.2c17.3,0,17.3,7.2,34.5,7.2c17.3,0,17.3-7.2,34.5-7.2c17.3,0,17.3,7.2,34.5,7.2
				c17.3,0,17.3-7.2,34.5-7.2s17.3,7.2,34.5,7.2"/>
		</g>
		<g>
			<path class="st2" d="M430.7,226.8c17.3,0,17.3,7.2,34.5,7.2c17.3,0,17.3-7.2,34.5-7.2c17.3,0,17.3,7.2,34.5,7.2
				c17.3,0,17.3-7.2,34.5-7.2s17.3,7.2,34.5,7.2"/>
		</g>
	</g>
	<g>
		<g>
			<path class="st1" d="M304.5,353.5v-50.1h13.6v50.1H304.5z"/>
			<path class="st1" d="M390.7,353.5h-17.8l-18.3-35.3h-0.3c0.4,5.6,0.7,9.8,0.7,12.7v22.6h-12v-50.1h17.7l18.2,34.8h0.2
				c-0.3-5.1-0.5-9.1-0.5-12.2v-22.7h12.1L390.7,353.5L390.7,353.5z"/>
			<path class="st1" d="M443.7,303.4h15.2l-16.4,50.1h-15.9l-16.4-50.1h15.2l6.8,25.4c1.4,5.6,2.2,9.6,2.3,11.8c0.2-1.6,0.5-3.6,1-6
				s0.9-4.3,1.3-5.7L443.7,303.4z"/>
			<path class="st1" d="M478.3,353.5v-50.1H492v50.1H478.3z"/>
			<path class="st1" d="M539.2,313.8c-3.2,0-5.7,1.3-7.5,4s-2.7,6.3-2.7,10.9c0,9.6,3.7,14.5,11,14.5c2.2,0,4.4-0.3,6.4-0.9
				c2.1-0.6,4.2-1.4,6.3-2.2v11.5c-4.2,1.9-8.9,2.8-14.2,2.8c-7.6,0-13.4-2.2-17.4-6.6s-6.1-10.7-6.1-19c0-5.2,1-9.7,2.9-13.7
				c2-3.9,4.8-7,8.4-9.1c3.7-2.1,8-3.2,12.9-3.2c5.4,0,10.6,1.2,15.5,3.5l-4.1,10.7c-1.9-0.9-3.7-1.6-5.6-2.2
				S541.3,313.8,539.2,313.8z"/>
			<path class="st1" d="M598.6,353.5H585v-39.1h-12.2v-11.1h38v11.1h-12.2V353.5z"/>
			<path class="st1" d="M660.1,303.4h15.2l-16.4,50.1H643l-16.4-50.1h15.2l6.8,25.4c1.4,5.6,2.2,9.6,2.3,11.8c0.2-1.6,0.5-3.6,1-6
				s0.9-4.3,1.3-5.7L660.1,303.4z"/>
			<path class="st1" d="M727.5,338.3c0,3.1-0.8,5.9-2.4,8.3c-1.6,2.4-3.9,4.3-6.8,5.6c-3,1.3-6.5,2-10.5,2c-3.3,0-6.1-0.2-8.4-0.7
				s-4.6-1.3-7.1-2.5v-12c2.6,1.3,5.3,2.4,8.1,3.1s5.3,1.1,7.7,1.1c2,0,3.5-0.3,4.4-1s1.4-1.6,1.4-2.7c0-0.7-0.2-1.3-0.6-1.8
				s-1-1-1.8-1.6c-0.8-0.5-3.1-1.6-6.7-3.2c-3.3-1.5-5.7-2.9-7.4-4.3s-2.8-3-3.6-4.8s-1.2-3.9-1.2-6.4c0-4.6,1.7-8.2,5-10.8
				c3.4-2.6,8-3.9,13.9-3.9c5.2,0,10.5,1.2,15.9,3.6l-4.1,10.5c-4.7-2.1-8.7-3.2-12.1-3.2c-1.8,0-3,0.3-3.8,0.9s-1.2,1.4-1.2,2.3
				c0,1,0.5,1.9,1.5,2.6c1,0.8,3.8,2.2,8.3,4.3c4.3,1.9,7.3,4,9,6.3C726.7,332.1,727.5,334.9,727.5,338.3z"/>
			<path class="st1" d="M408,428.9c0-0.3,0.1-0.6,0.3-0.8c0.2-0.3,0.5-0.4,0.8-0.4h2.7c0.5,0,0.9-0.2,1.3-0.6s0.7-0.8,0.8-1.3
				l9.3-40.4c0-0.1,0.1-0.3,0.1-0.6c0-0.4-0.1-0.7-0.3-1c-0.2-0.2-0.5-0.3-0.9-0.3h-2.7c-0.4,0-0.6-0.3-0.6-0.8
				c0-0.3,0.1-0.6,0.3-0.9c0.2-0.3,0.5-0.4,0.8-0.4h31.7c0.5,0,0.8,0.2,1,0.6s0.3,0.9,0.2,1.4l-2.3,10.1c-0.1,0.5-0.3,0.8-0.7,0.8
				c-0.3,0-0.5-0.3-0.6-0.8c-0.5-3.7-1.6-6.4-3.3-7.8c-1.7-1.5-4.3-2.2-7.9-2.2h-7.7l-4.7,20.7c1.8,0,3.4-0.1,4.8-0.3
				c1.4-0.2,2.8-0.8,4.2-1.8s2.5-2.5,3.4-4.5c0-0.2,0.2-0.4,0.4-0.6c0.2-0.2,0.5-0.3,0.7-0.3s0.4,0.1,0.6,0.3
				c0.2,0.2,0.2,0.4,0.2,0.6l-3.5,15.3c-0.1,0.3-0.2,0.5-0.4,0.7c-0.2,0.2-0.4,0.3-0.6,0.3s-0.4-0.1-0.6-0.3
				c-0.2-0.2-0.2-0.4-0.2-0.7c0-1.7-0.2-3.1-0.8-4c-0.6-0.9-1.6-1.6-2.9-2c-1.4-0.4-3.3-0.6-5.7-0.6l-5,21.4h7.8
				c4.2,0,7.5-0.8,10.1-2.3s5-4.1,7.3-7.8c0.3-0.4,0.6-0.6,1.1-0.6c0.1,0,0.2,0.1,0.2,0.2c0.1,0.1,0.1,0.3,0,0.5l-2.7,10.2
				c-0.1,0.5-0.4,0.9-0.9,1.3s-1,0.6-1.4,0.6H409C408.2,429.6,408,429.4,408,428.9z"/>
			<path class="st1" d="M471.5,429c-1.1-0.8-1.6-2.2-1.6-4.1c0-1.4,0.3-2.9,0.8-4.7c0.5-1.8,1.2-4.1,2.2-6.8
				c0.8-2.2,1.4-4.1,1.8-5.4c0.4-1.4,0.6-2.5,0.6-3.3c0-1.1-0.4-1.7-1.3-1.7c-1.3,0-2.5,1-3.7,2.9s-2.2,3.9-2.9,5.9h-1.1
				c1.5-3.9,3.1-6.7,4.6-8.4c1.5-1.7,3.3-2.6,5.5-2.6c2.5,0,3.7,1.1,3.7,3.4c0,1.1-0.2,2.5-0.7,4.1c-0.4,1.7-1.1,4-2.1,6.9
				c-0.9,2.8-1.5,4.9-1.9,6.4s-0.6,2.6-0.6,3.6c0,0.8,0.2,1.5,0.6,2.1s1.1,0.8,1.9,0.8c1.6,0,3.5-0.9,5.8-2.7
				c2.2-1.8,4.2-4.2,5.8-7.1c1.6-2.9,2.4-5.9,2.4-9c0-1.4-0.1-2.2-0.4-2.6s-0.6-0.6-1.1-0.6c-1.2,0-2.2-0.2-2.9-0.7
				c-0.8-0.4-1.1-1.2-1.1-2.1s0.3-1.6,0.9-2c0.6-0.5,1.4-0.7,2.4-0.7c1.3,0,2.3,0.5,2.9,1.5c0.7,1,1,2.8,1,5.3c0,3.5-0.9,7-2.8,10.5
				c-1.8,3.6-4.2,6.5-6.9,8.8c-2.8,2.3-5.4,3.5-8,3.5C473.8,430.2,472.5,429.8,471.5,429z"/>
			<path class="st1" d="M513.2,427.5c-1.9-1.8-2.9-4.3-2.9-7.7c0-0.9,0.2-2.3,0.5-4.1c0.7-3,1.9-5.7,3.7-8c1.7-2.3,3.7-4.1,5.8-5.3
				c2.2-1.2,4.2-1.9,6.1-1.9c2.9,0,5,0.9,6.3,2.8s1.9,4.1,1.9,6.6c0,1.2-0.1,2.1-0.3,2.8c-0.2,1.1-0.8,1.7-1.6,1.7h-13.3
				c-1.2,0-2,0.1-2.6,0.2c-0.5,0.2-0.9,0.6-1,1.2c0,0.3-0.2,1.1-0.4,2.3s-0.4,2.3-0.4,3.4c0,4.6,2.1,7,6.4,7h0.2
				c1.4,0,2.8-0.5,4.3-1.3s3.1-2.3,5-4.5c0.2-0.2,0.4-0.3,0.8-0.3c0.2,0,0.4,0.1,0.5,0.2s0,0.4-0.2,0.6c-0.4,0.6-1.1,1.4-2.1,2.4
				c-1.1,1.1-2.4,2-4.2,3c-1.7,0.9-3.6,1.4-5.6,1.4C517.4,430.2,515.1,429.3,513.2,427.5z M528,412.8c0.7,0,1.1-0.1,1.2-0.2
				s0.3-0.5,0.4-1.1c0.3-1.3,0.5-2.8,0.5-4.4c0-3.6-1.2-5.3-3.7-5.3c-1.8,0-3.5,0.9-5.3,2.8c-1.8,1.8-3.2,4.6-4.3,8.2H528z"/>
			<path class="st1" d="M572.3,429.2c-0.8-0.7-1.2-2-1.2-3.8c0-1.4,0.2-2.8,0.6-4.4c0.4-1.6,1-3.6,1.9-6.1c0.7-2,1.2-3.7,1.5-5
				c0.4-1.3,0.5-2.4,0.5-3.3c0-2-1-3-2.9-3s-3.5,0.9-4.7,2.6c-1.3,1.7-2.4,3.9-3.2,6.6c-0.9,2.7-1.9,6.5-3.2,11.6l-1.1,4.3
				c-0.1,0.6-0.5,0.9-1.1,0.9h-2.8c-0.4,0-0.6-0.1-0.8-0.4c-0.2-0.2-0.2-0.5-0.1-0.8c0.3-1.4,1.3-5.2,2.8-11.4
				c0.8-3.2,1.5-5.8,1.9-7.7c0.4-1.9,0.6-3.4,0.6-4.5c0-1.5-0.5-2.2-1.4-2.2c-1,0-2.1,0.8-3.3,2.4s-2.3,3.6-3.3,6.1l-0.8-0.2
				c1.4-3.1,2.7-5.6,4.2-7.5c1.4-1.8,3.2-2.8,5.3-2.8c1.5,0,2.6,0.4,3.1,1.1s0.8,1.7,0.8,2.8l-0.1,1.7c0,0.4,0.1,0.6,0.2,0.6
				c0.1,0,0.2-0.1,0.4-0.3c0.2-0.2,0.7-0.9,1.5-1.9c0.8-1.1,1.9-2,3.4-2.8c1.4-0.8,3.1-1.2,4.9-1.2c3.3,0,4.9,1.5,4.9,4.4
				c0,1.1-0.2,2.4-0.6,3.8c-0.4,1.4-0.9,3.2-1.6,5.4c-0.8,2.4-1.4,4.5-1.9,6.2c-0.4,1.7-0.7,3.3-0.7,4.8c0,1,0.1,1.7,0.4,2.1
				c0.2,0.4,0.6,0.6,1.1,0.6c2,0,4.1-2.8,6.5-8.4l0.8,0.2c-1.5,3.4-2.9,6-4.2,7.8c-1.4,1.8-3.1,2.7-5.2,2.7
				C574.1,430.3,573.1,429.9,572.3,429.2z"/>
			<path class="st1" d="M605.4,429.2c-0.7-0.7-1.1-1.6-1.1-2.5c0-1.1,0.6-4.1,1.7-9c1.1-4.9,2.2-9.7,3.4-14.3h-5.5
				c-0.3,0-0.4-0.3-0.4-0.8c0-0.2,0.1-0.4,0.2-0.4c0.1,0,0.3-0.1,0.4-0.1c0.2,0,0.3,0,0.4,0c2.9,0,5.1-1.2,6.7-3.7
				c1.6-2.5,2.7-4.9,3.3-7.2c0.2-0.6,0.5-0.9,1.1-0.9h0.5c0.2,0,0.3,0.1,0.5,0.3c0.1,0.2,0.1,0.4,0,0.6l-2.4,10.3h5.1
				c0.2,0,0.4,0.2,0.4,0.6c0,0.3-0.1,0.6-0.2,0.9c-0.1,0.3-0.3,0.5-0.5,0.5h-5.2c-0.9,3.6-2,8.1-3.2,13.5s-1.8,8.5-1.8,9.4
				c0,0.5,0.2,0.9,0.5,1.2c0.3,0.3,0.7,0.5,1.2,0.5c1,0,2-0.8,3.2-2.3c1.1-1.5,2.2-3.6,3.3-6.1l0.8,0.2c-1.4,3.2-2.7,5.8-4.1,7.7
				c-1.4,1.9-3.1,2.8-5.2,2.8C607.1,430.3,606.1,429.9,605.4,429.2z"/>
		</g>
	</g>
</g>
<g>
	<path class="st1" d="M1010,14v692H14V14H1010 M1024,0H0v720h1024V0L1024,0z"/>
</g>
</svg>
