<?xml version="1.0" encoding="utf-8"?>
<!-- Generator: Adobe Illustrator 21.0.2, SVG Export Plug-In . SVG Version: 6.00 Build 0)  -->
<svg version="1.1" id="Layer_1" xmlns="http://www.w3.org/2000/svg" xmlns:xlink="http://www.w3.org/1999/xlink" x="0px" y="0px"
	 viewBox="0 0 1024 720" style="enable-background:new 0 0 1024 720;" xml:space="preserve">
<style type="text/css">
	.st0{fill:#3C3C3B;}
	.st1{fill:#C58511;}
	.st2{fill:#EFC981;}
</style>
<g id="Layer_2">
	<rect y="0" class="st0" width="1024" height="720"/>
</g>
<g id="Layer_1_1_">
	<path class="st1" d="M532.3,176.9V145h-34.8v31.9l17.4,17.4L532.3,176.9z M488.8,185.6h-31.9v34.8h31.9l17.4-17.4L488.8,185.6z
		 M497.5,229v31.9h34.8V229l-17.4-17.4L497.5,229z M541,185.6L523.6,203l17.4,17.4h31.9v-34.8L541,185.6L541,185.6z"/>
	<g>
		<g>
			<path class="st2" d="M300.5,353.1V303h13.6v50.1H300.5z"/>
			<path class="st2" d="M386.7,353.1h-17.8l-18.3-35.3h-0.3c0.4,5.6,0.7,9.8,0.7,12.7v22.6h-12V303h17.7l18.2,34.8h0.2
				c-0.3-5.1-0.5-9.1-0.5-12.2V303h12.1L386.7,353.1L386.7,353.1z"/>
			<path class="st2" d="M439.7,303h15.2l-16.4,50.1h-15.9L406.2,303h15.2l6.8,25.4c1.4,5.6,2.2,9.6,2.3,11.8c0.2-1.6,0.5-3.6,1-6
				s0.9-4.3,1.3-5.7L439.7,303z"/>
			<path class="st2" d="M474.3,353.1V303H488v50.1H474.3z"/>
			<path class="st2" d="M535.2,313.4c-3.2,0-5.7,1.3-7.5,4s-2.7,6.3-2.7,10.9c0,9.6,3.7,14.5,11,14.5c2.2,0,4.4-0.3,6.4-0.9
				c2.1-0.6,4.2-1.4,6.3-2.2V351c-4.2,1.9-8.9,2.8-14.2,2.8c-7.6,0-13.4-2.2-17.4-6.6s-6.1-10.7-6.1-19c0-5.2,1-9.7,2.9-13.7
				c2-3.9,4.8-7,8.4-9.1c3.7-2.1,8-3.2,12.9-3.2c5.4,0,10.6,1.2,15.5,3.5l-4.1,10.7c-1.9-0.9-3.7-1.6-5.6-2.2
				S537.3,313.4,535.2,313.4z"/>
			<path class="st2" d="M594.6,353.1H581V314h-12.2v-11h38v11.1h-12.2V353.1z"/>
			<path class="st2" d="M656.1,303h15.2l-16.4,50.1H639L622.6,303h15.2l6.8,25.4c1.4,5.6,2.2,9.6,2.3,11.8c0.2-1.6,0.5-3.6,1-6
				s0.9-4.3,1.3-5.7L656.1,303z"/>
			<path class="st2" d="M723.5,337.9c0,3.1-0.8,5.9-2.4,8.3s-3.9,4.3-6.8,5.6c-3,1.3-6.5,2-10.5,2c-3.3,0-6.1-0.2-8.4-0.7
				s-4.6-1.3-7.1-2.5v-12.1c2.6,1.3,5.3,2.4,8.1,3.1s5.3,1.1,7.7,1.1c2,0,3.5-0.3,4.4-1s1.4-1.6,1.4-2.7c0-0.7-0.2-1.3-0.6-1.8
				s-1-1-1.8-1.6c-0.8-0.5-3.1-1.6-6.7-3.2c-3.3-1.5-5.7-2.9-7.4-4.3s-2.8-3-3.6-4.8s-1.2-3.9-1.2-6.4c0-4.6,1.7-8.2,5-10.8
				c3.4-2.6,8-3.9,13.9-3.9c5.2,0,10.5,1.2,15.9,3.6l-4.1,10.5c-4.7-2.1-8.7-3.2-12.1-3.2c-1.8,0-3,0.3-3.8,0.9s-1.2,1.4-1.2,2.3
				c0,1,0.5,1.9,1.5,2.6c1,0.8,3.8,2.2,8.3,4.3c4.3,1.9,7.3,4,9,6.3C722.7,331.7,723.5,334.5,723.5,337.9z"/>
			<path class="st2" d="M328.7,427.5c-2.4-1.6-4.2-3.7-5.5-6.5s-2-5.9-2-9.4c0-2.1,0.3-4.3,0.8-6.6c1-4.4,2.9-8.6,5.7-12.4
				c2.7-3.8,5.9-6.8,9.6-9s7.3-3.3,11.1-3.3c3.1,0,6,0.8,8.5,2.5c0.4,0.2,0.7,0.3,1.1,0.3c0.8,0,1.7-0.3,2.6-1
				c0.3-0.3,0.5-0.5,0.7-0.5c0.2-0.1,0.5-0.1,0.8-0.1s0.5,0.1,0.6,0.2s0.1,0.4,0,0.7l-2.2,10.5c0,0.3-0.2,0.5-0.4,0.7
				c-0.2,0.2-0.4,0.2-0.6,0.2s-0.4-0.1-0.5-0.2s-0.2-0.4-0.2-0.8c-0.1-0.8-0.5-2.2-1.3-4.2c-0.8-1.9-1.6-3.3-2.5-4.2
				c-1.3-1.5-3.7-2.3-7.1-2.3c-3.9,0-7.4,1.8-10.7,5.5c-3.2,3.7-5.8,9.5-7.6,17.4c-0.9,4.2-1.4,7.8-1.4,11c0,4.2,0.8,7.2,2.4,9.2
				s3.8,3,6.6,3c3.6,0,6.8-1.5,9.8-4.6c0.8-1,1.5-2.4,2-4.1l1.5-7v-0.4c0-0.5-0.1-0.8-0.3-1.1c-0.2-0.3-0.5-0.4-0.9-0.4h-2.8
				c-0.2,0-0.4-0.1-0.5-0.2c-0.1-0.2-0.2-0.4-0.2-0.6c0-0.3,0.1-0.6,0.3-0.7c0.2-0.2,0.5-0.2,0.8-0.2h14.5c0.5,0,0.8,0.2,0.8,0.6
				c0,0.3-0.1,0.6-0.4,0.8s-0.5,0.4-0.8,0.4h-1.8c-0.5,0-0.9,0.2-1.4,0.6s-0.8,0.8-0.8,1.3l-2.7,12.4l-0.7,3.9
				c-0.1,0.3-0.2,0.5-0.5,0.8c-0.2,0.2-0.4,0.4-0.7,0.4c-0.4,0-0.7-0.2-0.8-0.7l-0.9-5.2h-0.2c-2.3,2-4.6,3.4-6.8,4.4
				c-2.2,1-4.5,1.5-6.8,1.5C333.8,429.8,331.1,429.1,328.7,427.5z"/>
			<path class="st2" d="M383.2,429.2c-1.3-0.6-2.4-1.7-3.3-3.1s-1.4-3.2-1.4-5.5c0-2.9,0.7-5.9,2.1-9.1s3.3-5.9,5.6-8.1
				c2.3-2.2,4.7-3.3,7.2-3.3c1.3,0,2.5,0.4,3.6,1.1s1.9,1.6,2.5,2.5c0.1,0.2,0.3,0.3,0.5,0.3c0.3,0,0.5-0.2,0.6-0.5l0.4-1.5
				c0.1-0.6,0.5-0.9,1.1-0.9h2.2c0.7,0,1.1,0.4,0.9,1.2c-3.5,14-5.2,21.8-5.2,23.5c0,0.6,0.2,1,0.5,1.3s0.7,0.5,1.2,0.5
				c1,0,2-0.8,3.2-2.3c1.1-1.5,2.2-3.6,3.3-6.1l0.8,0.2c-1.5,3.6-2.9,6.2-4.3,7.9c-1.4,1.7-3.2,2.6-5.4,2.6c-1.4,0-2.3-0.3-2.7-1
				c-0.5-0.7-0.8-1.6-1.1-2.9c0-0.5-0.2-0.6-0.6-0.2c-1.4,1.4-2.7,2.5-3.9,3.2c-1.2,0.7-2.5,1.1-4,1.1
				C385.8,430.1,384.5,429.8,383.2,429.2z M393,426c1.4-1.5,2.6-3.6,3.5-6.3c0.9-2.7,1.9-6.4,2.9-11.2c0-1.6-0.4-3.2-1.2-4.6
				c-0.8-1.5-2-2.2-3.6-2.2c-2.2,0-4.2,1.1-5.9,3.4c-1.8,2.3-3.1,5.1-4.1,8.4s-1.5,6.3-1.5,9.1c0,1.9,0.3,3.3,0.9,4.2
				c0.6,1,1.8,1.4,3.4,1.4C389.8,428.3,391.6,427.5,393,426z"/>
			<path class="st2" d="M461.2,428.8c-0.8-0.7-1.2-2-1.2-3.8c0-1.4,0.2-2.8,0.6-4.4c0.4-1.5,1-3.6,1.9-6.1c0.7-2.3,1.3-4.1,1.6-5.3
				c0.3-1.2,0.5-2.2,0.5-3.2c0-1.9-0.9-2.9-2.6-2.9c-1.5,0.1-3.1,1-4.7,2.6s-2.9,4.2-3.7,7.8l-3.4,14.7c-0.1,0.6-0.5,0.9-1.1,0.9
				h-2.5c-0.4,0-0.6-0.1-0.8-0.4c-0.2-0.2-0.2-0.5-0.1-0.9l2.5-10.8c1.5-6.3,2.2-9.7,2.2-10.2c0-1.1-0.3-2-0.9-2.7s-1.3-1.1-2.3-1.1
				c-0.9,0-1.9,0.3-3.1,0.9c-1.1,0.6-2.3,1.7-3.3,3.3c-1.1,1.5-1.9,3.6-2.5,6.2l-3.4,14.7c-0.1,0.6-0.5,0.9-1.1,0.9h-2.6
				c-0.8,0-1.1-0.4-0.9-1.2l2.1-8.8c2.2-8.6,3.2-13.5,3.2-14.7c0-0.6-0.1-1.1-0.4-1.5s-0.6-0.7-1.2-0.7c-0.9,0-2,0.8-3.2,2.4
				s-2.3,3.6-3.2,6.1l-0.8-0.2c1.5-3.3,2.9-5.9,4.2-7.7c1.4-1.8,3.1-2.7,5.2-2.7c1.2,0,2.2,0.3,2.9,1c0.7,0.7,1.1,1.7,1.1,3.1
				c0,0.4,0,0.8-0.1,1.3s-0.1,0.7,0,0.7s0.2,0,0.2-0.1s0.1-0.1,0.2-0.2s0.6-0.7,1.4-1.8c0.8-1,2-2,3.4-2.8c1.5-0.8,2.9-1.3,4.4-1.3
				c1.9,0,3.2,0.5,3.9,1.6c0.7,1.1,1.2,2.4,1.3,4c0,0.3,0.1,0.5,0.2,0.5s0.2,0,0.3-0.1c0.1-0.1,0.2-0.1,0.2-0.2
				c0.1-0.1,0.5-0.6,1.3-1.7c0.8-1,1.9-2,3.3-2.8c1.5-0.9,2.9-1.3,4.4-1.3c3.3,0,4.9,1.5,4.9,4.4c0,1.1-0.2,2.4-0.6,3.8
				s-0.9,3.2-1.6,5.4c-0.8,2.4-1.4,4.5-1.9,6.2c-0.4,1.7-0.7,3.3-0.7,4.8c0,1,0.1,1.7,0.4,2.1c0.2,0.4,0.6,0.6,1.2,0.6
				c1,0,2-0.7,3.1-2.2s2.2-3.5,3.3-6.2l0.8,0.2c-1.5,3.5-3,6.1-4.3,7.8c-1.3,1.8-3.1,2.6-5.2,2.6C463,429.9,462,429.5,461.2,428.8z"
				/>
			<path class="st2" d="M494,427.2c-1.9-1.8-2.9-4.3-2.9-7.7c0-0.9,0.2-2.3,0.5-4.1c0.7-3,1.9-5.7,3.7-8c1.7-2.3,3.7-4.1,5.8-5.3
				c2.2-1.2,4.2-1.9,6.1-1.9c2.9,0,5,0.9,6.3,2.8s1.9,4.1,1.9,6.6c0,1.2-0.1,2.1-0.3,2.8c-0.2,1.1-0.8,1.7-1.6,1.7h-13.3
				c-1.2,0-2,0.1-2.6,0.2c-0.5,0.2-0.9,0.6-1,1.2c0,0.3-0.2,1.1-0.4,2.3c-0.2,1.2-0.4,2.3-0.4,3.4c0,4.6,2.1,7,6.4,7h0.2
				c1.4,0,2.8-0.5,4.3-1.3s3.1-2.3,5-4.5c0.2-0.2,0.4-0.3,0.8-0.3c0.2,0,0.4,0.1,0.5,0.2s0,0.4-0.2,0.6c-0.4,0.6-1.1,1.4-2.1,2.4
				c-1.1,1.1-2.4,2-4.2,3c-1.7,0.9-3.6,1.4-5.6,1.4C498.2,429.8,495.9,428.9,494,427.2z M508.8,412.4c0.7,0,1.1-0.1,1.2-0.2
				s0.3-0.5,0.4-1.1c0.3-1.3,0.5-2.8,0.5-4.4c0-3.6-1.2-5.3-3.7-5.3c-1.8,0-3.5,0.9-5.3,2.8c-1.8,1.8-3.2,4.6-4.3,8.2H508.8z"/>
			<path class="st2" d="M562.8,428.3c-1.4-1.2-2-2.9-2-4.9c0-1.5,0.4-2.8,1.1-3.9c0.6-0.8,1.3-1.6,2.1-2.2s1.7-0.9,2.7-0.9
				c0.8,0,1.5,0.2,2,0.7s0.7,1.2,0.7,2c0,1.3-0.4,2.4-1.2,3.3s-1.7,1.4-2.9,1.4c-0.2,0-0.5,0.1-0.7,0.4c-0.3,0.3-0.4,0.6-0.5,0.9
				c-0.2,0.8,0,1.5,0.7,2.2c0.6,0.7,1.7,1,3.3,1c2.2,0,3.9-0.6,5.2-1.8c1.3-1.2,2.4-2.8,3.1-4.7c0.7-1.9,1.4-4.3,2.1-7.3l6.7-29.4
				v-0.3c0-0.5-0.1-0.8-0.4-1.1c-0.3-0.2-0.6-0.4-1-0.4H581c-0.4,0-0.6-0.3-0.6-0.8c0-0.7,0.4-1.1,1.1-1.1H597
				c0.6,0,0.8,0.2,0.8,0.6c0,0.3-0.1,0.6-0.4,0.9c-0.3,0.3-0.5,0.4-0.9,0.4h-2.8c-0.5,0-1,0.2-1.4,0.5s-0.7,0.7-0.8,1.2l-7,30.3
				c-0.7,3.3-2.2,6.6-4.6,9.8c-2.4,3.2-6,4.8-11,4.8C566.2,430.1,564.2,429.5,562.8,428.3z"/>
			<path class="st2" d="M612.1,429.2c-1.3-0.6-2.4-1.7-3.3-3.1c-0.9-1.4-1.4-3.2-1.4-5.5c0-2.9,0.7-5.9,2.1-9.1
				c1.4-3.2,3.3-5.9,5.6-8.1s4.7-3.3,7.2-3.3c1.3,0,2.5,0.4,3.6,1.1s1.9,1.6,2.5,2.5c0.1,0.2,0.3,0.3,0.5,0.3c0.3,0,0.5-0.2,0.6-0.5
				l0.4-1.5c0.1-0.6,0.5-0.9,1.1-0.9h2.2c0.7,0,1.1,0.4,0.9,1.2c-3.5,14-5.2,21.8-5.2,23.5c0,0.6,0.2,1,0.5,1.3s0.7,0.5,1.2,0.5
				c1,0,2-0.8,3.2-2.3c1.1-1.5,2.2-3.6,3.3-6.1l0.8,0.2c-1.5,3.6-2.9,6.2-4.3,7.9c-1.4,1.7-3.2,2.6-5.4,2.6c-1.4,0-2.3-0.3-2.7-1
				c-0.5-0.7-0.8-1.6-1.1-2.9c0-0.5-0.2-0.6-0.6-0.2c-1.4,1.4-2.7,2.5-3.9,3.2s-2.5,1.1-4,1.1C614.7,430.1,613.4,429.8,612.1,429.2z
				 M621.9,426c1.4-1.5,2.6-3.6,3.5-6.3c0.9-2.7,1.9-6.4,2.9-11.2c0-1.6-0.4-3.2-1.2-4.6c-0.8-1.5-2-2.2-3.6-2.2
				c-2.2,0-4.2,1.1-5.9,3.4c-1.8,2.3-3.1,5.1-4.1,8.4s-1.5,6.3-1.5,9.1c0,1.9,0.3,3.3,0.9,4.2c0.6,1,1.8,1.4,3.4,1.4
				C618.7,428.3,620.5,427.5,621.9,426z"/>
			<path class="st2" d="M690.1,428.8c-0.8-0.7-1.2-2-1.2-3.8c0-1.4,0.2-2.8,0.6-4.4c0.4-1.5,1-3.6,1.9-6.1c0.7-2.3,1.3-4.1,1.6-5.3
				c0.3-1.2,0.5-2.2,0.5-3.2c0-1.9-0.9-2.9-2.6-2.9c-1.5,0.1-3.1,1-4.7,2.6c-1.6,1.6-2.9,4.2-3.7,7.8l-3.4,14.7
				c-0.1,0.6-0.5,0.9-1.1,0.9h-2.5c-0.4,0-0.6-0.1-0.8-0.4c-0.2-0.2-0.2-0.5-0.1-0.9l2.5-10.8c1.5-6.3,2.2-9.7,2.2-10.2
				c0-1.1-0.3-2-0.9-2.7c-0.6-0.7-1.3-1.1-2.3-1.1c-0.9,0-1.9,0.3-3.1,0.9c-1.1,0.6-2.3,1.7-3.3,3.3c-1.1,1.5-1.9,3.6-2.5,6.2
				l-3.4,14.7c-0.1,0.6-0.5,0.9-1.1,0.9H660c-0.8,0-1.1-0.4-0.9-1.2l2.1-8.8c2.2-8.6,3.2-13.5,3.2-14.7c0-0.6-0.1-1.1-0.4-1.5
				c-0.3-0.4-0.6-0.7-1.2-0.7c-0.9,0-2,0.8-3.2,2.4s-2.3,3.6-3.2,6.1l-0.8-0.2c1.5-3.3,2.9-5.9,4.2-7.7c1.4-1.8,3.1-2.7,5.2-2.7
				c1.2,0,2.2,0.3,2.9,1s1.1,1.7,1.1,3.1c0,0.4,0,0.8-0.1,1.3s-0.1,0.7,0,0.7s0.2,0,0.2-0.1s0.1-0.1,0.2-0.2
				c0.1-0.1,0.6-0.7,1.4-1.8c0.8-1,2-2,3.4-2.8c1.5-0.8,2.9-1.3,4.4-1.3c1.9,0,3.2,0.5,3.9,1.6s1.2,2.4,1.3,4c0,0.3,0.1,0.5,0.2,0.5
				c0.1,0,0.2,0,0.3-0.1s0.2-0.1,0.2-0.2c0.1-0.1,0.5-0.6,1.3-1.7c0.8-1,1.9-2,3.3-2.8c1.5-0.9,2.9-1.3,4.4-1.3
				c3.3,0,4.9,1.5,4.9,4.4c0,1.1-0.2,2.4-0.6,3.8c-0.4,1.4-0.9,3.2-1.6,5.4c-0.8,2.4-1.4,4.5-1.9,6.2c-0.4,1.7-0.7,3.3-0.7,4.8
				c0,1,0.1,1.7,0.4,2.1c0.2,0.4,0.6,0.6,1.2,0.6c1,0,2-0.7,3.1-2.2s2.2-3.5,3.3-6.2l0.8,0.2c-1.5,3.5-3,6.1-4.3,7.8
				c-1.3,1.8-3.1,2.6-5.2,2.6C691.9,429.9,690.9,429.5,690.1,428.8z"/>
		</g>
	</g>
</g>
<g>
	<path class="st2" d="M1010,14v692H14V14H1010 M1024,0H0v720h1024V0L1024,0z"/>
</g>
</svg>
