<?xml version="1.0" encoding="utf-8"?>
<!-- Generator: Adobe Illustrator 21.0.2, SVG Export Plug-In . SVG Version: 6.00 Build 0)  -->
<svg version="1.1" id="Layer_1" xmlns="http://www.w3.org/2000/svg" xmlns:xlink="http://www.w3.org/1999/xlink" x="0px" y="0px"
	 viewBox="0 0 1140 350" style="enable-background:new 0 0 1140 350;" xml:space="preserve">
<style type="text/css">
	.st0{fill:#3C3C3B;}
	.st1{clip-path:url(#SVGID_2_);}
	.st2{fill:#D19C45;}
	.st3{fill:#C48411;}
	.st4{fill:#EEC880;}
	.st5{fill:#FFFFFF;}
</style>
<rect x="1.7" y="-0.1" class="st0" width="1136.6" height="350.2"/>
<g>
	<defs>
		<rect id="SVGID_1_" x="1.7" y="-0.1" width="1136.6" height="349.9"/>
	</defs>
	<clipPath id="SVGID_2_">
		<use xlink:href="#SVGID_1_"  style="overflow:visible;"/>
	</clipPath>
	<g class="st1">
		<g>
			<path class="st2" d="M-241.5-821.4l120.9,0.8L73.3-380.7L25.1-276.5H1.9L-241.5-821.4 M-281.4-847.4l266.5,596.7h56.4l60-129.7
				l-205.3-465.8L-281.4-847.4L-281.4-847.4z"/>
		</g>
	</g>
	<g class="st1">
		<g>
			<path class="st2" d="M1894.5,254.5l-211.5,467.4l-88.3-192.3l125.8-275.1H1894.5 M1934.5,228.7H1704l-137.6,300.9l116.8,254.5
				L1934.5,228.7L1934.5,228.7z"/>
		</g>
	</g>
	<g class="st1">
		<g>
			<path class="st2" d="M-146.2-331l51.8,74.3c-25.4,19-63.1,55.6-78.6,112.6c-13.5,49.7-7.8,99.5,17.5,151.2l-96,2.2
				c-10.4-29.2-28.8-97.5-9.7-174c6.7-26.7,17.7-52.6,32.9-77.1c12.3-19.8,27.3-38.8,44.6-56.4C-169.6-312.4-156.4-323.3-146.2-331
				 M-139.7-366.8c0,0-114,66-146.5,195.7C-314-59.5-268.7,35.4-268.7,35.4l157.3-3.6c-39-58.8-51.6-114-36.6-169.3
				c21-77.4,90-112.2,90-112.2L-139.7-366.8L-139.7-366.8z"/>
		</g>
	</g>
	<g class="st1">
		<polygon class="st3" points="-327.1,-785.4 113,-172.4 556.8,-785.4 456.2,-785.4 114.3,-312.5 -226.8,-785.4 		"/>
		<polygon class="st3" points="404.1,-785.4 113,-383.3 -175.7,-785.4 -74.7,-785.4 114.3,-523.3 303.8,-785.4 		"/>
		<polygon class="st4" points="113,-383.3 404.1,-785.4 303.8,-785.4 114.3,-523.3 		"/>
		<polygon class="st4" points="113,-172.4 556.8,-785.4 456.2,-785.4 114.3,-312.5 		"/>
		<g>
			<g>
				<path class="st4" d="M114.9-157.9c55.8,0,101.2,45.4,101.2,101.2S170.7,44.5,114.9,44.5S13.7-0.9,13.7-56.7
					S59.1-157.9,114.9-157.9 M114.9-225.4c-93.1,0-168.7,75.5-168.7,168.7s75.5,168.7,168.7,168.7S283.5,36.4,283.5-56.7
					S208-225.4,114.9-225.4L114.9-225.4z"/>
			</g>
		</g>
	</g>
	<g class="st1">
		<polygon class="st3" points="792.8,-365.3 1181.8,176.5 1574,-365.3 1485.1,-365.3 1182.9,52.7 881.4,-365.3 		"/>
		<polygon class="st3" points="1439.1,-365.3 1181.8,-9.9 926.6,-365.3 1015.9,-365.3 1182.9,-133.7 1350.4,-365.3 		"/>
		<polygon class="st4" points="1181.8,-9.9 1439.1,-365.3 1350.4,-365.3 1182.9,-133.7 		"/>
		<polygon class="st4" points="1181.8,176.5 1574,-365.3 1485.1,-365.3 1182.9,52.7 		"/>
		<g>
			<g>
				<path class="st4" d="M1183.4,189.3c49.3,0,89.4,40.1,89.4,89.4s-40.1,89.4-89.4,89.4s-89.4-40.1-89.4-89.4
					S1134.1,189.3,1183.4,189.3 M1183.4,129.7c-82.3,0-149.1,66.7-149.1,149.1s66.7,149.1,149.1,149.1
					c82.3,0,149.1-66.7,149.1-149.1S1265.7,129.7,1183.4,129.7L1183.4,129.7z"/>
			</g>
		</g>
	</g>
	<g class="st1">
		<polygon class="st3" points="-523.2,244.5 -83.1,857.5 360.7,244.5 260.1,244.5 -81.8,717.4 -422.9,244.5 		"/>
		<polygon class="st3" points="208,244.5 -83.1,646.6 -371.8,244.5 -270.8,244.5 -81.8,506.6 107.7,244.5 		"/>
		<polygon class="st4" points="-83.1,646.6 208,244.5 107.7,244.5 -81.8,506.6 		"/>
		<polygon class="st4" points="-83.1,857.5 360.7,244.5 260.1,244.5 -81.8,717.4 		"/>
		<g>
			<g>
				<path class="st4" d="M-81.3,872c55.8,0,101.2,45.4,101.2,101.2c0,55.8-45.4,101.2-101.2,101.2s-101.2-45.4-101.2-101.2
					C-182.4,917.4-137.1,872-81.3,872 M-81.3,804.5c-93.1,0-168.7,75.5-168.7,168.7s75.5,168.7,168.7,168.7
					c93.1,0,168.7-75.5,168.7-168.7S11.9,804.5-81.3,804.5L-81.3,804.5z"/>
			</g>
		</g>
	</g>
</g>
<g>
	<g>
		<path class="st5" d="M888.9,70.4V61h-10.2v9.3l5.1,5.1L888.9,70.4z M876.2,72.9h-9.3v10.2h9.3l5.1-5.1L876.2,72.9z M878.8,85.6V95
			h10.2v-9.3l-5.1-5.1L878.8,85.6z M891.5,72.9l-5.1,5.1l5.1,5.1h9.3V72.9H891.5z"/>
	</g>
</g>
<g>
	<g>
		<path class="st5" d="M106.7,199.7v-6.4h-7v6.4l3.5,3.5L106.7,199.7z M98,201.5h-6.4v7H98l3.5-3.5L98,201.5z M99.8,210.2v6.4h7
			v-6.4l-3.5-3.5L99.8,210.2z M108.5,201.5L105,205l3.5,3.5h6.4v-7H108.5z"/>
	</g>
</g>
<g>
	<g>
		<path class="st3" d="M427.2,149.8H422v-20h-6.6v-4.3h18.3v4.3h-6.6V149.8z"/>
		<path class="st3" d="M436.9,126.5c0-1.6,0.9-2.5,2.8-2.5s2.8,0.8,2.8,2.5c0,0.8-0.2,1.4-0.7,1.8c-0.5,0.4-1.1,0.7-2.1,0.7
			C437.8,128.9,436.9,128.1,436.9,126.5z M442.2,149.8h-5.1v-18.6h5.1V149.8z"/>
		<path class="st3" d="M455,150.1c-5.8,0-8.7-3.2-8.7-9.5c0-3.2,0.8-5.6,2.4-7.2c1.6-1.7,3.8-2.5,6.8-2.5c2.1,0,4.1,0.4,5.8,1.3
			l-1.5,3.9c-0.8-0.3-1.5-0.6-2.2-0.8c-0.7-0.2-1.4-0.3-2.1-0.3c-2.6,0-4,1.9-4,5.6c0,3.6,1.3,5.4,4,5.4c1,0,1.9-0.1,2.7-0.4
			c0.8-0.3,1.7-0.7,2.5-1.2v4.3c-0.8,0.5-1.6,0.9-2.5,1.1C457.4,150,456.3,150.1,455,150.1z"/>
		<path class="st3" d="M469.8,139.7l2.2-2.8l5.2-5.6h5.7l-7.4,8.1l7.8,10.5h-5.8l-5.3-7.5L470,144v5.8H465V124h5.1v11.5L469.8,139.7
			L469.8,139.7z"/>
		<path class="st3" d="M494.5,150.1c-3,0-5.3-0.8-7-2.5c-1.7-1.6-2.5-4-2.5-7c0-3.1,0.8-5.5,2.3-7.2c1.6-1.7,3.7-2.5,6.4-2.5
			c2.6,0,4.7,0.7,6.1,2.2s2.2,3.6,2.2,6.2v2.5h-12c0.1,1.4,0.5,2.6,1.3,3.4c0.8,0.8,1.9,1.2,3.4,1.2c1.1,0,2.2-0.1,3.2-0.3
			s2-0.6,3.1-1.1v3.9c-0.9,0.4-1.8,0.8-2.8,1S495.9,150.1,494.5,150.1z M493.7,134.5c-1.1,0-1.9,0.3-2.5,1s-1,1.6-1,2.9h7.1
			c0-1.3-0.3-2.2-1-2.9S494.8,134.5,493.7,134.5z"/>
		<path class="st3" d="M514,146.1c0.9,0,1.9-0.2,3.2-0.6v3.8c-1.3,0.6-2.8,0.8-4.6,0.8c-2,0-3.5-0.5-4.4-1.5c-0.9-1-1.4-2.6-1.4-4.6
			v-8.9h-2.4v-2.1l2.8-1.7l1.5-3.9h3.2v4h5.2v3.8h-5.2v8.9c0,0.7,0.2,1.3,0.6,1.6C512.8,145.9,513.3,146.1,514,146.1z"/>
		<path class="st3" d="M533.9,144.3c0,1.9-0.7,3.4-2,4.3c-1.3,1-3.3,1.5-5.9,1.5c-1.4,0-2.5-0.1-3.5-0.3s-1.8-0.5-2.7-0.8v-4.2
			c0.9,0.4,2,0.8,3.2,1.1s2.2,0.4,3.1,0.4c1.8,0,2.8-0.5,2.8-1.6c0-0.4-0.1-0.7-0.4-1s-0.7-0.5-1.3-0.8s-1.4-0.7-2.4-1.1
			c-1.4-0.6-2.5-1.2-3.1-1.7c-0.7-0.5-1.2-1.1-1.5-1.8c-0.3-0.7-0.5-1.5-0.5-2.4c0-1.6,0.6-2.9,1.9-3.8c1.3-0.9,3.1-1.4,5.4-1.4
			c2.2,0,4.4,0.5,6.5,1.5l-1.5,3.7c-0.9-0.4-1.8-0.7-2.6-1c-0.8-0.3-1.6-0.4-2.5-0.4c-1.5,0-2.2,0.4-2.2,1.2c0,0.5,0.2,0.8,0.7,1.2
			s1.5,0.8,3.2,1.5c1.5,0.6,2.5,1.1,3.2,1.6c0.7,0.5,1.2,1.1,1.5,1.8S533.9,143.4,533.9,144.3z"/>
		<path class="st3" d="M557.3,129.5c-1.9,0-3.4,0.7-4.5,2.2c-1.1,1.5-1.6,3.5-1.6,6.1c0,5.4,2,8.1,6.1,8.1c1.7,0,3.8-0.4,6.2-1.3
			v4.3c-2,0.8-4.2,1.2-6.7,1.2c-3.5,0-6.2-1.1-8.1-3.2s-2.8-5.2-2.8-9.2c0-2.5,0.5-4.7,1.4-6.6c0.9-1.9,2.2-3.4,4-4.4
			c1.7-1,3.7-1.5,6.1-1.5c2.4,0,4.7,0.6,7.1,1.7l-1.7,4.2c-0.9-0.4-1.8-0.8-2.7-1.1C559.1,129.6,558.2,129.5,557.3,129.5z"/>
		<path class="st3" d="M585.2,140.5c0,3-0.8,5.4-2.4,7.1c-1.6,1.7-3.8,2.6-6.7,2.6c-1.8,0-3.4-0.4-4.7-1.2s-2.4-1.9-3.1-3.4
			s-1.1-3.2-1.1-5.1c0-3,0.8-5.4,2.4-7.1c1.6-1.7,3.8-2.5,6.7-2.5c1.8,0,3.4,0.4,4.7,1.2c1.4,0.8,2.4,1.9,3.1,3.3
			C584.8,136.9,585.2,138.6,585.2,140.5z M572.3,140.5c0,1.8,0.3,3.2,0.9,4.2c0.6,0.9,1.6,1.4,2.9,1.4c1.4,0,2.3-0.5,2.9-1.4
			c0.6-0.9,0.9-2.3,0.9-4.2c0-1.8-0.3-3.2-0.9-4.1c-0.6-0.9-1.6-1.4-2.9-1.4c-1.4,0-2.3,0.5-2.9,1.4S572.3,138.7,572.3,140.5z"/>
		<path class="st3" d="M606,149.8h-5.1V139c0-1.3-0.2-2.3-0.7-3c-0.4-0.7-1.2-1-2.1-1c-1.3,0-2.2,0.5-2.8,1.4
			c-0.6,1-0.9,2.5-0.9,4.7v8.7h-5.1v-18.6h3.9l0.7,2.4h0.3c0.5-0.9,1.2-1.5,2.2-2s2-0.7,3.2-0.7c2.8,0,4.7,0.9,5.6,2.7h0.4
			c0.5-0.9,1.2-1.5,2.2-2c1-0.5,2.1-0.7,3.3-0.7c2.1,0,3.7,0.5,4.8,1.6s1.6,2.8,1.6,5.2v12.1h-5.1V139c0-1.3-0.2-2.3-0.7-3
			c-0.4-0.7-1.2-1-2.1-1c-1.2,0-2.2,0.4-2.8,1.3c-0.6,0.9-0.9,2.3-0.9,4.2V149.8z"/>
		<path class="st3" d="M622.5,126.5c0-1.6,0.9-2.5,2.8-2.5s2.8,0.8,2.8,2.5c0,0.8-0.2,1.4-0.7,1.8c-0.5,0.4-1.1,0.7-2.1,0.7
			C623.4,128.9,622.5,128.1,622.5,126.5z M627.8,149.8h-5.1v-18.6h5.1V149.8z"/>
		<path class="st3" d="M640.7,150.1c-5.8,0-8.7-3.2-8.7-9.5c0-3.2,0.8-5.6,2.4-7.2c1.6-1.7,3.8-2.5,6.8-2.5c2.1,0,4.1,0.4,5.8,1.3
			l-1.5,3.9c-0.8-0.3-1.5-0.6-2.2-0.8c-0.7-0.2-1.4-0.3-2.1-0.3c-2.6,0-4,1.9-4,5.6c0,3.6,1.3,5.4,4,5.4c1,0,1.9-0.1,2.7-0.4
			c0.8-0.3,1.7-0.7,2.5-1.2v4.3c-0.8,0.5-1.6,0.9-2.5,1.1C643,150,641.9,150.1,640.7,150.1z"/>
		<path class="st3" d="M670.1,129.5c-1.9,0-3.4,0.7-4.5,2.2c-1.1,1.5-1.6,3.5-1.6,6.1c0,5.4,2,8.1,6.1,8.1c1.7,0,3.8-0.4,6.2-1.3
			v4.3c-2,0.8-4.2,1.2-6.7,1.2c-3.5,0-6.2-1.1-8.1-3.2s-2.8-5.2-2.8-9.2c0-2.5,0.5-4.7,1.4-6.6c0.9-1.9,2.2-3.4,4-4.4
			c1.7-1,3.7-1.5,6.1-1.5c2.4,0,4.7,0.6,7.1,1.7l-1.7,4.2c-0.9-0.4-1.8-0.8-2.7-1.1C671.9,129.6,671,129.5,670.1,129.5z"/>
		<path class="st3" d="M698,140.5c0,3-0.8,5.4-2.4,7.1c-1.6,1.7-3.8,2.6-6.7,2.6c-1.8,0-3.4-0.4-4.7-1.2s-2.4-1.9-3.1-3.4
			s-1.1-3.2-1.1-5.1c0-3,0.8-5.4,2.4-7.1c1.6-1.7,3.8-2.5,6.7-2.5c1.8,0,3.4,0.4,4.7,1.2c1.4,0.8,2.4,1.9,3.1,3.3
			C697.6,136.9,698,138.6,698,140.5z M685.1,140.5c0,1.8,0.3,3.2,0.9,4.2c0.6,0.9,1.6,1.4,2.9,1.4c1.4,0,2.3-0.5,2.9-1.4
			c0.6-0.9,0.9-2.3,0.9-4.2c0-1.8-0.3-3.2-0.9-4.1c-0.6-0.9-1.6-1.4-2.9-1.4c-1.4,0-2.3,0.5-2.9,1.4S685.1,138.7,685.1,140.5z"/>
		<path class="st3" d="M719.3,149.8h-5.1V139c0-1.3-0.2-2.3-0.7-3c-0.5-0.7-1.2-1-2.3-1c-1.4,0-2.4,0.5-3.1,1.4s-0.9,2.5-0.9,4.7
			v8.7h-5.1v-18.6h3.9l0.7,2.4h0.3c0.6-0.9,1.3-1.6,2.3-2c1-0.5,2.1-0.7,3.4-0.7c2.2,0,3.8,0.6,4.9,1.8c1.1,1.2,1.7,2.9,1.7,5.1
			V149.8z"/>
		<path class="st3" d="M480.7,185.8h-5.1v-10.5H466v10.5h-5.1v-24.3h5.1v9.5h9.6v-9.5h5.1V185.8z"/>
		<path class="st3" d="M494.8,186.1c-3,0-5.3-0.8-7-2.5c-1.7-1.6-2.5-4-2.5-7c0-3.1,0.8-5.5,2.3-7.2c1.6-1.7,3.7-2.5,6.4-2.5
			c2.6,0,4.7,0.7,6.1,2.2s2.2,3.6,2.2,6.2v2.5h-12c0.1,1.4,0.5,2.6,1.3,3.4c0.8,0.8,1.9,1.2,3.4,1.2c1.1,0,2.2-0.1,3.2-0.3
			s2-0.6,3.1-1.1v3.9c-0.9,0.4-1.8,0.8-2.8,1S496.3,186.1,494.8,186.1z M494.1,170.5c-1.1,0-1.9,0.3-2.5,1s-1,1.6-1,2.9h7.1
			c0-1.3-0.3-2.2-1-2.9S495.2,170.5,494.1,170.5z"/>
		<path class="st3" d="M518.3,185.8l-1-2.5h-0.1c-0.9,1.1-1.7,1.8-2.6,2.2c-0.9,0.4-2.1,0.6-3.5,0.6c-1.8,0-3.2-0.5-4.2-1.5
			c-1-1-1.5-2.5-1.5-4.3c0-2,0.7-3.4,2.1-4.4c1.4-0.9,3.5-1.5,6.2-1.6l3.2-0.1v-0.8c0-1.9-1-2.8-2.9-2.8c-1.5,0-3.2,0.4-5.2,1.3
			l-1.7-3.4c2.1-1.1,4.5-1.7,7.1-1.7c2.5,0,4.4,0.5,5.7,1.6c1.3,1.1,2,2.7,2,4.9v12.4H518.3z M516.8,177.2l-2,0.1
			c-1.5,0-2.6,0.3-3.3,0.8c-0.7,0.5-1.1,1.2-1.1,2.2c0,1.4,0.8,2.1,2.5,2.1c1.2,0,2.1-0.3,2.8-1c0.7-0.7,1.1-1.6,1.1-2.7V177.2z"/>
		<path class="st3" d="M532.9,186.1c-2.2,0-3.9-0.8-5.1-2.5s-1.9-4-1.9-7c0-3,0.6-5.4,1.9-7.1c1.3-1.7,3-2.5,5.2-2.5
			c2.3,0,4.1,0.9,5.3,2.7h0.2c-0.3-1.4-0.4-2.6-0.4-3.7V160h5.1v25.8h-3.9l-1-2.4h-0.2C537.1,185.2,535.3,186.1,532.9,186.1z
			 M534.7,182.1c1.3,0,2.2-0.4,2.8-1.1c0.6-0.8,0.9-2,1-3.8v-0.5c0-2-0.3-3.4-0.9-4.3s-1.6-1.3-3-1.3c-1.1,0-2,0.5-2.6,1.4
			c-0.6,1-0.9,2.3-0.9,4.2c0,1.8,0.3,3.2,0.9,4.1S533.5,182.1,534.7,182.1z"/>
		<path class="st3" d="M574.6,169.1c0,2.6-0.8,4.6-2.4,6c-1.6,1.4-4,2.1-7,2.1H563v8.6h-5.1v-24.3h7.8c2.9,0,5.2,0.6,6.7,1.9
			C573.8,164.7,574.6,166.6,574.6,169.1z M563,173h1.7c1.6,0,2.8-0.3,3.6-0.9c0.8-0.6,1.2-1.5,1.2-2.7c0-1.2-0.3-2.1-1-2.7
			c-0.7-0.6-1.7-0.9-3.1-0.9H563V173z"/>
		<path class="st3" d="M595.9,185.8h-5.1V175c0-2.7-1-4-3-4c-1.4,0-2.4,0.5-3.1,1.4s-0.9,2.5-0.9,4.7v8.7h-5.1V160h5.1v5.3
			c0,0.4,0,1.4-0.1,2.9l-0.1,1.5h0.3c1.1-1.8,2.9-2.7,5.4-2.7c2.2,0,3.8,0.6,5,1.8c1.1,1.2,1.7,2.9,1.7,5V185.8z"/>
		<path class="st3" d="M618,176.5c0,3-0.8,5.4-2.4,7.1c-1.6,1.7-3.8,2.6-6.7,2.6c-1.8,0-3.4-0.4-4.7-1.2s-2.4-1.9-3.1-3.4
			s-1.1-3.2-1.1-5.1c0-3,0.8-5.4,2.4-7.1c1.6-1.7,3.8-2.5,6.7-2.5c1.8,0,3.4,0.4,4.7,1.2c1.4,0.8,2.4,1.9,3.1,3.3
			C617.6,172.9,618,174.6,618,176.5z M605.1,176.5c0,1.8,0.3,3.2,0.9,4.2c0.6,0.9,1.6,1.4,2.9,1.4c1.4,0,2.3-0.5,2.9-1.4
			c0.6-0.9,0.9-2.3,0.9-4.2c0-1.8-0.3-3.2-0.9-4.1c-0.6-0.9-1.6-1.4-2.9-1.4c-1.4,0-2.3,0.5-2.9,1.4S605.1,174.7,605.1,176.5z"/>
		<path class="st3" d="M639.3,185.8h-5.1V175c0-1.3-0.2-2.3-0.7-3c-0.5-0.7-1.2-1-2.3-1c-1.4,0-2.4,0.5-3.1,1.4s-0.9,2.5-0.9,4.7
			v8.7h-5.1v-18.6h3.9l0.7,2.4h0.3c0.6-0.9,1.3-1.6,2.3-2c1-0.5,2.1-0.7,3.4-0.7c2.2,0,3.8,0.6,4.9,1.8c1.1,1.2,1.7,2.9,1.7,5.1
			V185.8z"/>
		<path class="st3" d="M652.9,186.1c-3,0-5.3-0.8-7-2.5c-1.7-1.6-2.5-4-2.5-7c0-3.1,0.8-5.5,2.3-7.2c1.6-1.7,3.7-2.5,6.4-2.5
			c2.6,0,4.7,0.7,6.1,2.2s2.2,3.6,2.2,6.2v2.5h-12c0.1,1.4,0.5,2.6,1.3,3.4c0.8,0.8,1.9,1.2,3.4,1.2c1.1,0,2.2-0.1,3.2-0.3
			s2-0.6,3.1-1.1v3.9c-0.9,0.4-1.8,0.8-2.8,1S654.4,186.1,652.9,186.1z M652.2,170.5c-1.1,0-1.9,0.3-2.5,1s-1,1.6-1,2.9h7.1
			c0-1.3-0.3-2.2-1-2.9S653.3,170.5,652.2,170.5z"/>
		<path class="st3" d="M677.5,180.3c0,1.9-0.7,3.4-2,4.3c-1.3,1-3.3,1.5-5.9,1.5c-1.4,0-2.5-0.1-3.5-0.3s-1.8-0.5-2.7-0.8v-4.2
			c0.9,0.4,2,0.8,3.2,1.1s2.2,0.4,3.1,0.4c1.8,0,2.8-0.5,2.8-1.6c0-0.4-0.1-0.7-0.4-1s-0.7-0.5-1.3-0.8s-1.4-0.7-2.4-1.1
			c-1.4-0.6-2.5-1.2-3.1-1.7c-0.7-0.5-1.2-1.1-1.5-1.8c-0.3-0.7-0.5-1.5-0.5-2.4c0-1.6,0.6-2.9,1.9-3.8c1.3-0.9,3.1-1.4,5.4-1.4
			c2.2,0,4.4,0.5,6.5,1.5l-1.5,3.7c-0.9-0.4-1.8-0.7-2.6-1c-0.8-0.3-1.6-0.4-2.5-0.4c-1.5,0-2.2,0.4-2.2,1.2c0,0.5,0.2,0.8,0.7,1.2
			s1.5,0.8,3.2,1.5c1.5,0.6,2.5,1.1,3.2,1.6c0.7,0.5,1.2,1.1,1.5,1.8S677.5,179.4,677.5,180.3z"/>
		<path class="st3" d="M489.3,221.8l-5.8-19h-0.1c0.2,3.9,0.3,6.5,0.3,7.8v11.3H479v-24.3h7l5.7,18.6h0.1l6.1-18.6h7v24.3h-4.8
			v-11.5c0-0.5,0-1.2,0-1.9c0-0.7,0.1-2.6,0.2-5.6h-0.1l-6.3,19H489.3z"/>
		<path class="st3" d="M527.5,212.5c0,3-0.8,5.4-2.4,7.1c-1.6,1.7-3.8,2.6-6.7,2.6c-1.8,0-3.4-0.4-4.7-1.2s-2.4-1.9-3.1-3.4
			s-1.1-3.2-1.1-5.1c0-3,0.8-5.4,2.4-7.1c1.6-1.7,3.8-2.5,6.7-2.5c1.8,0,3.4,0.4,4.7,1.2c1.4,0.8,2.4,1.9,3.1,3.3
			C527.2,208.9,527.5,210.6,527.5,212.5z M514.7,212.5c0,1.8,0.3,3.2,0.9,4.2c0.6,0.9,1.6,1.4,2.9,1.4c1.4,0,2.3-0.5,2.9-1.4
			c0.6-0.9,0.9-2.3,0.9-4.2c0-1.8-0.3-3.2-0.9-4.1c-0.6-0.9-1.6-1.4-2.9-1.4c-1.4,0-2.3,0.5-2.9,1.4S514.7,210.7,514.7,212.5z"/>
		<path class="st3" d="M544.9,221.8l-0.7-2.4h-0.3c-0.5,0.9-1.3,1.5-2.3,2c-1,0.5-2.1,0.7-3.4,0.7c-2.2,0-3.8-0.6-4.9-1.8
			s-1.7-2.8-1.7-5v-12.1h5.1v10.8c0,1.3,0.2,2.3,0.7,3s1.2,1,2.3,1c1.4,0,2.4-0.5,3.1-1.4s0.9-2.5,0.9-4.7v-8.7h5.1v18.6H544.9z"/>
		<path class="st3" d="M567,216.3c0,1.9-0.7,3.4-2,4.3c-1.3,1-3.3,1.5-5.9,1.5c-1.4,0-2.5-0.1-3.5-0.3s-1.8-0.5-2.7-0.8v-4.2
			c0.9,0.4,2,0.8,3.2,1.1s2.2,0.4,3.1,0.4c1.8,0,2.8-0.5,2.8-1.6c0-0.4-0.1-0.7-0.4-1s-0.7-0.5-1.3-0.8s-1.4-0.7-2.4-1.1
			c-1.4-0.6-2.5-1.2-3.1-1.7c-0.7-0.5-1.2-1.1-1.5-1.8c-0.3-0.7-0.5-1.5-0.5-2.4c0-1.6,0.6-2.9,1.9-3.8s3.1-1.4,5.4-1.4
			c2.2,0,4.4,0.5,6.5,1.5l-1.5,3.7c-0.9-0.4-1.8-0.7-2.6-1c-0.8-0.3-1.6-0.4-2.5-0.4c-1.5,0-2.2,0.4-2.2,1.2c0,0.5,0.2,0.8,0.7,1.2
			s1.5,0.8,3.2,1.5c1.5,0.6,2.5,1.1,3.2,1.6c0.7,0.5,1.2,1.1,1.5,1.8S567,215.4,567,216.3z"/>
		<path class="st3" d="M579.4,222.1c-3,0-5.3-0.8-7-2.5c-1.7-1.6-2.5-4-2.5-7c0-3.1,0.8-5.5,2.3-7.2c1.6-1.7,3.7-2.5,6.4-2.5
			c2.6,0,4.7,0.7,6.1,2.2s2.2,3.6,2.2,6.2v2.5h-12c0.1,1.4,0.5,2.6,1.3,3.4c0.8,0.8,1.9,1.2,3.4,1.2c1.1,0,2.2-0.1,3.2-0.3
			s2-0.6,3.1-1.1v3.9c-0.9,0.4-1.8,0.8-2.8,1S580.8,222.1,579.4,222.1z M578.7,206.5c-1.1,0-1.9,0.3-2.5,1s-1,1.6-1,2.9h7.1
			c0-1.3-0.3-2.2-1-2.9S579.7,206.5,578.7,206.5z"/>
		<path class="st3" d="M617.1,205.1c0,2.6-0.8,4.6-2.4,6c-1.6,1.4-4,2.1-7,2.1h-2.2v8.6h-5.1v-24.3h7.8c2.9,0,5.2,0.6,6.7,1.9
			C616.3,200.7,617.1,202.6,617.1,205.1z M605.4,209h1.7c1.6,0,2.8-0.3,3.6-0.9s1.2-1.5,1.2-2.7c0-1.2-0.3-2.1-1-2.7
			c-0.7-0.6-1.7-0.9-3.1-0.9h-2.3V209z"/>
		<path class="st3" d="M633,221.8l-1-2.5h-0.1c-0.9,1.1-1.7,1.8-2.6,2.2c-0.9,0.4-2.1,0.6-3.5,0.6c-1.8,0-3.2-0.5-4.2-1.5
			c-1-1-1.5-2.5-1.5-4.3c0-2,0.7-3.4,2.1-4.4s3.5-1.5,6.2-1.6l3.2-0.1v-0.8c0-1.9-1-2.8-2.9-2.8c-1.5,0-3.2,0.4-5.2,1.3l-1.7-3.4
			c2.1-1.1,4.5-1.7,7.1-1.7c2.5,0,4.4,0.5,5.7,1.6c1.3,1.1,2,2.7,2,4.9v12.4H633z M631.5,213.2l-2,0.1c-1.5,0-2.6,0.3-3.3,0.8
			c-0.7,0.5-1.1,1.2-1.1,2.2c0,1.4,0.8,2.1,2.5,2.1c1.2,0,2.1-0.3,2.8-1c0.7-0.7,1.1-1.6,1.1-2.7V213.2z"/>
		<path class="st3" d="M647.7,222.1c-2.2,0-3.9-0.8-5.1-2.5s-1.9-4-1.9-7c0-3,0.6-5.4,1.9-7.1c1.3-1.7,3-2.5,5.2-2.5
			c2.3,0,4.1,0.9,5.3,2.7h0.2c-0.3-1.4-0.4-2.6-0.4-3.7V196h5.1v25.8h-3.9l-1-2.4h-0.2C651.8,221.2,650,222.1,647.7,222.1z
			 M649.4,218.1c1.3,0,2.2-0.4,2.8-1.1c0.6-0.8,0.9-2,1-3.8v-0.5c0-2-0.3-3.4-0.9-4.3s-1.6-1.3-3-1.3c-1.1,0-2,0.5-2.6,1.4
			c-0.6,1-0.9,2.3-0.9,4.2s0.3,3.2,0.9,4.1S648.3,218.1,649.4,218.1z"/>
		<path class="st3" d="M509.9,257.8H504l-6.4-10.2l-2.2,1.6v8.7h-5.1v-24.3h5.1v11.1l2-2.9l6.6-8.3h5.7l-8.5,10.7L509.9,257.8z"/>
		<path class="st3" d="M520.9,258.1c-3,0-5.3-0.8-7-2.5c-1.7-1.6-2.5-4-2.5-7c0-3.1,0.8-5.5,2.3-7.2c1.6-1.7,3.7-2.5,6.4-2.5
			c2.6,0,4.7,0.7,6.1,2.2s2.2,3.6,2.2,6.2v2.5h-12c0.1,1.4,0.5,2.6,1.3,3.4c0.8,0.8,1.9,1.2,3.4,1.2c1.1,0,2.2-0.1,3.2-0.3
			s2-0.6,3.1-1.1v3.9c-0.9,0.4-1.8,0.8-2.8,1S522.4,258.1,520.9,258.1z M520.2,242.5c-1.1,0-1.9,0.3-2.5,1s-1,1.6-1,2.9h7.1
			c0-1.3-0.3-2.2-1-2.9S521.3,242.5,520.2,242.5z"/>
		<path class="st3" d="M529.9,239.3h5.5l3.5,10.4c0.3,0.9,0.5,2,0.6,3.2h0.1c0.1-1.1,0.4-2.2,0.7-3.2l3.4-10.4h5.4l-7.9,20.9
			c-0.7,1.9-1.7,3.4-3.1,4.3c-1.3,1-2.9,1.4-4.7,1.4c-0.9,0-1.7-0.1-2.6-0.3v-4c0.6,0.1,1.3,0.2,2,0.2c0.9,0,1.7-0.3,2.3-0.8
			c0.7-0.5,1.2-1.4,1.6-2.5l0.3-0.9L529.9,239.3z"/>
		<path class="st3" d="M562.3,238.9c2.2,0,3.9,0.9,5.1,2.6s1.9,4.1,1.9,7c0,3.1-0.6,5.4-1.9,7.1c-1.3,1.7-3,2.5-5.2,2.5
			c-2.2,0-3.9-0.8-5.1-2.4h-0.3l-0.8,2h-3.9V232h5.1v6c0,0.8-0.1,2-0.2,3.7h0.2C558.2,239.8,559.9,238.9,562.3,238.9z M560.6,243
			c-1.3,0-2.2,0.4-2.7,1.2s-0.9,2-0.9,3.8v0.5c0,2,0.3,3.4,0.9,4.3c0.6,0.9,1.5,1.3,2.8,1.3c1,0,1.9-0.5,2.5-1.4s0.9-2.3,0.9-4.2
			s-0.3-3.2-0.9-4.1S561.7,243,560.6,243z"/>
		<path class="st3" d="M590.3,248.5c0,3-0.8,5.4-2.4,7.1c-1.6,1.7-3.8,2.6-6.7,2.6c-1.8,0-3.4-0.4-4.7-1.2s-2.4-1.9-3.1-3.4
			s-1.1-3.2-1.1-5.1c0-3,0.8-5.4,2.4-7.1c1.6-1.7,3.8-2.5,6.7-2.5c1.8,0,3.4,0.4,4.7,1.2c1.4,0.8,2.4,1.9,3.1,3.3
			C590,244.9,590.3,246.6,590.3,248.5z M577.5,248.5c0,1.8,0.3,3.2,0.9,4.2c0.6,0.9,1.6,1.4,2.9,1.4c1.4,0,2.3-0.5,2.9-1.4
			c0.6-0.9,0.9-2.3,0.9-4.2c0-1.8-0.3-3.2-0.9-4.1c-0.6-0.9-1.6-1.4-2.9-1.4c-1.4,0-2.3,0.5-2.9,1.4S577.5,246.7,577.5,248.5z"/>
		<path class="st3" d="M606.3,257.8l-1-2.5h-0.1c-0.9,1.1-1.7,1.8-2.6,2.2c-0.9,0.4-2.1,0.6-3.5,0.6c-1.8,0-3.2-0.5-4.2-1.5
			c-1-1-1.5-2.5-1.5-4.3c0-2,0.7-3.4,2.1-4.4s3.5-1.5,6.2-1.6l3.2-0.1v-0.8c0-1.9-1-2.8-2.9-2.8c-1.5,0-3.2,0.4-5.2,1.3l-1.7-3.4
			c2.1-1.1,4.5-1.7,7.1-1.7c2.5,0,4.4,0.5,5.7,1.6c1.3,1.1,2,2.7,2,4.9v12.4H606.3z M604.8,249.2l-2,0.1c-1.5,0-2.6,0.3-3.3,0.8
			c-0.7,0.5-1.1,1.2-1.1,2.2c0,1.4,0.8,2.1,2.5,2.1c1.2,0,2.1-0.3,2.8-1c0.7-0.7,1.1-1.6,1.1-2.7V249.2z"/>
		<path class="st3" d="M625.4,238.9c0.7,0,1.3,0,1.7,0.1l-0.4,4.7c-0.4-0.1-0.9-0.2-1.5-0.2c-1.6,0-2.9,0.4-3.8,1.2
			c-0.9,0.8-1.4,2-1.4,3.5v9.4H615v-18.6h3.8l0.7,3.1h0.2c0.6-1,1.4-1.9,2.3-2.5S624.2,238.9,625.4,238.9z"/>
		<path class="st3" d="M636.4,258.1c-2.2,0-3.9-0.8-5.1-2.5s-1.9-4-1.9-7c0-3,0.6-5.4,1.9-7.1c1.3-1.7,3-2.5,5.2-2.5
			c2.3,0,4.1,0.9,5.3,2.7h0.2c-0.3-1.4-0.4-2.6-0.4-3.7V232h5.1v25.8h-3.9l-1-2.4h-0.2C640.5,257.2,638.7,258.1,636.4,258.1z
			 M638.1,254.1c1.3,0,2.2-0.4,2.8-1.1c0.6-0.8,0.9-2,1-3.8v-0.5c0-2-0.3-3.4-0.9-4.3s-1.6-1.3-3-1.3c-1.1,0-2,0.5-2.6,1.4
			c-0.6,1-0.9,2.3-0.9,4.2s0.3,3.2,0.9,4.1S637,254.1,638.1,254.1z"/>
		<path class="st3" d="M525.4,293.8l-5.8-19h-0.1c0.2,3.9,0.3,6.5,0.3,7.8v11.3h-4.6v-24.3h7l5.7,18.6h0.1l6.1-18.6h7v24.3h-4.8
			v-11.5c0-0.5,0-1.2,0-1.9c0-0.7,0.1-2.6,0.2-5.6h-0.1l-6.3,19H525.4z"/>
		<path class="st3" d="M563.7,284.5c0,3-0.8,5.4-2.4,7.1c-1.6,1.7-3.8,2.6-6.7,2.6c-1.8,0-3.4-0.4-4.7-1.2s-2.4-1.9-3.1-3.4
			s-1.1-3.2-1.1-5.1c0-3,0.8-5.4,2.4-7.1c1.6-1.7,3.8-2.5,6.7-2.5c1.8,0,3.4,0.4,4.7,1.2c1.4,0.8,2.4,1.9,3.1,3.3
			C563.3,280.9,563.7,282.6,563.7,284.5z M550.8,284.5c0,1.8,0.3,3.2,0.9,4.2c0.6,0.9,1.6,1.4,2.9,1.4c1.3,0,2.3-0.5,2.9-1.4
			s0.9-2.3,0.9-4.2c0-1.8-0.3-3.2-0.9-4.1c-0.6-0.9-1.6-1.4-2.9-1.4c-1.4,0-2.3,0.5-2.9,1.4S550.8,282.7,550.8,284.5z"/>
		<path class="st3" d="M581,293.8l-0.7-2.4h-0.3c-0.5,0.9-1.3,1.5-2.3,2c-1,0.5-2.1,0.7-3.4,0.7c-2.2,0-3.8-0.6-4.9-1.8
			c-1.1-1.2-1.7-2.8-1.7-5v-12.1h5.1v10.8c0,1.3,0.2,2.3,0.7,3c0.5,0.7,1.2,1,2.3,1c1.4,0,2.4-0.5,3.1-1.4s0.9-2.5,0.9-4.7v-8.7h5.1
			v18.6H581z"/>
		<path class="st3" d="M603.1,288.3c0,1.9-0.7,3.4-2,4.3s-3.3,1.5-5.9,1.5c-1.4,0-2.5-0.1-3.5-0.3c-1-0.2-1.8-0.5-2.7-0.8v-4.2
			c0.9,0.4,2,0.8,3.2,1.1s2.2,0.4,3.1,0.4c1.8,0,2.8-0.5,2.8-1.6c0-0.4-0.1-0.7-0.4-1c-0.2-0.2-0.7-0.5-1.3-0.8s-1.4-0.7-2.4-1.1
			c-1.4-0.6-2.5-1.2-3.1-1.7c-0.7-0.5-1.2-1.1-1.5-1.8s-0.5-1.5-0.5-2.4c0-1.6,0.6-2.9,1.9-3.8s3.1-1.4,5.4-1.4
			c2.2,0,4.4,0.5,6.5,1.5l-1.5,3.7c-0.9-0.4-1.8-0.7-2.6-1c-0.8-0.3-1.6-0.4-2.5-0.4c-1.5,0-2.2,0.4-2.2,1.2c0,0.5,0.2,0.8,0.7,1.2
			s1.5,0.8,3.2,1.5c1.4,0.6,2.5,1.1,3.2,1.6c0.7,0.5,1.2,1.1,1.5,1.8C603,286.6,603.1,287.4,603.1,288.3z"/>
		<path class="st3" d="M615.5,294.1c-3,0-5.3-0.8-7-2.5c-1.7-1.6-2.5-4-2.5-7c0-3.1,0.8-5.5,2.3-7.2s3.7-2.5,6.5-2.5
			c2.6,0,4.7,0.7,6.1,2.2s2.2,3.6,2.2,6.2v2.5h-12c0.1,1.4,0.5,2.6,1.3,3.4c0.8,0.8,1.9,1.2,3.4,1.2c1.1,0,2.2-0.1,3.2-0.3
			s2-0.6,3.1-1.1v3.9c-0.9,0.4-1.8,0.8-2.8,1C618.2,294,616.9,294.1,615.5,294.1z M614.8,278.5c-1.1,0-1.9,0.3-2.5,1
			c-0.6,0.7-1,1.6-1,2.9h7.1c0-1.3-0.3-2.2-1-2.9S615.9,278.5,614.8,278.5z"/>
	</g>
</g>
<g>
	<path class="st5" d="M522.4,103.4h-16.9v-2.5l6.8-6.8c2.1-2.1,3.4-3.6,4.1-4.5s1.1-1.8,1.5-2.6s0.5-1.8,0.5-2.7
		c0-1.4-0.4-2.5-1.2-3.3s-2-1.2-3.5-1.2c-1.1,0-2.1,0.2-3,0.5s-2,1-3.2,1.9l-1.5-2c2.4-2,4.9-3,7.7-3c2.4,0,4.3,0.6,5.7,1.9
		s2.1,2.9,2.1,5c0,1.6-0.5,3.2-1.4,4.8s-2.6,3.6-5.1,6l-5.6,5.5v0.1h13.2V103.4z"/>
	<path class="st5" d="M536.7,83.5c0,1.9-0.5,3.4-1.5,4.5s-2.4,1.6-4.1,1.6c-1.7,0-3.1-0.5-4.1-1.6s-1.5-2.6-1.5-4.5
		c0-1.9,0.5-3.4,1.5-4.5s2.4-1.6,4.1-1.6c1.8,0,3.2,0.5,4.1,1.6S536.7,81.6,536.7,83.5z M527.7,83.5c0,1.4,0.3,2.5,0.8,3.2
		s1.4,1.1,2.6,1.1c1.2,0,2.1-0.4,2.7-1.1s0.8-1.8,0.8-3.2c0-1.4-0.3-2.5-0.8-3.2s-1.4-1-2.7-1c-1.2,0-2.1,0.3-2.6,1
		S527.7,82,527.7,83.5z"/>
	<path class="st5" d="M553.2,103.4h-2.9V76.1h2.9V103.4z"/>
	<path class="st5" d="M562.2,84.2v12.5c0,1.6,0.4,2.7,1.1,3.5s1.8,1.2,3.4,1.2c2,0,3.5-0.6,4.4-1.7s1.4-2.9,1.4-5.4V84.2h2.9v19.3
		h-2.4l-0.4-2.6h-0.2c-0.6,0.9-1.4,1.7-2.5,2.2c-1.1,0.5-2.3,0.8-3.6,0.8c-2.3,0-4.1-0.6-5.3-1.7s-1.7-2.9-1.7-5.3V84.2H562.2z"/>
	<path class="st5" d="M597.3,84.2V86l-3.6,0.4c0.3,0.4,0.6,0.9,0.9,1.6s0.4,1.4,0.4,2.2c0,1.9-0.6,3.4-1.9,4.5s-3.1,1.7-5.3,1.7
		c-0.6,0-1.1,0-1.6-0.1c-1.2,0.7-1.9,1.5-1.9,2.5c0,0.5,0.2,0.9,0.7,1.2s1.2,0.4,2.2,0.4h3.4c2.1,0,3.7,0.4,4.8,1.3s1.7,2.2,1.7,3.8
		c0,2.1-0.9,3.8-2.6,4.9s-4.2,1.7-7.5,1.7c-2.5,0-4.5-0.5-5.8-1.4s-2-2.3-2-4c0-1.2,0.4-2.2,1.1-3s1.8-1.4,3.2-1.7
		c-0.5-0.2-0.9-0.6-1.2-1s-0.5-1-0.5-1.6c0-0.7,0.2-1.3,0.6-1.8s1-1,1.8-1.5c-1-0.4-1.8-1.1-2.4-2.1s-0.9-2.1-0.9-3.4
		c0-2.1,0.6-3.7,1.9-4.9s3.1-1.7,5.4-1.7c1,0,1.9,0.1,2.7,0.4H597.3z M581.9,106.7c0,1,0.4,1.8,1.3,2.4s2.1,0.8,3.8,0.8
		c2.4,0,4.3-0.4,5.4-1.1s1.8-1.7,1.8-3c0-1-0.3-1.8-1-2.2s-1.9-0.6-3.6-0.6h-3.5c-1.3,0-2.4,0.3-3.1,0.9S581.9,105.5,581.9,106.7z
		 M583.5,90.3c0,1.3,0.4,2.4,1.1,3.1s1.8,1,3.2,1c2.8,0,4.3-1.4,4.3-4.1c0-2.9-1.4-4.3-4.3-4.3c-1.4,0-2.4,0.4-3.2,1.1
		S583.5,88.9,583.5,90.3z"/>
	<path class="st5" d="M613.1,103.4l-0.6-2.7h-0.1c-1,1.2-1.9,2-2.9,2.5s-2.1,0.6-3.6,0.6c-1.9,0-3.4-0.5-4.5-1.5s-1.6-2.4-1.6-4.2
		c0-3.9,3.1-5.9,9.3-6.1l3.3-0.1v-1.2c0-1.5-0.3-2.6-1-3.3s-1.7-1.1-3.1-1.1c-1.6,0-3.4,0.5-5.4,1.5l-0.9-2.2c0.9-0.5,2-0.9,3.1-1.2
		s2.3-0.4,3.4-0.4c2.3,0,4,0.5,5.1,1.5s1.7,2.7,1.7,4.9v13.1H613.1z M606.5,101.4c1.8,0,3.2-0.5,4.3-1.5s1.6-2.4,1.6-4.2V94
		l-2.9,0.1c-2.3,0.1-4,0.4-5,1.1s-1.5,1.6-1.5,3c0,1.1,0.3,1.9,1,2.4S605.3,101.4,606.5,101.4z"/>
	<path class="st5" d="M630,83.8c0.9,0,1.6,0.1,2.3,0.2l-0.4,2.7c-0.8-0.2-1.5-0.3-2.1-0.3c-1.6,0-2.9,0.6-4,1.9s-1.7,2.8-1.7,4.7
		v10.3h-2.9V84.2h2.4l0.3,3.6h0.1c0.7-1.3,1.6-2.2,2.6-2.9S628.8,83.8,630,83.8z"/>
</g>
</svg>
