<?xml version="1.0" encoding="utf-8"?>
<!-- Generator: Adobe Illustrator 21.0.2, SVG Export Plug-In . SVG Version: 6.00 Build 0)  -->
<svg version="1.1" id="Layer_1" xmlns="http://www.w3.org/2000/svg" xmlns:xlink="http://www.w3.org/1999/xlink" x="0px" y="0px"
	 viewBox="0 0 1140 350" style="enable-background:new 0 0 1140 350;" xml:space="preserve">
<style type="text/css">
	.st0{fill:#3C3C3B;}
	.st1{clip-path:url(#SVGID_2_);}
	.st2{fill:#D29D46;}
	.st3{fill:#C58511;}
	.st4{fill:#EFC981;}
	.st5{fill:#FFFFFF;}
</style>
<rect x="3.4" class="st0" width="1136.6" height="350.2"/>
<g>
	<defs>
		<rect id="SVGID_1_" x="3.4" width="1136.6" height="349.9"/>
	</defs>
	<clipPath id="SVGID_2_">
		<use xlink:href="#SVGID_1_"  style="overflow:visible;"/>
	</clipPath>
	<g class="st1">
		<g>
			<path class="st2" d="M-239.8-821.3l120.9,0.8L75-380.6L26.8-276.4H3.6L-239.8-821.3 M-279.7-847.3l266.5,596.7h56.4l60-129.7
				L-102-846.1L-279.7-847.3L-279.7-847.3z"/>
		</g>
	</g>
	<g class="st1">
		<g>
			<path class="st2" d="M272.2-352.2L123.5-23.6L64.4-152.3l91.4-199.9H272.2 M312.2-378H139.3L36.1-152.3l87.6,190.9L312.2-378
				L312.2-378z"/>
		</g>
	</g>
	<g class="st1">
		<g>
			<path class="st2" d="M1896.2,254.6L1684.7,722l-88.3-192.3l125.8-275.1H1896.2 M1936.2,228.8h-230.5l-137.6,300.9l116.8,254.5
				L1936.2,228.8L1936.2,228.8z"/>
		</g>
	</g>
	<g class="st1">
		<g>
			<path class="st2" d="M-144.5-330.9l51.8,74.3c-25.4,19-63.1,55.6-78.6,112.6c-13.5,49.7-7.8,99.5,17.5,151.2l-96,2.2
				c-10.4-29.2-28.8-97.5-9.7-174c6.7-26.7,17.7-52.6,32.9-77.1c12.3-19.8,27.3-38.8,44.6-56.4
				C-167.9-312.3-154.7-323.2-144.5-330.9 M-138-366.7c0,0-114.1,66-146.5,195.7C-312.3-59.4-267,35.5-267,35.5l157.3-3.6
				c-39-58.8-51.6-114-36.6-169.3c21-77.4,90-112.2,90-112.2L-138-366.7L-138-366.7z"/>
		</g>
	</g>
	<g class="st1">
		<polygon class="st3" points="-438.6,-664.6 1.5,-51.6 445.3,-664.6 344.7,-664.6 2.8,-191.6 -338.2,-664.6 		"/>
		<polygon class="st3" points="292.7,-664.6 1.5,-262.4 -287.2,-664.6 -186.2,-664.5 2.8,-402.5 192.3,-664.6 		"/>
		<polygon class="st4" points="1.5,-262.4 292.7,-664.6 192.3,-664.6 2.8,-402.5 		"/>
		<polygon class="st4" points="1.5,-51.6 445.3,-664.6 344.7,-664.6 2.8,-191.6 		"/>
		<g>
			<g>
				<path class="st4" d="M3.4-37C59.2-37,104.6,8.4,104.6,64.2S59.2,165.3,3.4,165.3S-97.8,120-97.8,64.2S-52.4-37,3.4-37
					 M3.4-104.5c-93.1,0-168.7,75.5-168.7,168.7S-89.8,232.8,3.4,232.8S172,157.3,172,64.2S96.5-104.5,3.4-104.5L3.4-104.5z"/>
			</g>
		</g>
	</g>
	<g class="st1">
		<polygon class="st3" points="834.2,-624.1 1274.3,-11.1 1718.1,-624.1 1617.5,-624.1 1275.6,-151.1 934.5,-624.1 		"/>
		<polygon class="st3" points="1565.4,-624.1 1274.3,-222 985.6,-624.1 1086.6,-624.1 1275.6,-362 1465.1,-624.1 		"/>
		<polygon class="st4" points="1274.3,-222 1565.4,-624.1 1465.1,-624.1 1275.6,-362 		"/>
		<polygon class="st4" points="1274.3,-11.1 1718.1,-624.1 1617.5,-624.1 1275.6,-151.1 		"/>
		<g>
			<g>
				<path class="st4" d="M1276.1,3.4c55.8,0,101.2,45.4,101.2,101.2s-45.4,101.2-101.2,101.2c-55.8,0-101.2-45.4-101.2-101.2
					S1220.3,3.4,1276.1,3.4 M1276.1-64.1c-93.1,0-168.7,75.5-168.7,168.7s75.5,168.7,168.7,168.7c93.1,0,168.7-75.5,168.7-168.7
					S1369.3-64.1,1276.1-64.1L1276.1-64.1z"/>
			</g>
		</g>
	</g>
	<g class="st1">
		<polygon class="st3" points="285.7,328.6 725.8,941.6 1169.5,328.6 1069,328.6 727,801.6 386,328.6 		"/>
		<polygon class="st3" points="1016.9,328.6 725.8,730.7 437.1,328.6 538.1,328.6 727,590.7 916.5,328.6 		"/>
		<polygon class="st4" points="725.8,730.7 1016.9,328.6 916.5,328.6 727,590.7 		"/>
		<polygon class="st4" points="725.8,941.6 1169.5,328.6 1069,328.6 727,801.6 		"/>
		<g>
			<g>
				<path class="st4" d="M727.6,956.1c55.8,0,101.2,45.4,101.2,101.2s-45.4,101.2-101.2,101.2s-101.2-45.4-101.2-101.2
					S671.8,956.1,727.6,956.1 M727.6,888.6c-93.1,0-168.7,75.5-168.7,168.7c0,93.1,75.5,168.7,168.7,168.7s168.7-75.5,168.7-168.7
					C896.3,964.1,820.7,888.6,727.6,888.6L727.6,888.6z"/>
			</g>
		</g>
	</g>
</g>
<g>
	<g>
		<path class="st5" d="M1004.5,87.5v-9.3h-10.2v9.3l5.1,5.1L1004.5,87.5z M991.7,90h-9.3v10.2h9.3l5.1-5.1L991.7,90z M994.3,102.7
			v9.3h10.2v-9.3l-5.1-5.1L994.3,102.7z M1007,90l-5.1,5.1l5.1,5.1h9.3V90H1007z"/>
	</g>
</g>
<g>
	<g>
		<path class="st5" d="M108.4,311.8v-6.4h-7v6.4l3.5,3.5L108.4,311.8z M99.7,313.5h-6.4v7h6.4l3.5-3.5L99.7,313.5z M101.5,322.2v6.4
			h7v-6.4l-3.5-3.5L101.5,322.2z M110.2,313.5l-3.5,3.5l3.5,3.5h6.4v-7H110.2z"/>
	</g>
</g>
<g>
	<g>
		<path class="st3" d="M373,146.8h-11.5l-18.6-32.4h-0.3c0.4,5.7,0.6,9.8,0.6,12.2v20.2H335V104h11.5l18.6,32.1h0.2
			c-0.3-5.6-0.4-9.5-0.4-11.8V104h8.2V146.8z"/>
		<path class="st3" d="M382.7,105.6c0-2.9,1.6-4.4,4.9-4.4s4.9,1.5,4.9,4.4c0,1.4-0.4,2.5-1.2,3.2c-0.8,0.8-2,1.2-3.6,1.2
			C384.3,110,382.7,108.6,382.7,105.6z M392,146.8h-8.9v-32.8h8.9V146.8z"/>
		<path class="st3" d="M431.6,146.8h-8.9v-19.1c0-2.4-0.4-4.1-1.3-5.3c-0.8-1.2-2.2-1.8-4-1.8c-2.5,0-4.3,0.8-5.4,2.5
			s-1.7,4.4-1.7,8.3v15.4h-8.9v-32.8h6.8l1.2,4.2h0.5c1-1.6,2.4-2.8,4.1-3.6c1.7-0.8,3.7-1.2,6-1.2c3.8,0,6.7,1,8.7,3.1
			c2,2.1,3,5,3,8.9V146.8z"/>
		<path class="st3" d="M454.6,140.3c1.6,0,3.4-0.3,5.6-1v6.7c-2.2,1-5,1.5-8.2,1.5c-3.6,0-6.2-0.9-7.8-2.7c-1.6-1.8-2.4-4.5-2.4-8.1
			v-15.8h-4.3V117l4.9-3l2.6-6.9h5.7v7h9.2v6.7h-9.2v15.8c0,1.3,0.4,2.2,1.1,2.8C452.5,140,453.4,140.3,454.6,140.3z"/>
		<path class="st3" d="M481.7,147.4c-5.3,0-9.4-1.5-12.4-4.4c-3-2.9-4.5-7-4.5-12.4c0-5.5,1.4-9.7,4.1-12.7c2.7-3,6.5-4.5,11.4-4.5
			c4.6,0,8.2,1.3,10.8,4s3.9,6.3,3.9,10.9v4.3h-21.1c0.1,2.5,0.8,4.5,2.3,5.9c1.4,1.4,3.4,2.1,5.9,2.1c2,0,3.8-0.2,5.6-0.6
			s3.6-1.1,5.5-2v6.9c-1.6,0.8-3.2,1.4-5,1.7S484.2,147.4,481.7,147.4z M480.4,119.8c-1.9,0-3.4,0.6-4.5,1.8s-1.7,2.9-1.8,5.1h12.5
			c0-2.2-0.6-3.9-1.7-5.1S482.3,119.8,480.4,119.8z"/>
		<path class="st3" d="M532.5,146.8h-8.9v-19.1c0-2.4-0.4-4.1-1.3-5.3c-0.8-1.2-2.2-1.8-4-1.8c-2.5,0-4.3,0.8-5.4,2.5
			s-1.7,4.4-1.7,8.3v15.4h-8.9v-32.8h6.8l1.2,4.2h0.5c1-1.6,2.4-2.8,4.1-3.6c1.7-0.8,3.7-1.2,6-1.2c3.8,0,6.7,1,8.7,3.1
			c2,2.1,3,5,3,8.9V146.8z"/>
		<path class="st3" d="M552.1,147.4c-3.8,0-6.9-1.5-9.1-4.5s-3.3-7.1-3.3-12.4c0-5.4,1.1-9.6,3.4-12.6c2.2-3,5.3-4.5,9.2-4.5
			c4.1,0,7.3,1.6,9.4,4.8h0.3c-0.4-2.4-0.7-4.6-0.7-6.5v-10.5h9v45.6h-6.9l-1.7-4.2h-0.4C559.4,145.8,556.3,147.4,552.1,147.4z
			 M555.2,140.3c2.3,0,4-0.7,5-2c1.1-1.3,1.6-3.6,1.7-6.8v-1c0-3.5-0.5-6-1.6-7.6s-2.8-2.3-5.3-2.3c-2,0-3.5,0.8-4.6,2.5
			c-1.1,1.7-1.7,4.1-1.7,7.4s0.6,5.6,1.7,7.3S553.2,140.3,555.2,140.3z"/>
		<path class="st3" d="M609.5,130.4c0,5.3-1.4,9.5-4.2,12.5c-2.8,3-6.7,4.5-11.7,4.5c-3.1,0-5.9-0.7-8.3-2.1s-4.2-3.4-5.5-5.9
			s-1.9-5.6-1.9-9c0-5.4,1.4-9.5,4.2-12.5c2.8-3,6.7-4.5,11.8-4.5c3.1,0,5.9,0.7,8.3,2.1c2.4,1.4,4.2,3.3,5.5,5.9
			C608.8,124,609.5,127,609.5,130.4z M586.8,130.4c0,3.2,0.5,5.7,1.6,7.4c1.1,1.7,2.8,2.5,5.2,2.5c2.4,0,4.1-0.8,5.1-2.5
			c1-1.7,1.6-4.1,1.6-7.4c0-3.2-0.5-5.7-1.6-7.3c-1.1-1.6-2.8-2.4-5.2-2.4c-2.4,0-4.1,0.8-5.2,2.4S586.8,127.1,586.8,130.4z"/>
		<path class="st3" d="M658.4,135c0,3.9-1.4,6.9-4.2,9.1s-6.7,3.3-11.6,3.3c-4.6,0-8.6-0.9-12.1-2.6v-8.4c2.9,1.3,5.3,2.2,7.3,2.7
			s3.8,0.8,5.5,0.8c2,0,3.5-0.4,4.6-1.1s1.6-1.9,1.6-3.4c0-0.8-0.2-1.6-0.7-2.2c-0.5-0.7-1.2-1.3-2.1-1.9c-0.9-0.6-2.8-1.6-5.6-2.9
			c-2.6-1.2-4.6-2.4-5.9-3.5c-1.3-1.1-2.4-2.5-3.1-4c-0.8-1.5-1.2-3.3-1.2-5.3c0-3.8,1.3-6.8,3.9-8.9s6.1-3.3,10.6-3.3
			c2.2,0,4.4,0.3,6.4,0.8s4.1,1.3,6.3,2.2l-2.9,7.1c-2.3-0.9-4.2-1.6-5.7-2c-1.5-0.4-3-0.6-4.4-0.6c-1.7,0-3,0.4-4,1.2
			c-0.9,0.8-1.4,1.8-1.4,3.1c0,0.8,0.2,1.5,0.6,2.1c0.4,0.6,1,1.2,1.8,1.7s2.7,1.6,5.8,3c4,1.9,6.7,3.8,8.2,5.8
			C657.7,129.8,658.4,132.2,658.4,135z"/>
		<path class="st3" d="M692.4,146.8l-2.5-11.5l-3.4-14.5h-0.2l-6,25.9h-9.6l-9.3-32.8h8.9l3.8,14.5c0.6,2.6,1.2,6.2,1.8,10.8h0.2
			c0.1-1.5,0.4-3.8,1-7.1l0.5-2.5l4-15.7h9.8l3.8,15.7c0.1,0.4,0.2,1.1,0.4,1.9c0.2,0.8,0.3,1.7,0.5,2.7c0.2,0.9,0.3,1.9,0.4,2.8
			s0.2,1.6,0.2,2.2h0.2c0.2-1.4,0.5-3.3,0.9-5.8c0.4-2.5,0.8-4.1,1-5l3.9-14.5h8.8l-9.4,32.8H692.4z"/>
		<path class="st3" d="M716.5,105.6c0-2.9,1.6-4.4,4.9-4.4s4.9,1.5,4.9,4.4c0,1.4-0.4,2.5-1.2,3.2c-0.8,0.8-2,1.2-3.6,1.2
			C718.1,110,716.5,108.6,716.5,105.6z M725.8,146.8h-8.9v-32.8h8.9V146.8z"/>
		<path class="st3" d="M749,140.3c1.6,0,3.4-0.3,5.6-1v6.7c-2.2,1-5,1.5-8.2,1.5c-3.6,0-6.2-0.9-7.8-2.7c-1.6-1.8-2.4-4.5-2.4-8.1
			v-15.8h-4.3V117l4.9-3l2.6-6.9h5.7v7h9.2v6.7h-9.2v15.8c0,1.3,0.4,2.2,1.1,2.8C746.8,140,747.8,140.3,749,140.3z"/>
		<path class="st3" d="M774.5,147.4c-10.2,0-15.3-5.6-15.3-16.8c0-5.6,1.4-9.8,4.2-12.8c2.8-2.9,6.7-4.4,11.9-4.4
			c3.8,0,7.2,0.7,10.2,2.2l-2.6,6.9c-1.4-0.6-2.7-1-3.9-1.4c-1.2-0.4-2.4-0.5-3.6-0.5c-4.6,0-7,3.3-7,9.9c0,6.4,2.3,9.6,7,9.6
			c1.7,0,3.3-0.2,4.8-0.7c1.5-0.5,2.9-1.2,4.4-2.2v7.6c-1.4,0.9-2.9,1.6-4.4,1.9S776.7,147.4,774.5,147.4z"/>
		<path class="st3" d="M822.3,146.8h-8.9v-19.1c0-4.7-1.8-7.1-5.3-7.1c-2.5,0-4.3,0.8-5.4,2.5s-1.7,4.5-1.7,8.3v15.4H792v-45.6h8.9
			v9.3c0,0.7-0.1,2.4-0.2,5.1l-0.2,2.6h0.5c2-3.2,5.2-4.8,9.5-4.8c3.8,0,6.8,1,8.8,3.1c2,2.1,3,5,3,8.9V146.8z"/>
		<path class="st5" d="M334.9,190.4c-1.3,0-2.4-0.2-3.4-0.7s-1.9-1.2-2.6-2.1h-0.2c0.1,1.1,0.2,2.2,0.2,3.2v7.9h-2.9v-27.9h2.4
			l0.4,2.6h0.1c0.8-1.1,1.6-1.8,2.6-2.3s2.1-0.7,3.4-0.7c2.6,0,4.5,0.9,5.9,2.6s2.1,4.2,2.1,7.3c0,3.2-0.7,5.6-2.1,7.4
			S337.4,190.4,334.9,190.4z M334.4,172.9c-2,0-3.4,0.5-4.3,1.6s-1.3,2.8-1.4,5.2v0.7c0,2.7,0.5,4.6,1.4,5.8s2.3,1.7,4.3,1.7
			c1.7,0,3-0.7,3.9-2s1.4-3.2,1.4-5.6c0-2.4-0.5-4.2-1.4-5.5C337.5,173.5,336.1,172.9,334.4,172.9z"/>
		<path class="st5" d="M359.8,190l-0.6-2.7h-0.1c-1,1.2-1.9,2-2.9,2.5s-2.1,0.6-3.6,0.6c-1.9,0-3.4-0.5-4.5-1.5s-1.6-2.4-1.6-4.2
			c0-3.9,3.1-5.9,9.3-6.1l3.3-0.1v-1.2c0-1.5-0.3-2.6-1-3.3s-1.7-1.1-3.1-1.1c-1.6,0-3.4,0.5-5.4,1.5l-0.9-2.2
			c0.9-0.5,2-0.9,3.1-1.2s2.3-0.4,3.4-0.4c2.3,0,4,0.5,5.1,1.5s1.7,2.7,1.7,4.9V190H359.8z M353.2,188c1.8,0,3.2-0.5,4.3-1.5
			s1.6-2.4,1.6-4.2v-1.7l-2.9,0.1c-2.3,0.1-4,0.4-5,1.1s-1.5,1.6-1.5,3c0,1.1,0.3,1.9,1,2.4S352.1,188,353.2,188z"/>
		<path class="st5" d="M376.8,170.4c0.9,0,1.6,0.1,2.3,0.2l-0.4,2.7c-0.8-0.2-1.5-0.3-2.1-0.3c-1.6,0-2.9,0.6-4,1.9
			c-1.1,1.3-1.7,2.8-1.7,4.7V190H368v-19.3h2.4l0.3,3.6h0.1c0.7-1.3,1.6-2.2,2.6-2.9S375.6,170.4,376.8,170.4z"/>
		<path class="st5" d="M394.5,190l-0.6-2.7h-0.1c-1,1.2-1.9,2-2.9,2.5s-2.1,0.6-3.6,0.6c-1.9,0-3.4-0.5-4.5-1.5s-1.6-2.4-1.6-4.2
			c0-3.9,3.1-5.9,9.3-6.1l3.3-0.1v-1.2c0-1.5-0.3-2.6-1-3.3s-1.7-1.1-3.1-1.1c-1.6,0-3.4,0.5-5.4,1.5l-0.9-2.2
			c0.9-0.5,2-0.9,3.1-1.2s2.3-0.4,3.4-0.4c2.3,0,4,0.5,5.1,1.5s1.7,2.7,1.7,4.9V190H394.5z M387.9,188c1.8,0,3.2-0.5,4.3-1.5
			s1.6-2.4,1.6-4.2v-1.7l-2.9,0.1c-2.3,0.1-4,0.4-5,1.1s-1.5,1.6-1.5,3c0,1.1,0.3,1.9,1,2.4S386.8,188,387.9,188z"/>
		<path class="st5" d="M419.7,190.4c-2.8,0-4.9-0.9-6.5-2.6s-2.3-4.1-2.3-7.3c0-3.2,0.8-5.7,2.3-7.5s3.8-2.6,6.6-2.6
			c0.9,0,1.9,0.1,2.8,0.3s1.7,0.4,2.2,0.7l-0.9,2.5c-0.6-0.3-1.3-0.5-2.1-0.6s-1.4-0.3-2-0.3c-3.9,0-5.9,2.5-5.9,7.5
			c0,2.4,0.5,4.2,1.4,5.4s2.4,1.9,4.2,1.9c1.6,0,3.3-0.3,4.9-1v2.6C423.3,190.1,421.7,190.4,419.7,190.4z"/>
		<path class="st5" d="M441,190l-0.6-2.7h-0.1c-1,1.2-1.9,2-2.9,2.5s-2.1,0.6-3.6,0.6c-1.9,0-3.4-0.5-4.5-1.5s-1.6-2.4-1.6-4.2
			c0-3.9,3.1-5.9,9.3-6.1l3.3-0.1v-1.2c0-1.5-0.3-2.6-1-3.3s-1.7-1.1-3.1-1.1c-1.6,0-3.4,0.5-5.4,1.5l-0.9-2.2
			c0.9-0.5,2-0.9,3.1-1.2s2.3-0.4,3.4-0.4c2.3,0,4,0.5,5.1,1.5s1.7,2.7,1.7,4.9V190H441z M434.4,188c1.8,0,3.2-0.5,4.3-1.5
			s1.6-2.4,1.6-4.2v-1.7l-2.9,0.1c-2.3,0.1-4,0.4-5,1.1s-1.5,1.6-1.5,3c0,1.1,0.3,1.9,1,2.4S433.3,188,434.4,188z"/>
		<path class="st5" d="M462.3,187.5h-0.2c-1.3,2-3.4,2.9-6,2.9c-2.5,0-4.5-0.9-5.9-2.6s-2.1-4.2-2.1-7.3s0.7-5.6,2.1-7.4
			s3.4-2.6,5.9-2.6c2.6,0,4.6,0.9,6,2.8h0.2l-0.1-1.4l-0.1-1.4v-7.8h2.9V190h-2.4L462.3,187.5z M456.5,188c2,0,3.4-0.5,4.3-1.6
			s1.3-2.8,1.3-5.2v-0.6c0-2.7-0.5-4.7-1.4-5.8s-2.4-1.7-4.4-1.7c-1.7,0-3,0.7-3.9,2c-0.9,1.3-1.4,3.2-1.4,5.6
			c0,2.5,0.5,4.3,1.4,5.6S454.7,188,456.5,188z"/>
		<path class="st5" d="M483.1,190l-0.6-2.7h-0.1c-1,1.2-1.9,2-2.9,2.5s-2.1,0.6-3.6,0.6c-1.9,0-3.4-0.5-4.5-1.5s-1.6-2.4-1.6-4.2
			c0-3.9,3.1-5.9,9.3-6.1l3.3-0.1v-1.2c0-1.5-0.3-2.6-1-3.3s-1.7-1.1-3.1-1.1c-1.6,0-3.4,0.5-5.4,1.5l-0.9-2.2
			c0.9-0.5,2-0.9,3.1-1.2s2.3-0.4,3.4-0.4c2.3,0,4,0.5,5.1,1.5s1.7,2.7,1.7,4.9V190H483.1z M476.5,188c1.8,0,3.2-0.5,4.3-1.5
			s1.6-2.4,1.6-4.2v-1.7l-2.9,0.1c-2.3,0.1-4,0.4-5,1.1s-1.5,1.6-1.5,3c0,1.1,0.3,1.9,1,2.4S475.4,188,476.5,188z"/>
		<path class="st5" d="M508.8,190.4c-2.8,0-5.1-0.9-6.7-2.6s-2.5-4.1-2.5-7.2c0-3.1,0.8-5.6,2.3-7.4s3.6-2.7,6.2-2.7
			c2.4,0,4.3,0.8,5.7,2.4s2.1,3.7,2.1,6.3v1.8h-13.3c0.1,2.3,0.6,4,1.7,5.2s2.6,1.8,4.6,1.8c2.1,0,4.1-0.4,6.2-1.3v2.6
			c-1,0.4-2,0.8-2.9,1S510.1,190.4,508.8,190.4z M508,172.9c-1.5,0-2.8,0.5-3.7,1.5s-1.5,2.4-1.6,4.2h10.1c0-1.8-0.4-3.2-1.2-4.2
			S509.5,172.9,508,172.9z"/>
		<path class="st5" d="M523.7,190h-2.9v-27.4h2.9V190z"/>
		<path class="st5" d="M538.1,190.4c-2.8,0-5.1-0.9-6.7-2.6s-2.5-4.1-2.5-7.2c0-3.1,0.8-5.6,2.3-7.4s3.6-2.7,6.2-2.7
			c2.4,0,4.3,0.8,5.7,2.4s2.1,3.7,2.1,6.3v1.8h-13.3c0.1,2.3,0.6,4,1.7,5.2s2.6,1.8,4.6,1.8c2.1,0,4.1-0.4,6.2-1.3v2.6
			c-1,0.4-2,0.8-2.9,1S539.4,190.4,538.1,190.4z M537.3,172.9c-1.5,0-2.8,0.5-3.7,1.5s-1.5,2.4-1.6,4.2H542c0-1.8-0.4-3.2-1.2-4.2
			S538.8,172.9,537.3,172.9z"/>
		<path class="st5" d="M574.7,190v-12.5c0-1.5-0.3-2.7-1-3.5s-1.7-1.2-3.1-1.2c-1.8,0-3.2,0.5-4,1.6s-1.3,2.6-1.3,4.8V190h-2.9
			v-12.5c0-1.5-0.3-2.7-1-3.5s-1.7-1.2-3.1-1.2c-1.8,0-3.2,0.5-4,1.6s-1.3,2.9-1.3,5.4V190h-2.9v-19.3h2.4l0.5,2.6h0.1
			c0.6-0.9,1.3-1.7,2.3-2.2s2.1-0.8,3.4-0.8c3,0,5,1.1,5.9,3.3h0.1c0.6-1,1.4-1.8,2.5-2.4s2.3-0.9,3.7-0.9c2.2,0,3.8,0.6,4.9,1.7
			s1.6,2.9,1.6,5.4V190H574.7z"/>
		<path class="st5" d="M591.8,190.4c-2.8,0-5.1-0.9-6.7-2.6s-2.5-4.1-2.5-7.2c0-3.1,0.8-5.6,2.3-7.4s3.6-2.7,6.2-2.7
			c2.4,0,4.3,0.8,5.7,2.4s2.1,3.7,2.1,6.3v1.8h-13.3c0.1,2.3,0.6,4,1.7,5.2s2.6,1.8,4.6,1.8c2.1,0,4.1-0.4,6.2-1.3v2.6
			c-1,0.4-2,0.8-2.9,1S593.1,190.4,591.8,190.4z M591,172.9c-1.5,0-2.8,0.5-3.7,1.5s-1.5,2.4-1.6,4.2h10.1c0-1.8-0.4-3.2-1.2-4.2
			S592.5,172.9,591,172.9z"/>
		<path class="st5" d="M617,190v-12.5c0-1.6-0.4-2.7-1.1-3.5s-1.8-1.2-3.4-1.2c-2,0-3.5,0.5-4.4,1.6s-1.4,2.9-1.4,5.4V190h-2.9
			v-19.3h2.4l0.5,2.6h0.1c0.6-0.9,1.4-1.7,2.5-2.2s2.3-0.8,3.6-0.8c2.3,0,4.1,0.6,5.2,1.7s1.8,2.9,1.8,5.4V190H617z"/>
		<path class="st5" d="M632.1,188c0.5,0,1,0,1.5-0.1s0.9-0.2,1.1-0.2v2.2c-0.3,0.2-0.8,0.3-1.4,0.4s-1.2,0.1-1.7,0.1
			c-3.7,0-5.6-2-5.6-5.9V173h-2.8v-1.4l2.8-1.2l1.2-4.1h1.7v4.5h5.6v2.3H629v11.3c0,1.2,0.3,2.1,0.8,2.7S631.2,188,632.1,188z"/>
		<path class="st5" d="M655.3,180.4c0,3.1-0.8,5.6-2.4,7.4s-3.8,2.6-6.6,2.6c-1.7,0-3.3-0.4-4.6-1.2s-2.4-2-3.1-3.5
			s-1.1-3.3-1.1-5.3c0-3.1,0.8-5.6,2.4-7.3s3.8-2.6,6.5-2.6c2.7,0,4.8,0.9,6.4,2.7S655.3,177.3,655.3,180.4z M640.6,180.4
			c0,2.5,0.5,4.3,1.5,5.6s2.4,1.9,4.3,1.9s3.4-0.6,4.4-1.9s1.5-3.2,1.5-5.6c0-2.4-0.5-4.3-1.5-5.6c-1-1.3-2.5-1.9-4.4-1.9
			c-1.9,0-3.4,0.6-4.3,1.9C641.1,176,640.6,177.9,640.6,180.4z"/>
		<path class="st5" d="M682.8,187.5h-0.2c-1.3,2-3.4,2.9-6,2.9c-2.5,0-4.5-0.9-5.9-2.6s-2.1-4.2-2.1-7.3s0.7-5.6,2.1-7.4
			s3.4-2.6,5.9-2.6c2.6,0,4.6,0.9,6,2.8h0.2l-0.1-1.4l-0.1-1.4v-7.8h2.9V190h-2.4L682.8,187.5z M677,188c2,0,3.4-0.5,4.3-1.6
			s1.3-2.8,1.3-5.2v-0.6c0-2.7-0.5-4.7-1.4-5.8s-2.4-1.7-4.4-1.7c-1.7,0-3,0.7-3.9,2c-0.9,1.3-1.4,3.2-1.4,5.6
			c0,2.5,0.5,4.3,1.4,5.6S675.2,188,677,188z"/>
		<path class="st5" d="M703.6,190l-0.6-2.7h-0.1c-1,1.2-1.9,2-2.9,2.5s-2.1,0.6-3.6,0.6c-1.9,0-3.4-0.5-4.5-1.5s-1.6-2.4-1.6-4.2
			c0-3.9,3.1-5.9,9.3-6.1l3.3-0.1v-1.2c0-1.5-0.3-2.6-1-3.3s-1.7-1.1-3.1-1.1c-1.6,0-3.4,0.5-5.4,1.5l-0.9-2.2
			c0.9-0.5,2-0.9,3.1-1.2s2.3-0.4,3.4-0.4c2.3,0,4,0.5,5.1,1.5s1.7,2.7,1.7,4.9V190H703.6z M697,188c1.8,0,3.2-0.5,4.3-1.5
			s1.6-2.4,1.6-4.2v-1.7l-2.9,0.1c-2.3,0.1-4,0.4-5,1.1s-1.5,1.6-1.5,3c0,1.1,0.3,1.9,1,2.4S695.9,188,697,188z"/>
		<path class="st5" d="M729.3,190.4c-2.8,0-5.1-0.9-6.7-2.6s-2.5-4.1-2.5-7.2c0-3.1,0.8-5.6,2.3-7.4s3.6-2.7,6.2-2.7
			c2.4,0,4.3,0.8,5.7,2.4s2.1,3.7,2.1,6.3v1.8h-13.3c0.1,2.3,0.6,4,1.7,5.2s2.6,1.8,4.6,1.8c2.1,0,4.1-0.4,6.2-1.3v2.6
			c-1,0.4-2,0.8-2.9,1S730.6,190.4,729.3,190.4z M728.5,172.9c-1.5,0-2.8,0.5-3.7,1.5s-1.5,2.4-1.6,4.2h10.1c0-1.8-0.4-3.2-1.2-4.2
			S730,172.9,728.5,172.9z"/>
		<path class="st5" d="M748.2,190.4c-2.5,0-4.4-0.9-5.8-2.6s-2.1-4.2-2.1-7.3c0-3.2,0.7-5.6,2.1-7.4s3.4-2.7,5.9-2.7
			c2.6,0,4.7,1,6.1,3h0.2l0.4-2.6h2.3v27.9h-2.9v-8.2c0-1.2,0.1-2.2,0.2-3h-0.2C752.9,189.4,750.9,190.4,748.2,190.4z M748.6,188
			c1.9,0,3.4-0.5,4.3-1.6s1.4-2.8,1.4-5.3v-0.7c0-2.7-0.5-4.6-1.4-5.8s-2.4-1.8-4.3-1.8c-1.7,0-3,0.7-3.9,2
			c-0.9,1.3-1.4,3.2-1.4,5.6s0.4,4.3,1.3,5.5S746.9,188,748.6,188z"/>
		<path class="st5" d="M766.2,170.8v12.5c0,1.6,0.4,2.7,1.1,3.5s1.8,1.2,3.4,1.2c2,0,3.5-0.6,4.4-1.7s1.4-2.9,1.4-5.4v-10.1h2.9V190
			h-2.4l-0.4-2.6h-0.2c-0.6,0.9-1.4,1.7-2.5,2.2s-2.3,0.8-3.6,0.8c-2.3,0-4.1-0.6-5.3-1.7s-1.7-2.9-1.7-5.3v-12.6H766.2z"/>
		<path class="st5" d="M785.3,165.6c0-0.7,0.2-1.2,0.5-1.5s0.7-0.5,1.2-0.5c0.5,0,0.9,0.2,1.2,0.5s0.5,0.8,0.5,1.5s-0.2,1.1-0.5,1.5
			s-0.7,0.5-1.2,0.5c-0.5,0-0.9-0.2-1.2-0.5S785.3,166.2,785.3,165.6z M788.4,190h-2.9v-19.3h2.9V190z"/>
		<path class="st5" d="M803.6,190.4c-1.3,0-2.4-0.2-3.4-0.7s-1.9-1.2-2.6-2.1h-0.2c0.1,1.1,0.2,2.2,0.2,3.2v7.9h-2.9v-27.9h2.4
			l0.4,2.6h0.1c0.8-1.1,1.6-1.8,2.6-2.3s2.1-0.7,3.4-0.7c2.6,0,4.5,0.9,5.9,2.6s2.1,4.2,2.1,7.3c0,3.2-0.7,5.6-2.1,7.4
			S806.1,190.4,803.6,190.4z M803.2,172.9c-2,0-3.4,0.5-4.3,1.6s-1.3,2.8-1.4,5.2v0.7c0,2.7,0.5,4.6,1.4,5.8s2.3,1.7,4.3,1.7
			c1.7,0,3-0.7,3.9-2s1.4-3.2,1.4-5.6c0-2.4-0.5-4.2-1.4-5.5C806.2,173.5,804.9,172.9,803.2,172.9z"/>
		<path class="st5" d="M828.5,190l-0.6-2.7h-0.1c-1,1.2-1.9,2-2.9,2.5s-2.1,0.6-3.6,0.6c-1.9,0-3.4-0.5-4.5-1.5s-1.6-2.4-1.6-4.2
			c0-3.9,3.1-5.9,9.3-6.1l3.3-0.1v-1.2c0-1.5-0.3-2.6-1-3.3s-1.7-1.1-3.1-1.1c-1.6,0-3.4,0.5-5.4,1.5l-0.9-2.2
			c0.9-0.5,2-0.9,3.1-1.2s2.3-0.4,3.4-0.4c2.3,0,4,0.5,5.1,1.5s1.7,2.7,1.7,4.9V190H828.5z M821.9,188c1.8,0,3.2-0.5,4.3-1.5
			s1.6-2.4,1.6-4.2v-1.7l-2.9,0.1c-2.3,0.1-4,0.4-5,1.1s-1.5,1.6-1.5,3c0,1.1,0.3,1.9,1,2.4S820.8,188,821.9,188z"/>
		<path class="st5" d="M358.5,233.6c-2.5,0-4.4-0.9-5.8-2.6s-2.1-4.2-2.1-7.3c0-3.2,0.7-5.6,2.1-7.4s3.4-2.7,5.9-2.7
			c2.6,0,4.7,1,6.1,3h0.2l0.4-2.6h2.3v27.9h-2.9v-8.2c0-1.2,0.1-2.2,0.2-3h-0.2C363.2,232.6,361.2,233.6,358.5,233.6z M358.9,231.2
			c1.9,0,3.4-0.5,4.3-1.6s1.4-2.8,1.4-5.3v-0.7c0-2.7-0.5-4.6-1.4-5.8s-2.4-1.8-4.3-1.8c-1.7,0-3,0.7-3.9,2s-1.4,3.2-1.4,5.6
			s0.4,4.3,1.3,5.5S357.1,231.2,358.9,231.2z"/>
		<path class="st5" d="M376.4,214v12.5c0,1.6,0.4,2.7,1.1,3.5s1.8,1.2,3.4,1.2c2,0,3.5-0.6,4.4-1.7s1.4-2.9,1.4-5.4V214h2.9v19.3
			h-2.4l-0.4-2.6h-0.2c-0.6,0.9-1.4,1.7-2.5,2.2s-2.3,0.8-3.6,0.8c-2.3,0-4.1-0.6-5.3-1.7s-1.7-2.9-1.7-5.3V214H376.4z"/>
		<path class="st5" d="M403.9,233.6c-2.8,0-5.1-0.9-6.7-2.6s-2.5-4.1-2.5-7.2c0-3.1,0.8-5.6,2.3-7.4s3.6-2.7,6.2-2.7
			c2.4,0,4.3,0.8,5.7,2.4s2.1,3.7,2.1,6.3v1.8h-13.3c0.1,2.3,0.6,4,1.7,5.2s2.6,1.8,4.6,1.8c2.1,0,4.1-0.4,6.2-1.3v2.6
			c-1,0.4-2,0.8-2.9,1S405.2,233.6,403.9,233.6z M403.1,216.1c-1.5,0-2.8,0.5-3.7,1.5s-1.5,2.4-1.6,4.2h10.1c0-1.8-0.4-3.2-1.2-4.2
			S404.7,216.1,403.1,216.1z"/>
		<path class="st5" d="M434,216.2h-4.9v17h-2.9v-17h-3.4v-1.3l3.4-1.1v-1.1c0-4.7,2.1-7.1,6.2-7.1c1,0,2.2,0.2,3.6,0.6l-0.8,2.3
			c-1.1-0.4-2.1-0.5-2.9-0.5c-1.1,0-1.9,0.4-2.4,1.1s-0.8,1.9-0.8,3.5v1.2h4.9V216.2z M437.3,208.8c0-0.7,0.2-1.2,0.5-1.5
			s0.7-0.5,1.2-0.5c0.5,0,0.9,0.2,1.2,0.5s0.5,0.8,0.5,1.5s-0.2,1.1-0.5,1.5s-0.7,0.5-1.2,0.5c-0.5,0-0.9-0.2-1.2-0.5
			S437.3,209.4,437.3,208.8z M440.4,233.2h-2.9V214h2.9V233.2z"/>
		<path class="st5" d="M454.3,233.6c-2.8,0-4.9-0.9-6.5-2.6s-2.3-4.1-2.3-7.3c0-3.2,0.8-5.7,2.3-7.5s3.8-2.6,6.6-2.6
			c0.9,0,1.9,0.1,2.8,0.3s1.7,0.4,2.2,0.7l-0.9,2.5c-0.6-0.3-1.3-0.5-2.1-0.6s-1.4-0.3-2-0.3c-3.9,0-5.9,2.5-5.9,7.5
			c0,2.4,0.5,4.2,1.4,5.4s2.4,1.9,4.2,1.9c1.6,0,3.3-0.3,4.9-1v2.6C457.9,233.3,456.3,233.6,454.3,233.6z"/>
		<path class="st5" d="M475.6,233.2l-0.6-2.7h-0.1c-1,1.2-1.9,2-2.9,2.5s-2.1,0.6-3.6,0.6c-1.9,0-3.4-0.5-4.5-1.5s-1.6-2.4-1.6-4.2
			c0-3.9,3.1-5.9,9.3-6.1l3.3-0.1v-1.2c0-1.5-0.3-2.6-1-3.3s-1.7-1.1-3.1-1.1c-1.6,0-3.4,0.5-5.4,1.5l-0.9-2.2
			c0.9-0.5,2-0.9,3.1-1.2s2.3-0.4,3.4-0.4c2.3,0,4,0.5,5.1,1.5s1.7,2.7,1.7,4.9v13.1H475.6z M469,231.2c1.8,0,3.2-0.5,4.3-1.5
			s1.6-2.4,1.6-4.2v-1.7l-2.9,0.1c-2.3,0.1-4,0.4-5,1.1s-1.5,1.6-1.5,3c0,1.1,0.3,1.9,1,2.4S467.9,231.2,469,231.2z"/>
		<path class="st5" d="M492.6,213.6c0.9,0,1.6,0.1,2.3,0.2l-0.4,2.7c-0.8-0.2-1.5-0.3-2.1-0.3c-1.6,0-2.9,0.6-4,1.9
			s-1.7,2.8-1.7,4.7v10.3h-2.9V214h2.4l0.3,3.6h0.1c0.7-1.3,1.6-2.2,2.6-2.9S491.4,213.6,492.6,213.6z"/>
		<path class="st5" d="M516,233.6c-2.8,0-5.1-0.9-6.7-2.6s-2.5-4.1-2.5-7.2c0-3.1,0.8-5.6,2.3-7.4s3.6-2.7,6.2-2.7
			c2.4,0,4.3,0.8,5.7,2.4s2.1,3.7,2.1,6.3v1.8h-13.3c0.1,2.3,0.6,4,1.7,5.2s2.6,1.8,4.6,1.8c2.1,0,4.1-0.4,6.2-1.3v2.6
			c-1,0.4-2,0.8-2.9,1S517.3,233.6,516,233.6z M515.2,216.1c-1.5,0-2.8,0.5-3.7,1.5s-1.5,2.4-1.6,4.2h10.1c0-1.8-0.4-3.2-1.2-4.2
			S516.7,216.1,515.2,216.1z"/>
		<path class="st5" d="M552.6,233.2v-12.5c0-1.5-0.3-2.7-1-3.5s-1.7-1.2-3.1-1.2c-1.8,0-3.2,0.5-4,1.6s-1.3,2.6-1.3,4.8v10.8h-2.9
			v-12.5c0-1.5-0.3-2.7-1-3.5s-1.7-1.2-3.1-1.2c-1.8,0-3.2,0.5-4,1.6s-1.3,2.9-1.3,5.4v10.1H528V214h2.4l0.5,2.6h0.1
			c0.6-0.9,1.3-1.7,2.3-2.2s2.1-0.8,3.4-0.8c3,0,5,1.1,5.9,3.3h0.1c0.6-1,1.4-1.8,2.5-2.4s2.3-0.9,3.7-0.9c2.2,0,3.8,0.6,4.9,1.7
			s1.6,2.9,1.6,5.4v12.6H552.6z"/>
		<path class="st5" d="M579.8,233.6c-1.3,0-2.4-0.2-3.4-0.7s-1.9-1.2-2.6-2.1h-0.2c0.1,1.1,0.2,2.2,0.2,3.2v7.9h-2.9V214h2.4
			l0.4,2.6h0.1c0.8-1.1,1.6-1.8,2.6-2.3s2.1-0.7,3.4-0.7c2.6,0,4.5,0.9,5.9,2.6s2.1,4.2,2.1,7.3c0,3.2-0.7,5.6-2.1,7.4
			S582.3,233.6,579.8,233.6z M579.4,216.1c-2,0-3.4,0.5-4.3,1.6s-1.3,2.8-1.4,5.2v0.7c0,2.7,0.5,4.6,1.4,5.8s2.3,1.7,4.3,1.7
			c1.7,0,3-0.7,3.9-2s1.4-3.2,1.4-5.6c0-2.4-0.5-4.2-1.4-5.5S581.1,216.1,579.4,216.1z"/>
		<path class="st5" d="M601.7,213.6c0.9,0,1.6,0.1,2.3,0.2l-0.4,2.7c-0.8-0.2-1.5-0.3-2.1-0.3c-1.6,0-2.9,0.6-4,1.9
			s-1.7,2.8-1.7,4.7v10.3h-2.9V214h2.4l0.3,3.6h0.1c0.7-1.3,1.6-2.2,2.6-2.9S600.5,213.6,601.7,213.6z"/>
		<path class="st5" d="M607.4,208.8c0-0.7,0.2-1.2,0.5-1.5s0.7-0.5,1.2-0.5c0.5,0,0.9,0.2,1.2,0.5s0.5,0.8,0.5,1.5s-0.2,1.1-0.5,1.5
			s-0.7,0.5-1.2,0.5c-0.5,0-0.9-0.2-1.2-0.5S607.4,209.4,607.4,208.8z M610.5,233.2h-2.9V214h2.9V233.2z"/>
		<path class="st5" d="M641.3,233.2v-12.5c0-1.5-0.3-2.7-1-3.5s-1.7-1.2-3.1-1.2c-1.8,0-3.2,0.5-4,1.6s-1.3,2.6-1.3,4.8v10.8H629
			v-12.5c0-1.5-0.3-2.7-1-3.5s-1.7-1.2-3.1-1.2c-1.8,0-3.2,0.5-4,1.6s-1.3,2.9-1.3,5.4v10.1h-2.9V214h2.4l0.5,2.6h0.1
			c0.6-0.9,1.3-1.7,2.3-2.2s2.1-0.8,3.4-0.8c3,0,5,1.1,5.9,3.3h0.1c0.6-1,1.4-1.8,2.5-2.4s2.3-0.9,3.7-0.9c2.2,0,3.8,0.6,4.9,1.7
			s1.6,2.9,1.6,5.4v12.6H641.3z"/>
		<path class="st5" d="M658.4,233.6c-2.8,0-5.1-0.9-6.7-2.6s-2.5-4.1-2.5-7.2c0-3.1,0.8-5.6,2.3-7.4s3.6-2.7,6.2-2.7
			c2.4,0,4.3,0.8,5.7,2.4s2.1,3.7,2.1,6.3v1.8h-13.3c0.1,2.3,0.6,4,1.7,5.2s2.6,1.8,4.6,1.8c2.1,0,4.1-0.4,6.2-1.3v2.6
			c-1,0.4-2,0.8-2.9,1S659.7,233.6,658.4,233.6z M657.6,216.1c-1.5,0-2.8,0.5-3.7,1.5s-1.5,2.4-1.6,4.2h10.1c0-1.8-0.4-3.2-1.2-4.2
			S659.1,216.1,657.6,216.1z"/>
		<path class="st5" d="M670.2,208.8c0-0.7,0.2-1.2,0.5-1.5s0.7-0.5,1.2-0.5c0.5,0,0.9,0.2,1.2,0.5s0.5,0.8,0.5,1.5s-0.2,1.1-0.5,1.5
			s-0.7,0.5-1.2,0.5c-0.5,0-0.9-0.2-1.2-0.5S670.2,209.4,670.2,208.8z M673.3,233.2h-2.9V214h2.9V233.2z"/>
		<path class="st5" d="M688.3,213.6c0.9,0,1.6,0.1,2.3,0.2l-0.4,2.7c-0.8-0.2-1.5-0.3-2.1-0.3c-1.6,0-2.9,0.6-4,1.9
			s-1.7,2.8-1.7,4.7v10.3h-2.9V214h2.4l0.3,3.6h0.1c0.7-1.3,1.6-2.2,2.6-2.9S687.1,213.6,688.3,213.6z"/>
		<path class="st5" d="M710.9,223.6c0,3.1-0.8,5.6-2.4,7.4s-3.8,2.6-6.6,2.6c-1.7,0-3.3-0.4-4.6-1.2s-2.4-2-3.1-3.5
			s-1.1-3.3-1.1-5.3c0-3.1,0.8-5.6,2.4-7.3s3.8-2.6,6.5-2.6c2.7,0,4.8,0.9,6.4,2.7S710.9,220.5,710.9,223.6z M696.2,223.6
			c0,2.5,0.5,4.3,1.5,5.6s2.4,1.9,4.3,1.9s3.4-0.6,4.4-1.9s1.5-3.2,1.5-5.6c0-2.4-0.5-4.3-1.5-5.6s-2.5-1.9-4.4-1.9
			c-1.9,0-3.4,0.6-4.3,1.9S696.2,221.1,696.2,223.6z"/>
		<path class="st5" d="M728.2,233.2h-2.9v-27.4h2.9V233.2z"/>
		<path class="st5" d="M737.2,214v12.5c0,1.6,0.4,2.7,1.1,3.5s1.8,1.2,3.4,1.2c2,0,3.5-0.6,4.4-1.7s1.4-2.9,1.4-5.4V214h2.9v19.3
			h-2.4l-0.4-2.6h-0.2c-0.6,0.9-1.4,1.7-2.5,2.2s-2.3,0.8-3.6,0.8c-2.3,0-4.1-0.6-5.3-1.7s-1.7-2.9-1.7-5.3V214H737.2z"/>
		<path class="st5" d="M772.3,214v1.8l-3.6,0.4c0.3,0.4,0.6,0.9,0.9,1.6s0.4,1.4,0.4,2.2c0,1.9-0.6,3.4-1.9,4.5s-3.1,1.7-5.3,1.7
			c-0.6,0-1.1,0-1.6-0.1c-1.2,0.7-1.9,1.5-1.9,2.5c0,0.5,0.2,0.9,0.7,1.2s1.2,0.4,2.2,0.4h3.4c2.1,0,3.7,0.4,4.8,1.3
			s1.7,2.2,1.7,3.8c0,2.1-0.9,3.8-2.6,4.9s-4.2,1.7-7.5,1.7c-2.5,0-4.5-0.5-5.8-1.4s-2-2.3-2-4c0-1.2,0.4-2.2,1.1-3s1.8-1.4,3.2-1.7
			c-0.5-0.2-0.9-0.6-1.2-1s-0.5-1-0.5-1.6c0-0.7,0.2-1.3,0.6-1.8s1-1,1.8-1.5c-1-0.4-1.8-1.1-2.4-2.1s-0.9-2.1-0.9-3.4
			c0-2.1,0.6-3.7,1.9-4.9s3.1-1.7,5.4-1.7c1,0,1.9,0.1,2.7,0.4H772.3z M756.9,236.5c0,1,0.4,1.8,1.3,2.4s2.1,0.8,3.8,0.8
			c2.4,0,4.3-0.4,5.4-1.1s1.8-1.7,1.8-3c0-1-0.3-1.8-1-2.2s-1.9-0.6-3.6-0.6h-3.5c-1.3,0-2.4,0.3-3.1,0.9S756.9,235.3,756.9,236.5z
			 M758.5,220.2c0,1.3,0.4,2.4,1.1,3.1s1.8,1,3.2,1c2.8,0,4.3-1.4,4.3-4.1c0-2.9-1.4-4.3-4.3-4.3c-1.4,0-2.4,0.4-3.2,1.1
			S758.5,218.7,758.5,220.2z"/>
		<path class="st5" d="M788.1,233.2l-0.6-2.7h-0.1c-1,1.2-1.9,2-2.9,2.5s-2.1,0.6-3.6,0.6c-1.9,0-3.4-0.5-4.5-1.5s-1.6-2.4-1.6-4.2
			c0-3.9,3.1-5.9,9.3-6.1l3.3-0.1v-1.2c0-1.5-0.3-2.6-1-3.3s-1.7-1.1-3.1-1.1c-1.6,0-3.4,0.5-5.4,1.5l-0.9-2.2
			c0.9-0.5,2-0.9,3.1-1.2s2.3-0.4,3.4-0.4c2.3,0,4,0.5,5.1,1.5s1.7,2.7,1.7,4.9v13.1H788.1z M781.5,231.2c1.8,0,3.2-0.5,4.3-1.5
			s1.6-2.4,1.6-4.2v-1.7l-2.9,0.1c-2.3,0.1-4,0.4-5,1.1s-1.5,1.6-1.5,3c0,1.1,0.3,1.9,1,2.4S780.3,231.2,781.5,231.2z"/>
		<path class="st5" d="M805.1,213.6c0.9,0,1.6,0.1,2.3,0.2l-0.4,2.7c-0.8-0.2-1.5-0.3-2.1-0.3c-1.6,0-2.9,0.6-4,1.9
			s-1.7,2.8-1.7,4.7v10.3h-2.9V214h2.4l0.3,3.6h0.1c0.7-1.3,1.6-2.2,2.6-2.9S803.8,213.6,805.1,213.6z"/>
	</g>
</g>
</svg>
