<?xml version="1.0" encoding="utf-8"?>
<!-- Generator: Adobe Illustrator 21.0.2, SVG Export Plug-In . SVG Version: 6.00 Build 0)  -->
<svg version="1.1" id="Layer_1" xmlns="http://www.w3.org/2000/svg" xmlns:xlink="http://www.w3.org/1999/xlink" x="0px" y="0px"
	 viewBox="0 0 1140 500" style="enable-background:new 0 0 1140 500;" xml:space="preserve">
<style type="text/css">
	.st0{fill:#3C3C3B;}
	.st1{fill:#EFC981;}
	.st2{fill:#C4850F;}
	.st3{fill:#C3850F;}
	.st4{fill:#C58511;}
	.st5{fill:none;}
	.st6{enable-background:new    ;}
	.st7{fill:#FFFFFF;}
</style>
<rect x="-3.7" class="st0" width="1145.1" height="500"/>
<path class="st1" d="M978.3,328.6v-9h-9.8v9l4.9,4.9L978.3,328.6z M966,331h-9v9.8h9l4.9-4.9L966,331z M968.4,343.3v9h9.8v-9
	l-4.9-4.9L968.4,343.3z M980.7,331l-4.9,4.9l4.9,4.9h9V331H980.7z"/>
<path class="st1" d="M174.9,159.6v-9H165v9l4.9,4.9L174.9,159.6z M162.6,162h-9v9.8h9l4.9-4.9L162.6,162z M165,174.3v9h9.8v-9
	l-4.9-4.9L165,174.3z M177.3,162l-4.9,4.9l4.9,4.9h9V162H177.3z"/>
<g>
	<g>
		<path class="st2" d="M986.1,153.3c2,0,3.6,1.6,3.6,3.6v14.5c0,2-1.6,3.6-3.6,3.6h-32.7c-2,0-3.6-1.6-3.6-3.6V157
			c0-2,1.6-3.6,3.6-3.6L986.1,153.3 M953.3,166.1h5.5v5.5h3.6v-5.5h5.5v-3.6h-5.5V157h-3.6v5.5h-5.5V166.1 M986.1,151.2h-32.7
			c-3.2,0-5.7,2.6-5.7,5.7v14.5c0,3.2,2.6,5.7,5.7,5.7h32.7c3.2,0,5.7-2.6,5.7-5.7V157C991.8,153.8,989.2,151.2,986.1,151.2
			L986.1,151.2z"/>
	</g>
	<g>
		<circle class="st3" cx="976.1" cy="167" r="2.7"/>
	</g>
	<g>
		<circle class="st3" cx="983.3" cy="161.5" r="2.7"/>
	</g>
</g>
<g>
	<g>
		<path class="st2" d="M189.9,329.5c2,0,3.6,1.6,3.6,3.6v14.5c0,2-1.6,3.6-3.6,3.6h-32.7c-2,0-3.6-1.6-3.6-3.6v-14.5
			c0-2,1.6-3.6,3.6-3.6H189.9 M157.2,342.2h5.5v5.5h3.6v-5.5h5.5v-3.6h-5.5v-5.5h-3.6v5.5h-5.5V342.2 M189.9,327.4h-32.7
			c-3.2,0-5.7,2.6-5.7,5.7v14.5c0,3.2,2.6,5.7,5.7,5.7h32.7c3.2,0,5.7-2.6,5.7-5.7v-14.5C195.7,330,193.1,327.4,189.9,327.4
			L189.9,327.4z"/>
	</g>
	<g>
		<circle class="st3" cx="179.9" cy="343.1" r="2.7"/>
	</g>
	<g>
		<circle class="st3" cx="187.2" cy="337.7" r="2.7"/>
	</g>
</g>
<g>
	<polygon class="st4" points="472.9,107.5 573.2,247.2 674.4,107.5 651.4,107.5 573.5,215.3 495.7,107.5 	"/>
	<polygon class="st4" points="639.6,107.5 573.2,199.2 507.4,107.5 530.4,107.5 573.5,167.2 616.7,107.5 	"/>
	<polygon class="st1" points="573.2,199.2 639.6,107.5 616.7,107.5 573.5,167.2 	"/>
	<polygon class="st1" points="573.2,247.2 674.4,107.5 651.4,107.5 573.5,215.3 	"/>
	<g>
		<g>
			<path class="st1" d="M573.6,250.5c12.7,0,23.1,10.3,23.1,23.1c0,12.7-10.3,23.1-23.1,23.1s-23.1-10.3-23.1-23.1
				C550.5,260.9,560.9,250.5,573.6,250.5 M573.6,235.2c-21.2,0-38.5,17.2-38.5,38.5s17.2,38.5,38.5,38.5s38.5-17.2,38.5-38.5
				S594.8,235.2,573.6,235.2L573.6,235.2z"/>
		</g>
	</g>
</g>
<g>
	<rect x="419.7" y="333.5" class="st5" width="306.4" height="64.6"/>
	<g class="st6">
		<path class="st1" d="M472.9,358.9v-23.9h6.5v23.9H472.9z"/>
		<path class="st1" d="M513.3,358.9h-8.5l-8.7-16.8h-0.1c0.2,2.6,0.3,4.7,0.3,6.1v10.8h-5.7v-23.9h8.4l8.7,16.6h0.1
			c-0.2-2.4-0.2-4.3-0.2-5.8v-10.8h5.7V358.9z"/>
		<path class="st1" d="M537.8,335.1h7.2l-7.8,23.9h-7.6l-7.8-23.9h7.2l3.2,12.1c0.7,2.7,1,4.6,1.1,5.6c0.1-0.8,0.2-1.7,0.5-2.9
			s0.4-2,0.6-2.7L537.8,335.1z"/>
		<path class="st1" d="M553.6,358.9v-23.9h6.5v23.9H553.6z"/>
		<path class="st1" d="M581.8,340c-1.5,0-2.7,0.6-3.6,1.9c-0.9,1.3-1.3,3-1.3,5.2c0,4.6,1.7,6.9,5.2,6.9c1.1,0,2.1-0.1,3.1-0.4
			s2-0.6,3-1.1v5.5c-2,0.9-4.2,1.3-6.8,1.3c-3.6,0-6.4-1-8.3-3.1c-1.9-2.1-2.9-5.1-2.9-9.1c0-2.5,0.5-4.6,1.4-6.5
			c0.9-1.9,2.3-3.3,4-4.3c1.7-1,3.8-1.5,6.2-1.5c2.6,0,5,0.6,7.4,1.7l-2,5.1c-0.9-0.4-1.8-0.8-2.6-1
			C583.8,340.1,582.8,340,581.8,340z"/>
		<path class="st1" d="M609.4,358.9H603v-18.6h-5.8v-5.3h18.1v5.3h-5.8V358.9z"/>
		<path class="st1" d="M638,335.1h7.2l-7.8,23.9h-7.6l-7.8-23.9h7.2l3.2,12.1c0.7,2.7,1,4.6,1.1,5.6c0.1-0.8,0.2-1.7,0.5-2.9
			s0.4-2,0.6-2.7L638,335.1z"/>
		<path class="st1" d="M669.4,351.7c0,1.5-0.4,2.8-1.1,3.9c-0.8,1.1-1.8,2-3.2,2.7c-1.4,0.6-3.1,1-5,1c-1.6,0-2.9-0.1-4-0.3
			c-1.1-0.2-2.2-0.6-3.4-1.2V352c1.2,0.6,2.5,1.1,3.8,1.5c1.3,0.4,2.5,0.5,3.7,0.5c1,0,1.7-0.2,2.1-0.5s0.7-0.8,0.7-1.3
			c0-0.3-0.1-0.6-0.3-0.9c-0.2-0.2-0.5-0.5-0.9-0.7c-0.4-0.3-1.5-0.8-3.2-1.5c-1.6-0.7-2.7-1.4-3.5-2.1c-0.8-0.7-1.4-1.4-1.7-2.3
			c-0.4-0.9-0.6-1.9-0.6-3.1c0-2.2,0.8-3.9,2.4-5.1s3.8-1.8,6.6-1.8c2.5,0,5,0.6,7.6,1.7l-2,5c-2.2-1-4.2-1.5-5.8-1.5
			c-0.8,0-1.4,0.1-1.8,0.4s-0.6,0.7-0.6,1.1c0,0.5,0.2,0.9,0.7,1.3c0.5,0.4,1.8,1,3.9,2c2.1,0.9,3.5,1.9,4.3,3
			C669,348.7,669.4,350.1,669.4,351.7z"/>
	</g>
	<g class="st6">
		<path class="st1" d="M486.3,394.3c-1.1-0.7-2-1.8-2.6-3.1c-0.6-1.3-0.9-2.8-0.9-4.5c0-1,0.1-2,0.4-3.1c0.5-2.1,1.4-4.1,2.7-5.9
			c1.3-1.8,2.8-3.2,4.6-4.3c1.7-1.1,3.5-1.6,5.3-1.6c1.5,0,2.8,0.4,4,1.2c0.2,0.1,0.4,0.1,0.5,0.1c0.4,0,0.8-0.2,1.2-0.5
			c0.1-0.1,0.3-0.2,0.4-0.3c0.1,0,0.2,0,0.4,0c0.2,0,0.3,0,0.3,0.1c0,0.1,0,0.2,0,0.4l-1,5c0,0.1-0.1,0.2-0.2,0.3
			c-0.1,0.1-0.2,0.1-0.3,0.1c-0.1,0-0.2,0-0.3-0.1c-0.1-0.1-0.1-0.2-0.1-0.4c0-0.4-0.3-1.1-0.6-2c-0.4-0.9-0.8-1.6-1.2-2
			c-0.6-0.7-1.8-1.1-3.4-1.1c-1.9,0-3.5,0.9-5.1,2.6c-1.5,1.8-2.7,4.5-3.6,8.3c-0.4,2-0.7,3.7-0.7,5.2c0,2,0.4,3.4,1.2,4.4
			s1.8,1.4,3.2,1.4c1.7,0,3.2-0.7,4.6-2.2c0.4-0.5,0.7-1.1,1-2l0.7-3.3V387c0-0.2-0.1-0.4-0.2-0.5s-0.3-0.2-0.5-0.2h-1.3
			c-0.1,0-0.2,0-0.2-0.1s-0.1-0.2-0.1-0.3c0-0.2,0-0.3,0.2-0.4c0.1-0.1,0.2-0.1,0.4-0.1h6.9c0.2,0,0.4,0.1,0.4,0.3
			c0,0.1-0.1,0.3-0.2,0.4c-0.1,0.1-0.2,0.2-0.4,0.2h-0.9c-0.2,0-0.4,0.1-0.7,0.3c-0.2,0.2-0.4,0.4-0.4,0.6l-1.3,5.9l-0.3,1.8
			c0,0.1-0.1,0.3-0.2,0.4c-0.1,0.1-0.2,0.2-0.3,0.2c-0.2,0-0.3-0.1-0.4-0.3l-0.4-2.5h-0.1c-1.1,0.9-2.2,1.6-3.2,2.1
			c-1,0.5-2.1,0.7-3.3,0.7C488.8,395.4,487.4,395,486.3,394.3z"/>
		<path class="st1" d="M511.5,395.1c-0.6-0.3-1.2-0.8-1.6-1.5c-0.4-0.7-0.7-1.5-0.7-2.6c0-1.4,0.3-2.8,1-4.3
			c0.7-1.5,1.6-2.8,2.7-3.8s2.2-1.6,3.4-1.6c0.6,0,1.2,0.2,1.7,0.5s0.9,0.7,1.2,1.2c0.1,0.1,0.1,0.1,0.2,0.1c0.2,0,0.3-0.1,0.3-0.2
			l0.2-0.7c0.1-0.3,0.2-0.4,0.5-0.4h1.1c0.4,0,0.5,0.2,0.4,0.6c-1.6,6.6-2.5,10.4-2.5,11.2c0,0.3,0.1,0.5,0.2,0.6
			c0.1,0.2,0.3,0.2,0.6,0.2c0.5,0,1-0.4,1.5-1.1c0.5-0.7,1.1-1.7,1.6-2.9l0.4,0.1c-0.7,1.7-1.4,2.9-2.1,3.8
			c-0.7,0.8-1.5,1.2-2.6,1.2c-0.6,0-1.1-0.2-1.3-0.5s-0.4-0.8-0.5-1.4c0-0.2-0.1-0.3-0.3-0.1c-0.7,0.7-1.3,1.2-1.9,1.5
			c-0.6,0.4-1.2,0.5-1.9,0.5C512.8,395.6,512.2,395.4,511.5,395.1z M516.2,393.6c0.7-0.7,1.2-1.7,1.7-3c0.4-1.3,0.9-3.1,1.4-5.3
			c0-0.8-0.2-1.5-0.6-2.2c-0.4-0.7-0.9-1-1.7-1c-1,0-2,0.5-2.8,1.6c-0.8,1.1-1.5,2.4-2,4c-0.5,1.6-0.7,3-0.7,4.3
			c0,0.9,0.2,1.6,0.5,2c0.3,0.5,0.8,0.7,1.6,0.7C514.7,394.7,515.6,394.3,516.2,393.6z"/>
		<path class="st1" d="M548,394.9c-0.4-0.3-0.6-0.9-0.6-1.8c0-0.6,0.1-1.3,0.3-2.1c0.2-0.7,0.5-1.7,0.9-2.9c0.4-1.1,0.6-2,0.8-2.5
			c0.2-0.6,0.2-1.1,0.2-1.5c0-0.9-0.4-1.4-1.2-1.4c-0.7,0-1.5,0.5-2.2,1.2c-0.8,0.8-1.4,2-1.7,3.7l-1.6,7c-0.1,0.3-0.2,0.4-0.5,0.4
			H541c-0.2,0-0.3-0.1-0.4-0.2s-0.1-0.3-0.1-0.4l1.2-5.1c0.7-3,1-4.6,1-4.8c0-0.5-0.1-0.9-0.4-1.3c-0.3-0.3-0.6-0.5-1.1-0.5
			c-0.4,0-0.9,0.2-1.5,0.5c-0.5,0.3-1.1,0.8-1.6,1.6c-0.5,0.7-0.9,1.7-1.2,2.9l-1.6,7c-0.1,0.3-0.2,0.4-0.5,0.4h-1.2
			c-0.4,0-0.5-0.2-0.4-0.6l1-4.2c1-4.1,1.5-6.4,1.5-7c0-0.3-0.1-0.5-0.2-0.7c-0.1-0.2-0.3-0.3-0.6-0.3c-0.4,0-1,0.4-1.5,1.1
			c-0.6,0.8-1.1,1.7-1.5,2.9l-0.4-0.1c0.7-1.6,1.4-2.8,2-3.7c0.7-0.9,1.5-1.3,2.5-1.3c0.6,0,1,0.2,1.4,0.5c0.4,0.3,0.5,0.8,0.5,1.5
			c0,0.2,0,0.4-0.1,0.6c0,0.2,0,0.4,0,0.4c0,0,0.1,0,0.1,0c0,0,0.1-0.1,0.1-0.1c0-0.1,0.3-0.3,0.7-0.8c0.4-0.5,0.9-0.9,1.6-1.3
			c0.7-0.4,1.4-0.6,2.1-0.6c0.9,0,1.5,0.3,1.9,0.8c0.3,0.5,0.6,1.1,0.6,1.9c0,0.2,0,0.2,0.1,0.2c0,0,0.1,0,0.1,0
			c0,0,0.1-0.1,0.1-0.1c0,0,0.3-0.3,0.6-0.8c0.4-0.5,0.9-0.9,1.6-1.4c0.7-0.4,1.4-0.6,2.1-0.6c1.6,0,2.3,0.7,2.3,2.1
			c0,0.5-0.1,1.1-0.3,1.8c-0.2,0.7-0.4,1.5-0.8,2.6c-0.4,1.2-0.7,2.2-0.9,3c-0.2,0.8-0.3,1.6-0.3,2.3c0,0.5,0.1,0.8,0.2,1
			c0.1,0.2,0.3,0.3,0.6,0.3c0.5,0,1-0.4,1.5-1.1c0.5-0.7,1-1.7,1.6-3l0.4,0.1c-0.7,1.6-1.4,2.9-2.1,3.7c-0.6,0.8-1.5,1.3-2.5,1.3
			C548.8,395.5,548.4,395.3,548,394.9z"/>
		<path class="st1" d="M562.9,394.1c-0.9-0.8-1.4-2.1-1.4-3.6c0-0.4,0.1-1.1,0.2-1.9c0.3-1.4,0.9-2.7,1.7-3.8s1.7-2,2.8-2.5
			c1-0.6,2-0.9,2.9-0.9c1.4,0,2.4,0.5,3,1.4c0.6,0.9,0.9,2,0.9,3.2c0,0.6,0,1-0.1,1.3c-0.1,0.5-0.4,0.8-0.8,0.8h-6.3
			c-0.6,0-1,0-1.2,0.1s-0.4,0.3-0.5,0.6c0,0.2-0.1,0.5-0.2,1.1c-0.1,0.6-0.2,1.1-0.2,1.6c0,2.2,1,3.3,3,3.3h0.1
			c0.7,0,1.4-0.2,2.1-0.6s1.5-1.1,2.4-2.2c0.1-0.1,0.2-0.1,0.4-0.1c0.1,0,0.2,0,0.2,0.1c0,0.1,0,0.2-0.1,0.3c-0.2,0.3-0.5,0.7-1,1.2
			c-0.5,0.5-1.2,1-2,1.4c-0.8,0.4-1.7,0.7-2.7,0.7C564.9,395.4,563.8,395,562.9,394.1z M570,387.1c0.3,0,0.5,0,0.6-0.1
			c0.1-0.1,0.1-0.2,0.2-0.5c0.2-0.6,0.2-1.3,0.2-2.1c0-1.7-0.6-2.5-1.7-2.5c-0.8,0-1.7,0.4-2.5,1.3c-0.8,0.9-1.5,2.2-2.1,3.9H570z"
			/>
		<path class="st1" d="M594.3,394.7c-0.6-0.6-1-1.4-1-2.4c0-0.7,0.2-1.3,0.5-1.8c0.3-0.4,0.6-0.8,1-1.1c0.4-0.3,0.8-0.5,1.3-0.5
			c0.4,0,0.7,0.1,0.9,0.4c0.2,0.2,0.3,0.6,0.3,1c0,0.6-0.2,1.1-0.6,1.6c-0.4,0.4-0.8,0.7-1.4,0.7c-0.1,0-0.2,0.1-0.4,0.2
			c-0.1,0.1-0.2,0.3-0.3,0.4c-0.1,0.4,0,0.7,0.3,1.1s0.8,0.5,1.6,0.5c1,0,1.9-0.3,2.5-0.9c0.6-0.6,1.1-1.3,1.5-2.2
			c0.3-0.9,0.7-2.1,1-3.5l3.2-14V374c0-0.2-0.1-0.4-0.2-0.5c-0.1-0.1-0.3-0.2-0.5-0.2h-1.3c-0.2,0-0.3-0.1-0.3-0.4
			c0-0.4,0.2-0.5,0.5-0.5h7.5c0.3,0,0.4,0.1,0.4,0.3c0,0.2-0.1,0.3-0.2,0.4c-0.1,0.1-0.3,0.2-0.4,0.2H609c-0.2,0-0.5,0.1-0.7,0.2
			c-0.2,0.2-0.3,0.3-0.4,0.6l-3.3,14.4c-0.3,1.6-1.1,3.1-2.2,4.7s-2.9,2.3-5.2,2.3C595.9,395.6,594.9,395.3,594.3,394.7z"/>
		<path class="st1" d="M617,395.1c-0.6-0.3-1.2-0.8-1.6-1.5c-0.4-0.7-0.7-1.5-0.7-2.6c0-1.4,0.3-2.8,1-4.3c0.7-1.5,1.6-2.8,2.7-3.8
			c1.1-1,2.2-1.6,3.4-1.6c0.6,0,1.2,0.2,1.7,0.5s0.9,0.7,1.2,1.2c0.1,0.1,0.1,0.1,0.2,0.1c0.2,0,0.3-0.1,0.3-0.2l0.2-0.7
			c0.1-0.3,0.2-0.4,0.5-0.4h1.1c0.4,0,0.5,0.2,0.4,0.6c-1.6,6.6-2.5,10.4-2.5,11.2c0,0.3,0.1,0.5,0.2,0.6c0.1,0.2,0.3,0.2,0.6,0.2
			c0.5,0,1-0.4,1.5-1.1c0.5-0.7,1.1-1.7,1.6-2.9l0.4,0.1c-0.7,1.7-1.4,2.9-2.1,3.8s-1.5,1.2-2.6,1.2c-0.6,0-1.1-0.2-1.3-0.5
			s-0.4-0.8-0.5-1.4c0-0.2-0.1-0.3-0.3-0.1c-0.7,0.7-1.3,1.2-1.9,1.5c-0.6,0.4-1.2,0.5-1.9,0.5C618.3,395.6,617.6,395.4,617,395.1z
			 M621.7,393.6c0.7-0.7,1.2-1.7,1.7-3c0.4-1.3,0.9-3.1,1.4-5.3c0-0.8-0.2-1.5-0.6-2.2c-0.4-0.7-0.9-1-1.7-1c-1,0-2,0.5-2.8,1.6
			c-0.8,1.1-1.5,2.4-2,4s-0.7,3-0.7,4.3c0,0.9,0.2,1.6,0.5,2c0.3,0.5,0.8,0.7,1.6,0.7C620.2,394.7,621,394.3,621.7,393.6z"/>
		<path class="st1" d="M653.4,394.9c-0.4-0.3-0.6-0.9-0.6-1.8c0-0.6,0.1-1.3,0.3-2.1c0.2-0.7,0.5-1.7,0.9-2.9c0.4-1.1,0.6-2,0.8-2.5
			c0.2-0.6,0.2-1.1,0.2-1.5c0-0.9-0.4-1.4-1.2-1.4c-0.7,0-1.5,0.5-2.2,1.2c-0.8,0.8-1.4,2-1.7,3.7l-1.6,7c-0.1,0.3-0.2,0.4-0.5,0.4
			h-1.2c-0.2,0-0.3-0.1-0.4-0.2s-0.1-0.3,0-0.4l1.2-5.1c0.7-3,1-4.6,1-4.8c0-0.5-0.1-0.9-0.4-1.3c-0.3-0.3-0.6-0.5-1.1-0.5
			c-0.4,0-0.9,0.2-1.5,0.5c-0.5,0.3-1.1,0.8-1.6,1.6c-0.5,0.7-0.9,1.7-1.2,2.9l-1.6,7c-0.1,0.3-0.2,0.4-0.5,0.4h-1.2
			c-0.4,0-0.5-0.2-0.4-0.6l1-4.2c1-4.1,1.5-6.4,1.5-7c0-0.3-0.1-0.5-0.2-0.7c-0.1-0.2-0.3-0.3-0.6-0.3c-0.4,0-1,0.4-1.5,1.1
			c-0.6,0.8-1.1,1.7-1.5,2.9l-0.4-0.1c0.7-1.6,1.4-2.8,2-3.7c0.7-0.9,1.5-1.3,2.5-1.3c0.6,0,1,0.2,1.4,0.5c0.4,0.3,0.5,0.8,0.5,1.5
			c0,0.2,0,0.4-0.1,0.6c0,0.2,0,0.4,0,0.4c0,0,0.1,0,0.1,0c0,0,0.1-0.1,0.1-0.1c0-0.1,0.3-0.3,0.7-0.8s0.9-0.9,1.6-1.3
			c0.7-0.4,1.4-0.6,2.1-0.6c0.9,0,1.5,0.3,1.9,0.8c0.3,0.5,0.6,1.1,0.6,1.9c0,0.2,0,0.2,0.1,0.2c0,0,0.1,0,0.1,0
			c0,0,0.1-0.1,0.1-0.1c0,0,0.3-0.3,0.6-0.8c0.4-0.5,0.9-0.9,1.6-1.4c0.7-0.4,1.4-0.6,2.1-0.6c1.6,0,2.3,0.7,2.3,2.1
			c0,0.5-0.1,1.1-0.3,1.8c-0.2,0.7-0.4,1.5-0.8,2.6c-0.4,1.2-0.7,2.2-0.9,3s-0.3,1.6-0.3,2.3c0,0.5,0.1,0.8,0.2,1
			c0.1,0.2,0.3,0.3,0.6,0.3c0.5,0,1-0.4,1.5-1.1c0.5-0.7,1-1.7,1.6-3l0.4,0.1c-0.7,1.6-1.4,2.9-2.1,3.7c-0.6,0.8-1.5,1.3-2.5,1.3
			C654.3,395.5,653.8,395.3,653.4,394.9z"/>
	</g>
</g>
<g>
	<rect x="87.8" y="240" class="st5" width="294.8" height="21.2"/>
	<g class="st6">
		<path class="st7" d="M155.5,251.5c-0.6-0.3-0.9-0.9-0.9-1.6c0-1,0.3-1.8,1-2.4c0.7-0.6,1.4-1.1,2.2-1.4c-0.5-0.4-0.8-0.8-1-1.1
			c-0.2-0.4-0.3-0.8-0.3-1.2c0-0.4,0-0.7,0.1-1c0.1-0.4,0.3-0.8,0.6-1.2c0.3-0.4,0.7-0.7,1.2-1c0.5-0.3,1-0.4,1.6-0.4
			c0.7,0,1.3,0.2,1.7,0.5c0.4,0.4,0.6,0.8,0.6,1.4c0,0.1,0,0.4-0.1,0.8c-0.2,1-1.1,1.8-2.7,2.6c0.5,0.3,1,0.6,1.3,0.9
			s0.5,0.8,0.5,1.4c0,0.3,0,0.6-0.1,0.9c-0.2,0.8-0.5,1.5-1,2s-1,0.8-1.5,1.1c-0.5,0.2-1,0.3-1.5,0.3
			C156.7,252,156,251.8,155.5,251.5z M158.9,251.3c0.4-0.2,0.7-0.5,0.9-0.8s0.4-0.5,0.4-0.8c0.1-0.2,0.1-0.3,0.2-0.5
			c0-0.1,0.1-0.3,0.1-0.4c0-0.8-0.6-1.6-1.7-2.3c-0.1-0.1-0.3-0.2-0.6-0.5c-0.5,0.3-0.9,0.7-1.3,1.2c-0.4,0.5-0.7,1.1-0.8,1.8
			c-0.1,0.4-0.1,0.8-0.1,1c0,0.5,0.2,0.9,0.5,1.2c0.3,0.2,0.8,0.4,1.4,0.4C158.1,251.7,158.5,251.5,158.9,251.3z M160.8,244.1
			c0.3-0.4,0.5-0.9,0.6-1.3c0.1-0.4,0.2-0.8,0.2-1.1c0-0.4-0.1-0.7-0.3-0.9c-0.2-0.2-0.6-0.3-1.1-0.3c-0.8,0-1.4,0.2-1.8,0.7
			c-0.4,0.5-0.7,1-0.8,1.6c0,0,0,0.1,0,0.3c0,0.3,0.1,0.7,0.4,1c0.3,0.3,0.6,0.7,1.1,1.1c0.1,0.1,0.3,0.2,0.5,0.3
			C160,244.9,160.4,244.6,160.8,244.1z"/>
		<path class="st7" d="M168.6,253.1l-0.6-0.1l4.2-13.4l0.5,0.2L168.6,253.1z"/>
		<path class="st7" d="M178.7,251.6c-0.3-0.3-0.5-0.6-0.5-1c0-0.1,0-0.2,0-0.3c0.1-0.2,0.2-0.5,0.4-0.7c0.2-0.2,0.5-0.3,0.7-0.3
			c0.2,0,0.3,0.1,0.4,0.2c0.1,0.1,0.1,0.3,0.1,0.4c0,0.1,0,0.3-0.1,0.4s-0.2,0.3-0.3,0.3c-0.2,0.2-0.3,0.4-0.3,0.6
			c0,0.2,0.2,0.4,0.7,0.4c0.7,0,1.4-0.4,2.2-1.2c0.8-0.8,1.4-2.4,2-4.8c0,0,0-0.1,0.1-0.3c-0.3,0.6-0.7,1.1-1.3,1.5
			c-0.5,0.4-1.1,0.6-1.6,0.6c-0.7,0-1.2-0.2-1.6-0.6c-0.4-0.4-0.6-1-0.6-1.7c0-0.3,0.1-0.7,0.2-1.1c0.2-0.7,0.5-1.4,1-2
			c0.5-0.6,1-1.1,1.6-1.4c0.6-0.3,1.1-0.5,1.6-0.5c0.6,0,1.2,0.3,1.6,0.8c0.5,0.5,0.7,1.3,0.7,2.5c0,0.8-0.1,1.6-0.3,2.5
			c-0.3,1.2-0.7,2.2-1.3,3.2c-0.6,0.9-1.3,1.6-2,2.1c-0.8,0.5-1.5,0.8-2.2,0.8C179.4,252,179,251.9,178.7,251.6z M182.9,246.5
			c0.3-0.2,0.6-0.4,0.9-0.8s0.5-0.8,0.7-1.3c0.2-0.8,0.2-1.6,0.2-2.2c0-0.7-0.1-1.2-0.3-1.4c-0.2-0.2-0.5-0.3-0.9-0.3
			c-0.6,0-1.1,0.3-1.6,0.8s-0.9,1.5-1.2,2.8c-0.1,0.4-0.1,0.8-0.1,1.1c0,0.6,0.1,1,0.4,1.2c0.3,0.2,0.6,0.3,1,0.3
			C182.3,246.8,182.6,246.7,182.9,246.5z"/>
		<path class="st7" d="M192.2,253.1l-0.6-0.1l4.2-13.4l0.5,0.2L192.2,253.1z"/>
		<path class="st7" d="M200.6,251.7c0-0.1,0-0.2,0.1-0.2c0.1-0.1,0.1-0.1,0.2-0.1h1.6l2.2-9.6l-2.1,1.4l-0.2-0.4l3-2.3h0.7
			l-2.5,10.9h1.7c0.1,0,0.2,0.1,0.2,0.2c0,0.1,0,0.1-0.1,0.2c-0.1,0.1-0.1,0.1-0.2,0.1h-4.6C200.7,251.9,200.6,251.8,200.6,251.7z"
			/>
		<path class="st7" d="M214.1,251.1c-0.4-0.7-0.6-1.5-0.6-2.6c0-0.8,0.1-1.6,0.3-2.3c0.3-1.1,0.6-2,1.1-3c0.5-0.9,1.1-1.6,1.7-2.1
			c0.6-0.5,1.2-0.8,1.8-0.8c0.7,0,1.2,0.3,1.6,1c0.4,0.7,0.6,1.5,0.6,2.6c0,0.7-0.1,1.4-0.3,2.3c-0.2,1.1-0.6,2.1-1.1,3
			c-0.5,0.9-1.1,1.6-1.7,2.1c-0.6,0.5-1.2,0.8-1.8,0.8C215,252.1,214.5,251.8,214.1,251.1z M217.4,250.4c0.5-0.9,1-2.3,1.5-4.2
			c0.4-1.5,0.5-2.7,0.5-3.6c0-1.3-0.4-2-1.1-2c-0.6,0-1.1,0.4-1.6,1.3c-0.5,0.9-1,2.3-1.5,4.2c-0.3,1.5-0.5,2.7-0.5,3.6
			c0,0.7,0.1,1.2,0.3,1.5c0.2,0.3,0.5,0.5,0.8,0.5C216.3,251.8,216.9,251.3,217.4,250.4z"/>
		<path class="st7" d="M238.4,251.9c-0.3-0.2-0.6-0.4-0.8-0.8c-0.2-0.3-0.3-0.8-0.3-1.4c0-0.7,0.2-1.5,0.5-2.2
			c0.4-0.8,0.8-1.5,1.4-2c0.6-0.5,1.2-0.8,1.8-0.8c0.3,0,0.6,0.1,0.9,0.3c0.3,0.2,0.5,0.4,0.6,0.7l0.1,0c0.1,0,0.2,0,0.2-0.1
			l0.4-1.4l0.2-0.8c0.3-1.4,0.5-2.1,0.6-2.4c0,0,0-0.1,0-0.2c0-0.2-0.1-0.3-0.2-0.4c-0.2,0-0.4-0.1-0.7-0.1c-0.2,0-0.2-0.1-0.2-0.2
			c0-0.1,0-0.1,0.1-0.1c0,0,0.1,0,0.2,0h1.9c0.2,0,0.3,0.1,0.3,0.3c0,0.1,0,0.1,0,0.1l-0.8,3.3l-0.4,1.8c-0.8,3.3-1.2,5.2-1.2,5.6
			c0,0.1,0,0.2,0.1,0.3c0.1,0.1,0.2,0.1,0.3,0.1c0.2,0,0.5-0.2,0.8-0.6c0.3-0.4,0.5-0.9,0.8-1.5l0.2,0.1c-0.4,0.9-0.7,1.5-1.1,2
			s-0.8,0.6-1.3,0.6c-0.3,0-0.6-0.1-0.7-0.2s-0.2-0.4-0.3-0.7c0-0.1-0.1-0.1-0.1-0.1c-0.3,0.3-0.7,0.6-1,0.8c-0.3,0.2-0.6,0.3-1,0.3
			C239,252.1,238.7,252,238.4,251.9z M240.8,251.1c0.3-0.4,0.6-0.9,0.9-1.6c0.2-0.7,0.5-1.6,0.7-2.8c0-0.4-0.1-0.8-0.3-1.1
			c-0.2-0.4-0.5-0.5-0.9-0.5c-0.5,0-1,0.3-1.5,0.8c-0.4,0.6-0.8,1.2-1,2.1s-0.4,1.6-0.4,2.2c0,0.5,0.1,0.8,0.2,1
			c0.2,0.2,0.4,0.4,0.8,0.4C240,251.7,240.4,251.5,240.8,251.1z"/>
		<path class="st7" d="M252.3,251.4c-0.5-0.4-0.7-1.1-0.7-1.9c0-0.2,0-0.6,0.1-1c0.2-0.8,0.5-1.4,0.9-2c0.4-0.6,0.9-1,1.4-1.3
			c0.5-0.3,1-0.5,1.5-0.5c0.7,0,1.2,0.2,1.6,0.7c0.3,0.5,0.5,1,0.5,1.6c0,0.3,0,0.5-0.1,0.7c-0.1,0.3-0.2,0.4-0.4,0.4h-3.3
			c-0.3,0-0.5,0-0.6,0.1c-0.1,0-0.2,0.1-0.3,0.3c0,0.1,0,0.3-0.1,0.6c-0.1,0.3-0.1,0.6-0.1,0.8c0,1.1,0.5,1.7,1.6,1.7h0.1
			c0.3,0,0.7-0.1,1.1-0.3s0.8-0.6,1.2-1.1c0,0,0.1-0.1,0.2-0.1c0.1,0,0.1,0,0.1,0.1c0,0,0,0.1,0,0.2c-0.1,0.1-0.3,0.3-0.5,0.6
			c-0.3,0.3-0.6,0.5-1,0.7c-0.4,0.2-0.9,0.3-1.4,0.3C253.3,252,252.8,251.8,252.3,251.4z M255.9,247.7c0.2,0,0.3,0,0.3,0
			c0,0,0.1-0.1,0.1-0.3c0.1-0.3,0.1-0.7,0.1-1.1c0-0.9-0.3-1.3-0.9-1.3c-0.4,0-0.9,0.2-1.3,0.7c-0.4,0.5-0.8,1.1-1.1,2H255.9z"/>
		<path class="st7" d="M277.3,251.9c-0.3-0.1-0.6-0.2-0.9-0.4c-0.1-0.1-0.2-0.1-0.3-0.2c-0.1-0.1-0.2-0.1-0.3-0.1
			c-0.2,0-0.4,0.1-0.7,0.3c-0.1,0.1-0.1,0.1-0.2,0.2s-0.1,0.1-0.2,0.1c-0.1,0-0.1,0-0.2-0.1c0-0.1-0.1-0.1,0-0.2l0.7-2.9
			c0-0.1,0.1-0.2,0.2-0.2c0.1,0,0.2,0.1,0.2,0.2c0.1,0.6,0.3,1.1,0.5,1.6c0.2,0.4,0.5,0.8,0.9,1.1c0.4,0.3,1,0.4,1.8,0.4
			c0.9,0,1.6-0.2,2.1-0.7c0.5-0.4,0.7-1,0.7-1.7c0-0.5-0.1-0.9-0.3-1.2c-0.2-0.3-0.5-0.6-0.8-0.9c-0.3-0.2-0.8-0.5-1.3-0.8
			c-0.6-0.3-1.1-0.6-1.4-0.8c-0.3-0.2-0.6-0.6-0.9-0.9c-0.2-0.4-0.4-0.8-0.4-1.4c0-0.6,0.2-1.2,0.5-1.7c0.3-0.5,0.8-0.9,1.4-1.2
			c0.6-0.3,1.2-0.4,1.8-0.4c0.4,0,0.7,0,0.9,0.1s0.5,0.2,0.8,0.3c0.1,0.1,0.2,0.1,0.4,0.2c0.1,0,0.2,0.1,0.3,0.1
			c0.1,0,0.2,0,0.3-0.1c0.1,0,0.2-0.1,0.2-0.2c0.2-0.1,0.3-0.2,0.4-0.2c0.2,0,0.2,0.1,0.2,0.2l-0.6,2.5c0,0.1-0.1,0.2-0.1,0.2
			c0,0-0.1,0.1-0.1,0.1c0,0-0.1,0-0.1-0.1c0,0,0-0.1-0.1-0.3c-0.1-0.6-0.3-1.1-0.4-1.5s-0.4-0.6-0.7-0.8c-0.3-0.2-0.8-0.3-1.4-0.3
			c-0.8,0-1.4,0.2-1.9,0.6s-0.7,1-0.7,1.6c0,0.4,0.1,0.8,0.3,1.1c0.2,0.3,0.5,0.5,0.8,0.7c0.3,0.2,0.7,0.4,1.2,0.6
			c0.6,0.3,1.1,0.5,1.4,0.8c0.4,0.2,0.7,0.6,0.9,1c0.3,0.4,0.4,0.9,0.4,1.6c0,0.7-0.2,1.3-0.5,1.9c-0.3,0.6-0.8,1-1.4,1.4
			c-0.6,0.3-1.3,0.5-2.1,0.5C278,252.1,277.6,252.1,277.3,251.9z"/>
		<path class="st7" d="M290.5,251.4c-0.5-0.4-0.7-1.1-0.7-1.9c0-0.2,0-0.6,0.1-1c0.2-0.8,0.5-1.4,0.9-2c0.4-0.6,0.9-1,1.4-1.3
			c0.5-0.3,1-0.5,1.5-0.5c0.7,0,1.2,0.2,1.6,0.7c0.3,0.5,0.5,1,0.5,1.6c0,0.3,0,0.5-0.1,0.7c-0.1,0.3-0.2,0.4-0.4,0.4h-3.3
			c-0.3,0-0.5,0-0.6,0.1c-0.1,0-0.2,0.1-0.3,0.3c0,0.1,0,0.3-0.1,0.6c-0.1,0.3-0.1,0.6-0.1,0.8c0,1.1,0.5,1.7,1.6,1.7h0.1
			c0.3,0,0.7-0.1,1.1-0.3s0.8-0.6,1.2-1.1c0,0,0.1-0.1,0.2-0.1c0.1,0,0.1,0,0.1,0.1c0,0,0,0.1,0,0.2c-0.1,0.1-0.3,0.3-0.5,0.6
			c-0.3,0.3-0.6,0.5-1,0.7c-0.4,0.2-0.9,0.3-1.4,0.3C291.6,252,291,251.8,290.5,251.4z M294.2,247.7c0.2,0,0.3,0,0.3,0
			c0,0,0.1-0.1,0.1-0.3c0.1-0.3,0.1-0.7,0.1-1.1c0-0.9-0.3-1.3-0.9-1.3c-0.4,0-0.9,0.2-1.3,0.7c-0.4,0.5-0.8,1.1-1.1,2H294.2z"/>
		<path class="st7" d="M303.5,251.8c-0.2-0.2-0.3-0.4-0.3-0.6c0-0.3,0.1-1,0.4-2.2c0.3-1.2,0.6-2.4,0.8-3.5h-1.4
			c-0.1,0-0.1-0.1-0.1-0.2c0-0.1,0-0.1,0.1-0.1c0,0,0.1,0,0.1,0c0,0,0.1,0,0.1,0c0.7,0,1.3-0.3,1.7-0.9c0.4-0.6,0.7-1.2,0.8-1.8
			c0-0.2,0.1-0.2,0.3-0.2h0.1c0,0,0.1,0,0.1,0.1s0,0.1,0,0.2l-0.6,2.5h1.3c0.1,0,0.1,0,0.1,0.1c0,0.1,0,0.1-0.1,0.2
			s-0.1,0.1-0.1,0.1h-1.3c-0.2,0.9-0.5,2-0.8,3.3c-0.3,1.3-0.4,2.1-0.4,2.3c0,0.1,0,0.2,0.1,0.3c0.1,0.1,0.2,0.1,0.3,0.1
			c0.2,0,0.5-0.2,0.8-0.6c0.3-0.4,0.5-0.9,0.8-1.5l0.2,0.1c-0.3,0.8-0.7,1.4-1,1.9c-0.3,0.5-0.8,0.7-1.3,0.7
			C304,252.1,303.7,252,303.5,251.8z"/>
		<path class="st7" d="M314.4,251.4c-0.5-0.4-0.7-1.1-0.7-1.9c0-0.2,0-0.6,0.1-1c0.2-0.8,0.5-1.4,0.9-2c0.4-0.6,0.9-1,1.4-1.3
			c0.5-0.3,1-0.5,1.5-0.5c0.7,0,1.2,0.2,1.6,0.7c0.3,0.5,0.5,1,0.5,1.6c0,0.3,0,0.5-0.1,0.7c-0.1,0.3-0.2,0.4-0.4,0.4h-3.3
			c-0.3,0-0.5,0-0.6,0.1c-0.1,0-0.2,0.1-0.3,0.3c0,0.1,0,0.3-0.1,0.6c-0.1,0.3-0.1,0.6-0.1,0.8c0,1.1,0.5,1.7,1.6,1.7h0.1
			c0.3,0,0.7-0.1,1.1-0.3s0.8-0.6,1.2-1.1c0,0,0.1-0.1,0.2-0.1c0.1,0,0.1,0,0.1,0.1c0,0,0,0.1,0,0.2c-0.1,0.1-0.3,0.3-0.5,0.6
			c-0.3,0.3-0.6,0.5-1,0.7c-0.4,0.2-0.9,0.3-1.4,0.3C315.4,252,314.9,251.8,314.4,251.4z M318.1,247.7c0.2,0,0.3,0,0.3,0
			c0,0,0.1-0.1,0.1-0.3c0.1-0.3,0.1-0.7,0.1-1.1c0-0.9-0.3-1.3-0.9-1.3c-0.4,0-0.9,0.2-1.3,0.7c-0.4,0.5-0.8,1.1-1.1,2H318.1z"/>
		<path class="st7" d="M335.1,251.8c-0.2-0.2-0.3-0.5-0.3-0.9c0-0.3,0-0.7,0.1-1.1c0.1-0.4,0.3-0.9,0.5-1.5c0.2-0.6,0.3-1,0.4-1.3
			c0.1-0.3,0.1-0.5,0.1-0.8c0-0.5-0.2-0.7-0.6-0.7c-0.4,0-0.8,0.2-1.2,0.6c-0.4,0.4-0.7,1-0.9,1.9l-0.8,3.6c0,0.2-0.1,0.2-0.3,0.2
			h-0.6c-0.1,0-0.2,0-0.2-0.1c0-0.1,0-0.1,0-0.2l0.6-2.7c0.4-1.5,0.5-2.4,0.5-2.5c0-0.3-0.1-0.5-0.2-0.7c-0.1-0.2-0.3-0.3-0.6-0.3
			c-0.2,0-0.5,0.1-0.8,0.2c-0.3,0.2-0.6,0.4-0.8,0.8c-0.3,0.4-0.5,0.9-0.6,1.5l-0.8,3.6c0,0.2-0.1,0.2-0.3,0.2h-0.6
			c-0.2,0-0.3-0.1-0.2-0.3l0.5-2.2c0.5-2.1,0.8-3.3,0.8-3.6c0-0.1,0-0.3-0.1-0.4c-0.1-0.1-0.2-0.2-0.3-0.2c-0.2,0-0.5,0.2-0.8,0.6
			c-0.3,0.4-0.6,0.9-0.8,1.5l-0.2-0.1c0.4-0.8,0.7-1.5,1-1.9c0.3-0.4,0.8-0.7,1.3-0.7c0.3,0,0.5,0.1,0.7,0.3
			c0.2,0.2,0.3,0.4,0.3,0.8c0,0.1,0,0.2,0,0.3c0,0.1,0,0.2,0,0.2c0,0,0,0,0.1,0s0,0,0.1,0c0,0,0.1-0.2,0.3-0.4s0.5-0.5,0.8-0.7
			c0.4-0.2,0.7-0.3,1.1-0.3c0.5,0,0.8,0.1,1,0.4c0.2,0.3,0.3,0.6,0.3,1c0,0.1,0,0.1,0.1,0.1c0,0,0,0,0.1,0c0,0,0,0,0.1,0
			c0,0,0.1-0.2,0.3-0.4c0.2-0.2,0.5-0.5,0.8-0.7c0.4-0.2,0.7-0.3,1.1-0.3c0.8,0,1.2,0.4,1.2,1.1c0,0.3,0,0.6-0.1,0.9
			c-0.1,0.4-0.2,0.8-0.4,1.3c-0.2,0.6-0.3,1.1-0.5,1.5c-0.1,0.4-0.2,0.8-0.2,1.2c0,0.2,0,0.4,0.1,0.5c0.1,0.1,0.2,0.2,0.3,0.2
			c0.2,0,0.5-0.2,0.8-0.5c0.3-0.4,0.5-0.9,0.8-1.5l0.2,0.1c-0.4,0.9-0.7,1.5-1.1,1.9c-0.3,0.4-0.8,0.6-1.3,0.6
			C335.5,252.1,335.3,252,335.1,251.8z"/>
		<path class="st7" d="M345.4,250.2c0-0.4,0.1-0.9,0.2-1.4l1.9-7.8c0,0,0-0.1,0-0.2c0-0.2-0.1-0.3-0.2-0.4c-0.2-0.1-0.4-0.1-0.7-0.1
			c-0.2,0-0.2-0.1-0.2-0.2c0-0.1,0-0.1,0.1-0.1c0,0,0.1,0,0.2,0h1.9c0.3,0,0.4,0.1,0.4,0.3l-1.4,5.6h0.2c0.5-0.8,1.1-1.2,2-1.2
			c0.6,0,1.1,0.2,1.5,0.7c0.4,0.5,0.6,1.1,0.6,1.9c0,0.7-0.2,1.5-0.5,2.2c-0.4,0.8-0.9,1.4-1.5,1.9c-0.6,0.5-1.4,0.7-2.2,0.7
			C346,252.1,345.4,251.5,345.4,250.2z M349.1,251c0.4-0.5,0.7-1.2,0.9-2c0.2-0.8,0.3-1.5,0.3-2.2c0-0.6-0.1-1-0.2-1.2
			c-0.2-0.3-0.4-0.4-0.8-0.4c-0.5,0-1,0.2-1.4,0.7c-0.4,0.5-0.7,1.1-0.8,1.8l-0.2,1.1c-0.2,0.8-0.3,1.4-0.3,1.8c0,0.5,0.1,0.8,0.3,1
			c0.2,0.2,0.4,0.3,0.8,0.3C348.1,251.8,348.6,251.5,349.1,251z"/>
		<path class="st7" d="M359.3,251.8c0-0.1-0.1-0.1,0-0.2l0.4-1.7c0.3-1.2,0.5-2.1,0.6-2.7c0.1-0.6,0.2-1.1,0.2-1.4
			c0-0.4-0.1-0.6-0.3-0.6c-0.2,0-0.5,0.2-0.8,0.6c-0.3,0.4-0.6,0.9-0.8,1.5l-0.2-0.1c0.3-0.8,0.7-1.4,1-1.9c0.3-0.5,0.8-0.7,1.2-0.7
			c0.6,0,1,0.3,1,1c0,0.2,0,0.5-0.1,0.8c0,0,0.1-0.2,0.3-0.5c0.2-0.3,0.4-0.6,0.8-0.9c0.4-0.3,0.8-0.4,1.2-0.4
			c0.3,0,0.5,0.1,0.7,0.2c0.1,0.1,0.2,0.3,0.2,0.6c0,0.1,0,0.2,0,0.3c0,0.3-0.2,0.5-0.3,0.6c-0.2,0.2-0.4,0.3-0.6,0.3
			c-0.1,0-0.3,0-0.3-0.1c-0.1-0.1-0.1-0.2-0.1-0.4c0-0.1,0-0.2,0.1-0.3s0.1-0.2,0.2-0.2c0.1-0.1,0.2-0.2,0.2-0.3
			c0-0.1-0.1-0.2-0.3-0.2c-0.2,0-0.5,0.1-0.8,0.3s-0.6,0.5-0.8,1s-0.5,1-0.6,1.6l-0.8,3.6c0,0.2-0.1,0.2-0.3,0.2h-0.6
			C359.4,251.9,359.3,251.9,359.3,251.8z"/>
		<path class="st7" d="M371.2,251.3c-0.4-0.5-0.6-1.1-0.6-1.9c0-0.8,0.2-1.5,0.6-2.2c0.4-0.7,0.9-1.3,1.5-1.8
			c0.6-0.5,1.3-0.7,1.9-0.7c0.7,0,1.2,0.3,1.7,0.8c0.4,0.5,0.6,1.2,0.6,1.9c0,0.8-0.2,1.5-0.6,2.2c-0.4,0.7-0.9,1.3-1.5,1.7
			c-0.6,0.4-1.2,0.7-1.9,0.7C372.2,252,371.6,251.8,371.2,251.3z M374.3,250.9c0.4-0.5,0.7-1.2,0.9-2c0.2-0.8,0.3-1.5,0.3-2.1
			c0-0.6-0.1-1-0.3-1.3c-0.2-0.3-0.5-0.5-0.8-0.5c-0.5,0-0.9,0.3-1.4,0.8s-0.7,1.2-0.9,2c-0.2,0.8-0.3,1.5-0.3,2.1
			c0,0.6,0.1,1,0.3,1.3c0.2,0.3,0.5,0.5,0.8,0.5C373.4,251.7,373.9,251.5,374.3,250.9z"/>
	</g>
</g>
<g>
	<rect x="762.6" y="240" class="st5" width="352.3" height="20.4"/>
	<g class="st6">
		<path class="st7" d="M762.4,251.7c0-0.1,0-0.1,0.1-0.2c0.1-0.1,0.1-0.1,0.2-0.1h0.7c0.1,0,0.2,0,0.3-0.1c0.1-0.1,0.2-0.2,0.2-0.3
			l2.3-10c0,0,0-0.1,0-0.1c0-0.1,0-0.2-0.1-0.2c-0.1-0.1-0.1-0.1-0.2-0.1h-0.7c-0.1,0-0.2-0.1-0.2-0.2c0-0.1,0-0.2,0.1-0.2
			c0.1-0.1,0.1-0.1,0.2-0.1h7.8c0.1,0,0.2,0,0.3,0.1c0.1,0.1,0.1,0.2,0,0.3l-0.6,2.5c0,0.1-0.1,0.2-0.2,0.2c-0.1,0-0.1-0.1-0.2-0.2
			c-0.1-0.9-0.4-1.6-0.8-1.9c-0.4-0.4-1.1-0.5-2-0.5h-1.9l-1.2,5.1c0.5,0,0.8,0,1.2-0.1s0.7-0.2,1-0.5c0.3-0.2,0.6-0.6,0.8-1.1
			c0-0.1,0-0.1,0.1-0.2c0.1,0,0.1-0.1,0.2-0.1s0.1,0,0.1,0.1s0.1,0.1,0,0.2l-0.9,3.8c0,0.1-0.1,0.1-0.1,0.2c0,0-0.1,0.1-0.2,0.1
			c-0.1,0-0.1,0-0.1-0.1c0-0.1-0.1-0.1,0-0.2c0-0.4-0.1-0.8-0.2-1c-0.1-0.2-0.4-0.4-0.7-0.5c-0.3-0.1-0.8-0.1-1.4-0.2l-1.2,5.3h1.9
			c1,0,1.9-0.2,2.5-0.6c0.6-0.4,1.2-1,1.8-1.9c0.1-0.1,0.2-0.2,0.3-0.2c0,0,0,0,0.1,0c0,0,0,0.1,0,0.1l-0.7,2.5
			c0,0.1-0.1,0.2-0.2,0.3c-0.1,0.1-0.2,0.1-0.4,0.1h-8.1C762.5,251.9,762.4,251.8,762.4,251.7z"/>
		<path class="st7" d="M778.5,251.8c-0.3-0.2-0.6-0.4-0.8-0.8c-0.2-0.3-0.3-0.8-0.3-1.4c0-0.7,0.2-1.5,0.5-2.2
			c0.4-0.8,0.8-1.5,1.4-2s1.2-0.8,1.8-0.8c0.3,0,0.6,0.1,0.9,0.3c0.3,0.2,0.5,0.4,0.7,0.7l0.1,0c0.1,0,0.2,0,0.2-0.1l0.4-1.4
			l0.2-0.8c0.3-1.4,0.5-2.1,0.6-2.4c0,0,0-0.1,0-0.2c0-0.2-0.1-0.3-0.2-0.4c-0.2,0-0.4-0.1-0.7-0.1c-0.2,0-0.2-0.1-0.2-0.2
			c0-0.1,0-0.1,0.1-0.1c0,0,0.1,0,0.2,0h1.9c0.2,0,0.3,0.1,0.3,0.3c0,0.1,0,0.1,0,0.1l-0.8,3.3l-0.4,1.8c-0.8,3.3-1.2,5.2-1.2,5.6
			c0,0.1,0,0.2,0.1,0.3c0.1,0.1,0.2,0.1,0.3,0.1c0.2,0,0.5-0.2,0.8-0.6c0.3-0.4,0.5-0.9,0.8-1.5l0.2,0.1c-0.4,0.9-0.7,1.5-1.1,2
			s-0.8,0.6-1.3,0.6c-0.3,0-0.6-0.1-0.7-0.2c-0.1-0.2-0.2-0.4-0.3-0.7c0-0.1-0.1-0.1-0.1-0.1c-0.3,0.3-0.7,0.6-1,0.8s-0.6,0.3-1,0.3
			C779.2,252.1,778.9,252,778.5,251.8z M781,251.1c0.3-0.4,0.6-0.9,0.9-1.6c0.2-0.7,0.5-1.6,0.7-2.8c0-0.4-0.1-0.8-0.3-1.1
			c-0.2-0.4-0.5-0.5-0.9-0.5c-0.5,0-1,0.3-1.5,0.8s-0.8,1.2-1,2.1c-0.2,0.8-0.4,1.6-0.4,2.2c0,0.5,0.1,0.8,0.2,1
			c0.2,0.2,0.4,0.4,0.8,0.4C780.2,251.6,780.6,251.4,781,251.1z"/>
		<path class="st7" d="M790.8,251.8c-0.2-0.2-0.3-0.4-0.3-0.8c0-0.3,0.1-0.7,0.2-1.1c0.1-0.4,0.3-1,0.6-1.8c0-0.1,0.1-0.4,0.3-0.8
			s0.3-0.7,0.3-1s0.1-0.5,0.1-0.6c0-0.1,0-0.3-0.1-0.3s-0.1-0.1-0.3-0.1c-0.3,0-0.5,0.2-0.8,0.6c-0.3,0.4-0.6,0.9-0.8,1.5l-0.2-0.1
			c0.3-0.8,0.7-1.4,1.1-1.9c0.4-0.5,0.8-0.7,1.3-0.7c0.3,0,0.5,0.1,0.7,0.3c0.2,0.2,0.3,0.4,0.3,0.8c0,0.3-0.1,0.7-0.2,1.1
			c-0.1,0.4-0.3,1-0.6,1.6c-0.3,0.7-0.4,1.2-0.6,1.6c-0.1,0.4-0.2,0.7-0.2,0.9c0,0.4,0.1,0.6,0.4,0.6c0.3,0,0.5-0.2,0.8-0.6
			s0.5-0.9,0.8-1.5l0.2,0.1c-0.3,0.8-0.7,1.4-1,1.9c-0.3,0.5-0.8,0.7-1.3,0.7C791.3,252,791,251.9,790.8,251.8z M792.7,242.3
			c-0.1-0.1-0.2-0.3-0.2-0.4c0-0.2,0.1-0.5,0.3-0.7s0.4-0.3,0.6-0.3c0.2,0,0.3,0.1,0.4,0.2c0.1,0.1,0.2,0.3,0.2,0.5
			c0,0.2-0.1,0.5-0.3,0.7s-0.4,0.3-0.7,0.3C792.9,242.4,792.8,242.4,792.7,242.3z"/>
		<path class="st7" d="M798,255.2c0-0.1,0-0.1,0-0.2c0.4-0.9,0.8-2.1,1.2-3.7c0.4-1.6,0.9-3.5,1.4-5.8h-1.4c0,0-0.1,0-0.1-0.1
			c0,0,0-0.1,0-0.1c0-0.1,0-0.2,0-0.3c0-0.1,0.1-0.1,0.2-0.1h1.4l0.2-1.1c0.3-1.5,0.8-2.6,1.4-3.2c0.6-0.6,1.2-0.9,1.8-0.9
			c0.3,0,0.6,0.1,0.8,0.2c0.2,0.2,0.2,0.3,0.2,0.6c0,0.3-0.1,0.5-0.2,0.6s-0.3,0.2-0.6,0.2c-0.1,0-0.3,0-0.3-0.1s-0.1-0.2-0.1-0.3
			c0-0.1,0-0.2,0-0.3c0-0.1,0-0.2,0-0.3c0-0.1-0.1-0.2-0.2-0.2c-0.3,0-0.7,0.3-0.9,1c-0.3,0.7-0.5,1.4-0.7,2.1l-0.3,1.6h1.6
			c0.1,0,0.2,0.1,0.2,0.2c0,0.1,0,0.2-0.1,0.3c-0.1,0.1-0.2,0.1-0.2,0.1h-1.6c-0.5,2.2-1,4.1-1.4,5.7c-0.4,1.7-0.8,3-1.2,3.9
			c-0.1,0.1-0.2,0.2-0.3,0.2h-0.7C798.1,255.3,798,255.3,798,255.2z"/>
		<path class="st7" d="M808.3,251.8c-0.2-0.2-0.3-0.4-0.3-0.8c0-0.3,0.1-0.7,0.2-1.1c0.1-0.4,0.3-1,0.6-1.8c0-0.1,0.1-0.4,0.3-0.8
			c0.1-0.4,0.3-0.7,0.3-1s0.1-0.5,0.1-0.6c0-0.1,0-0.3-0.1-0.3c-0.1-0.1-0.1-0.1-0.3-0.1c-0.3,0-0.5,0.2-0.8,0.6
			c-0.3,0.4-0.6,0.9-0.8,1.5l-0.2-0.1c0.3-0.8,0.7-1.4,1-1.9c0.4-0.5,0.8-0.7,1.3-0.7c0.3,0,0.5,0.1,0.7,0.3
			c0.2,0.2,0.3,0.4,0.3,0.8c0,0.3-0.1,0.7-0.2,1.1c-0.1,0.4-0.3,1-0.6,1.6c-0.3,0.7-0.4,1.2-0.6,1.6c-0.1,0.4-0.2,0.7-0.2,0.9
			c0,0.4,0.1,0.6,0.4,0.6c0.3,0,0.5-0.2,0.8-0.6s0.5-0.9,0.8-1.5l0.2,0.1c-0.4,0.8-0.7,1.5-1,1.9c-0.3,0.5-0.8,0.7-1.3,0.7
			C808.7,252,808.5,251.9,808.3,251.8z M809.7,243.7c0.4-0.5,0.8-0.9,1.1-1.3c0.3-0.4,0.5-0.6,0.6-0.8l0.4-0.5
			c0.2-0.3,0.4-0.5,0.6-0.6c0.2-0.1,0.3-0.2,0.5-0.2s0.3,0.1,0.5,0.2c0.1,0.1,0.1,0.3,0.1,0.5c0,0.2-0.1,0.4-0.2,0.5
			c-0.1,0.1-0.3,0.3-0.6,0.5c-0.1,0.1-0.2,0.1-0.2,0.2s-0.2,0.1-0.2,0.2c-0.6,0.4-1.3,0.9-2.3,1.6L809.7,243.7z"/>
		<path class="st7" d="M816.9,251.4c-0.4-0.4-0.7-1.1-0.7-1.8c0-0.8,0.2-1.5,0.6-2.2c0.4-0.7,0.9-1.3,1.6-1.8c0.6-0.5,1.3-0.7,2-0.7
			c0.5,0,0.8,0.1,1.1,0.3c0.3,0.2,0.5,0.5,0.5,0.9c0,0.3-0.1,0.6-0.3,0.8c-0.2,0.2-0.4,0.3-0.7,0.3c-0.2,0-0.3-0.1-0.4-0.2
			c-0.1-0.1-0.1-0.2-0.1-0.4c0-0.2,0.1-0.4,0.3-0.6s0.4-0.3,0.6-0.3c0-0.4-0.3-0.6-0.9-0.6c-0.6,0-1.2,0.3-1.6,0.8s-0.8,1.2-1,2
			c-0.2,0.8-0.4,1.5-0.4,2.1c0,0.6,0.1,1,0.3,1.3c0.2,0.3,0.6,0.4,1.1,0.4c0.5,0,1-0.1,1.3-0.4c0.4-0.3,0.7-0.7,0.9-1.2l0.2,0.1
			c-0.2,0.5-0.5,1-1,1.4c-0.5,0.4-1,0.6-1.7,0.6C817.9,252,817.3,251.8,816.9,251.4z"/>
		<path class="st7" d="M827.7,251.8c-0.2-0.2-0.3-0.4-0.3-0.8c0-0.3,0.1-0.7,0.2-1.1c0.1-0.4,0.3-1,0.6-1.8c0-0.1,0.1-0.4,0.3-0.8
			s0.3-0.7,0.3-1s0.1-0.5,0.1-0.6c0-0.1,0-0.3-0.1-0.3s-0.1-0.1-0.3-0.1c-0.3,0-0.5,0.2-0.8,0.6c-0.3,0.4-0.6,0.9-0.8,1.5l-0.2-0.1
			c0.3-0.8,0.7-1.4,1.1-1.9c0.4-0.5,0.8-0.7,1.3-0.7c0.3,0,0.5,0.1,0.7,0.3c0.2,0.2,0.3,0.4,0.3,0.8c0,0.3-0.1,0.7-0.2,1.1
			c-0.1,0.4-0.3,1-0.6,1.6c-0.3,0.7-0.4,1.2-0.6,1.6c-0.1,0.4-0.2,0.7-0.2,0.9c0,0.4,0.1,0.6,0.4,0.6c0.3,0,0.5-0.2,0.8-0.6
			s0.5-0.9,0.8-1.5l0.2,0.1c-0.3,0.8-0.7,1.4-1,1.9c-0.3,0.5-0.8,0.7-1.3,0.7C828.2,252,827.9,251.9,827.7,251.8z M829.6,242.3
			c-0.1-0.1-0.2-0.3-0.2-0.4c0-0.2,0.1-0.5,0.3-0.7s0.4-0.3,0.6-0.3c0.2,0,0.3,0.1,0.4,0.2c0.1,0.1,0.2,0.3,0.2,0.5
			c0,0.2-0.1,0.5-0.3,0.7s-0.4,0.3-0.7,0.3C829.8,242.4,829.7,242.4,829.6,242.3z"/>
		<path class="st7" d="M836.3,251.3c-0.4-0.5-0.7-1.1-0.7-1.9c0-0.8,0.2-1.5,0.6-2.2c0.4-0.7,0.9-1.3,1.5-1.8
			c0.6-0.5,1.3-0.7,1.9-0.7c0.7,0,1.2,0.3,1.7,0.8c0.4,0.5,0.6,1.2,0.6,1.9c0,0.8-0.2,1.5-0.6,2.2c-0.4,0.7-0.9,1.3-1.5,1.7
			c-0.6,0.4-1.2,0.7-1.9,0.7C837.3,252,836.8,251.8,836.3,251.3z M839.4,250.9c0.4-0.5,0.7-1.2,0.9-2c0.2-0.8,0.3-1.5,0.3-2.1
			c0-0.6-0.1-1-0.3-1.3c-0.2-0.3-0.5-0.5-0.8-0.5c-0.5,0-0.9,0.3-1.4,0.8s-0.7,1.2-0.9,2c-0.2,0.8-0.3,1.5-0.3,2.1
			c0,0.6,0.1,1,0.3,1.3c0.2,0.3,0.5,0.5,0.8,0.5C838.6,251.7,839,251.4,839.4,250.9z"/>
		<path class="st7" d="M856.3,251.6c0-0.1,0-0.1,0.1-0.2s0.1-0.1,0.2-0.1h0.7c0.1,0,0.2,0,0.3-0.1c0.1-0.1,0.2-0.2,0.2-0.3l2.4-10.4
			c-0.6,0-1,0-1.4,0.1c-0.4,0.1-0.7,0.2-1.1,0.5c-0.4,0.3-0.7,0.7-1.1,1.2l-0.4,0.6c0,0-0.1,0.1-0.1,0.1c0,0-0.1,0.1-0.1,0.1
			s-0.1,0-0.1-0.1c0,0-0.1-0.1,0-0.1l0.8-2.7c0.1-0.2,0.2-0.3,0.3-0.3h8.3c0.1,0,0.2,0,0.2,0.1c0.1,0.1,0.1,0.1,0.1,0.2l-0.5,2.7
			c0,0.1-0.1,0.2-0.2,0.2c0,0-0.1,0-0.1,0c0,0,0-0.1,0-0.1s0,0,0-0.1l-0.2-0.6c-0.1-0.5-0.3-1-0.5-1.2c-0.2-0.3-0.5-0.4-0.9-0.5
			s-0.8-0.1-1.3-0.1l-2.4,10.4v0.1c0,0.1,0,0.2,0.1,0.3c0.1,0.1,0.1,0.1,0.2,0.1h0.7c0.1,0,0.1,0,0.1,0.1c0,0,0.1,0.1,0.1,0.1
			c0,0.1,0,0.2-0.1,0.2c-0.1,0.1-0.1,0.1-0.2,0.1h-3.9C856.4,251.9,856.3,251.8,856.3,251.6z"/>
		<path class="st7" d="M869.5,251.8c0-0.1-0.1-0.1,0-0.2l0.4-1.7c0.3-1.2,0.5-2.1,0.6-2.7c0.1-0.6,0.2-1.1,0.2-1.4
			c0-0.4-0.1-0.6-0.3-0.6c-0.2,0-0.5,0.2-0.8,0.6c-0.3,0.4-0.6,0.9-0.8,1.5l-0.2-0.1c0.3-0.8,0.7-1.4,1-1.9c0.3-0.5,0.8-0.7,1.2-0.7
			c0.6,0,1,0.3,1,1c0,0.2,0,0.5-0.1,0.8c0,0,0.1-0.2,0.3-0.5c0.2-0.3,0.4-0.6,0.8-0.9c0.4-0.3,0.8-0.4,1.2-0.4
			c0.3,0,0.5,0.1,0.7,0.2s0.2,0.3,0.2,0.6c0,0.1,0,0.2,0,0.3c0,0.3-0.2,0.5-0.3,0.6c-0.2,0.2-0.4,0.3-0.6,0.3c-0.1,0-0.3,0-0.3-0.1
			s-0.1-0.2-0.1-0.4c0-0.1,0-0.2,0.1-0.3c0-0.1,0.1-0.2,0.2-0.2c0.1-0.1,0.2-0.2,0.2-0.3c0-0.1-0.1-0.2-0.3-0.2
			c-0.2,0-0.5,0.1-0.8,0.3s-0.6,0.5-0.8,1s-0.5,1-0.6,1.6l-0.8,3.6c0,0.2-0.1,0.2-0.3,0.2h-0.6C869.6,251.9,869.5,251.8,869.5,251.8
			z"/>
		<path class="st7" d="M879.8,251.8c-0.3-0.2-0.6-0.4-0.8-0.8s-0.3-0.8-0.3-1.4c0-0.7,0.2-1.5,0.5-2.2c0.4-0.8,0.8-1.5,1.4-2
			c0.6-0.5,1.2-0.8,1.8-0.8c0.3,0,0.6,0.1,0.9,0.3c0.3,0.2,0.5,0.4,0.6,0.6c0,0,0.1,0.1,0.1,0.1c0.1,0,0.1,0,0.2-0.1l0.1-0.4
			c0-0.2,0.1-0.2,0.3-0.2h0.6c0.2,0,0.3,0.1,0.2,0.3c-0.9,3.4-1.3,5.4-1.3,5.8c0,0.1,0,0.2,0.1,0.3c0.1,0.1,0.2,0.1,0.3,0.1
			c0.2,0,0.5-0.2,0.8-0.6c0.3-0.4,0.5-0.9,0.8-1.5l0.2,0.1c-0.4,0.9-0.7,1.5-1.1,2s-0.8,0.6-1.3,0.6c-0.3,0-0.6-0.1-0.7-0.2
			c-0.1-0.2-0.2-0.4-0.3-0.7c0-0.1-0.1-0.1-0.1-0.1c-0.3,0.3-0.7,0.6-1,0.8c-0.3,0.2-0.6,0.3-1,0.3
			C880.4,252.1,880.1,252,879.8,251.8z M882.2,251.1c0.3-0.4,0.6-0.9,0.9-1.6c0.2-0.7,0.5-1.6,0.7-2.8c0-0.4-0.1-0.8-0.3-1.1
			c-0.2-0.4-0.5-0.5-0.9-0.5c-0.5,0-1,0.3-1.5,0.8c-0.4,0.6-0.8,1.2-1,2.1c-0.2,0.8-0.4,1.6-0.4,2.2c0,0.5,0.1,0.8,0.2,1
			c0.2,0.2,0.4,0.4,0.8,0.4C881.4,251.6,881.9,251.4,882.2,251.1z"/>
		<path class="st7" d="M896,251.8c-0.2-0.2-0.3-0.5-0.3-0.9c0-0.3,0-0.7,0.1-1.1c0.1-0.4,0.3-0.9,0.5-1.5c0.2-0.5,0.3-0.9,0.4-1.2
			c0.1-0.3,0.1-0.6,0.1-0.8c0-0.5-0.2-0.7-0.7-0.7c-0.5,0-0.9,0.2-1.2,0.6c-0.3,0.4-0.6,1-0.8,1.6c-0.2,0.7-0.5,1.6-0.8,2.9
			l-0.3,1.1c0,0.2-0.1,0.2-0.3,0.2h-0.7c-0.1,0-0.2,0-0.2-0.1c0-0.1,0-0.1,0-0.2c0.1-0.3,0.3-1.3,0.7-2.8c0.2-0.8,0.4-1.4,0.5-1.9
			c0.1-0.5,0.2-0.8,0.2-1.1c0-0.4-0.1-0.6-0.3-0.6c-0.2,0-0.5,0.2-0.8,0.6c-0.3,0.4-0.6,0.9-0.8,1.5l-0.2-0.1c0.3-0.8,0.7-1.4,1-1.8
			c0.4-0.5,0.8-0.7,1.3-0.7c0.4,0,0.6,0.1,0.8,0.3c0.1,0.2,0.2,0.4,0.2,0.7l0,0.4c0,0.1,0,0.2,0.1,0.2c0,0,0.1,0,0.1-0.1
			c0-0.1,0.2-0.2,0.4-0.5c0.2-0.3,0.5-0.5,0.8-0.7c0.4-0.2,0.8-0.3,1.2-0.3c0.8,0,1.2,0.4,1.2,1.1c0,0.3,0,0.6-0.1,0.9
			c-0.1,0.4-0.2,0.8-0.4,1.3c-0.2,0.6-0.3,1.1-0.5,1.5c-0.1,0.4-0.2,0.8-0.2,1.2c0,0.2,0,0.4,0.1,0.5c0.1,0.1,0.2,0.2,0.3,0.2
			c0.5,0,1-0.7,1.6-2.1l0.2,0.1c-0.4,0.8-0.7,1.5-1,1.9s-0.8,0.7-1.3,0.7C896.4,252,896.2,251.9,896,251.8z"/>
		<path class="st7" d="M904.3,251.6c-0.4-0.3-0.6-0.6-0.6-1c0-0.2,0-0.3,0.1-0.4c0.1-0.1,0.2-0.1,0.4-0.1c0.1,0,0.3,0,0.4,0.1
			c0.1,0.1,0.1,0.2,0.1,0.3c0,0.1,0,0.2-0.1,0.3s-0.1,0.2-0.1,0.3c0,0.2,0.1,0.3,0.3,0.4c0.2,0.1,0.5,0.1,0.8,0.1
			c0.5,0,1-0.1,1.4-0.4s0.6-0.7,0.6-1.2c0-0.4-0.1-0.7-0.4-0.9c-0.2-0.2-0.6-0.4-1.1-0.5c-0.3-0.1-0.6-0.2-0.8-0.3
			c-0.2-0.1-0.4-0.3-0.5-0.5s-0.2-0.5-0.2-0.8c0-0.4,0.1-0.8,0.4-1.2c0.2-0.4,0.6-0.6,0.9-0.9c0.4-0.2,0.8-0.3,1.2-0.3
			c0.5,0,0.9,0.1,1.3,0.4c0.4,0.3,0.6,0.6,0.6,1c0,0.2,0,0.3-0.1,0.4c-0.1,0.1-0.2,0.1-0.4,0.1c-0.1,0-0.3,0-0.4-0.1
			c-0.1-0.1-0.1-0.2-0.1-0.3c0-0.1,0-0.2,0.1-0.3c0.1-0.1,0.1-0.2,0.1-0.3c0-0.2-0.1-0.3-0.3-0.5c-0.2-0.1-0.5-0.2-0.7-0.2
			c-0.5,0-0.8,0.1-1.1,0.4s-0.4,0.6-0.4,1c0,0.3,0.1,0.5,0.3,0.7c0.2,0.1,0.5,0.3,1,0.4c0.4,0.1,0.7,0.2,0.9,0.4
			c0.2,0.1,0.4,0.3,0.6,0.5c0.2,0.2,0.2,0.5,0.2,0.9c0,0.5-0.1,1-0.4,1.4c-0.3,0.4-0.7,0.7-1.1,0.9c-0.4,0.2-0.9,0.3-1.3,0.3
			C905.1,252,904.7,251.9,904.3,251.6z"/>
		<path class="st7" d="M912.9,255.1c0-0.1,0-0.2,0.1-0.2h0.4c0.1,0,0.3,0,0.3-0.1s0.2-0.2,0.2-0.3l1.8-8c0,0,0-0.2,0.1-0.4
			c0-0.2,0.1-0.4,0.1-0.5c0-0.3-0.1-0.5-0.3-0.5c-0.2,0-0.5,0.2-0.8,0.6s-0.6,0.9-0.8,1.5l-0.2-0.1c0.4-0.8,0.7-1.5,1.1-1.9
			s0.8-0.7,1.2-0.7c0.3,0,0.6,0.1,0.7,0.3c0.1,0.2,0.2,0.4,0.2,0.7c0,0.2,0,0.3-0.1,0.5c0.1-0.2,0.2-0.4,0.5-0.6s0.5-0.4,0.8-0.6
			c0.3-0.2,0.7-0.3,1-0.3c0.5,0,1,0.2,1.4,0.7c0.4,0.4,0.6,1,0.6,1.8c0,0.8-0.2,1.5-0.5,2.2c-0.4,0.7-0.8,1.3-1.4,1.8
			c-0.6,0.5-1.2,0.7-1.9,0.7c-0.4,0-0.7-0.1-0.9-0.2s-0.4-0.4-0.6-0.6l-0.8,3.5c0,0,0,0.1,0,0.2c0,0.1,0,0.2,0.1,0.3
			c0.1,0.1,0.2,0.1,0.3,0.1h0.6c0.1,0,0.1,0.1,0.1,0.2c0,0.1,0,0.2-0.1,0.2H913C912.9,255.3,912.9,255.3,912.9,255.1z M918.8,250.8
			c0.4-0.5,0.7-1.2,0.9-1.9c0.2-0.8,0.3-1.5,0.3-2.2c0-0.6-0.1-1-0.3-1.2c-0.2-0.2-0.4-0.4-0.8-0.4c-0.5,0-0.9,0.2-1.2,0.5
			c-0.4,0.4-0.7,0.8-0.9,1.3l-0.8,3.5c0.1,0.4,0.2,0.7,0.4,0.9s0.5,0.3,0.8,0.3C917.9,251.6,918.4,251.3,918.8,250.8z"/>
		<path class="st7" d="M927.2,251.8c-0.3-0.2-0.6-0.4-0.8-0.8c-0.2-0.3-0.3-0.8-0.3-1.4c0-0.7,0.2-1.5,0.5-2.2
			c0.4-0.8,0.8-1.5,1.4-2s1.2-0.8,1.8-0.8c0.3,0,0.6,0.1,0.9,0.3c0.3,0.2,0.5,0.4,0.6,0.6c0,0,0.1,0.1,0.1,0.1c0.1,0,0.1,0,0.2-0.1
			l0.1-0.4c0-0.2,0.1-0.2,0.3-0.2h0.6c0.2,0,0.3,0.1,0.2,0.3c-0.9,3.4-1.3,5.4-1.3,5.8c0,0.1,0,0.2,0.1,0.3c0.1,0.1,0.2,0.1,0.3,0.1
			c0.2,0,0.5-0.2,0.8-0.6c0.3-0.4,0.5-0.9,0.8-1.5l0.2,0.1c-0.4,0.9-0.7,1.5-1.1,2s-0.8,0.6-1.3,0.6c-0.3,0-0.6-0.1-0.7-0.2
			c-0.1-0.2-0.2-0.4-0.3-0.7c0-0.1-0.1-0.1-0.1-0.1c-0.3,0.3-0.7,0.6-1,0.8s-0.6,0.3-1,0.3C927.8,252.1,927.5,252,927.2,251.8z
			 M929.6,251.1c0.3-0.4,0.6-0.9,0.9-1.6c0.2-0.7,0.5-1.6,0.7-2.8c0-0.4-0.1-0.8-0.3-1.1c-0.2-0.4-0.5-0.5-0.9-0.5
			c-0.5,0-1,0.3-1.5,0.8s-0.8,1.2-1,2.1c-0.2,0.8-0.4,1.6-0.4,2.2c0,0.5,0.1,0.8,0.2,1c0.2,0.2,0.4,0.4,0.8,0.4
			C928.8,251.6,929.2,251.4,929.6,251.1z"/>
		<path class="st7" d="M939.3,251.8c0-0.1-0.1-0.1,0-0.2l0.4-1.7c0.3-1.2,0.5-2.1,0.6-2.7c0.1-0.6,0.2-1.1,0.2-1.4
			c0-0.4-0.1-0.6-0.3-0.6c-0.2,0-0.5,0.2-0.8,0.6c-0.3,0.4-0.6,0.9-0.8,1.5l-0.2-0.1c0.3-0.8,0.7-1.4,1-1.9c0.3-0.5,0.8-0.7,1.2-0.7
			c0.6,0,1,0.3,1,1c0,0.2,0,0.5-0.1,0.8c0,0,0.1-0.2,0.3-0.5c0.2-0.3,0.4-0.6,0.8-0.9c0.4-0.3,0.8-0.4,1.2-0.4
			c0.3,0,0.5,0.1,0.7,0.2s0.2,0.3,0.2,0.6c0,0.1,0,0.2,0,0.3c0,0.3-0.2,0.5-0.3,0.6c-0.2,0.2-0.4,0.3-0.6,0.3c-0.1,0-0.3,0-0.3-0.1
			s-0.1-0.2-0.1-0.4c0-0.1,0-0.2,0.1-0.3c0-0.1,0.1-0.2,0.2-0.2c0.1-0.1,0.2-0.2,0.2-0.3c0-0.1-0.1-0.2-0.3-0.2
			c-0.2,0-0.5,0.1-0.8,0.3s-0.6,0.5-0.8,1s-0.5,1-0.6,1.6l-0.8,3.6c0,0.2-0.1,0.2-0.3,0.2h-0.6C939.4,251.9,939.3,251.8,939.3,251.8
			z"/>
		<path class="st7" d="M949.2,251.4c-0.5-0.4-0.7-1.1-0.7-1.9c0-0.2,0-0.6,0.1-1c0.2-0.8,0.5-1.4,0.9-2s0.9-1,1.4-1.3
			c0.5-0.3,1-0.5,1.5-0.5c0.7,0,1.2,0.2,1.6,0.7c0.3,0.5,0.5,1,0.5,1.6c0,0.3,0,0.5-0.1,0.7c-0.1,0.3-0.2,0.4-0.4,0.4h-3.3
			c-0.3,0-0.5,0-0.6,0.1c-0.1,0-0.2,0.1-0.3,0.3c0,0.1,0,0.3-0.1,0.6c-0.1,0.3-0.1,0.6-0.1,0.8c0,1.1,0.5,1.7,1.6,1.7h0.1
			c0.3,0,0.7-0.1,1.1-0.3c0.4-0.2,0.8-0.6,1.2-1.1c0,0,0.1-0.1,0.2-0.1c0.1,0,0.1,0,0.1,0.1c0,0,0,0.1,0,0.2
			c-0.1,0.1-0.3,0.3-0.5,0.6c-0.3,0.3-0.6,0.5-1,0.7c-0.4,0.2-0.9,0.3-1.4,0.3C950.3,252,949.7,251.8,949.2,251.4z M952.9,247.7
			c0.2,0,0.3,0,0.3,0c0,0,0.1-0.1,0.1-0.3c0.1-0.3,0.1-0.7,0.1-1.1c0-0.9-0.3-1.3-0.9-1.3c-0.4,0-0.9,0.2-1.3,0.7
			c-0.4,0.5-0.8,1.1-1.1,2H952.9z"/>
		<path class="st7" d="M964.3,251.8c-0.2-0.2-0.3-0.5-0.3-0.9c0-0.3,0-0.7,0.1-1.1c0.1-0.4,0.3-0.9,0.5-1.5c0.2-0.5,0.3-0.9,0.4-1.2
			c0.1-0.3,0.1-0.6,0.1-0.8c0-0.5-0.2-0.7-0.7-0.7c-0.5,0-0.9,0.2-1.2,0.6c-0.3,0.4-0.6,1-0.8,1.6c-0.2,0.7-0.5,1.6-0.8,2.9
			l-0.3,1.1c0,0.2-0.1,0.2-0.3,0.2h-0.7c-0.1,0-0.2,0-0.2-0.1c0-0.1,0-0.1,0-0.2c0.1-0.3,0.3-1.3,0.7-2.8c0.2-0.8,0.4-1.4,0.5-1.9
			c0.1-0.5,0.2-0.8,0.2-1.1c0-0.4-0.1-0.6-0.3-0.6c-0.2,0-0.5,0.2-0.8,0.6c-0.3,0.4-0.6,0.9-0.8,1.5l-0.2-0.1c0.3-0.8,0.7-1.4,1-1.8
			c0.4-0.5,0.8-0.7,1.3-0.7c0.4,0,0.6,0.1,0.8,0.3c0.1,0.2,0.2,0.4,0.2,0.7l0,0.4c0,0.1,0,0.2,0.1,0.2c0,0,0.1,0,0.1-0.1
			c0-0.1,0.2-0.2,0.4-0.5c0.2-0.3,0.5-0.5,0.8-0.7c0.4-0.2,0.8-0.3,1.2-0.3c0.8,0,1.2,0.4,1.2,1.1c0,0.3,0,0.6-0.1,0.9
			c-0.1,0.4-0.2,0.8-0.4,1.3c-0.2,0.6-0.3,1.1-0.5,1.5c-0.1,0.4-0.2,0.8-0.2,1.2c0,0.2,0,0.4,0.1,0.5c0.1,0.1,0.2,0.2,0.3,0.2
			c0.5,0,1-0.7,1.6-2.1l0.2,0.1c-0.4,0.8-0.7,1.5-1,1.9s-0.8,0.7-1.3,0.7C964.8,252,964.5,251.9,964.3,251.8z"/>
		<path class="st7" d="M973,251.8c-0.2-0.2-0.3-0.4-0.3-0.6c0-0.3,0.1-1,0.4-2.2c0.3-1.2,0.6-2.4,0.8-3.5h-1.4
			c-0.1,0-0.1-0.1-0.1-0.2c0-0.1,0-0.1,0.1-0.1c0,0,0.1,0,0.1,0c0,0,0.1,0,0.1,0c0.7,0,1.3-0.3,1.7-0.9c0.4-0.6,0.7-1.2,0.8-1.8
			c0-0.2,0.1-0.2,0.3-0.2h0.1c0,0,0.1,0,0.1,0.1c0,0,0,0.1,0,0.2l-0.6,2.5h1.3c0.1,0,0.1,0,0.1,0.1c0,0.1,0,0.1-0.1,0.2
			c0,0.1-0.1,0.1-0.1,0.1h-1.3c-0.2,0.9-0.5,2-0.8,3.3c-0.3,1.3-0.4,2.1-0.4,2.3c0,0.1,0,0.2,0.1,0.3c0.1,0.1,0.2,0.1,0.3,0.1
			c0.2,0,0.5-0.2,0.8-0.6c0.3-0.4,0.5-0.9,0.8-1.5l0.2,0.1c-0.3,0.8-0.7,1.4-1,1.9c-0.3,0.5-0.8,0.7-1.3,0.7
			C973.5,252,973.2,251.9,973,251.8z"/>
		<path class="st7" d="M981.9,251.4c-0.5-0.4-0.7-1.1-0.7-1.9c0-0.2,0-0.6,0.1-1c0.2-0.8,0.5-1.4,0.9-2c0.4-0.6,0.9-1,1.4-1.3
			c0.5-0.3,1-0.5,1.5-0.5c0.7,0,1.2,0.2,1.6,0.7c0.3,0.5,0.5,1,0.5,1.6c0,0.3,0,0.5-0.1,0.7c-0.1,0.3-0.2,0.4-0.4,0.4h-3.3
			c-0.3,0-0.5,0-0.6,0.1c-0.1,0-0.2,0.1-0.3,0.3c0,0.1,0,0.3-0.1,0.6c-0.1,0.3-0.1,0.6-0.1,0.8c0,1.1,0.5,1.7,1.6,1.7h0.1
			c0.3,0,0.7-0.1,1.1-0.3c0.4-0.2,0.8-0.6,1.2-1.1c0,0,0.1-0.1,0.2-0.1c0.1,0,0.1,0,0.1,0.1c0,0,0,0.1,0,0.2
			c-0.1,0.1-0.3,0.3-0.5,0.6c-0.3,0.3-0.6,0.5-1,0.7c-0.4,0.2-0.9,0.3-1.4,0.3C982.9,252,982.4,251.8,981.9,251.4z M985.5,247.7
			c0.2,0,0.3,0,0.3,0c0,0,0.1-0.1,0.1-0.3c0.1-0.3,0.1-0.7,0.1-1.1c0-0.9-0.3-1.3-0.9-1.3c-0.4,0-0.9,0.2-1.3,0.7
			c-0.4,0.5-0.8,1.1-1.1,2H985.5z"/>
	</g>
</g>
</svg>
