<?xml version="1.0" encoding="utf-8"?>
<!-- Generator: Adobe Illustrator 21.0.2, SVG Export Plug-In . SVG Version: 6.00 Build 0)  -->
<svg version="1.1" id="Layer_1" xmlns="http://www.w3.org/2000/svg" xmlns:xlink="http://www.w3.org/1999/xlink" x="0px" y="0px"
	 viewBox="0 0 1140 350" style="enable-background:new 0 0 1140 350;" xml:space="preserve">
<style type="text/css">
	.st0{fill:#3C3C3B;}
	.st1{clip-path:url(#SVGID_2_);}
	.st2{fill:#D29D46;}
	.st3{fill:#C58511;}
	.st4{fill:#EFC981;}
	.st5{fill:#FFFFFF;}
</style>
<rect x="3.4" class="st0" width="1136.6" height="350.2"/>
<g>
	<defs>
		<rect id="SVGID_1_" x="3.4" width="1136.6" height="349.9"/>
	</defs>
	<clipPath id="SVGID_2_">
		<use xlink:href="#SVGID_1_"  style="overflow:visible;"/>
	</clipPath>
	<g class="st1">
		<g>
			<path class="st2" d="M-239.8-821.3l120.9,0.8L75-380.6L26.8-276.4H3.6L-239.8-821.3 M-279.7-847.3l266.5,596.7h56.4l60-129.7
				L-102-846.1L-279.7-847.3L-279.7-847.3z"/>
		</g>
	</g>
	<g class="st1">
		<g>
			<path class="st2" d="M272.2-352.2L123.5-23.6L64.4-152.3l91.4-199.9H272.2 M312.2-378H139.3L36.1-152.3l87.6,190.9L312.2-378
				L312.2-378z"/>
		</g>
	</g>
	<g class="st1">
		<g>
			<path class="st2" d="M1896.2,254.6L1684.7,722l-88.3-192.3l125.8-275.1H1896.2 M1936.2,228.8h-230.5l-137.6,300.9l116.8,254.5
				L1936.2,228.8L1936.2,228.8z"/>
		</g>
	</g>
	<g class="st1">
		<g>
			<path class="st2" d="M-144.5-330.9l51.8,74.3c-25.4,19-63.1,55.6-78.6,112.6c-13.5,49.7-7.8,99.5,17.5,151.2l-96,2.2
				c-10.4-29.2-28.8-97.5-9.7-174c6.7-26.7,17.7-52.6,32.9-77.1c12.3-19.8,27.3-38.8,44.6-56.4
				C-167.9-312.3-154.7-323.2-144.5-330.9 M-138-366.7c0,0-114.1,66-146.5,195.7C-312.3-59.4-267,35.5-267,35.5l157.3-3.6
				c-39-58.8-51.6-114-36.6-169.3c21-77.4,90-112.2,90-112.2L-138-366.7L-138-366.7z"/>
		</g>
	</g>
	<g class="st1">
		<polygon class="st3" points="-438.6,-664.6 1.5,-51.6 445.3,-664.6 344.7,-664.6 2.8,-191.6 -338.2,-664.6 		"/>
		<polygon class="st3" points="292.7,-664.6 1.5,-262.4 -287.2,-664.6 -186.2,-664.5 2.8,-402.5 192.3,-664.6 		"/>
		<polygon class="st4" points="1.5,-262.4 292.7,-664.6 192.3,-664.6 2.8,-402.5 		"/>
		<polygon class="st4" points="1.5,-51.6 445.3,-664.6 344.7,-664.6 2.8,-191.6 		"/>
		<g>
			<g>
				<path class="st4" d="M3.4-37C59.2-37,104.6,8.4,104.6,64.2S59.2,165.3,3.4,165.3S-97.8,120-97.8,64.2S-52.4-37,3.4-37
					 M3.4-104.5c-93.1,0-168.7,75.5-168.7,168.7S-89.8,232.8,3.4,232.8S172,157.3,172,64.2S96.5-104.5,3.4-104.5L3.4-104.5z"/>
			</g>
		</g>
	</g>
	<g class="st1">
		<polygon class="st3" points="834.2,-624.1 1274.3,-11.1 1718.1,-624.1 1617.5,-624.1 1275.6,-151.1 934.5,-624.1 		"/>
		<polygon class="st3" points="1565.4,-624.1 1274.3,-222 985.6,-624.1 1086.6,-624.1 1275.6,-362 1465.1,-624.1 		"/>
		<polygon class="st4" points="1274.3,-222 1565.4,-624.1 1465.1,-624.1 1275.6,-362 		"/>
		<polygon class="st4" points="1274.3,-11.1 1718.1,-624.1 1617.5,-624.1 1275.6,-151.1 		"/>
		<g>
			<g>
				<path class="st4" d="M1276.1,3.4c55.8,0,101.2,45.4,101.2,101.2s-45.4,101.2-101.2,101.2s-101.2-45.4-101.2-101.2
					S1220.3,3.4,1276.1,3.4 M1276.1-64.1c-93.1,0-168.7,75.5-168.7,168.7s75.5,168.7,168.7,168.7c93.1,0,168.7-75.5,168.7-168.7
					S1369.3-64.1,1276.1-64.1L1276.1-64.1z"/>
			</g>
		</g>
	</g>
	<g class="st1">
		<polygon class="st3" points="285.7,328.6 725.8,941.6 1169.5,328.6 1069,328.6 727,801.6 386,328.6 		"/>
		<polygon class="st3" points="1016.9,328.6 725.8,730.7 437.1,328.6 538.1,328.6 727,590.7 916.5,328.6 		"/>
		<polygon class="st4" points="725.8,730.7 1016.9,328.6 916.5,328.6 727,590.7 		"/>
		<polygon class="st4" points="725.8,941.6 1169.5,328.6 1069,328.6 727,801.6 		"/>
		<g>
			<g>
				<path class="st4" d="M727.6,956.1c55.8,0,101.2,45.4,101.2,101.2s-45.4,101.2-101.2,101.2s-101.2-45.4-101.2-101.2
					S671.8,956.1,727.6,956.1 M727.6,888.6c-93.1,0-168.7,75.5-168.7,168.7c0,93.1,75.5,168.7,168.7,168.7s168.7-75.5,168.7-168.7
					C896.3,964.1,820.7,888.6,727.6,888.6L727.6,888.6z"/>
			</g>
		</g>
	</g>
</g>
<g>
	<g>
		<path class="st3" d="M375.1,142.4c0,4-1.2,7-3.7,9.1c-2.5,2.1-6,3.1-10.6,3.1h-3.3v13.1h-7.8v-36.8h11.8c4.5,0,7.9,1,10.2,2.9
			C374,135.7,375.1,138.6,375.1,142.4z M357.5,148.2h2.6c2.4,0,4.2-0.5,5.4-1.4c1.2-0.9,1.8-2.3,1.8-4.1c0-1.8-0.5-3.2-1.5-4.1
			c-1-0.9-2.6-1.3-4.7-1.3h-3.6V148.2z"/>
		<path class="st3" d="M399.4,167.7l-1.5-3.8h-0.2c-1.3,1.6-2.6,2.8-4,3.4c-1.4,0.6-3.2,0.9-5.4,0.9c-2.7,0-4.8-0.8-6.4-2.3
			c-1.6-1.5-2.3-3.7-2.3-6.6c0-3,1-5.2,3.1-6.6c2.1-1.4,5.2-2.2,9.5-2.4l4.9-0.2V149c0-2.9-1.5-4.3-4.4-4.3c-2.3,0-4.9,0.7-7.9,2
			l-2.5-5.2c3.2-1.7,6.8-2.5,10.8-2.5c3.8,0,6.7,0.8,8.7,2.5s3,4.1,3,7.5v18.8H399.4z M397.1,154.7l-3,0.1c-2.2,0.1-3.9,0.5-5,1.2
			c-1.1,0.7-1.6,1.9-1.6,3.4c0,2.2,1.2,3.2,3.7,3.2c1.8,0,3.2-0.5,4.3-1.5c1.1-1,1.6-2.4,1.6-4.1V154.7z"/>
		<path class="st3" d="M432.3,159.4c0,2.9-1,5.1-3,6.6c-2,1.5-5,2.3-9,2.3c-2,0-3.8-0.1-5.2-0.4c-1.4-0.3-2.8-0.7-4.1-1.2v-6.3
			c1.4,0.7,3,1.2,4.8,1.7s3.4,0.7,4.7,0.7c2.8,0,4.2-0.8,4.2-2.4c0-0.6-0.2-1.1-0.6-1.5c-0.4-0.4-1-0.8-1.9-1.3s-2.1-1-3.6-1.7
			c-2.2-0.9-3.8-1.7-4.8-2.5s-1.8-1.7-2.2-2.7c-0.5-1-0.7-2.2-0.7-3.7c0-2.5,1-4.4,2.9-5.8c1.9-1.4,4.7-2.1,8.2-2.1
			c3.4,0,6.7,0.7,9.9,2.2l-2.3,5.5c-1.4-0.6-2.7-1.1-4-1.5c-1.2-0.4-2.5-0.6-3.8-0.6c-2.3,0-3.4,0.6-3.4,1.8c0,0.7,0.4,1.3,1.1,1.8
			c0.7,0.5,2.3,1.3,4.8,2.2c2.2,0.9,3.8,1.7,4.8,2.5c1,0.8,1.8,1.7,2.3,2.7C432,156.8,432.3,158,432.3,159.4z"/>
		<path class="st3" d="M457.9,159.4c0,2.9-1,5.1-3,6.6c-2,1.5-5,2.3-9,2.3c-2,0-3.8-0.1-5.2-0.4c-1.4-0.3-2.8-0.7-4.1-1.2v-6.3
			c1.4,0.7,3,1.2,4.8,1.7s3.4,0.7,4.7,0.7c2.8,0,4.2-0.8,4.2-2.4c0-0.6-0.2-1.1-0.6-1.5c-0.4-0.4-1-0.8-1.9-1.3s-2.1-1-3.6-1.7
			c-2.2-0.9-3.8-1.7-4.8-2.5s-1.8-1.7-2.2-2.7c-0.5-1-0.7-2.2-0.7-3.7c0-2.5,1-4.4,2.9-5.8c1.9-1.4,4.7-2.1,8.2-2.1
			c3.4,0,6.7,0.7,9.9,2.2l-2.3,5.5c-1.4-0.6-2.7-1.1-4-1.5c-1.2-0.4-2.5-0.6-3.8-0.6c-2.3,0-3.4,0.6-3.4,1.8c0,0.7,0.4,1.3,1.1,1.8
			c0.7,0.5,2.3,1.3,4.8,2.2c2.2,0.9,3.8,1.7,4.8,2.5c1,0.8,1.8,1.7,2.3,2.7C457.7,156.8,457.9,158,457.9,159.4z"/>
		<path class="st3" d="M476.6,168.2c-4.5,0-8.1-1.3-10.6-3.8c-2.6-2.5-3.8-6-3.8-10.6c0-4.7,1.2-8.4,3.5-10.9
			c2.4-2.6,5.6-3.9,9.8-3.9c4,0,7.1,1.1,9.3,3.4c2.2,2.3,3.3,5.4,3.3,9.4v3.7H470c0.1,2.2,0.7,3.9,1.9,5.1c1.2,1.2,2.9,1.8,5.1,1.8
			c1.7,0,3.3-0.2,4.8-0.5s3.1-0.9,4.7-1.7v5.9c-1.3,0.7-2.8,1.2-4.3,1.5C480.7,168.1,478.8,168.2,476.6,168.2z M475.6,144.5
			c-1.6,0-2.9,0.5-3.8,1.5c-0.9,1-1.5,2.5-1.6,4.4h10.8c0-1.9-0.5-3.4-1.5-4.4C478.5,145,477.2,144.5,475.6,144.5z"/>
		<path class="st3" d="M514,159.4c0,2.9-1,5.1-3,6.6c-2,1.5-5,2.3-9,2.3c-2,0-3.8-0.1-5.2-0.4c-1.4-0.3-2.8-0.7-4.1-1.2v-6.3
			c1.4,0.7,3,1.2,4.8,1.7s3.4,0.7,4.7,0.7c2.8,0,4.2-0.8,4.2-2.4c0-0.6-0.2-1.1-0.6-1.5c-0.4-0.4-1-0.8-1.9-1.3s-2.1-1-3.6-1.7
			c-2.2-0.9-3.8-1.7-4.8-2.5s-1.8-1.7-2.2-2.7c-0.5-1-0.7-2.2-0.7-3.7c0-2.5,1-4.4,2.9-5.8c1.9-1.4,4.7-2.1,8.2-2.1
			c3.4,0,6.7,0.7,9.9,2.2l-2.3,5.5c-1.4-0.6-2.7-1.1-4-1.5c-1.2-0.4-2.5-0.6-3.8-0.6c-2.3,0-3.4,0.6-3.4,1.8c0,0.7,0.4,1.3,1.1,1.8
			c0.7,0.5,2.3,1.3,4.8,2.2c2.2,0.9,3.8,1.7,4.8,2.5c1,0.8,1.8,1.7,2.3,2.7C513.8,156.8,514,158,514,159.4z"/>
		<path class="st3" d="M549.6,136.9c-2.9,0-5.2,1.1-6.8,3.3c-1.6,2.2-2.4,5.3-2.4,9.2c0,8.2,3.1,12.3,9.2,12.3
			c2.6,0,5.7-0.6,9.4-1.9v6.5c-3,1.3-6.4,1.9-10.1,1.9c-5.4,0-9.5-1.6-12.3-4.9c-2.8-3.2-4.3-7.9-4.3-14c0-3.8,0.7-7.2,2.1-10.1
			c1.4-2.9,3.4-5.1,6-6.6c2.6-1.5,5.7-2.3,9.2-2.3c3.6,0,7.2,0.9,10.8,2.6l-2.5,6.3c-1.4-0.7-2.8-1.2-4.2-1.7
			C552.4,137.1,551,136.9,549.6,136.9z"/>
		<path class="st3" d="M591.8,153.6c0,4.6-1.2,8.2-3.6,10.8c-2.4,2.6-5.8,3.9-10.1,3.9c-2.7,0-5.1-0.6-7.2-1.8s-3.7-2.9-4.8-5.1
			c-1.1-2.2-1.7-4.8-1.7-7.8c0-4.6,1.2-8.2,3.6-10.7c2.4-2.6,5.8-3.8,10.1-3.8c2.7,0,5.1,0.6,7.2,1.8c2.1,1.2,3.7,2.9,4.8,5.1
			C591.3,148.1,591.8,150.7,591.8,153.6z M572.4,153.6c0,2.8,0.5,4.9,1.4,6.3c0.9,1.4,2.4,2.1,4.5,2.1c2,0,3.5-0.7,4.4-2.1
			c0.9-1.4,1.3-3.5,1.3-6.3c0-2.8-0.5-4.9-1.4-6.3s-2.4-2.1-4.5-2.1c-2,0-3.5,0.7-4.4,2.1S572.4,150.8,572.4,153.6z"/>
		<path class="st3" d="M623.4,167.7h-7.7v-16.4c0-2-0.3-3.6-1-4.6c-0.7-1-1.8-1.5-3.2-1.5c-2,0-3.4,0.7-4.3,2.2
			c-0.9,1.4-1.3,3.8-1.3,7.1v13.2h-7.7v-28.2h5.9l1,3.6h0.4c0.8-1.3,1.8-2.3,3.3-3s3.1-1.1,4.9-1.1c4.2,0,7.1,1.4,8.6,4.1h0.7
			c0.8-1.3,1.9-2.3,3.3-3c1.5-0.7,3.1-1.1,5-1.1c3.2,0,5.6,0.8,7.2,2.5c1.6,1.6,2.5,4.3,2.5,7.9v18.4h-7.7v-16.4c0-2-0.3-3.6-1-4.6
			c-0.7-1-1.8-1.5-3.2-1.5c-1.9,0-3.3,0.7-4.2,2c-0.9,1.3-1.4,3.5-1.4,6.4V167.7z"/>
		<path class="st3" d="M648.5,132.3c0-2.5,1.4-3.8,4.2-3.8s4.2,1.3,4.2,3.8c0,1.2-0.3,2.1-1,2.8c-0.7,0.7-1.7,1-3.1,1
			C649.9,136.1,648.5,134.8,648.5,132.3z M656.5,167.7h-7.7v-28.2h7.7V167.7z"/>
		<path class="st3" d="M676,168.2c-8.8,0-13.1-4.8-13.1-14.4c0-4.8,1.2-8.4,3.6-11c2.4-2.5,5.8-3.8,10.2-3.8c3.3,0,6.2,0.6,8.8,1.9
			l-2.3,5.9c-1.2-0.5-2.3-0.9-3.4-1.2c-1-0.3-2.1-0.5-3.1-0.5c-4,0-6,2.8-6,8.5c0,5.5,2,8.3,6,8.3c1.5,0,2.8-0.2,4.1-0.6
			c1.3-0.4,2.5-1,3.8-1.9v6.6c-1.2,0.8-2.5,1.3-3.8,1.6C679.5,168.1,677.9,168.2,676,168.2z"/>
		<path class="st3" d="M720.7,136.9c-2.9,0-5.2,1.1-6.8,3.3c-1.6,2.2-2.4,5.3-2.4,9.2c0,8.2,3.1,12.3,9.2,12.3
			c2.6,0,5.7-0.6,9.4-1.9v6.5c-3,1.3-6.4,1.9-10.1,1.9c-5.4,0-9.5-1.6-12.3-4.9c-2.8-3.2-4.3-7.9-4.3-14c0-3.8,0.7-7.2,2.1-10.1
			s3.4-5.1,6-6.6s5.7-2.3,9.2-2.3c3.6,0,7.2,0.9,10.8,2.6l-2.5,6.3c-1.4-0.7-2.8-1.2-4.2-1.7C723.4,137.1,722.1,136.9,720.7,136.9z"
			/>
		<path class="st3" d="M762.9,153.6c0,4.6-1.2,8.2-3.6,10.8c-2.4,2.6-5.8,3.9-10.1,3.9c-2.7,0-5.1-0.6-7.2-1.8
			c-2.1-1.2-3.7-2.9-4.8-5.1c-1.1-2.2-1.7-4.8-1.7-7.8c0-4.6,1.2-8.2,3.6-10.7c2.4-2.6,5.8-3.8,10.1-3.8c2.7,0,5.1,0.6,7.2,1.8
			c2.1,1.2,3.7,2.9,4.8,5.1C762.4,148.1,762.9,150.7,762.9,153.6z M743.5,153.6c0,2.8,0.5,4.9,1.4,6.3c0.9,1.4,2.4,2.1,4.5,2.1
			c2,0,3.5-0.7,4.4-2.1c0.9-1.4,1.3-3.5,1.3-6.3c0-2.8-0.5-4.9-1.4-6.3s-2.4-2.1-4.5-2.1c-2,0-3.5,0.7-4.4,2.1
			C743.9,148.7,743.5,150.8,743.5,153.6z"/>
		<path class="st3" d="M795.3,167.7h-7.7v-16.4c0-2-0.4-3.6-1.1-4.6c-0.7-1-1.9-1.5-3.5-1.5c-2.1,0-3.7,0.7-4.7,2.2
			c-1,1.4-1.4,3.8-1.4,7.1v13.2h-7.7v-28.2h5.9l1,3.6h0.4c0.9-1.4,2-2.4,3.5-3.1c1.5-0.7,3.2-1,5.1-1c3.3,0,5.8,0.9,7.5,2.7
			c1.7,1.8,2.5,4.3,2.5,7.7V167.7z"/>
		<path class="st5" d="M342.7,209.9c-1.2,0-2.3-0.2-3.3-0.7c-1-0.4-1.8-1.1-2.5-2.1h-0.2c0.1,1.1,0.2,2.1,0.2,3.1v7.7H334v-27h2.3
			l0.4,2.6h0.1c0.7-1,1.6-1.8,2.5-2.2c1-0.5,2.1-0.7,3.3-0.7c2.5,0,4.4,0.8,5.7,2.5s2,4.1,2,7.1c0,3.1-0.7,5.4-2.1,7.1
			C347,209,345.2,209.9,342.7,209.9z M342.3,193c-1.9,0-3.3,0.5-4.1,1.6c-0.9,1.1-1.3,2.7-1.3,5v0.6c0,2.6,0.4,4.5,1.3,5.6
			c0.9,1.1,2.3,1.7,4.2,1.7c1.6,0,2.9-0.7,3.8-2s1.4-3.1,1.4-5.4c0-2.3-0.5-4.1-1.4-5.4S344,193,342.3,193z"/>
		<path class="st5" d="M366.9,209.5l-0.6-2.7h-0.1c-0.9,1.2-1.9,2-2.8,2.4c-0.9,0.4-2.1,0.6-3.5,0.6c-1.8,0-3.3-0.5-4.3-1.4
			c-1-1-1.6-2.3-1.6-4.1c0-3.8,3-5.7,9-5.9l3.2-0.1v-1.2c0-1.5-0.3-2.5-0.9-3.2c-0.6-0.7-1.6-1-3-1c-1.6,0-3.3,0.5-5.3,1.4l-0.9-2.2
			c0.9-0.5,1.9-0.9,3-1.2c1.1-0.3,2.2-0.4,3.3-0.4c2.2,0,3.9,0.5,4.9,1.5c1.1,1,1.6,2.6,1.6,4.7v12.7H366.9z M360.5,207.6
			c1.8,0,3.1-0.5,4.1-1.4c1-1,1.5-2.3,1.5-4v-1.7l-2.8,0.1c-2.2,0.1-3.9,0.4-4.9,1c-1,0.6-1.5,1.6-1.5,2.9c0,1,0.3,1.8,0.9,2.3
			S359.4,207.6,360.5,207.6z"/>
		<path class="st5" d="M383.3,190.6c0.8,0,1.6,0.1,2.2,0.2l-0.4,2.6c-0.8-0.2-1.5-0.3-2-0.3c-1.5,0-2.8,0.6-3.9,1.8
			c-1.1,1.2-1.6,2.8-1.6,4.6v10h-2.8v-18.6h2.3l0.3,3.5h0.1c0.7-1.2,1.5-2.1,2.5-2.8C381,190.9,382.1,190.6,383.3,190.6z"/>
		<path class="st5" d="M400.5,209.5l-0.6-2.7h-0.1c-0.9,1.2-1.9,2-2.8,2.4c-0.9,0.4-2.1,0.6-3.5,0.6c-1.8,0-3.3-0.5-4.3-1.4
			c-1-1-1.6-2.3-1.6-4.1c0-3.8,3-5.7,9-5.9l3.2-0.1v-1.2c0-1.5-0.3-2.5-0.9-3.2c-0.6-0.7-1.6-1-3-1c-1.6,0-3.3,0.5-5.3,1.4l-0.9-2.2
			c0.9-0.5,1.9-0.9,3-1.2c1.1-0.3,2.2-0.4,3.3-0.4c2.2,0,3.9,0.5,4.9,1.5c1.1,1,1.6,2.6,1.6,4.7v12.7H400.5z M394.1,207.6
			c1.8,0,3.1-0.5,4.1-1.4c1-1,1.5-2.3,1.5-4v-1.7l-2.8,0.1c-2.2,0.1-3.9,0.4-4.9,1c-1,0.6-1.5,1.6-1.5,2.9c0,1,0.3,1.8,0.9,2.3
			S393,207.6,394.1,207.6z"/>
		<path class="st5" d="M428.9,209.5l-0.6-2.7h-0.1c-0.9,1.2-1.9,2-2.8,2.4c-0.9,0.4-2.1,0.6-3.5,0.6c-1.8,0-3.3-0.5-4.3-1.4
			c-1-1-1.6-2.3-1.6-4.1c0-3.8,3-5.7,9-5.9l3.2-0.1v-1.2c0-1.5-0.3-2.5-0.9-3.2c-0.6-0.7-1.6-1-3-1c-1.6,0-3.3,0.5-5.3,1.4l-0.9-2.2
			c0.9-0.5,1.9-0.9,3-1.2c1.1-0.3,2.2-0.4,3.3-0.4c2.2,0,3.9,0.5,4.9,1.5c1.1,1,1.6,2.6,1.6,4.7v12.7H428.9z M422.5,207.6
			c1.8,0,3.1-0.5,4.1-1.4c1-1,1.5-2.3,1.5-4v-1.7l-2.8,0.1c-2.2,0.1-3.9,0.4-4.9,1c-1,0.6-1.5,1.6-1.5,2.9c0,1,0.3,1.8,0.9,2.3
			S421.4,207.6,422.5,207.6z"/>
		<path class="st5" d="M448.8,204.5c0,1.7-0.6,3.1-1.9,4c-1.3,0.9-3.1,1.4-5.4,1.4c-2.5,0-4.4-0.4-5.8-1.2v-2.6
			c0.9,0.5,1.9,0.8,2.9,1.1c1,0.3,2,0.4,3,0.4c1.5,0,2.6-0.2,3.4-0.7c0.8-0.5,1.2-1.2,1.2-2.2c0-0.7-0.3-1.3-0.9-1.9
			c-0.6-0.5-1.9-1.1-3.7-1.8c-1.7-0.6-3-1.2-3.7-1.7c-0.7-0.5-1.3-1-1.6-1.6c-0.4-0.6-0.5-1.3-0.5-2.2c0-1.5,0.6-2.7,1.9-3.6
			s2.9-1.3,5.1-1.3c2,0,4,0.4,5.9,1.2l-1,2.3c-1.9-0.8-3.6-1.2-5.1-1.2c-1.3,0-2.3,0.2-3,0.6c-0.7,0.4-1,1-1,1.7
			c0,0.5,0.1,0.9,0.4,1.3c0.3,0.4,0.7,0.7,1.2,1c0.6,0.3,1.7,0.8,3.3,1.4c2.2,0.8,3.7,1.6,4.5,2.4
			C448.5,202.2,448.8,203.2,448.8,204.5z"/>
		<path class="st5" d="M476.6,190.5c0,1.6-0.4,2.9-1.3,3.9s-2.2,1.7-3.8,2v0.1c2,0.3,3.5,0.9,4.4,1.9c1,1,1.4,2.4,1.4,4
			c0,2.4-0.8,4.2-2.5,5.5c-1.6,1.3-4,1.9-7,1.9c-1.3,0-2.5-0.1-3.6-0.3c-1.1-0.2-2.2-0.5-3.2-1v-2.7c1.1,0.5,2.2,0.9,3.4,1.2
			c1.2,0.3,2.4,0.4,3.5,0.4c4.3,0,6.4-1.7,6.4-5.1c0-3-2.4-4.5-7.1-4.5h-2.5v-2.4h2.5c1.9,0,3.5-0.4,4.6-1.3c1.1-0.9,1.7-2,1.7-3.6
			c0-1.2-0.4-2.2-1.3-2.9c-0.8-0.7-2-1-3.4-1c-1.1,0-2.1,0.1-3.1,0.4c-1,0.3-2.1,0.8-3.3,1.6l-1.4-1.9c1-0.8,2.2-1.4,3.5-1.9
			c1.3-0.5,2.7-0.7,4.2-0.7c2.4,0,4.3,0.6,5.6,1.7C475.9,187.1,476.6,188.6,476.6,190.5z"/>
		<path class="st5" d="M499.3,209.9c-2.8,0-4.9-0.8-6.5-2.5s-2.4-4-2.4-7c0-3,0.7-5.4,2.2-7.2c1.5-1.8,3.5-2.7,6-2.7
			c2.3,0,4.2,0.8,5.5,2.3c1.4,1.5,2,3.6,2,6.1v1.8h-12.8c0.1,2.2,0.6,3.9,1.7,5c1,1.1,2.5,1.7,4.4,1.7c2,0,4-0.4,6-1.3v2.5
			c-1,0.4-1.9,0.7-2.8,0.9S500.6,209.9,499.3,209.9z M498.6,192.9c-1.5,0-2.7,0.5-3.6,1.5c-0.9,1-1.4,2.3-1.6,4h9.7
			c0-1.8-0.4-3.1-1.2-4.1C501.2,193.4,500.1,192.9,498.6,192.9z"/>
		<path class="st5" d="M517.6,209.9c-2.4,0-4.3-0.8-5.6-2.5c-1.4-1.7-2-4-2-7.1c0-3.1,0.7-5.4,2-7.1s3.3-2.6,5.7-2.6
			c2.6,0,4.5,1,5.9,2.9h0.2l0.4-2.6h2.2v27h-2.8v-8c0-1.1,0.1-2.1,0.2-2.9h-0.2C522.2,208.9,520.3,209.9,517.6,209.9z M518.1,207.5
			c1.9,0,3.3-0.5,4.1-1.5c0.9-1,1.3-2.7,1.4-5.1v-0.6c0-2.6-0.4-4.5-1.3-5.6c-0.9-1.1-2.3-1.7-4.2-1.7c-1.7,0-2.9,0.6-3.8,1.9
			c-0.9,1.3-1.3,3.1-1.3,5.5c0,2.3,0.4,4.1,1.3,5.4C515.1,206.9,516.4,207.5,518.1,207.5z"/>
		<path class="st5" d="M535,190.9V203c0,1.5,0.3,2.7,1,3.4c0.7,0.7,1.8,1.1,3.2,1.1c2,0,3.4-0.5,4.3-1.6s1.4-2.8,1.4-5.2v-9.8h2.8
			v18.6h-2.3L545,207h-0.2c-0.6,0.9-1.4,1.6-2.4,2.1c-1,0.5-2.2,0.7-3.5,0.7c-2.3,0-4-0.5-5.1-1.6c-1.1-1.1-1.7-2.8-1.7-5.2v-12.2
			H535z"/>
		<path class="st5" d="M553.5,185.8c0-0.6,0.2-1.1,0.5-1.4c0.3-0.3,0.7-0.5,1.2-0.5c0.5,0,0.8,0.2,1.2,0.5c0.3,0.3,0.5,0.8,0.5,1.4
			c0,0.6-0.2,1.1-0.5,1.4c-0.3,0.3-0.7,0.5-1.2,0.5c-0.5,0-0.9-0.2-1.2-0.5C553.7,187,553.5,186.5,553.5,185.8z M556.6,209.5h-2.8
			v-18.6h2.8V209.5z"/>
		<path class="st5" d="M571.3,209.9c-1.2,0-2.3-0.2-3.3-0.7c-1-0.4-1.8-1.1-2.5-2.1h-0.2c0.1,1.1,0.2,2.1,0.2,3.1v7.7h-2.8v-27h2.3
			l0.4,2.6h0.1c0.7-1,1.6-1.8,2.5-2.2c1-0.5,2.1-0.7,3.3-0.7c2.5,0,4.4,0.8,5.7,2.5c1.3,1.7,2,4.1,2,7.1c0,3.1-0.7,5.4-2.1,7.1
			C575.6,209,573.7,209.9,571.3,209.9z M570.8,193c-1.9,0-3.3,0.5-4.1,1.6c-0.9,1.1-1.3,2.7-1.3,5v0.6c0,2.6,0.4,4.5,1.3,5.6
			c0.9,1.1,2.3,1.7,4.2,1.7c1.6,0,2.9-0.7,3.8-2c0.9-1.3,1.4-3.1,1.4-5.4c0-2.3-0.5-4.1-1.4-5.4C573.8,193.6,572.5,193,570.8,193z"
			/>
		<path class="st5" d="M595.4,209.5l-0.6-2.7h-0.1c-0.9,1.2-1.9,2-2.8,2.4c-0.9,0.4-2.1,0.6-3.5,0.6c-1.8,0-3.3-0.5-4.3-1.4
			c-1-1-1.6-2.3-1.6-4.1c0-3.8,3-5.7,9-5.9l3.2-0.1v-1.2c0-1.5-0.3-2.5-0.9-3.2c-0.6-0.7-1.6-1-3-1c-1.6,0-3.3,0.5-5.3,1.4l-0.9-2.2
			c0.9-0.5,1.9-0.9,3-1.2c1.1-0.3,2.2-0.4,3.3-0.4c2.2,0,3.9,0.5,4.9,1.5c1.1,1,1.6,2.6,1.6,4.7v12.7H595.4z M589,207.6
			c1.8,0,3.1-0.5,4.1-1.4c1-1,1.5-2.3,1.5-4v-1.7l-2.8,0.1c-2.2,0.1-3.9,0.4-4.9,1c-1,0.6-1.5,1.6-1.5,2.9c0,1,0.3,1.8,0.9,2.3
			S587.9,207.6,589,207.6z"/>
		<path class="st5" d="M615.3,204.5c0,1.7-0.6,3.1-1.9,4c-1.3,0.9-3.1,1.4-5.4,1.4c-2.5,0-4.4-0.4-5.8-1.2v-2.6
			c0.9,0.5,1.9,0.8,2.9,1.1c1,0.3,2,0.4,3,0.4c1.5,0,2.6-0.2,3.4-0.7c0.8-0.5,1.2-1.2,1.2-2.2c0-0.7-0.3-1.3-0.9-1.9
			c-0.6-0.5-1.9-1.1-3.7-1.8c-1.7-0.6-3-1.2-3.7-1.7c-0.7-0.5-1.3-1-1.6-1.6c-0.4-0.6-0.5-1.3-0.5-2.2c0-1.5,0.6-2.7,1.9-3.6
			s2.9-1.3,5.1-1.3c2,0,4,0.4,5.9,1.2l-1,2.3c-1.9-0.8-3.6-1.2-5.1-1.2c-1.3,0-2.3,0.2-3,0.6c-0.7,0.4-1,1-1,1.7
			c0,0.5,0.1,0.9,0.4,1.3c0.3,0.4,0.7,0.7,1.2,1s1.7,0.8,3.3,1.4c2.2,0.8,3.7,1.6,4.5,2.4C614.9,202.2,615.3,203.2,615.3,204.5z"/>
		<path class="st5" d="M633.1,209.5l-7.1-18.6h3l4,11.1c0.9,2.6,1.4,4.3,1.6,5h0.1c0.1-0.6,0.5-1.8,1.2-3.7c0.7-1.9,2.2-6,4.5-12.4
			h3l-7.1,18.6H633.1z"/>
		<path class="st5" d="M654.3,209.9c-2.8,0-4.9-0.8-6.5-2.5c-1.6-1.7-2.4-4-2.4-7c0-3,0.7-5.4,2.2-7.2c1.5-1.8,3.5-2.7,6-2.7
			c2.3,0,4.2,0.8,5.5,2.3c1.4,1.5,2,3.6,2,6.1v1.8h-12.8c0.1,2.2,0.6,3.9,1.7,5c1,1.1,2.5,1.7,4.4,1.7c2,0,4-0.4,6-1.3v2.5
			c-1,0.4-1.9,0.7-2.8,0.9S655.6,209.9,654.3,209.9z M653.6,192.9c-1.5,0-2.7,0.5-3.6,1.5s-1.4,2.3-1.6,4h9.8c0-1.8-0.4-3.1-1.2-4.1
			C656.2,193.4,655,192.9,653.6,192.9z"/>
		<path class="st5" d="M678.8,209.5v-12.1c0-1.5-0.3-2.7-1-3.4c-0.7-0.7-1.8-1.1-3.3-1.1c-2,0-3.4,0.5-4.3,1.6
			c-0.9,1.1-1.4,2.8-1.4,5.2v9.8H666v-18.6h2.3l0.5,2.6h0.1c0.6-0.9,1.4-1.6,2.4-2.1s2.2-0.8,3.5-0.8c2.2,0,3.9,0.5,5.1,1.6
			c1.1,1.1,1.7,2.8,1.7,5.2v12.2H678.8z"/>
		<path class="st5" d="M694.8,209.9c-2.7,0-4.8-0.8-6.3-2.5c-1.5-1.7-2.2-4-2.2-7.1c0-3.1,0.8-5.5,2.3-7.2s3.6-2.6,6.4-2.6
			c0.9,0,1.8,0.1,2.7,0.3c0.9,0.2,1.6,0.4,2.1,0.7l-0.9,2.4c-0.6-0.2-1.3-0.5-2-0.6c-0.7-0.2-1.4-0.2-2-0.2c-3.8,0-5.7,2.4-5.7,7.2
			c0,2.3,0.5,4,1.4,5.3c0.9,1.2,2.3,1.8,4.1,1.8c1.6,0,3.1-0.3,4.8-1v2.5C698.3,209.6,696.7,209.9,694.8,209.9z"/>
		<path class="st5" d="M711.8,209.9c-2.8,0-4.9-0.8-6.5-2.5c-1.6-1.7-2.4-4-2.4-7c0-3,0.7-5.4,2.2-7.2c1.5-1.8,3.5-2.7,6-2.7
			c2.3,0,4.2,0.8,5.5,2.3c1.4,1.5,2,3.6,2,6.1v1.8h-12.8c0.1,2.2,0.6,3.9,1.7,5c1,1.1,2.5,1.7,4.4,1.7c2,0,4-0.4,6-1.3v2.5
			c-1,0.4-1.9,0.7-2.8,0.9S713.1,209.9,711.8,209.9z M711.1,192.9c-1.5,0-2.7,0.5-3.6,1.5s-1.4,2.3-1.6,4h9.8c0-1.8-0.4-3.1-1.2-4.1
			C713.7,193.4,712.6,192.9,711.1,192.9z"/>
		<path class="st5" d="M736.2,207h-0.2c-1.3,1.9-3.3,2.8-5.9,2.8c-2.4,0-4.3-0.8-5.7-2.5c-1.4-1.7-2-4-2-7.1c0-3.1,0.7-5.5,2-7.2
			c1.4-1.7,3.3-2.6,5.7-2.6c2.5,0,4.5,0.9,5.8,2.8h0.2l-0.1-1.3l-0.1-1.3v-7.6h2.8v26.5h-2.3L736.2,207z M730.6,207.5
			c1.9,0,3.3-0.5,4.2-1.6c0.9-1,1.3-2.7,1.3-5.1v-0.6c0-2.6-0.4-4.5-1.3-5.7s-2.3-1.7-4.2-1.7c-1.7,0-2.9,0.6-3.8,1.9
			c-0.9,1.3-1.3,3.1-1.3,5.5c0,2.4,0.4,4.2,1.3,5.4C727.6,206.9,728.9,207.5,730.6,207.5z"/>
		<path class="st5" d="M761,200.2c0,3-0.8,5.4-2.3,7.1c-1.5,1.7-3.6,2.6-6.3,2.6c-1.7,0-3.1-0.4-4.4-1.2c-1.3-0.8-2.3-1.9-3-3.4
			c-0.7-1.5-1.1-3.2-1.1-5.1c0-3,0.8-5.4,2.3-7.1c1.5-1.7,3.6-2.5,6.3-2.5c2.6,0,4.7,0.9,6.2,2.6C760.2,194.9,761,197.2,761,200.2z
			 M746.8,200.2c0,2.4,0.5,4.2,1.4,5.4s2.4,1.9,4.2,1.9c1.8,0,3.3-0.6,4.2-1.9c1-1.2,1.4-3.1,1.4-5.5c0-2.4-0.5-4.2-1.4-5.4
			c-1-1.2-2.4-1.8-4.2-1.8c-1.8,0-3.2,0.6-4.2,1.8C747.2,196,746.8,197.8,746.8,200.2z"/>
		<path class="st5" d="M774.4,190.6c0.8,0,1.6,0.1,2.2,0.2l-0.4,2.6c-0.8-0.2-1.5-0.3-2-0.3c-1.5,0-2.8,0.6-3.9,1.8
			c-1.1,1.2-1.6,2.8-1.6,4.6v10h-2.8v-18.6h2.3l0.3,3.5h0.1c0.7-1.2,1.5-2.1,2.5-2.8C772.2,190.9,773.3,190.6,774.4,190.6z"/>
		<path class="st5" d="M791.6,209.5l-0.6-2.7h-0.1c-0.9,1.2-1.9,2-2.8,2.4c-0.9,0.4-2.1,0.6-3.5,0.6c-1.8,0-3.3-0.5-4.3-1.4
			c-1-1-1.6-2.3-1.6-4.1c0-3.8,3-5.7,9-5.9l3.2-0.1v-1.2c0-1.5-0.3-2.5-0.9-3.2c-0.6-0.7-1.6-1-3-1c-1.6,0-3.3,0.5-5.3,1.4l-0.9-2.2
			c0.9-0.5,1.9-0.9,3-1.2c1.1-0.3,2.2-0.4,3.3-0.4c2.2,0,3.9,0.5,4.9,1.5c1.1,1,1.6,2.6,1.6,4.7v12.7H791.6z M785.2,207.6
			c1.8,0,3.1-0.5,4.1-1.4c1-1,1.5-2.3,1.5-4v-1.7l-2.8,0.1c-2.2,0.1-3.9,0.4-4.9,1c-1,0.6-1.5,1.6-1.5,2.9c0,1,0.3,1.8,0.9,2.3
			S784.1,207.6,785.2,207.6z"/>
		<path class="st5" d="M811.6,204.5c0,1.7-0.6,3.1-1.9,4c-1.3,0.9-3.1,1.4-5.4,1.4c-2.5,0-4.4-0.4-5.8-1.2v-2.6
			c0.9,0.5,1.9,0.8,2.9,1.1c1,0.3,2,0.4,3,0.4c1.5,0,2.6-0.2,3.4-0.7c0.8-0.5,1.2-1.2,1.2-2.2c0-0.7-0.3-1.3-0.9-1.9
			c-0.6-0.5-1.9-1.1-3.7-1.8c-1.7-0.6-3-1.2-3.7-1.7c-0.7-0.5-1.3-1-1.6-1.6c-0.4-0.6-0.5-1.3-0.5-2.2c0-1.5,0.6-2.7,1.9-3.6
			s2.9-1.3,5.1-1.3c2,0,4,0.4,5.9,1.2l-1,2.3c-1.9-0.8-3.6-1.2-5.1-1.2c-1.3,0-2.3,0.2-3,0.6c-0.7,0.4-1,1-1,1.7
			c0,0.5,0.1,0.9,0.4,1.3c0.3,0.4,0.7,0.7,1.2,1s1.7,0.8,3.3,1.4c2.2,0.8,3.7,1.6,4.5,2.4C811.2,202.2,811.6,203.2,811.6,204.5z"/>
	</g>
</g>
<g>
	<g>
		<path class="st5" d="M1004.5,87.5v-9.3h-10.2v9.3l5.1,5.1L1004.5,87.5z M991.7,90h-9.3v10.2h9.3l5.1-5.1L991.7,90z M994.3,102.7
			v9.3h10.2v-9.3l-5.1-5.1L994.3,102.7z M1007,90l-5.1,5.1l5.1,5.1h9.3V90H1007z"/>
	</g>
</g>
<g>
	<g>
		<path class="st5" d="M108.4,311.8v-6.4h-7v6.4l3.5,3.5L108.4,311.8z M99.7,313.5h-6.4v7h6.4l3.5-3.5L99.7,313.5z M101.5,322.2v6.4
			h7v-6.4l-3.5-3.5L101.5,322.2z M110.2,313.5l-3.5,3.5l3.5,3.5h6.4v-7H110.2z"/>
	</g>
</g>
</svg>
