<?xml version="1.0" encoding="utf-8"?>
<!-- Generator: Adobe Illustrator 21.0.2, SVG Export Plug-In . SVG Version: 6.00 Build 0)  -->
<svg version="1.1" id="Layer_1" xmlns="http://www.w3.org/2000/svg" xmlns:xlink="http://www.w3.org/1999/xlink" x="0px" y="0px"
	 viewBox="0 0 1140 350" style="enable-background:new 0 0 1140 350;" xml:space="preserve">
<style type="text/css">
	.st0{fill:#3C3C3B;}
	.st1{clip-path:url(#SVGID_2_);}
	.st2{fill:#D19C45;}
	.st3{clip-path:url(#SVGID_4_);}
	.st4{clip-path:url(#SVGID_6_);}
	.st5{clip-path:url(#SVGID_8_);}
	.st6{fill:#C48411;}
	.st7{fill:#EEC880;}
	.st8{clip-path:url(#SVGID_10_);}
	.st9{clip-path:url(#SVGID_12_);}
	.st10{fill:#FFFFFF;}
	.st11{fill:none;}
	.st12{enable-background:new    ;}
</style>
<rect x="2.7" y="0" class="st0" width="1136.6" height="350.2"/>
<g>
	<g>
		<defs>
			<rect id="SVGID_1_" x="2.7" y="0" width="1136.6" height="349.9"/>
		</defs>
		<clipPath id="SVGID_2_">
			<use xlink:href="#SVGID_1_"  style="overflow:visible;"/>
		</clipPath>
		<g class="st1">
			<g>
				<path class="st2" d="M-240.5-822.3l120.9,0.8L74.3-381.6L26.1-277.4H2.9L-240.5-822.3 M-280.4-848.3l266.5,596.7h56.4l60-129.7
					l-205.3-465.8L-280.4-848.3L-280.4-848.3z"/>
			</g>
		</g>
	</g>
	<g>
		<defs>
			<rect id="SVGID_3_" x="2.7" y="0" width="1136.6" height="349.9"/>
		</defs>
		<clipPath id="SVGID_4_">
			<use xlink:href="#SVGID_3_"  style="overflow:visible;"/>
		</clipPath>
		<g class="st3">
			<g>
				<path class="st2" d="M1895.5,253.6L1684.1,721l-88.3-192.3l125.8-275.1H1895.5 M1935.5,227.8H1705l-137.6,300.9l116.8,254.5
					L1935.5,227.8L1935.5,227.8z"/>
			</g>
		</g>
	</g>
	<g>
		<defs>
			<rect id="SVGID_5_" x="2.7" y="0" width="1136.6" height="349.9"/>
		</defs>
		<clipPath id="SVGID_6_">
			<use xlink:href="#SVGID_5_"  style="overflow:visible;"/>
		</clipPath>
		<g class="st4">
			<g>
				<path class="st2" d="M-145.2-331.9l51.8,74.3c-25.4,19-63.1,55.6-78.6,112.6c-13.5,49.7-7.8,99.5,17.5,151.2l-96,2.2
					c-10.4-29.2-28.8-97.5-9.7-174c6.7-26.7,17.7-52.6,32.9-77.1c12.3-19.8,27.3-38.8,44.6-56.4
					C-168.6-313.3-155.4-324.2-145.2-331.9 M-138.7-367.7c0,0-114,66-146.5,195.7C-313-60.4-267.7,34.5-267.7,34.5l157.3-3.6
					c-39-58.8-51.6-114-36.6-169.3c21-77.4,90-112.2,90-112.2L-138.7-367.7L-138.7-367.7z"/>
			</g>
		</g>
	</g>
	<g>
		<defs>
			<rect id="SVGID_7_" x="2.7" y="0" width="1136.6" height="349.9"/>
		</defs>
		<clipPath id="SVGID_8_">
			<use xlink:href="#SVGID_7_"  style="overflow:visible;"/>
		</clipPath>
		<g class="st5">
			<polygon class="st6" points="-326.1,-786.3 114,-173.3 557.8,-786.3 457.2,-786.3 115.3,-313.3 -225.8,-786.3 			"/>
			<polygon class="st6" points="405.1,-786.3 114,-384.2 -174.7,-786.3 -73.7,-786.3 115.3,-524.2 304.8,-786.3 			"/>
			<polygon class="st7" points="114,-384.2 405.1,-786.3 304.8,-786.3 115.3,-524.2 			"/>
			<polygon class="st7" points="114,-173.3 557.8,-786.3 457.2,-786.3 115.3,-313.3 			"/>
			<g>
				<g>
					<path class="st7" d="M115.9-158.8c26.9,0,52.2,10.6,71.4,29.9c19.2,19.4,29.8,45.1,29.8,72.2c0,55.8-45.4,101.2-101.2,101.2
						C89,44.6,63.7,34,44.5,14.6s-29.8-45-29.8-72.2C14.7-113.4,60.1-158.8,115.9-158.8 M115.9-226.3
						c-93.1,0-168.7,75.5-168.7,168.7s75.5,169.7,168.7,169.7S284.5,36.5,284.5-56.6S209-226.3,115.9-226.3L115.9-226.3z"/>
				</g>
			</g>
		</g>
	</g>
	<g>
		<defs>
			<rect id="SVGID_9_" x="2.7" y="0" width="1136.6" height="349.9"/>
		</defs>
		<clipPath id="SVGID_10_">
			<use xlink:href="#SVGID_9_"  style="overflow:visible;"/>
		</clipPath>
		<g class="st8">
			<polygon class="st6" points="793.8,-366.2 1182.8,176.6 1575,-366.2 1486.1,-366.2 1183.9,52.9 882.4,-366.2 			"/>
			<polygon class="st6" points="1440.1,-366.2 1182.8,-9.8 927.6,-366.2 1016.9,-366.2 1183.9,-134.5 1351.4,-366.2 			"/>
			<polygon class="st7" points="1182.8,-9.8 1440.1,-366.2 1351.4,-366.2 1183.9,-134.5 			"/>
			<polygon class="st7" points="1182.8,176.6 1575,-366.2 1486.1,-366.2 1183.9,52.9 			"/>
			<g>
				<g>
					<path class="st7" d="M1184.4,189.5c49.3,0,89.4,40.1,89.4,89.4c0,23.7-9.2,45.9-26,62.6c-16.9,16.7-39.4,25.9-63.4,25.9
						s-46.6-9.2-63.4-25.9c-16.8-16.6-26-38.8-26-62.6C1094.9,229.6,1135.1,189.5,1184.4,189.5 M1184.4,129.8
						c-82.3,0-149.1,66.7-149.1,149.1S1102.1,427,1184.4,427s149.1-65.7,149.1-148.1S1266.7,129.8,1184.4,129.8L1184.4,129.8z"/>
				</g>
			</g>
		</g>
	</g>
	<g>
		<defs>
			<rect id="SVGID_11_" x="2.7" y="0" width="1136.6" height="349.9"/>
		</defs>
		<clipPath id="SVGID_12_">
			<use xlink:href="#SVGID_11_"  style="overflow:visible;"/>
		</clipPath>
		<g class="st9">
			<polygon class="st6" points="-522.2,243.6 -82.1,856.6 361.7,244.6 261.1,244.6 -80.8,716.6 -421.9,243.6 			"/>
			<polygon class="st6" points="209,244.6 -82.1,645.7 -370.8,243.6 -269.8,243.6 -80.8,505.7 108.7,244.6 			"/>
			<polygon class="st7" points="-82.1,645.7 209,244.6 108.7,244.6 -80.8,505.7 			"/>
			<polygon class="st7" points="-82.1,856.6 361.7,244.6 261.1,244.6 -80.8,716.6 			"/>
			<g>
				<g>
					<path class="st7" d="M-80.3,871.1c55.8,0,101.2,45.4,101.2,101.2s-45.4,101.2-101.2,101.2s-101.2-45.4-101.2-101.2
						S-136.1,871.1-80.3,871.1 M-80.3,803.6c-93.1,0-168.7,75.5-168.7,168.7S-173.5,1141-80.3,1141s168.7-75.5,168.7-168.7
						S12.9,803.6-80.3,803.6L-80.3,803.6z"/>
				</g>
			</g>
		</g>
	</g>
</g>
<g>
	<g>
		<path class="st10" d="M889.9,70.5v-9.3h-10.2v9.3l5.1,5.1L889.9,70.5z M877.2,73h-9.3v10.2h9.3l5.1-5.1L877.2,73z M879.8,85.8v9.3
			H890v-9.3l-5.1-5.1L879.8,85.8z M892.5,73l-5.1,5.1l5.1,5.1h9.3V73H892.5z"/>
	</g>
</g>
<g>
	<g>
		<path class="st10" d="M107.7,181.3v-6.4h-7v6.4l3.5,3.5L107.7,181.3z M99,183.1h-6.4v7H99l3.5-3.5L99,183.1z M100.8,191.8v6.4h7
			v-6.4l-3.5-3.5L100.8,191.8z M109.5,183.1l-3.5,3.5l3.5,3.5h6.4v-7H109.5z"/>
	</g>
</g>
<rect x="169.3" y="99.6" class="st11" width="800" height="57"/>
<g class="st12">
	<path class="st10" d="M522.5,107.3c0,1.6-0.5,3-1.4,4s-2.2,1.7-3.9,2.1v0.1c2.1,0.3,3.6,0.9,4.6,2s1.5,2.4,1.5,4.1
		c0,2.4-0.8,4.3-2.5,5.7s-4.1,2-7.2,2c-1.4,0-2.6-0.1-3.7-0.3s-2.2-0.6-3.3-1.1v-2.8c1.1,0.6,2.3,1,3.6,1.3s2.5,0.4,3.6,0.4
		c4.4,0,6.7-1.7,6.7-5.2c0-3.1-2.4-4.7-7.3-4.7h-2.5v-2.5h2.6c2,0,3.6-0.4,4.8-1.3s1.8-2.1,1.8-3.7c0-1.3-0.4-2.2-1.3-3
		s-2-1.1-3.5-1.1c-1.1,0-2.2,0.2-3.2,0.5s-2.1,0.9-3.4,1.7l-1.5-2c1.1-0.8,2.3-1.5,3.6-2s2.8-0.7,4.4-0.7c2.5,0,4.4,0.6,5.8,1.7
		S522.5,105.3,522.5,107.3z"/>
	<path class="st10" d="M537.7,107c0,1.9-0.5,3.4-1.5,4.5s-2.4,1.6-4.1,1.6c-1.7,0-3.1-0.5-4.1-1.6s-1.5-2.6-1.5-4.5
		c0-1.9,0.5-3.4,1.5-4.5s2.4-1.6,4.1-1.6c1.8,0,3.2,0.5,4.1,1.6S537.7,105.1,537.7,107z M528.7,107c0,1.4,0.3,2.5,0.8,3.2
		s1.4,1.1,2.6,1.1c1.2,0,2.1-0.4,2.7-1.1s0.8-1.8,0.8-3.2c0-1.4-0.3-2.5-0.8-3.2s-1.4-1-2.7-1c-1.2,0-2.1,0.3-2.6,1
		S528.7,105.6,528.7,107z"/>
	<path class="st10" d="M554.2,127h-2.9V99.6h2.9V127z"/>
	<path class="st10" d="M563.2,107.7v12.5c0,1.6,0.4,2.7,1.1,3.5s1.8,1.2,3.4,1.2c2,0,3.5-0.6,4.4-1.7s1.4-2.9,1.4-5.4v-10.1h2.9V127
		h-2.4l-0.4-2.6h-0.2c-0.6,0.9-1.4,1.7-2.5,2.2s-2.3,0.8-3.6,0.8c-2.3,0-4.1-0.6-5.3-1.7s-1.7-2.9-1.7-5.3v-12.6H563.2z"/>
	<path class="st10" d="M598.3,107.7v1.8l-3.6,0.4c0.3,0.4,0.6,0.9,0.9,1.6s0.4,1.4,0.4,2.2c0,1.9-0.6,3.4-1.9,4.5s-3.1,1.7-5.3,1.7
		c-0.6,0-1.1,0-1.6-0.1c-1.2,0.7-1.9,1.5-1.9,2.5c0,0.5,0.2,0.9,0.7,1.2s1.2,0.4,2.2,0.4h3.4c2.1,0,3.7,0.4,4.8,1.3s1.7,2.2,1.7,3.8
		c0,2.1-0.9,3.8-2.6,4.9s-4.2,1.7-7.5,1.7c-2.5,0-4.5-0.5-5.8-1.4s-2-2.3-2-4c0-1.2,0.4-2.2,1.1-3s1.8-1.4,3.2-1.7
		c-0.5-0.2-0.9-0.6-1.2-1s-0.5-1-0.5-1.6c0-0.7,0.2-1.3,0.6-1.8s1-1,1.8-1.5c-1-0.4-1.8-1.1-2.4-2.1s-0.9-2.1-0.9-3.4
		c0-2.1,0.6-3.7,1.9-4.9s3.1-1.7,5.4-1.7c1,0,1.9,0.1,2.7,0.4H598.3z M582.9,130.2c0,1,0.4,1.8,1.3,2.4s2.1,0.8,3.8,0.8
		c2.4,0,4.3-0.4,5.4-1.1s1.8-1.7,1.8-3c0-1-0.3-1.8-1-2.2s-1.9-0.6-3.6-0.6h-3.5c-1.3,0-2.4,0.3-3.1,0.9S582.9,129,582.9,130.2z
		 M584.5,113.9c0,1.3,0.4,2.4,1.1,3.1s1.8,1,3.2,1c2.8,0,4.3-1.4,4.3-4.1c0-2.9-1.4-4.3-4.3-4.3c-1.4,0-2.4,0.4-3.2,1.1
		S584.5,112.4,584.5,113.9z"/>
	<path class="st10" d="M614.1,127l-0.6-2.7h-0.1c-1,1.2-1.9,2-2.9,2.5s-2.1,0.6-3.6,0.6c-1.9,0-3.4-0.5-4.5-1.5s-1.6-2.4-1.6-4.2
		c0-3.9,3.1-5.9,9.3-6.1l3.3-0.1v-1.2c0-1.5-0.3-2.6-1-3.3s-1.7-1.1-3.1-1.1c-1.6,0-3.4,0.5-5.4,1.5L603,109c0.9-0.5,2-0.9,3.1-1.2
		s2.3-0.4,3.4-0.4c2.3,0,4,0.5,5.1,1.5s1.7,2.7,1.7,4.9V127H614.1z M607.5,124.9c1.8,0,3.2-0.5,4.3-1.5s1.6-2.4,1.6-4.2v-1.7
		l-2.9,0.1c-2.3,0.1-4,0.4-5,1.1s-1.5,1.6-1.5,3c0,1.1,0.3,1.9,1,2.4S606.3,124.9,607.5,124.9z"/>
	<path class="st10" d="M631,107.4c0.9,0,1.6,0.1,2.3,0.2l-0.4,2.7c-0.8-0.2-1.5-0.3-2.1-0.3c-1.6,0-2.9,0.6-4,1.9s-1.7,2.8-1.7,4.7
		V127h-2.9v-19.3h2.4l0.3,3.6h0.1c0.7-1.3,1.6-2.2,2.6-2.9S629.8,107.4,631,107.4z"/>
</g>
<g>
	<rect x="285.3" y="147.5" class="st11" width="566.6" height="102.7"/>
	<g class="st12">
		<path class="st6" d="M427.5,173.3h-5.1v-20h-6.6v-4.3h18.3v4.3h-6.6V173.3z"/>
		<path class="st6" d="M437.2,150c0-1.6,0.9-2.5,2.8-2.5c1.8,0,2.8,0.8,2.8,2.5c0,0.8-0.2,1.4-0.7,1.8c-0.5,0.4-1.1,0.7-2.1,0.7
			C438.1,152.5,437.2,151.6,437.2,150z M442.5,173.3h-5.1v-18.6h5.1V173.3z"/>
		<path class="st6" d="M455.3,173.7c-5.8,0-8.7-3.2-8.7-9.5c0-3.2,0.8-5.6,2.4-7.2c1.6-1.7,3.8-2.5,6.8-2.5c2.1,0,4.1,0.4,5.8,1.3
			l-1.5,3.9c-0.8-0.3-1.5-0.6-2.2-0.8c-0.7-0.2-1.4-0.3-2.1-0.3c-2.6,0-4,1.9-4,5.6c0,3.6,1.3,5.4,4,5.4c1,0,1.9-0.1,2.7-0.4
			c0.8-0.3,1.7-0.7,2.5-1.2v4.3c-0.8,0.5-1.6,0.9-2.5,1.1C457.6,173.6,456.6,173.7,455.3,173.7z"/>
		<path class="st6" d="M470.1,163.2l2.2-2.8l5.2-5.6h5.7l-7.4,8.1l7.8,10.5h-5.8l-5.3-7.5l-2.2,1.7v5.8h-5.1v-25.8h5.1V159
			L470.1,163.2L470.1,163.2z"/>
		<path class="st6" d="M494.7,173.7c-3,0-5.3-0.8-7-2.5c-1.7-1.6-2.5-4-2.5-7c0-3.1,0.8-5.5,2.3-7.2c1.6-1.7,3.7-2.5,6.4-2.5
			c2.6,0,4.7,0.7,6.1,2.2s2.2,3.6,2.2,6.2v2.5h-12c0.1,1.4,0.5,2.6,1.3,3.4s1.9,1.2,3.4,1.2c1.1,0,2.2-0.1,3.2-0.3s2-0.6,3.1-1.1
			v3.9c-0.9,0.4-1.8,0.8-2.8,1C497.4,173.6,496.2,173.7,494.7,173.7z M494,158c-1.1,0-1.9,0.3-2.5,1c-0.6,0.7-1,1.6-1,2.9h7.1
			c0-1.3-0.3-2.2-1-2.9C495.9,158.4,495.1,158,494,158z"/>
		<path class="st6" d="M514.2,169.6c0.9,0,1.9-0.2,3.2-0.6v3.8c-1.3,0.6-2.8,0.8-4.6,0.8c-2,0-3.5-0.5-4.4-1.5
			c-0.9-1-1.4-2.6-1.4-4.6v-8.9h-2.4v-2.1l2.8-1.7l1.5-3.9h3.2v4h5.2v3.8H512v8.9c0,0.7,0.2,1.3,0.6,1.6
			C513,169.5,513.6,169.6,514.2,169.6z"/>
		<path class="st6" d="M534.1,167.8c0,1.9-0.7,3.4-2,4.3c-1.3,1-3.3,1.5-5.9,1.5c-1.4,0-2.5-0.1-3.5-0.3c-1-0.2-1.8-0.5-2.7-0.8
			v-4.2c0.9,0.4,2,0.8,3.2,1.1s2.2,0.4,3.1,0.4c1.8,0,2.8-0.5,2.8-1.6c0-0.4-0.1-0.7-0.4-1c-0.2-0.2-0.7-0.5-1.3-0.8
			c-0.6-0.3-1.4-0.7-2.4-1.1c-1.4-0.6-2.5-1.2-3.1-1.7c-0.7-0.5-1.2-1.1-1.5-1.8c-0.3-0.7-0.5-1.5-0.5-2.4c0-1.6,0.6-2.9,1.9-3.8
			c1.3-0.9,3.1-1.4,5.4-1.4c2.2,0,4.4,0.5,6.5,1.5l-1.5,3.7c-0.9-0.4-1.8-0.7-2.6-1c-0.8-0.3-1.6-0.4-2.5-0.4
			c-1.5,0-2.2,0.4-2.2,1.2c0,0.5,0.2,0.8,0.7,1.2s1.5,0.8,3.2,1.5c1.4,0.6,2.5,1.1,3.2,1.6c0.7,0.5,1.2,1.1,1.5,1.8
			C534,166.1,534.1,166.9,534.1,167.8z"/>
		<path class="st6" d="M557.6,153c-1.9,0-3.4,0.7-4.5,2.2c-1.1,1.5-1.6,3.5-1.6,6.1c0,5.4,2,8.1,6.1,8.1c1.7,0,3.8-0.4,6.2-1.3v4.3
			c-2,0.8-4.2,1.2-6.7,1.2c-3.5,0-6.2-1.1-8.1-3.2c-1.9-2.1-2.8-5.2-2.8-9.2c0-2.5,0.5-4.7,1.4-6.6c0.9-1.9,2.2-3.4,4-4.4
			c1.7-1,3.7-1.5,6.1-1.5c2.4,0,4.7,0.6,7.1,1.7l-1.7,4.2c-0.9-0.4-1.8-0.8-2.7-1.1C559.4,153.2,558.5,153,557.6,153z"/>
		<path class="st6" d="M585.4,164c0,3-0.8,5.4-2.4,7.1s-3.8,2.6-6.7,2.6c-1.8,0-3.4-0.4-4.7-1.2c-1.4-0.8-2.4-1.9-3.1-3.4
			s-1.1-3.2-1.1-5.1c0-3,0.8-5.4,2.4-7.1c1.6-1.7,3.8-2.5,6.7-2.5c1.8,0,3.4,0.4,4.7,1.2s2.4,1.9,3.1,3.3S585.4,162.1,585.4,164z
			 M572.6,164c0,1.8,0.3,3.2,0.9,4.2c0.6,0.9,1.6,1.4,2.9,1.4c1.4,0,2.3-0.5,2.9-1.4c0.6-0.9,0.9-2.3,0.9-4.2c0-1.8-0.3-3.2-0.9-4.1
			s-1.6-1.4-2.9-1.4c-1.4,0-2.3,0.5-2.9,1.4C572.9,160.8,572.6,162.2,572.6,164z"/>
		<path class="st6" d="M606.3,173.3h-5.1v-10.8c0-1.3-0.2-2.3-0.7-3c-0.4-0.7-1.2-1-2.1-1c-1.3,0-2.2,0.5-2.8,1.4s-0.9,2.5-0.9,4.7
			v8.7h-5.1v-18.6h3.9l0.7,2.4h0.3c0.5-0.9,1.2-1.5,2.2-2c0.9-0.5,2-0.7,3.2-0.7c2.8,0,4.7,0.9,5.6,2.7h0.4c0.5-0.9,1.2-1.5,2.2-2
			c1-0.5,2.1-0.7,3.3-0.7c2.1,0,3.7,0.5,4.8,1.6c1.1,1.1,1.6,2.8,1.6,5.2v12.1h-5.1v-10.8c0-1.3-0.2-2.3-0.7-3c-0.4-0.7-1.2-1-2.1-1
			c-1.2,0-2.2,0.4-2.8,1.3s-0.9,2.3-0.9,4.2V173.3z"/>
		<path class="st6" d="M622.8,150c0-1.6,0.9-2.5,2.8-2.5s2.8,0.8,2.8,2.5c0,0.8-0.2,1.4-0.7,1.8c-0.5,0.4-1.1,0.7-2.1,0.7
			C623.7,152.5,622.8,151.6,622.8,150z M628.1,173.3H623v-18.6h5.1V173.3z"/>
		<path class="st6" d="M640.9,173.7c-5.8,0-8.7-3.2-8.7-9.5c0-3.2,0.8-5.6,2.4-7.2c1.6-1.7,3.8-2.5,6.8-2.5c2.1,0,4.1,0.4,5.8,1.3
			l-1.5,3.9c-0.8-0.3-1.5-0.6-2.2-0.8c-0.7-0.2-1.4-0.3-2.1-0.3c-2.6,0-4,1.9-4,5.6c0,3.6,1.3,5.4,4,5.4c1,0,1.9-0.1,2.7-0.4
			c0.8-0.3,1.7-0.7,2.5-1.2v4.3c-0.8,0.5-1.6,0.9-2.5,1.1C643.3,173.6,642.2,173.7,640.9,173.7z"/>
		<path class="st6" d="M670.4,153c-1.9,0-3.4,0.7-4.5,2.2c-1.1,1.5-1.6,3.5-1.6,6.1c0,5.4,2,8.1,6.1,8.1c1.7,0,3.8-0.4,6.2-1.3v4.3
			c-2,0.8-4.2,1.2-6.7,1.2c-3.5,0-6.2-1.1-8.1-3.2c-1.9-2.1-2.8-5.2-2.8-9.2c0-2.5,0.5-4.7,1.4-6.6c0.9-1.9,2.2-3.4,4-4.4
			c1.7-1,3.7-1.5,6.1-1.5c2.4,0,4.7,0.6,7.1,1.7l-1.7,4.2c-0.9-0.4-1.8-0.8-2.7-1.1S671.3,153,670.4,153z"/>
		<path class="st6" d="M698.2,164c0,3-0.8,5.4-2.4,7.1s-3.8,2.6-6.7,2.6c-1.8,0-3.4-0.4-4.7-1.2c-1.4-0.8-2.4-1.9-3.1-3.4
			s-1.1-3.2-1.1-5.1c0-3,0.8-5.4,2.4-7.1s3.8-2.5,6.7-2.5c1.8,0,3.4,0.4,4.7,1.2s2.4,1.9,3.1,3.3S698.2,162.1,698.2,164z M685.4,164
			c0,1.8,0.3,3.2,0.9,4.2c0.6,0.9,1.6,1.4,2.9,1.4c1.4,0,2.3-0.5,2.9-1.4c0.6-0.9,0.9-2.3,0.9-4.2c0-1.8-0.3-3.2-0.9-4.1
			s-1.6-1.4-2.9-1.4c-1.4,0-2.3,0.5-2.9,1.4C685.7,160.8,685.4,162.2,685.4,164z"/>
		<path class="st6" d="M719.6,173.3h-5.1v-10.8c0-1.3-0.2-2.3-0.7-3c-0.5-0.7-1.2-1-2.3-1c-1.4,0-2.4,0.5-3.1,1.4
			c-0.6,0.9-0.9,2.5-0.9,4.7v8.7h-5.1v-18.6h3.9l0.7,2.4h0.3c0.6-0.9,1.3-1.6,2.3-2c1-0.5,2.1-0.7,3.4-0.7c2.2,0,3.8,0.6,4.9,1.8
			c1.1,1.2,1.7,2.9,1.7,5.1V173.3z"/>
	</g>
	<g class="st12">
		<path class="st6" d="M481,209.3h-5.1v-10.5h-9.6v10.5h-5.1v-24.3h5.1v9.5h9.6v-9.5h5.1V209.3z"/>
		<path class="st6" d="M495.1,209.7c-3,0-5.3-0.8-7-2.5c-1.7-1.6-2.5-4-2.5-7c0-3.1,0.8-5.5,2.3-7.2c1.6-1.7,3.7-2.5,6.4-2.5
			c2.6,0,4.7,0.7,6.1,2.2s2.2,3.6,2.2,6.2v2.5h-12c0.1,1.4,0.5,2.6,1.3,3.4s1.9,1.2,3.4,1.2c1.1,0,2.2-0.1,3.2-0.3s2-0.6,3.1-1.1
			v3.9c-0.9,0.4-1.8,0.8-2.8,1C497.8,209.6,496.6,209.7,495.1,209.7z M494.4,194c-1.1,0-1.9,0.3-2.5,1c-0.6,0.7-1,1.6-1,2.9h7.1
			c0-1.3-0.3-2.2-1-2.9C496.3,194.4,495.5,194,494.4,194z"/>
		<path class="st6" d="M518.6,209.3l-1-2.5h-0.1c-0.9,1.1-1.7,1.8-2.6,2.2c-0.9,0.4-2.1,0.6-3.5,0.6c-1.8,0-3.2-0.5-4.2-1.5
			c-1-1-1.5-2.5-1.5-4.3c0-2,0.7-3.4,2.1-4.4c1.4-0.9,3.5-1.5,6.2-1.6l3.2-0.1V197c0-1.9-1-2.8-2.9-2.8c-1.5,0-3.2,0.4-5.2,1.3
			l-1.7-3.4c2.1-1.1,4.5-1.7,7.1-1.7c2.5,0,4.4,0.5,5.7,1.6s2,2.7,2,4.9v12.4H518.6z M517.1,200.7l-2,0.1c-1.5,0-2.6,0.3-3.3,0.8
			c-0.7,0.5-1.1,1.2-1.1,2.2c0,1.4,0.8,2.1,2.5,2.1c1.2,0,2.1-0.3,2.8-1c0.7-0.7,1.1-1.6,1.1-2.7V200.7z"/>
		<path class="st6" d="M533.2,209.7c-2.2,0-3.9-0.8-5.1-2.5s-1.9-4-1.9-7c0-3,0.6-5.4,1.9-7.1c1.3-1.7,3-2.5,5.2-2.5
			c2.3,0,4.1,0.9,5.3,2.7h0.2c-0.3-1.4-0.4-2.6-0.4-3.7v-5.9h5.1v25.8h-3.9l-1-2.4h-0.2C537.3,208.8,535.6,209.7,533.2,209.7z
			 M535,205.6c1.3,0,2.2-0.4,2.8-1.1c0.6-0.8,0.9-2,1-3.8v-0.5c0-2-0.3-3.4-0.9-4.3s-1.6-1.3-3-1.3c-1.1,0-2,0.5-2.6,1.4
			c-0.6,1-0.9,2.3-0.9,4.2s0.3,3.2,0.9,4.1C532.9,205.2,533.8,205.6,535,205.6z"/>
		<path class="st6" d="M574.9,192.6c0,2.6-0.8,4.6-2.4,6c-1.6,1.4-4,2.1-7,2.1h-2.2v8.6h-5.1v-24.3h7.8c2.9,0,5.2,0.6,6.7,1.9
			C574.1,188.2,574.9,190.1,574.9,192.6z M563.2,196.5h1.7c1.6,0,2.8-0.3,3.6-0.9c0.8-0.6,1.2-1.5,1.2-2.7c0-1.2-0.3-2.1-1-2.7
			c-0.7-0.6-1.7-0.9-3.1-0.9h-2.3V196.5z"/>
		<path class="st6" d="M596.2,209.3h-5.1v-10.8c0-2.7-1-4-3-4c-1.4,0-2.4,0.5-3.1,1.4s-0.9,2.5-0.9,4.7v8.7H579v-25.8h5.1v5.3
			c0,0.4,0,1.4-0.1,2.9l-0.1,1.5h0.3c1.1-1.8,2.9-2.7,5.4-2.7c2.2,0,3.8,0.6,5,1.8s1.7,2.9,1.7,5V209.3z"/>
		<path class="st6" d="M618.3,200c0,3-0.8,5.4-2.4,7.1s-3.8,2.6-6.7,2.6c-1.8,0-3.4-0.4-4.7-1.2c-1.4-0.8-2.4-1.9-3.1-3.4
			s-1.1-3.2-1.1-5.1c0-3,0.8-5.4,2.4-7.1s3.8-2.5,6.7-2.5c1.8,0,3.4,0.4,4.7,1.2s2.4,1.9,3.1,3.3S618.3,198.1,618.3,200z M605.4,200
			c0,1.8,0.3,3.2,0.9,4.2c0.6,0.9,1.6,1.4,2.9,1.4c1.4,0,2.3-0.5,2.9-1.4c0.6-0.9,0.9-2.3,0.9-4.2c0-1.8-0.3-3.2-0.9-4.1
			s-1.6-1.4-2.9-1.4c-1.4,0-2.3,0.5-2.9,1.4C605.7,196.8,605.4,198.2,605.4,200z"/>
		<path class="st6" d="M639.6,209.3h-5.1v-10.8c0-1.3-0.2-2.3-0.7-3c-0.5-0.7-1.2-1-2.3-1c-1.4,0-2.4,0.5-3.1,1.4
			c-0.6,0.9-0.9,2.5-0.9,4.7v8.7h-5.1v-18.6h3.9l0.7,2.4h0.3c0.6-0.9,1.3-1.6,2.3-2c1-0.5,2.1-0.7,3.4-0.7c2.2,0,3.8,0.6,4.9,1.8
			c1.1,1.2,1.7,2.9,1.7,5.1V209.3z"/>
		<path class="st6" d="M653.2,209.7c-3,0-5.3-0.8-7-2.5s-2.5-4-2.5-7c0-3.1,0.8-5.5,2.3-7.2c1.6-1.7,3.7-2.5,6.4-2.5
			c2.6,0,4.7,0.7,6.1,2.2s2.2,3.6,2.2,6.2v2.5h-12c0.1,1.4,0.5,2.6,1.3,3.4s1.9,1.2,3.4,1.2c1.1,0,2.2-0.1,3.2-0.3s2-0.6,3.1-1.1
			v3.9c-0.9,0.4-1.8,0.8-2.8,1C655.9,209.6,654.6,209.7,653.2,209.7z M652.5,194c-1.1,0-1.9,0.3-2.5,1c-0.6,0.7-1,1.6-1,2.9h7.1
			c0-1.3-0.3-2.2-1-2.9C654.4,194.4,653.5,194,652.5,194z"/>
		<path class="st6" d="M677.8,203.8c0,1.9-0.7,3.4-2,4.3c-1.3,1-3.3,1.5-5.9,1.5c-1.4,0-2.5-0.1-3.5-0.3c-1-0.2-1.8-0.5-2.7-0.8
			v-4.2c0.9,0.4,2,0.8,3.2,1.1s2.2,0.4,3.1,0.4c1.8,0,2.8-0.5,2.8-1.6c0-0.4-0.1-0.7-0.4-1c-0.2-0.2-0.7-0.5-1.3-0.8
			c-0.6-0.3-1.4-0.7-2.4-1.1c-1.4-0.6-2.5-1.2-3.1-1.7c-0.7-0.5-1.2-1.1-1.5-1.8c-0.3-0.7-0.5-1.5-0.5-2.4c0-1.6,0.6-2.9,1.9-3.8
			c1.3-0.9,3.1-1.4,5.4-1.4c2.2,0,4.4,0.5,6.5,1.5l-1.5,3.7c-0.9-0.4-1.8-0.7-2.6-1s-1.6-0.4-2.5-0.4c-1.5,0-2.2,0.4-2.2,1.2
			c0,0.5,0.2,0.8,0.7,1.2s1.5,0.8,3.2,1.5c1.5,0.6,2.5,1.1,3.2,1.6s1.2,1.1,1.5,1.8S677.8,202.9,677.8,203.8z"/>
	</g>
	<g class="st12">
		<path class="st6" d="M489.6,245.3l-5.8-19h-0.1c0.2,3.9,0.3,6.5,0.3,7.8v11.3h-4.6v-24.3h7l5.7,18.6h0.1l6.1-18.6h7v24.3h-4.8
			v-11.5c0-0.5,0-1.2,0-1.9s0.1-2.6,0.2-5.6h-0.1l-6.3,19H489.6z"/>
		<path class="st6" d="M527.8,236c0,3-0.8,5.4-2.4,7.1s-3.8,2.6-6.7,2.6c-1.8,0-3.4-0.4-4.7-1.2c-1.4-0.8-2.4-1.9-3.1-3.4
			s-1.1-3.2-1.1-5.1c0-3,0.8-5.4,2.4-7.1c1.6-1.7,3.8-2.5,6.7-2.5c1.8,0,3.4,0.4,4.7,1.2s2.4,1.9,3.1,3.3S527.8,234.1,527.8,236z
			 M515,236c0,1.8,0.3,3.2,0.9,4.2c0.6,0.9,1.6,1.4,2.9,1.4c1.4,0,2.3-0.5,2.9-1.4c0.6-0.9,0.9-2.3,0.9-4.2c0-1.8-0.3-3.2-0.9-4.1
			s-1.6-1.4-2.9-1.4c-1.4,0-2.3,0.5-2.9,1.4C515.3,232.8,515,234.2,515,236z"/>
		<path class="st6" d="M545.2,245.3l-0.7-2.4h-0.3c-0.5,0.9-1.3,1.5-2.3,2c-1,0.5-2.1,0.7-3.4,0.7c-2.2,0-3.8-0.6-4.9-1.8
			c-1.1-1.2-1.7-2.8-1.7-5v-12.1h5.1v10.8c0,1.3,0.2,2.3,0.7,3c0.5,0.7,1.2,1,2.3,1c1.4,0,2.4-0.5,3.1-1.4c0.6-0.9,0.9-2.5,0.9-4.7
			v-8.7h5.1v18.6H545.2z"/>
		<path class="st6" d="M567.3,239.8c0,1.9-0.7,3.4-2,4.3c-1.3,1-3.3,1.5-5.9,1.5c-1.4,0-2.5-0.1-3.5-0.3c-1-0.2-1.8-0.5-2.7-0.8
			v-4.2c0.9,0.4,2,0.8,3.2,1.1s2.2,0.4,3.1,0.4c1.8,0,2.8-0.5,2.8-1.6c0-0.4-0.1-0.7-0.4-1c-0.2-0.2-0.7-0.5-1.3-0.8
			c-0.6-0.3-1.4-0.7-2.4-1.1c-1.4-0.6-2.5-1.2-3.1-1.7c-0.7-0.5-1.2-1.1-1.5-1.8c-0.3-0.7-0.5-1.5-0.5-2.4c0-1.6,0.6-2.9,1.9-3.8
			c1.3-0.9,3.1-1.4,5.4-1.4c2.2,0,4.4,0.5,6.5,1.5l-1.5,3.7c-0.9-0.4-1.8-0.7-2.6-1c-0.8-0.3-1.6-0.4-2.5-0.4
			c-1.5,0-2.2,0.4-2.2,1.2c0,0.5,0.2,0.8,0.7,1.2s1.5,0.8,3.2,1.5c1.4,0.6,2.5,1.1,3.2,1.6c0.7,0.5,1.2,1.1,1.5,1.8
			C567.1,238.1,567.3,238.9,567.3,239.8z"/>
		<path class="st6" d="M579.7,245.7c-3,0-5.3-0.8-7-2.5s-2.5-4-2.5-7c0-3.1,0.8-5.5,2.3-7.2c1.6-1.7,3.7-2.5,6.4-2.5
			c2.6,0,4.7,0.7,6.1,2.2s2.2,3.6,2.2,6.2v2.5h-12c0.1,1.4,0.5,2.6,1.3,3.4s1.9,1.2,3.4,1.2c1.1,0,2.2-0.1,3.2-0.3s2-0.6,3.1-1.1
			v3.9c-0.9,0.4-1.8,0.8-2.8,1C582.3,245.6,581.1,245.7,579.7,245.7z M578.9,230c-1.1,0-1.9,0.3-2.5,1c-0.6,0.7-1,1.6-1,2.9h7.1
			c0-1.3-0.3-2.2-1-2.9C580.9,230.4,580,230,578.9,230z"/>
		<path class="st6" d="M617.3,228.6c0,2.6-0.8,4.6-2.4,6c-1.6,1.4-4,2.1-7,2.1h-2.2v8.6h-5.1v-24.3h7.8c2.9,0,5.2,0.6,6.7,1.9
			C616.6,224.2,617.3,226.1,617.3,228.6z M605.7,232.5h1.7c1.6,0,2.8-0.3,3.6-0.9c0.8-0.6,1.2-1.5,1.2-2.7c0-1.2-0.3-2.1-1-2.7
			c-0.7-0.6-1.7-0.9-3.1-0.9h-2.3V232.5z"/>
		<path class="st6" d="M633.3,245.3l-1-2.5h-0.1c-0.9,1.1-1.7,1.8-2.6,2.2c-0.9,0.4-2.1,0.6-3.5,0.6c-1.8,0-3.2-0.5-4.2-1.5
			c-1-1-1.5-2.5-1.5-4.3c0-2,0.7-3.4,2.1-4.4c1.4-0.9,3.5-1.5,6.2-1.6l3.2-0.1V233c0-1.9-1-2.8-2.9-2.8c-1.5,0-3.2,0.4-5.2,1.3
			l-1.7-3.4c2.1-1.1,4.5-1.7,7.1-1.7c2.5,0,4.4,0.5,5.7,1.6s2,2.7,2,4.9v12.4H633.3z M631.8,236.7l-2,0.1c-1.5,0-2.6,0.3-3.3,0.8
			s-1.1,1.2-1.1,2.2c0,1.4,0.8,2.1,2.5,2.1c1.2,0,2.1-0.3,2.8-1c0.7-0.7,1.1-1.6,1.1-2.7V236.7z"/>
		<path class="st6" d="M647.9,245.7c-2.2,0-3.9-0.8-5.1-2.5s-1.9-4-1.9-7c0-3,0.6-5.4,1.9-7.1c1.3-1.7,3-2.5,5.2-2.5
			c2.3,0,4.1,0.9,5.3,2.7h0.2c-0.3-1.4-0.4-2.6-0.4-3.7v-5.9h5.1v25.8h-3.9l-1-2.4h-0.2C652.1,244.8,650.3,245.7,647.9,245.7z
			 M649.7,241.6c1.3,0,2.2-0.4,2.8-1.1c0.6-0.8,0.9-2,1-3.8v-0.5c0-2-0.3-3.4-0.9-4.3s-1.6-1.3-3-1.3c-1.1,0-2,0.5-2.6,1.4
			c-0.6,1-0.9,2.3-0.9,4.2s0.3,3.2,0.9,4.1C647.6,241.2,648.5,241.6,649.7,241.6z"/>
	</g>
</g>
</svg>
