<?xml version="1.0" encoding="utf-8"?>
<!-- Generator: Adobe Illustrator 21.0.2, SVG Export Plug-In . SVG Version: 6.00 Build 0)  -->
<svg version="1.1" id="Layer_1" xmlns="http://www.w3.org/2000/svg" xmlns:xlink="http://www.w3.org/1999/xlink" x="0px" y="0px"
	 viewBox="0 0 1140 350" style="enable-background:new 0 0 1140 350;" xml:space="preserve">
<style type="text/css">
	.st0{fill:#3C3C3B;}
	.st1{fill:#FFFFFF;}
	.st2{fill:#C48411;}
	.st3{clip-path:url(#SVGID_2_);}
	.st4{fill:#D19C45;}
	.st5{fill:#EEC880;}
</style>
<rect x="1.7" y="-0.1" class="st0" width="1136.6" height="350.2"/>
<g>
	<g>
		<path class="st1" d="M888.9,70.4V61h-10.2v9.3l5.1,5.1L888.9,70.4z M876.2,72.9h-9.3v10.2h9.3l5.1-5.1L876.2,72.9z M878.8,85.6V95
			h10.2v-9.3l-5.1-5.1L878.8,85.6z M891.5,72.9l-5.1,5.1l5.1,5.1h9.3V72.9H891.5z"/>
	</g>
</g>
<g>
	<g>
		<path class="st1" d="M106.7,181.2v-6.4h-7v6.4l3.5,3.5L106.7,181.2z M98,182.9h-6.4v7H98l3.5-3.5L98,182.9z M99.8,191.6v6.4h7
			v-6.4l-3.5-3.5L99.8,191.6z M108.5,182.9l-3.5,3.5l3.5,3.5h6.4v-7H108.5z"/>
	</g>
</g>
<g>
	<g>
		<path class="st2" d="M452,191.1h-6.5l-10.6-18.4h-0.1c0.2,3.2,0.3,5.6,0.3,6.9v11.4h-4.6v-24.3h6.5l10.5,18.2h0.1
			c-0.2-3.2-0.2-5.4-0.2-6.7v-11.5h4.6V191.1z"/>
		<path class="st2" d="M457.5,167.8c0-1.6,0.9-2.5,2.8-2.5c1.8,0,2.8,0.8,2.8,2.5c0,0.8-0.2,1.4-0.7,1.8c-0.5,0.4-1.1,0.7-2.1,0.7
			C458.4,170.3,457.5,169.4,457.5,167.8z M462.8,191.1h-5.1v-18.6h5.1V191.1z"/>
		<path class="st2" d="M485.2,191.1h-5.1v-10.8c0-1.3-0.2-2.3-0.7-3c-0.5-0.7-1.2-1-2.3-1c-1.4,0-2.4,0.5-3.1,1.4s-0.9,2.5-0.9,4.7
			v8.7h-5.1v-18.6h3.9l0.7,2.4h0.3c0.6-0.9,1.3-1.6,2.3-2c1-0.5,2.1-0.7,3.4-0.7c2.2,0,3.8,0.6,4.9,1.8c1.1,1.2,1.7,2.9,1.7,5.1
			V191.1z"/>
		<path class="st2" d="M498.3,187.4c0.9,0,1.9-0.2,3.2-0.6v3.8c-1.3,0.6-2.8,0.8-4.6,0.8c-2,0-3.5-0.5-4.4-1.5
			c-0.9-1-1.4-2.6-1.4-4.6v-8.9h-2.4v-2.1l2.8-1.7l1.5-3.9h3.2v4h5.2v3.8h-5.2v8.9c0,0.7,0.2,1.3,0.6,1.6
			C497.1,187.3,497.6,187.4,498.3,187.4z"/>
		<path class="st2" d="M513.6,191.5c-3,0-5.3-0.8-7-2.5c-1.7-1.6-2.5-4-2.5-7c0-3.1,0.8-5.5,2.3-7.2c1.6-1.7,3.7-2.5,6.4-2.5
			c2.6,0,4.7,0.7,6.1,2.2s2.2,3.6,2.2,6.2v2.5h-12c0.1,1.4,0.5,2.6,1.3,3.4s1.9,1.2,3.4,1.2c1.1,0,2.2-0.1,3.2-0.3s2-0.6,3.1-1.1
			v3.9c-0.9,0.4-1.8,0.8-2.8,1C516.3,191.4,515.1,191.5,513.6,191.5z M512.9,175.8c-1.1,0-1.9,0.3-2.5,1c-0.6,0.7-1,1.6-1,2.9h7.1
			c0-1.3-0.3-2.2-1-2.9C514.8,176.2,514,175.8,512.9,175.8z"/>
		<path class="st2" d="M542.4,191.1h-5.1v-10.8c0-1.3-0.2-2.3-0.7-3c-0.5-0.7-1.2-1-2.3-1c-1.4,0-2.4,0.5-3.1,1.4s-0.9,2.5-0.9,4.7
			v8.7h-5.1v-18.6h3.9l0.7,2.4h0.3c0.6-0.9,1.3-1.6,2.3-2c1-0.5,2.1-0.7,3.4-0.7c2.2,0,3.8,0.6,4.9,1.8c1.1,1.2,1.7,2.9,1.7,5.1
			V191.1z"/>
		<path class="st2" d="M553.5,191.5c-2.2,0-3.9-0.8-5.1-2.5s-1.9-4-1.9-7c0-3,0.6-5.4,1.9-7.1c1.3-1.7,3-2.5,5.2-2.5
			c2.3,0,4.1,0.9,5.3,2.7h0.2c-0.3-1.4-0.4-2.6-0.4-3.7v-5.9h5.1v25.8H560l-1-2.4h-0.2C557.6,190.6,555.9,191.5,553.5,191.5z
			 M555.3,187.4c1.3,0,2.2-0.4,2.8-1.1c0.6-0.8,0.9-2,1-3.8v-0.5c0-2-0.3-3.4-0.9-4.3s-1.6-1.3-3-1.3c-1.1,0-2,0.5-2.6,1.4
			c-0.6,1-0.9,2.3-0.9,4.2s0.3,3.2,0.9,4.1S554.1,187.4,555.3,187.4z"/>
		<path class="st2" d="M586,181.8c0,3-0.8,5.4-2.4,7.1s-3.8,2.6-6.7,2.6c-1.8,0-3.4-0.4-4.7-1.2s-2.4-1.9-3.1-3.4s-1.1-3.2-1.1-5.1
			c0-3,0.8-5.4,2.4-7.1c1.6-1.7,3.8-2.5,6.7-2.5c1.8,0,3.4,0.4,4.7,1.2c1.4,0.8,2.4,1.9,3.1,3.3C585.7,178.2,586,179.9,586,181.8z
			 M573.2,181.8c0,1.8,0.3,3.2,0.9,4.2c0.6,0.9,1.6,1.4,2.9,1.4c1.4,0,2.3-0.5,2.9-1.4c0.6-0.9,0.9-2.3,0.9-4.2
			c0-1.8-0.3-3.2-0.9-4.1s-1.6-1.4-2.9-1.4c-1.4,0-2.3,0.5-2.9,1.4S573.2,180,573.2,181.8z"/>
		<path class="st2" d="M613.8,184.4c0,2.2-0.8,3.9-2.4,5.2s-3.8,1.9-6.6,1.9c-2.6,0-4.9-0.5-6.9-1.5v-4.8c1.6,0.7,3,1.2,4.2,1.5
			c1.1,0.3,2.2,0.4,3.1,0.4c1.1,0,2-0.2,2.6-0.6c0.6-0.4,0.9-1.1,0.9-1.9c0-0.5-0.1-0.9-0.4-1.3c-0.3-0.4-0.7-0.7-1.2-1.1
			s-1.6-0.9-3.1-1.6c-1.5-0.7-2.6-1.4-3.3-2s-1.3-1.4-1.8-2.2c-0.4-0.9-0.7-1.8-0.7-3c0-2.1,0.7-3.8,2.2-5.1c1.5-1.2,3.5-1.8,6-1.8
			c1.3,0,2.5,0.1,3.6,0.4s2.3,0.7,3.6,1.3l-1.7,4c-1.3-0.5-2.4-0.9-3.2-1.1c-0.8-0.2-1.7-0.3-2.5-0.3c-1,0-1.7,0.2-2.2,0.7
			c-0.5,0.5-0.8,1-0.8,1.8c0,0.5,0.1,0.8,0.3,1.2c0.2,0.3,0.5,0.7,1,1c0.5,0.3,1.5,0.9,3.3,1.7c2.3,1.1,3.8,2.2,4.7,3.3
			C613.3,181.5,613.8,182.8,613.8,184.4z"/>
		<path class="st2" d="M633,191.1l-1.4-6.5l-1.9-8.2h-0.1l-3.4,14.7h-5.4l-5.3-18.6h5l2.1,8.2c0.3,1.5,0.7,3.5,1,6.1h0.1
			c0-0.8,0.2-2.2,0.6-4l0.3-1.4l2.3-8.9h5.6l2.2,8.9c0,0.2,0.1,0.6,0.2,1.1c0.1,0.5,0.2,1,0.3,1.5c0.1,0.5,0.2,1.1,0.2,1.6
			c0.1,0.5,0.1,0.9,0.1,1.2h0.1c0.1-0.8,0.3-1.9,0.5-3.3c0.3-1.4,0.4-2.3,0.5-2.8l2.2-8.2h5l-5.3,18.6H633z"/>
		<path class="st2" d="M646.7,167.8c0-1.6,0.9-2.5,2.8-2.5s2.8,0.8,2.8,2.5c0,0.8-0.2,1.4-0.7,1.8c-0.5,0.4-1.1,0.7-2.1,0.7
			C647.6,170.3,646.7,169.4,646.7,167.8z M651.9,191.1h-5.1v-18.6h5.1V191.1z"/>
		<path class="st2" d="M665.1,187.4c0.9,0,1.9-0.2,3.2-0.6v3.8c-1.3,0.6-2.8,0.8-4.6,0.8c-2,0-3.5-0.5-4.4-1.5
			c-0.9-1-1.4-2.6-1.4-4.6v-8.9h-2.4v-2.1l2.8-1.7l1.5-3.9h3.2v4h5.2v3.8h-5.2v8.9c0,0.7,0.2,1.3,0.6,1.6
			C663.9,187.3,664.4,187.4,665.1,187.4z"/>
		<path class="st2" d="M679.5,191.5c-5.8,0-8.7-3.2-8.7-9.5c0-3.2,0.8-5.6,2.4-7.2s3.8-2.5,6.8-2.5c2.1,0,4.1,0.4,5.8,1.3l-1.5,3.9
			c-0.8-0.3-1.5-0.6-2.2-0.8c-0.7-0.2-1.4-0.3-2.1-0.3c-2.6,0-4,1.9-4,5.6c0,3.6,1.3,5.4,4,5.4c1,0,1.9-0.1,2.7-0.4
			c0.8-0.3,1.7-0.7,2.5-1.2v4.3c-0.8,0.5-1.6,0.9-2.5,1.1C681.9,191.4,680.8,191.5,679.5,191.5z"/>
		<path class="st2" d="M706.6,191.1h-5.1v-10.8c0-2.7-1-4-3-4c-1.4,0-2.4,0.5-3.1,1.4s-0.9,2.5-0.9,4.7v8.7h-5.1v-25.8h5.1v5.3
			c0,0.4,0,1.4-0.1,2.9l-0.1,1.5h0.3c1.1-1.8,2.9-2.7,5.4-2.7c2.2,0,3.8,0.6,5,1.8c1.1,1.2,1.7,2.9,1.7,5V191.1z"/>
		<path class="st2" d="M435.6,227.1h-5.1v-20h-6.6v-4.3h18.3v4.3h-6.6V227.1z"/>
		<path class="st2" d="M445.4,203.8c0-1.6,0.9-2.5,2.8-2.5c1.8,0,2.8,0.8,2.8,2.5c0,0.8-0.2,1.4-0.7,1.8c-0.5,0.4-1.1,0.7-2.1,0.7
			C446.3,206.3,445.4,205.4,445.4,203.8z M450.6,227.1h-5.1v-18.6h5.1V227.1z"/>
		<path class="st2" d="M463.5,227.5c-5.8,0-8.7-3.2-8.7-9.5c0-3.2,0.8-5.6,2.4-7.2c1.6-1.7,3.8-2.5,6.8-2.5c2.1,0,4.1,0.4,5.8,1.3
			l-1.5,3.9c-0.8-0.3-1.5-0.6-2.2-0.8c-0.7-0.2-1.4-0.3-2.1-0.3c-2.6,0-4,1.9-4,5.6c0,3.6,1.3,5.4,4,5.4c1,0,1.9-0.1,2.7-0.4
			c0.8-0.3,1.7-0.7,2.5-1.2v4.3c-0.8,0.5-1.6,0.9-2.5,1.1C465.8,227.4,464.8,227.5,463.5,227.5z"/>
		<path class="st2" d="M478.3,217l2.2-2.8l5.2-5.6h5.7l-7.4,8.1l7.8,10.5H486l-5.3-7.5l-2.2,1.7v5.8h-5.1v-25.8h5.1v11.5L478.3,217
			L478.3,217z"/>
		<path class="st2" d="M502.9,227.5c-3,0-5.3-0.8-7-2.5c-1.7-1.6-2.5-4-2.5-7c0-3.1,0.8-5.5,2.3-7.2c1.6-1.7,3.7-2.5,6.4-2.5
			c2.6,0,4.7,0.7,6.1,2.2s2.2,3.6,2.2,6.2v2.5h-12c0.1,1.4,0.5,2.6,1.3,3.4s1.9,1.2,3.4,1.2c1.1,0,2.2-0.1,3.2-0.3s2-0.6,3.1-1.1
			v3.9c-0.9,0.4-1.8,0.8-2.8,1C505.6,227.4,504.4,227.5,502.9,227.5z M502.2,211.8c-1.1,0-1.9,0.3-2.5,1c-0.6,0.7-1,1.6-1,2.9h7.1
			c0-1.3-0.3-2.2-1-2.9S503.3,211.8,502.2,211.8z"/>
		<path class="st2" d="M522.4,223.4c0.9,0,1.9-0.2,3.2-0.6v3.8c-1.3,0.6-2.8,0.8-4.6,0.8c-2,0-3.5-0.5-4.4-1.5
			c-0.9-1-1.4-2.6-1.4-4.6v-8.9h-2.4v-2.1l2.8-1.7l1.5-3.9h3.2v4h5.2v3.8h-5.2v8.9c0,0.7,0.2,1.3,0.6,1.6
			C521.2,223.3,521.8,223.4,522.4,223.4z"/>
		<path class="st2" d="M548.9,206.8c-1.9,0-3.4,0.7-4.5,2.2c-1.1,1.5-1.6,3.5-1.6,6.1c0,5.4,2,8.1,6.1,8.1c1.7,0,3.8-0.4,6.2-1.3
			v4.3c-2,0.8-4.2,1.2-6.7,1.2c-3.5,0-6.2-1.1-8.1-3.2c-1.9-2.1-2.8-5.2-2.8-9.2c0-2.5,0.5-4.7,1.4-6.6c0.9-1.9,2.2-3.4,4-4.4
			c1.7-1,3.7-1.5,6.1-1.5c2.4,0,4.7,0.6,7.1,1.7l-1.7,4.2c-0.9-0.4-1.8-0.8-2.7-1.1C550.7,207,549.8,206.8,548.9,206.8z"/>
		<path class="st2" d="M576.7,217.8c0,3-0.8,5.4-2.4,7.1s-3.8,2.6-6.7,2.6c-1.8,0-3.4-0.4-4.7-1.2s-2.4-1.9-3.1-3.4
			s-1.1-3.2-1.1-5.1c0-3,0.8-5.4,2.4-7.1c1.6-1.7,3.8-2.5,6.7-2.5c1.8,0,3.4,0.4,4.7,1.2s2.4,1.9,3.1,3.3S576.7,215.9,576.7,217.8z
			 M563.9,217.8c0,1.8,0.3,3.2,0.9,4.2c0.6,0.9,1.6,1.4,2.9,1.4c1.4,0,2.3-0.5,2.9-1.4c0.6-0.9,0.9-2.3,0.9-4.2
			c0-1.8-0.3-3.2-0.9-4.1s-1.6-1.4-2.9-1.4c-1.4,0-2.3,0.5-2.9,1.4S563.9,216,563.9,217.8z"/>
		<path class="st2" d="M597.5,227.1h-5.1v-10.8c0-1.3-0.2-2.3-0.7-3c-0.4-0.7-1.2-1-2.1-1c-1.3,0-2.2,0.5-2.8,1.4
			c-0.6,1-0.9,2.5-0.9,4.7v8.7h-5.1v-18.6h3.9l0.7,2.4h0.3c0.5-0.9,1.2-1.5,2.2-2c0.9-0.5,2-0.7,3.2-0.7c2.8,0,4.7,0.9,5.6,2.7h0.4
			c0.5-0.9,1.2-1.5,2.2-2s2.1-0.7,3.3-0.7c2.1,0,3.7,0.5,4.8,1.6s1.6,2.8,1.6,5.2v12.1H604v-10.8c0-1.3-0.2-2.3-0.7-3
			c-0.4-0.7-1.2-1-2.1-1c-1.2,0-2.2,0.4-2.8,1.3s-0.9,2.3-0.9,4.2V227.1z"/>
		<path class="st2" d="M614.1,203.8c0-1.6,0.9-2.5,2.8-2.5c1.8,0,2.8,0.8,2.8,2.5c0,0.8-0.2,1.4-0.7,1.8c-0.5,0.4-1.1,0.7-2.1,0.7
			C615,206.3,614.1,205.4,614.1,203.8z M619.4,227.1h-5.1v-18.6h5.1V227.1z"/>
		<path class="st2" d="M632.2,227.5c-5.8,0-8.7-3.2-8.7-9.5c0-3.2,0.8-5.6,2.4-7.2c1.6-1.7,3.8-2.5,6.8-2.5c2.1,0,4.1,0.4,5.8,1.3
			l-1.5,3.9c-0.8-0.3-1.5-0.6-2.2-0.8c-0.7-0.2-1.4-0.3-2.1-0.3c-2.6,0-4,1.9-4,5.6c0,3.6,1.3,5.4,4,5.4c1,0,1.9-0.1,2.7-0.4
			c0.8-0.3,1.7-0.7,2.5-1.2v4.3c-0.8,0.5-1.6,0.9-2.5,1.1S633.5,227.5,632.2,227.5z"/>
		<path class="st2" d="M661.7,206.8c-1.9,0-3.4,0.7-4.5,2.2c-1.1,1.5-1.6,3.5-1.6,6.1c0,5.4,2,8.1,6.1,8.1c1.7,0,3.8-0.4,6.2-1.3
			v4.3c-2,0.8-4.2,1.2-6.7,1.2c-3.5,0-6.2-1.1-8.1-3.2c-1.9-2.1-2.8-5.2-2.8-9.2c0-2.5,0.5-4.7,1.4-6.6c0.9-1.9,2.2-3.4,4-4.4
			s3.7-1.5,6.1-1.5c2.4,0,4.7,0.6,7.1,1.7l-1.7,4.2c-0.9-0.4-1.8-0.8-2.7-1.1C663.5,207,662.6,206.8,661.7,206.8z"/>
		<path class="st2" d="M689.5,217.8c0,3-0.8,5.4-2.4,7.1s-3.8,2.6-6.7,2.6c-1.8,0-3.4-0.4-4.7-1.2s-2.4-1.9-3.1-3.4
			s-1.1-3.2-1.1-5.1c0-3,0.8-5.4,2.4-7.1c1.6-1.7,3.8-2.5,6.7-2.5c1.8,0,3.4,0.4,4.7,1.2s2.4,1.9,3.1,3.3S689.5,215.9,689.5,217.8z
			 M676.7,217.8c0,1.8,0.3,3.2,0.9,4.2s1.6,1.4,2.9,1.4c1.3,0,2.3-0.5,2.9-1.4c0.6-0.9,0.9-2.3,0.9-4.2c0-1.8-0.3-3.2-0.9-4.1
			s-1.6-1.4-2.9-1.4c-1.4,0-2.3,0.5-2.9,1.4S676.7,216,676.7,217.8z"/>
		<path class="st2" d="M710.8,227.1h-5.1v-10.8c0-1.3-0.2-2.3-0.7-3c-0.5-0.7-1.2-1-2.3-1c-1.4,0-2.4,0.5-3.1,1.4s-0.9,2.5-0.9,4.7
			v8.7h-5.1v-18.6h3.9l0.7,2.4h0.3c0.6-0.9,1.3-1.6,2.3-2c1-0.5,2.1-0.7,3.4-0.7c2.2,0,3.8,0.6,4.9,1.8c1.1,1.2,1.7,2.9,1.7,5.1
			V227.1z"/>
	</g>
</g>
<g>
	<path class="st1" d="M516.4,144.8h-2.8v-18.3c0-1.5,0-3,0.1-4.3c-0.2,0.2-0.5,0.5-0.8,0.8s-1.7,1.4-4.2,3.4l-1.5-2l6.8-5.3h2.5
		V144.8z"/>
	<path class="st1" d="M536.7,124.8c0,1.9-0.5,3.4-1.5,4.5s-2.4,1.6-4.1,1.6c-1.7,0-3.1-0.5-4.1-1.6s-1.5-2.6-1.5-4.5
		c0-1.9,0.5-3.4,1.5-4.5s2.4-1.6,4.1-1.6c1.8,0,3.2,0.5,4.1,1.6S536.7,122.9,536.7,124.8z M527.7,124.8c0,1.4,0.3,2.5,0.8,3.2
		s1.4,1.1,2.6,1.1c1.2,0,2.1-0.4,2.7-1.1s0.8-1.8,0.8-3.2c0-1.4-0.3-2.5-0.8-3.2s-1.4-1-2.7-1c-1.2,0-2.1,0.3-2.6,1
		S527.7,123.4,527.7,124.8z"/>
	<path class="st1" d="M553.2,144.8h-2.9v-27.4h2.9V144.8z"/>
	<path class="st1" d="M562.2,125.5V138c0,1.6,0.4,2.7,1.1,3.5s1.8,1.2,3.4,1.2c2,0,3.5-0.6,4.4-1.7s1.4-2.9,1.4-5.4v-10.1h2.9v19.3
		h-2.4l-0.4-2.6h-0.2c-0.6,0.9-1.4,1.7-2.5,2.2s-2.3,0.8-3.6,0.8c-2.3,0-4.1-0.6-5.3-1.7s-1.7-2.9-1.7-5.3v-12.6H562.2z"/>
	<path class="st1" d="M597.3,125.5v1.8l-3.6,0.4c0.3,0.4,0.6,0.9,0.9,1.6s0.4,1.4,0.4,2.2c0,1.9-0.6,3.4-1.9,4.5s-3.1,1.7-5.3,1.7
		c-0.6,0-1.1,0-1.6-0.1c-1.2,0.7-1.9,1.5-1.9,2.5c0,0.5,0.2,0.9,0.7,1.2s1.2,0.4,2.2,0.4h3.4c2.1,0,3.7,0.4,4.8,1.3s1.7,2.2,1.7,3.8
		c0,2.1-0.9,3.8-2.6,4.9s-4.2,1.7-7.5,1.7c-2.5,0-4.5-0.5-5.8-1.4s-2-2.3-2-4c0-1.2,0.4-2.2,1.1-3s1.8-1.4,3.2-1.7
		c-0.5-0.2-0.9-0.6-1.2-1s-0.5-1-0.5-1.6c0-0.7,0.2-1.3,0.6-1.8s1-1,1.8-1.5c-1-0.4-1.8-1.1-2.4-2.1s-0.9-2.1-0.9-3.4
		c0-2.1,0.6-3.7,1.9-4.9s3.1-1.7,5.4-1.7c1,0,1.9,0.1,2.7,0.4H597.3z M581.9,148c0,1,0.4,1.8,1.3,2.4s2.1,0.8,3.8,0.8
		c2.4,0,4.3-0.4,5.4-1.1s1.8-1.7,1.8-3c0-1-0.3-1.8-1-2.2s-1.9-0.6-3.6-0.6h-3.5c-1.3,0-2.4,0.3-3.1,0.9S581.9,146.8,581.9,148z
		 M583.5,131.7c0,1.3,0.4,2.4,1.1,3.1s1.8,1,3.2,1c2.8,0,4.3-1.4,4.3-4.1c0-2.9-1.4-4.3-4.3-4.3c-1.4,0-2.4,0.4-3.2,1.1
		S583.5,130.2,583.5,131.7z"/>
	<path class="st1" d="M613.1,144.8l-0.6-2.7h-0.1c-1,1.2-1.9,2-2.9,2.5s-2.1,0.6-3.6,0.6c-1.9,0-3.4-0.5-4.5-1.5s-1.6-2.4-1.6-4.2
		c0-3.9,3.1-5.9,9.3-6.1l3.3-0.1V132c0-1.5-0.3-2.6-1-3.3s-1.7-1.1-3.1-1.1c-1.6,0-3.4,0.5-5.4,1.5l-0.9-2.2c0.9-0.5,2-0.9,3.1-1.2
		s2.3-0.4,3.4-0.4c2.3,0,4,0.5,5.1,1.5s1.7,2.7,1.7,4.9v13.1H613.1z M606.5,142.7c1.8,0,3.2-0.5,4.3-1.5s1.6-2.4,1.6-4.2v-1.7
		l-2.9,0.1c-2.3,0.1-4,0.4-5,1.1s-1.5,1.6-1.5,3c0,1.1,0.3,1.9,1,2.4S605.3,142.7,606.5,142.7z"/>
	<path class="st1" d="M630,125.1c0.9,0,1.6,0.1,2.3,0.2l-0.4,2.7c-0.8-0.2-1.5-0.3-2.1-0.3c-1.6,0-2.9,0.6-4,1.9s-1.7,2.8-1.7,4.7
		v10.3h-2.9v-19.3h2.4l0.3,3.6h0.1c0.7-1.3,1.6-2.2,2.6-2.9S628.8,125.1,630,125.1z"/>
</g>
<g>
	<defs>
		<rect id="SVGID_1_" x="1.7" y="-0.1" width="1136.6" height="349.9"/>
	</defs>
	<clipPath id="SVGID_2_">
		<use xlink:href="#SVGID_1_"  style="overflow:visible;"/>
	</clipPath>
	<g class="st3">
		<g>
			<path class="st4" d="M-241.5-821.4l120.9,0.8L73.3-380.7L25.1-276.5H1.9L-241.5-821.4 M-281.4-847.4l266.5,596.7h56.4l60-129.7
				l-205.3-465.8L-281.4-847.4L-281.4-847.4z"/>
		</g>
	</g>
	<g class="st3">
		<g>
			<path class="st4" d="M1894.5,254.5l-211.5,467.4l-88.3-192.3l125.8-275.1H1894.5 M1934.5,228.7H1704l-137.6,300.9l116.8,254.5
				L1934.5,228.7L1934.5,228.7z"/>
		</g>
	</g>
	<g class="st3">
		<g>
			<path class="st4" d="M-146.2-331l51.8,74.3c-25.4,19-63.1,55.6-78.6,112.6c-13.5,49.7-7.8,99.5,17.5,151.2l-95.9,2.2
				c-3.5-10-8-24.4-11.6-42c-4.1-20.1-6.3-40.4-6.4-60.3c-0.2-24.6,2.5-48.8,8.3-71.7c6.7-26.7,17.7-52.6,32.9-77
				c12.3-19.8,27.3-38.8,44.6-56.4C-169.6-312.4-156.4-323.3-146.2-331 M-139.7-366.8c0,0-114,66-146.5,195.7
				C-314-59.5-268.7,35.4-268.7,35.4l157.3-3.6c-39-58.8-51.6-114-36.6-169.3c21-77.4,90-112.2,90-112.2L-139.7-366.8L-139.7-366.8z
				"/>
		</g>
	</g>
	<g class="st3">
		<polygon class="st2" points="-327.1,-785.4 113,-172.4 556.8,-785.4 456.2,-785.4 114.3,-312.5 -226.8,-785.4 		"/>
		<polygon class="st2" points="404.1,-785.4 113,-383.3 -175.7,-785.4 -74.7,-785.4 114.3,-523.3 303.8,-785.4 		"/>
		<polygon class="st5" points="113,-383.3 404.1,-785.4 303.8,-785.4 114.3,-523.3 		"/>
		<polygon class="st5" points="113,-172.4 556.8,-785.4 456.2,-785.4 114.3,-312.5 		"/>
		<g>
			<g>
				<path class="st5" d="M114.9-157.9c55.8,0,101.2,45.4,101.2,101.2S170.7,44.5,114.9,44.5S13.7-0.9,13.7-56.7
					S59.1-157.9,114.9-157.9 M114.9-225.4c-93.1,0-168.7,75.5-168.7,168.7s75.5,168.7,168.7,168.7S283.5,36.4,283.5-56.7
					S208-225.4,114.9-225.4L114.9-225.4z"/>
			</g>
		</g>
	</g>
	<g class="st3">
		<polygon class="st2" points="792.8,-365.3 1181.8,176.5 1574,-365.3 1485.1,-365.3 1182.9,52.7 881.4,-365.3 		"/>
		<polygon class="st2" points="1439.1,-365.3 1181.8,-9.9 926.6,-365.3 1015.9,-365.3 1182.9,-133.7 1350.4,-365.3 		"/>
		<polygon class="st5" points="1181.8,-9.9 1439.1,-365.3 1350.4,-365.3 1182.9,-133.7 		"/>
		<polygon class="st5" points="1181.8,176.5 1574,-365.3 1485.1,-365.3 1182.9,52.7 		"/>
		<g>
			<g>
				<path class="st5" d="M1183.4,189.3c49.3,0,89.4,40.1,89.4,89.4s-40.1,89.4-89.4,89.4s-89.4-40.1-89.4-89.4
					S1134.1,189.3,1183.4,189.3 M1183.4,129.7c-82.3,0-149.1,66.7-149.1,149.1s66.7,149.1,149.1,149.1
					c82.3,0,149.1-66.7,149.1-149.1S1265.7,129.7,1183.4,129.7L1183.4,129.7z"/>
			</g>
		</g>
	</g>
	<g class="st3">
		<polygon class="st2" points="-523.2,244.5 -83.1,857.5 360.7,244.5 260.1,244.5 -81.8,717.4 -422.9,244.5 		"/>
		<polygon class="st2" points="208,244.5 -83.1,646.6 -371.8,244.5 -270.8,244.5 -81.8,506.6 107.7,244.5 		"/>
		<polygon class="st5" points="-83.1,646.6 208,244.5 107.7,244.5 -81.8,506.6 		"/>
		<polygon class="st5" points="-83.1,857.5 360.7,244.5 260.1,244.5 -81.8,717.4 		"/>
		<g>
			<g>
				<path class="st5" d="M-81.3,872c55.8,0,101.2,45.4,101.2,101.2c0,55.8-45.4,101.2-101.2,101.2s-101.2-45.4-101.2-101.2
					C-182.4,917.4-137.1,872-81.3,872 M-81.3,804.5c-93.1,0-168.7,75.5-168.7,168.7s75.5,168.7,168.7,168.7s168.7-75.5,168.7-168.7
					S11.9,804.5-81.3,804.5L-81.3,804.5z"/>
			</g>
		</g>
	</g>
</g>
</svg>
