<?xml version="1.0" encoding="UTF-8"?>
<!-- Generator: Adobe Illustrator 21.0.2, SVG Export Plug-In . SVG Version: 6.00 Build 0)  -->
<svg version="1.1" id="Layer_1" xmlns="http://www.w3.org/2000/svg" xmlns:xlink="http://www.w3.org/1999/xlink" x="0px" y="0px" viewBox="0 0 1140 350" style="enable-background:new 0 0 1140 350;" xml:space="preserve">
<style type="text/css">
	.st0{fill:#3C3C3B;}
	.st1{clip-path:url(#SVGID_2_);}
	.st2{fill:#D29D46;}
	.st3{fill:#C58511;}
	.st4{fill:#EFC981;}
	.st5{fill:#FFFFFF;}
	.st6{fill:none;}
	.st7{font-family:'OpenSans-Bold';}
	.st8{font-size:60px;}
	.st9{font-family:'OpenSans';}
	.st10{font-size:36px;}
	.st11{fill:#C4850F;}
	.st12{fill:#C3850F;}
</style>
<rect x="3.4" class="st0" width="1136.6" height="350.2"/>
<g>
	<defs>
		<rect id="SVGID_1_" x="3.4" width="1136.6" height="349.9"/>
	</defs>
	<clipPath id="SVGID_2_">
		<use xlink:href="#SVGID_1_" style="overflow:visible;"/>
	</clipPath>
	<g class="st1">
		<g>
			<path class="st2" d="M-239.8-821.3l120.9,0.8L75-380.6L26.8-276.4H3.6L-239.8-821.3 M-279.7-847.3l266.5,596.7h56.4l60-129.7     L-102-846.1L-279.7-847.3L-279.7-847.3z"/>
		</g>
	</g>
	<g class="st1">
		<g>
			<path class="st2" d="M272.2-352.2L123.5-23.6L64.4-152.3l91.4-199.9H272.2 M312.2-378H139.3L36.1-152.3l87.6,190.9L312.2-378     L312.2-378z"/>
		</g>
	</g>
	<g class="st1">
		<g>
			<path class="st2" d="M1896.2,254.6L1684.7,722l-88.3-192.3l125.8-275.1H1896.2 M1936.2,228.8h-230.5l-137.6,300.9l116.8,254.5     L1936.2,228.8L1936.2,228.8z"/>
		</g>
	</g>
	<g class="st1">
		<g>
			<path class="st2" d="M-144.5-330.9l51.8,74.3c-25.4,19-63.1,55.6-78.6,112.6c-13.5,49.7-7.8,99.5,17.5,151.2l-96,2.2     c-10.4-29.2-28.8-97.5-9.7-174c6.7-26.7,17.7-52.6,32.9-77.1c12.3-19.8,27.3-38.8,44.6-56.4     C-167.9-312.3-154.7-323.2-144.5-330.9 M-138-366.7c0,0-114.1,66-146.5,195.7C-312.3-59.4-267,35.5-267,35.5l157.3-3.6     c-39-58.8-51.6-114-36.6-169.3c21-77.4,90-112.2,90-112.2L-138-366.7L-138-366.7z"/>
		</g>
	</g>
	<g class="st1">
		<polygon class="st3" points="-438.6,-664.6 1.5,-51.6 445.3,-664.6 344.7,-664.6 2.8,-191.6 -338.2,-664.6   "/>
		<polygon class="st3" points="292.7,-664.6 1.5,-262.4 -287.2,-664.6 -186.2,-664.5 2.8,-402.5 192.3,-664.6   "/>
		<polygon class="st4" points="1.5,-262.4 292.7,-664.6 192.3,-664.6 2.8,-402.5   "/>
		<polygon class="st4" points="1.5,-51.6 445.3,-664.6 344.7,-664.6 2.8,-191.6   "/>
		<g>
			<g>
				<path class="st4" d="M3.4-37C59.2-37,104.6,8.4,104.6,64.2S59.2,165.3,3.4,165.3S-97.8,120-97.8,64.2S-52.4-37,3.4-37       M3.4-104.5c-93.1,0-168.7,75.5-168.7,168.7S-89.8,232.8,3.4,232.8S172,157.3,172,64.2S96.5-104.5,3.4-104.5L3.4-104.5z"/>
			</g>
		</g>
	</g>
	<g class="st1">
		<polygon class="st3" points="834.2,-624.1 1274.3,-11.1 1718.1,-624.1 1617.5,-624.1 1275.6,-151.1 934.5,-624.1   "/>
		<polygon class="st3" points="1565.4,-624.1 1274.3,-222 985.6,-624.1 1086.6,-624.1 1275.6,-362 1465.1,-624.1   "/>
		<polygon class="st4" points="1274.3,-222 1565.4,-624.1 1465.1,-624.1 1275.6,-362   "/>
		<polygon class="st4" points="1274.3,-11.1 1718.1,-624.1 1617.5,-624.1 1275.6,-151.1   "/>
		<g>
			<g>
				<path class="st4" d="M1276.1,3.4c55.8,0,101.2,45.4,101.2,101.2s-45.4,101.2-101.2,101.2s-101.2-45.4-101.2-101.2      S1220.3,3.4,1276.1,3.4 M1276.1-64.1c-93.1,0-168.7,75.5-168.7,168.7s75.5,168.7,168.7,168.7c93.1,0,168.7-75.5,168.7-168.7      S1369.3-64.1,1276.1-64.1L1276.1-64.1z"/>
			</g>
		</g>
	</g>
	<g class="st1">
		<polygon class="st3" points="285.7,328.6 725.8,941.6 1169.5,328.6 1069,328.6 727,801.6 386,328.6   "/>
		<polygon class="st3" points="1016.9,328.6 725.8,730.7 437.1,328.6 538.1,328.6 727,590.7 916.5,328.6   "/>
		<polygon class="st4" points="725.8,730.7 1016.9,328.6 916.5,328.6 727,590.7   "/>
		<polygon class="st4" points="725.8,941.6 1169.5,328.6 1069,328.6 727,801.6   "/>
		<g>
			<g>
				<path class="st4" d="M727.6,956.1c55.8,0,101.2,45.4,101.2,101.2s-45.4,101.2-101.2,101.2s-101.2-45.4-101.2-101.2      S671.8,956.1,727.6,956.1 M727.6,888.6c-93.1,0-168.7,75.5-168.7,168.7c0,93.1,75.5,168.7,168.7,168.7s168.7-75.5,168.7-168.7      C896.3,964.1,820.7,888.6,727.6,888.6L727.6,888.6z"/>
			</g>
		</g>
	</g>
</g>
<g>
	<g>
		<path class="st5" d="M1004.5,87.5v-9.3h-10.2v9.3l5.1,5.1L1004.5,87.5z M991.7,90h-9.3v10.2h9.3l5.1-5.1L991.7,90z M994.3,102.7    v9.3h10.2v-9.3l-5.1-5.1L994.3,102.7z M1007,90l-5.1,5.1l5.1,5.1h9.3V90H1007z"/>
	</g>
</g>
<g>
	<g>
		<path class="st5" d="M108.4,311.8v-6.4h-7v6.4l3.5,3.5L108.4,311.8z M99.7,313.5h-6.4v7h6.4l3.5-3.5L99.7,313.5z M101.5,322.2v6.4    h7v-6.4l-3.5-3.5L101.5,322.2z M110.2,313.5l-3.5,3.5l3.5,3.5h6.4v-7H110.2z"/>
	</g>
</g>
<g>
	<rect x="184.3" y="127.5" class="st6" width="774.7" height="94.9"/>
	<text transform="matrix(1 0 0 1 385.7903 173.1232)"><tspan x="0" y="0" class="st3 st7 st8">LUCKY SHOT</tspan><tspan x="1.2" y="43.2" class="st5 st9 st10">é o tema apresentado</tspan></text>
</g>
<g>
	<g>
		<path class="st11" d="M310.6,64.9c2.4,0,4.4,2,4.4,4.4V87c0,2.4-2,4.4-4.4,4.4h-39.8c-2.4,0-4.4-2-4.4-4.4V69.3    c0-2.4,2-4.4,4.4-4.4H310.6 M270.8,80.3h6.6V87h4.4v-6.6h6.6v-4.4h-6.6v-6.6h-4.4v6.6h-6.6V80.3 M310.6,62.3h-39.8    c-3.9,0-7,3.1-7,7V87c0,3.9,3.1,7,7,7h39.8c3.9,0,7-3.1,7-7V69.3C317.6,65.4,314.4,62.3,310.6,62.3L310.6,62.3z"/>
	</g>
	<g>
		<circle class="st12" cx="298.4" cy="81.4" r="3.3"/>
	</g>
	<g>
		<circle class="st12" cx="307.3" cy="74.8" r="3.3"/>
	</g>
</g>
<g>
	<g>
		<path class="st5" d="M865.8,269.1c2.4,0,4.4,2,4.4,4.4v17.7c0,2.4-2,4.4-4.4,4.4H826c-2.4,0-4.4-2-4.4-4.4v-17.7    c0-2.4,2-4.4,4.4-4.4H865.8 M826,284.6h6.6v6.6h4.4v-6.6h6.6v-4.4H837v-6.6h-4.4v6.6H826V284.6 M865.8,266.5H826c-3.9,0-7,3.1-7,7    v17.7c0,3.9,3.1,7,7,7h39.8c3.9,0,7-3.1,7-7v-17.7C872.8,269.7,869.6,266.5,865.8,266.5L865.8,266.5z"/>
	</g>
	<g>
		<circle class="st5" cx="853.6" cy="285.7" r="3.3"/>
	</g>
	<g>
		<circle class="st5" cx="862.5" cy="279.1" r="3.3"/>
	</g>
</g>
</svg>